G04 #@! TF.GenerationSoftware,KiCad,Pcbnew,6.0.0-d3dd2cf0fa~116~ubuntu20.04.1*
G04 #@! TF.CreationDate,2022-01-19T00:38:56+01:00*
G04 #@! TF.ProjectId,OtterPill-CAN,4f747465-7250-4696-9c6c-2d43414e2e6b,rev?*
G04 #@! TF.SameCoordinates,Original*
G04 #@! TF.FileFunction,Copper,L1,Top*
G04 #@! TF.FilePolarity,Positive*
%FSLAX46Y46*%
G04 Gerber Fmt 4.6, Leading zero omitted, Abs format (unit mm)*
G04 Created by KiCad (PCBNEW 6.0.0-d3dd2cf0fa~116~ubuntu20.04.1) date 2022-01-19 00:38:56*
%MOMM*%
%LPD*%
G01*
G04 APERTURE LIST*
G04 Aperture macros list*
%AMRoundRect*
0 Rectangle with rounded corners*
0 $1 Rounding radius*
0 $2 $3 $4 $5 $6 $7 $8 $9 X,Y pos of 4 corners*
0 Add a 4 corners polygon primitive as box body*
4,1,4,$2,$3,$4,$5,$6,$7,$8,$9,$2,$3,0*
0 Add four circle primitives for the rounded corners*
1,1,$1+$1,$2,$3*
1,1,$1+$1,$4,$5*
1,1,$1+$1,$6,$7*
1,1,$1+$1,$8,$9*
0 Add four rect primitives between the rounded corners*
20,1,$1+$1,$2,$3,$4,$5,0*
20,1,$1+$1,$4,$5,$6,$7,0*
20,1,$1+$1,$6,$7,$8,$9,0*
20,1,$1+$1,$8,$9,$2,$3,0*%
G04 Aperture macros list end*
G04 #@! TA.AperFunction,Profile*
%ADD10C,0.050000*%
G04 #@! TD*
G04 #@! TA.AperFunction,ComponentPad*
%ADD11C,1.700000*%
G04 #@! TD*
G04 #@! TA.AperFunction,ComponentPad*
%ADD12O,1.700000X1.700000*%
G04 #@! TD*
G04 #@! TA.AperFunction,SMDPad,CuDef*
%ADD13R,4.500000X1.300000*%
G04 #@! TD*
G04 #@! TA.AperFunction,SMDPad,CuDef*
%ADD14R,1.800000X1.800000*%
G04 #@! TD*
G04 #@! TA.AperFunction,SMDPad,CuDef*
%ADD15RoundRect,0.218750X0.256250X-0.218750X0.256250X0.218750X-0.256250X0.218750X-0.256250X-0.218750X0*%
G04 #@! TD*
G04 #@! TA.AperFunction,SMDPad,CuDef*
%ADD16RoundRect,0.218750X-0.256250X0.218750X-0.256250X-0.218750X0.256250X-0.218750X0.256250X0.218750X0*%
G04 #@! TD*
G04 #@! TA.AperFunction,SMDPad,CuDef*
%ADD17RoundRect,0.150000X-0.825000X-0.150000X0.825000X-0.150000X0.825000X0.150000X-0.825000X0.150000X0*%
G04 #@! TD*
G04 #@! TA.AperFunction,ViaPad*
%ADD18C,0.600000*%
G04 #@! TD*
G04 #@! TA.AperFunction,Conductor*
%ADD19C,0.400000*%
G04 #@! TD*
G04 #@! TA.AperFunction,Conductor*
%ADD20C,0.157000*%
G04 #@! TD*
G04 APERTURE END LIST*
D10*
X62900000Y-37400000D02*
G75*
G03*
X63200000Y-37100000I0J300000D01*
G01*
X63200000Y-20100000D02*
G75*
G03*
X62900000Y-19800000I-300000J0D01*
G01*
X33140000Y-19800000D02*
G75*
G03*
X32530000Y-20410000I0J-610000D01*
G01*
X33320000Y-23405246D02*
X36404426Y-23405246D01*
X32530000Y-22615246D02*
G75*
G03*
X33320000Y-23405246I790000J0D01*
G01*
X37834459Y-24835279D02*
G75*
G03*
X36404426Y-23405246I-1430033J0D01*
G01*
X37834459Y-27430000D02*
X37834459Y-24835279D01*
X50115574Y-35969966D02*
G75*
G03*
X51545608Y-37400000I1430034J0D01*
G01*
X37834459Y-27430000D02*
G75*
G03*
X39264493Y-28860034I1430034J0D01*
G01*
X48685540Y-28860000D02*
X39264493Y-28860034D01*
X50115574Y-30290034D02*
G75*
G03*
X48685540Y-28860000I-1430034J0D01*
G01*
X50115574Y-35969966D02*
X50115574Y-30290034D01*
X32530000Y-20410000D02*
X32530000Y-22615246D01*
X62900000Y-19800000D02*
X33140000Y-19800000D01*
X63200000Y-20100000D02*
X63200000Y-37100000D01*
X51545608Y-37400000D02*
X62900000Y-37400000D01*
D11*
X53900000Y-23900000D03*
X59260000Y-36100000D03*
D12*
X56720000Y-36100000D03*
X54180000Y-36100000D03*
X51640000Y-36100000D03*
D11*
X33860000Y-21100000D03*
D12*
X36400000Y-21100000D03*
X38940000Y-21100000D03*
X41480000Y-21100000D03*
X44020000Y-21100000D03*
X46560000Y-21100000D03*
X49100000Y-21100000D03*
X51640000Y-21100000D03*
X54180000Y-21100000D03*
X56720000Y-21100000D03*
X59260000Y-21100000D03*
D13*
X55490000Y-31100000D03*
X55490000Y-28600000D03*
D14*
X62090000Y-34300000D03*
X62090000Y-22900000D03*
D13*
X55490000Y-26100000D03*
D15*
X42300000Y-25172499D03*
X42300000Y-26747501D03*
D16*
X51350000Y-30072500D03*
X51350000Y-31647500D03*
D17*
X44265000Y-24035000D03*
X44265000Y-25305000D03*
X44265000Y-26575000D03*
X44265000Y-27845000D03*
X49215000Y-27845000D03*
X49215000Y-26575000D03*
X49215000Y-25305000D03*
X49215000Y-24035000D03*
D16*
X51350000Y-28687500D03*
X51350000Y-27112500D03*
X51350000Y-24155000D03*
X51350000Y-25730000D03*
D18*
X57610000Y-27350000D03*
X57620000Y-29850000D03*
X56590000Y-27350000D03*
X56560000Y-29870000D03*
X58280000Y-28610000D03*
X45910000Y-25330000D03*
X46020000Y-27880000D03*
X42350000Y-23850000D03*
X46920000Y-23920000D03*
X56230000Y-24620000D03*
X53720000Y-27330000D03*
X53710000Y-29840000D03*
X40110000Y-23460000D03*
X38050000Y-23590000D03*
X39920000Y-28090000D03*
X54310000Y-33110000D03*
X57660000Y-33420000D03*
X51970000Y-32770000D03*
X47650000Y-27070000D03*
D19*
X42472501Y-26575000D02*
X42300000Y-26747501D01*
X44265000Y-26575000D02*
X42472501Y-26575000D01*
X51640000Y-21100000D02*
X51400000Y-21340000D01*
X51400000Y-24105000D02*
X51350000Y-24155000D01*
X51400000Y-21340000D02*
X51400000Y-22960000D01*
X51400000Y-22960000D02*
X51400000Y-24105000D01*
X42140000Y-22960000D02*
X41170000Y-23930000D01*
X41170000Y-25617501D02*
X42300000Y-26747501D01*
X41170000Y-23930000D02*
X41170000Y-25617501D01*
D20*
X51350000Y-31647500D02*
X51350000Y-32150000D01*
X51350000Y-32150000D02*
X51970000Y-32770000D01*
X47650000Y-22960000D02*
X47650000Y-27070000D01*
D19*
X51400000Y-22960000D02*
X47650000Y-22960000D01*
X47650000Y-22960000D02*
X42140000Y-22960000D01*
D20*
X50540000Y-24620000D02*
X50540000Y-25130000D01*
X50540000Y-25130000D02*
X51350000Y-25940000D01*
X49215000Y-24035000D02*
X49955000Y-24035000D01*
X49955000Y-24035000D02*
X50540000Y-24620000D01*
X51860000Y-25940000D02*
X51350000Y-25940000D01*
X53900000Y-23900000D02*
X51860000Y-25940000D01*
X51737500Y-28897500D02*
X53940000Y-31100000D01*
X53940000Y-31100000D02*
X55490000Y-31100000D01*
X49915000Y-26575000D02*
X50540000Y-27200000D01*
X50540000Y-27910000D02*
X51527500Y-28897500D01*
X49215000Y-26575000D02*
X49915000Y-26575000D01*
X50540000Y-27200000D02*
X50540000Y-27910000D01*
X51527500Y-28897500D02*
X51737500Y-28897500D01*
X53870000Y-26100000D02*
X55490000Y-26100000D01*
X52850000Y-27120000D02*
X53870000Y-26100000D01*
X49895000Y-25305000D02*
X50530000Y-25940000D01*
X50530000Y-25940000D02*
X50530000Y-26270000D01*
X51380000Y-27120000D02*
X52850000Y-27120000D01*
X49215000Y-25305000D02*
X49895000Y-25305000D01*
X50530000Y-26270000D02*
X51380000Y-27120000D01*
X46930000Y-27430000D02*
X46930000Y-24890000D01*
X46075000Y-24035000D02*
X44265000Y-24035000D01*
X50620000Y-32540000D02*
X50620000Y-29740000D01*
X50620000Y-29740000D02*
X49270000Y-28390000D01*
X49270000Y-28390000D02*
X47890000Y-28390000D01*
X47890000Y-28390000D02*
X46930000Y-27430000D01*
X46930000Y-24890000D02*
X46075000Y-24035000D01*
X54180000Y-36100000D02*
X50620000Y-32540000D01*
X33860000Y-22302081D02*
X34317919Y-22760000D01*
X33860000Y-21100000D02*
X33860000Y-22302081D01*
X34317919Y-22760000D02*
X38190000Y-22760000D01*
X38190000Y-22760000D02*
X40040000Y-24610000D01*
X40040000Y-24610000D02*
X40040000Y-27220000D01*
X40665000Y-27845000D02*
X44265000Y-27845000D01*
X40040000Y-27220000D02*
X40665000Y-27845000D01*
X51350000Y-29920000D02*
X51350000Y-30282500D01*
X49215000Y-27845000D02*
X49275000Y-27845000D01*
X49275000Y-27845000D02*
X51350000Y-29920000D01*
G04 #@! TA.AperFunction,Conductor*
G36*
X54007056Y-19975132D02*
G01*
X54033563Y-20021042D01*
X54024357Y-20073250D01*
X53979121Y-20108847D01*
X53904290Y-20130871D01*
X53800758Y-20161342D01*
X53625661Y-20252881D01*
X53622710Y-20255254D01*
X53622708Y-20255255D01*
X53563486Y-20302871D01*
X53471678Y-20376686D01*
X53469243Y-20379588D01*
X53469242Y-20379589D01*
X53351859Y-20519482D01*
X53344676Y-20528042D01*
X53342853Y-20531358D01*
X53342851Y-20531361D01*
X53278641Y-20648158D01*
X53249490Y-20701183D01*
X53189748Y-20889515D01*
X53167724Y-21085865D01*
X53184257Y-21282753D01*
X53238718Y-21472680D01*
X53260499Y-21515061D01*
X53327298Y-21645041D01*
X53327301Y-21645045D01*
X53329031Y-21648412D01*
X53451758Y-21803255D01*
X53454645Y-21805712D01*
X53454647Y-21805714D01*
X53525945Y-21866393D01*
X53602224Y-21931311D01*
X53774697Y-22027703D01*
X53778300Y-22028874D01*
X53778303Y-22028875D01*
X53819157Y-22042149D01*
X53962607Y-22088759D01*
X53966363Y-22089207D01*
X53966368Y-22089208D01*
X54072538Y-22101867D01*
X54158798Y-22112153D01*
X54257298Y-22104574D01*
X54352021Y-22097286D01*
X54352026Y-22097285D01*
X54355797Y-22096995D01*
X54459609Y-22068010D01*
X54542444Y-22044882D01*
X54542446Y-22044881D01*
X54546100Y-22043861D01*
X54722458Y-21954776D01*
X54878154Y-21833133D01*
X55007257Y-21683566D01*
X55104851Y-21511770D01*
X55113838Y-21484755D01*
X55155534Y-21359411D01*
X55702744Y-21359411D01*
X55702905Y-21362488D01*
X55737965Y-21484755D01*
X55740744Y-21491774D01*
X55831401Y-21668174D01*
X55835490Y-21674518D01*
X55958682Y-21829948D01*
X55963927Y-21835380D01*
X56114963Y-21963921D01*
X56121162Y-21968229D01*
X56294284Y-22064984D01*
X56301209Y-22068010D01*
X56453003Y-22117330D01*
X56464138Y-22116941D01*
X56464963Y-22116198D01*
X56466000Y-22112038D01*
X56466000Y-22105622D01*
X56974000Y-22105622D01*
X56977811Y-22116092D01*
X56979539Y-22117089D01*
X56982371Y-22116951D01*
X57097887Y-22084698D01*
X57104932Y-22081965D01*
X57281956Y-21992544D01*
X57288327Y-21988501D01*
X57444618Y-21866393D01*
X57450082Y-21861190D01*
X57579677Y-21711053D01*
X57584027Y-21704887D01*
X57681993Y-21532433D01*
X57685059Y-21525548D01*
X57737812Y-21366967D01*
X57737501Y-21355831D01*
X57736861Y-21355110D01*
X57732474Y-21354000D01*
X56987666Y-21354000D01*
X56977196Y-21357811D01*
X56974000Y-21363347D01*
X56974000Y-22105622D01*
X56466000Y-22105622D01*
X56466000Y-21367666D01*
X56462189Y-21357196D01*
X56456653Y-21354000D01*
X55714137Y-21354000D01*
X55703667Y-21357811D01*
X55702744Y-21359411D01*
X55155534Y-21359411D01*
X55166022Y-21327883D01*
X55166022Y-21327881D01*
X55167217Y-21324290D01*
X55172005Y-21286393D01*
X55178059Y-21238463D01*
X55191980Y-21128267D01*
X55192375Y-21100000D01*
X55173094Y-20903362D01*
X55115987Y-20714214D01*
X55023229Y-20539760D01*
X54906096Y-20396141D01*
X54900750Y-20389586D01*
X54900749Y-20389585D01*
X54898352Y-20386646D01*
X54895434Y-20384232D01*
X54895430Y-20384228D01*
X54749037Y-20263122D01*
X54746113Y-20260703D01*
X54572311Y-20166729D01*
X54551449Y-20160271D01*
X54405401Y-20115062D01*
X54384312Y-20108534D01*
X54342085Y-20076483D01*
X54330340Y-20024787D01*
X54354572Y-19977636D01*
X54407229Y-19957000D01*
X56346705Y-19957000D01*
X56396521Y-19975132D01*
X56423028Y-20021042D01*
X56413822Y-20073250D01*
X56368586Y-20108847D01*
X56328397Y-20120675D01*
X56321402Y-20123502D01*
X56145630Y-20215393D01*
X56139328Y-20219516D01*
X55984748Y-20343802D01*
X55979364Y-20349075D01*
X55851875Y-20501010D01*
X55847613Y-20507233D01*
X55752065Y-20681036D01*
X55749091Y-20687976D01*
X55703094Y-20832974D01*
X55703561Y-20844105D01*
X55704410Y-20845035D01*
X55708340Y-20846000D01*
X57726507Y-20846000D01*
X57736977Y-20842189D01*
X57737753Y-20840846D01*
X57737541Y-20837282D01*
X57696568Y-20701572D01*
X57693689Y-20694589D01*
X57600583Y-20519482D01*
X57596397Y-20513182D01*
X57471053Y-20359494D01*
X57465733Y-20354136D01*
X57312918Y-20227717D01*
X57306657Y-20223494D01*
X57132189Y-20129160D01*
X57125242Y-20126240D01*
X57068043Y-20108534D01*
X57025816Y-20076482D01*
X57014071Y-20024787D01*
X57038303Y-19977636D01*
X57090960Y-19957000D01*
X59037240Y-19957000D01*
X59087056Y-19975132D01*
X59113563Y-20021042D01*
X59104357Y-20073250D01*
X59059121Y-20108847D01*
X58984290Y-20130871D01*
X58880758Y-20161342D01*
X58705661Y-20252881D01*
X58702710Y-20255254D01*
X58702708Y-20255255D01*
X58643486Y-20302871D01*
X58551678Y-20376686D01*
X58549243Y-20379588D01*
X58549242Y-20379589D01*
X58431859Y-20519482D01*
X58424676Y-20528042D01*
X58422853Y-20531358D01*
X58422851Y-20531361D01*
X58358641Y-20648158D01*
X58329490Y-20701183D01*
X58269748Y-20889515D01*
X58247724Y-21085865D01*
X58264257Y-21282753D01*
X58318718Y-21472680D01*
X58340499Y-21515061D01*
X58407298Y-21645041D01*
X58407301Y-21645045D01*
X58409031Y-21648412D01*
X58531758Y-21803255D01*
X58534645Y-21805712D01*
X58534647Y-21805714D01*
X58605945Y-21866393D01*
X58682224Y-21931311D01*
X58854697Y-22027703D01*
X58858300Y-22028874D01*
X58858303Y-22028875D01*
X58899157Y-22042149D01*
X59042607Y-22088759D01*
X59046363Y-22089207D01*
X59046368Y-22089208D01*
X59152538Y-22101867D01*
X59238798Y-22112153D01*
X59337298Y-22104574D01*
X59432021Y-22097286D01*
X59432026Y-22097285D01*
X59435797Y-22096995D01*
X59539609Y-22068010D01*
X59622444Y-22044882D01*
X59622446Y-22044881D01*
X59626100Y-22043861D01*
X59802458Y-21954776D01*
X59958154Y-21833133D01*
X60087257Y-21683566D01*
X60184851Y-21511770D01*
X60193838Y-21484755D01*
X60246022Y-21327883D01*
X60246022Y-21327881D01*
X60247217Y-21324290D01*
X60252005Y-21286393D01*
X60258059Y-21238463D01*
X60271980Y-21128267D01*
X60272375Y-21100000D01*
X60253094Y-20903362D01*
X60195987Y-20714214D01*
X60103229Y-20539760D01*
X59986096Y-20396141D01*
X59980750Y-20389586D01*
X59980749Y-20389585D01*
X59978352Y-20386646D01*
X59975434Y-20384232D01*
X59975430Y-20384228D01*
X59829037Y-20263122D01*
X59826113Y-20260703D01*
X59652311Y-20166729D01*
X59631449Y-20160271D01*
X59485401Y-20115062D01*
X59464312Y-20108534D01*
X59422085Y-20076483D01*
X59410340Y-20024787D01*
X59434572Y-19977636D01*
X59487229Y-19957000D01*
X62869129Y-19957000D01*
X62889187Y-19959641D01*
X62890141Y-19959897D01*
X62890144Y-19959897D01*
X62900000Y-19962538D01*
X62909070Y-19960107D01*
X62922052Y-19961386D01*
X62939608Y-19964879D01*
X62967541Y-19976450D01*
X62988298Y-19990319D01*
X63009681Y-20011702D01*
X63023550Y-20032459D01*
X63035121Y-20060392D01*
X63038614Y-20077948D01*
X63039893Y-20090930D01*
X63037462Y-20100000D01*
X63040103Y-20109856D01*
X63040103Y-20109859D01*
X63040359Y-20110813D01*
X63043000Y-20130871D01*
X63043000Y-21722500D01*
X63024868Y-21772316D01*
X62978958Y-21798823D01*
X62965500Y-21800000D01*
X62357666Y-21800000D01*
X62347196Y-21803811D01*
X62344000Y-21809347D01*
X62344000Y-23986334D01*
X62347811Y-23996804D01*
X62353347Y-24000000D01*
X62965500Y-24000000D01*
X63015316Y-24018132D01*
X63041823Y-24064042D01*
X63043000Y-24077500D01*
X63043000Y-33122500D01*
X63024868Y-33172316D01*
X62978958Y-33198823D01*
X62965500Y-33200000D01*
X62357666Y-33200000D01*
X62347196Y-33203811D01*
X62344000Y-33209347D01*
X62344000Y-35386334D01*
X62347811Y-35396804D01*
X62353347Y-35400000D01*
X62965500Y-35400000D01*
X63015316Y-35418132D01*
X63041823Y-35464042D01*
X63043000Y-35477500D01*
X63043000Y-37069129D01*
X63040359Y-37089187D01*
X63040103Y-37090141D01*
X63040103Y-37090144D01*
X63037462Y-37100000D01*
X63039893Y-37109070D01*
X63038614Y-37122052D01*
X63035121Y-37139608D01*
X63023550Y-37167541D01*
X63009681Y-37188298D01*
X62988298Y-37209681D01*
X62967541Y-37223550D01*
X62939608Y-37235121D01*
X62922052Y-37238614D01*
X62909070Y-37239893D01*
X62900000Y-37237462D01*
X62890144Y-37240103D01*
X62890141Y-37240103D01*
X62889187Y-37240359D01*
X62869129Y-37243000D01*
X59478629Y-37243000D01*
X59428813Y-37224868D01*
X59402306Y-37178958D01*
X59411512Y-37126750D01*
X59452122Y-37092674D01*
X59457788Y-37090855D01*
X59622444Y-37044882D01*
X59622446Y-37044881D01*
X59626100Y-37043861D01*
X59802458Y-36954776D01*
X59958154Y-36833133D01*
X60022706Y-36758349D01*
X60084780Y-36686436D01*
X60084781Y-36686434D01*
X60087257Y-36683566D01*
X60184851Y-36511770D01*
X60193838Y-36484755D01*
X60246022Y-36327883D01*
X60246022Y-36327881D01*
X60247217Y-36324290D01*
X60252005Y-36286393D01*
X60266820Y-36169113D01*
X60271980Y-36128267D01*
X60272375Y-36100000D01*
X60253094Y-35903362D01*
X60195987Y-35714214D01*
X60103229Y-35539760D01*
X59978352Y-35386646D01*
X59975434Y-35384232D01*
X59975430Y-35384228D01*
X59829037Y-35263122D01*
X59826113Y-35260703D01*
X59743231Y-35215889D01*
X60990000Y-35215889D01*
X60990743Y-35223433D01*
X61000115Y-35270550D01*
X61005844Y-35284382D01*
X61041567Y-35337845D01*
X61052155Y-35348433D01*
X61105618Y-35384156D01*
X61119450Y-35389885D01*
X61166567Y-35399257D01*
X61174111Y-35400000D01*
X61822334Y-35400000D01*
X61832804Y-35396189D01*
X61836000Y-35390653D01*
X61836000Y-34567666D01*
X61832189Y-34557196D01*
X61826653Y-34554000D01*
X61003666Y-34554000D01*
X60993196Y-34557811D01*
X60990000Y-34563347D01*
X60990000Y-35215889D01*
X59743231Y-35215889D01*
X59652311Y-35166729D01*
X59640584Y-35163099D01*
X59467185Y-35109423D01*
X59467182Y-35109422D01*
X59463566Y-35108303D01*
X59414987Y-35103197D01*
X59270840Y-35088046D01*
X59270835Y-35088046D01*
X59267068Y-35087650D01*
X59070300Y-35105557D01*
X58880758Y-35161342D01*
X58705661Y-35252881D01*
X58702710Y-35255254D01*
X58702708Y-35255255D01*
X58683685Y-35270550D01*
X58551678Y-35376686D01*
X58549243Y-35379588D01*
X58549242Y-35379589D01*
X58431859Y-35519482D01*
X58424676Y-35528042D01*
X58422853Y-35531358D01*
X58422851Y-35531361D01*
X58358641Y-35648158D01*
X58329490Y-35701183D01*
X58269748Y-35889515D01*
X58247724Y-36085865D01*
X58264257Y-36282753D01*
X58318718Y-36472680D01*
X58340499Y-36515061D01*
X58407298Y-36645041D01*
X58407301Y-36645045D01*
X58409031Y-36648412D01*
X58531758Y-36803255D01*
X58534645Y-36805712D01*
X58534647Y-36805714D01*
X58569505Y-36835380D01*
X58682224Y-36931311D01*
X58854697Y-37027703D01*
X58858300Y-37028874D01*
X58858303Y-37028875D01*
X59039006Y-37087589D01*
X59042607Y-37088759D01*
X59046367Y-37089207D01*
X59049099Y-37089808D01*
X59093860Y-37118213D01*
X59109890Y-37168745D01*
X59089689Y-37217758D01*
X59042709Y-37242319D01*
X59032458Y-37243000D01*
X56938629Y-37243000D01*
X56888813Y-37224868D01*
X56862306Y-37178958D01*
X56871512Y-37126750D01*
X56912122Y-37092674D01*
X56917788Y-37090855D01*
X57082444Y-37044882D01*
X57082446Y-37044881D01*
X57086100Y-37043861D01*
X57262458Y-36954776D01*
X57418154Y-36833133D01*
X57482706Y-36758349D01*
X57544780Y-36686436D01*
X57544781Y-36686434D01*
X57547257Y-36683566D01*
X57644851Y-36511770D01*
X57653838Y-36484755D01*
X57706022Y-36327883D01*
X57706022Y-36327881D01*
X57707217Y-36324290D01*
X57712005Y-36286393D01*
X57726820Y-36169113D01*
X57731980Y-36128267D01*
X57732375Y-36100000D01*
X57713094Y-35903362D01*
X57655987Y-35714214D01*
X57563229Y-35539760D01*
X57438352Y-35386646D01*
X57435434Y-35384232D01*
X57435430Y-35384228D01*
X57289037Y-35263122D01*
X57286113Y-35260703D01*
X57112311Y-35166729D01*
X57100584Y-35163099D01*
X56927185Y-35109423D01*
X56927182Y-35109422D01*
X56923566Y-35108303D01*
X56874987Y-35103197D01*
X56730840Y-35088046D01*
X56730835Y-35088046D01*
X56727068Y-35087650D01*
X56530300Y-35105557D01*
X56340758Y-35161342D01*
X56165661Y-35252881D01*
X56162710Y-35255254D01*
X56162708Y-35255255D01*
X56143685Y-35270550D01*
X56011678Y-35376686D01*
X56009243Y-35379588D01*
X56009242Y-35379589D01*
X55891859Y-35519482D01*
X55884676Y-35528042D01*
X55882853Y-35531358D01*
X55882851Y-35531361D01*
X55818641Y-35648158D01*
X55789490Y-35701183D01*
X55729748Y-35889515D01*
X55707724Y-36085865D01*
X55724257Y-36282753D01*
X55778718Y-36472680D01*
X55800499Y-36515061D01*
X55867298Y-36645041D01*
X55867301Y-36645045D01*
X55869031Y-36648412D01*
X55991758Y-36803255D01*
X55994645Y-36805712D01*
X55994647Y-36805714D01*
X56029505Y-36835380D01*
X56142224Y-36931311D01*
X56314697Y-37027703D01*
X56318300Y-37028874D01*
X56318303Y-37028875D01*
X56499006Y-37087589D01*
X56502607Y-37088759D01*
X56506367Y-37089207D01*
X56509099Y-37089808D01*
X56553860Y-37118213D01*
X56569890Y-37168745D01*
X56549689Y-37217758D01*
X56502709Y-37242319D01*
X56492458Y-37243000D01*
X54398629Y-37243000D01*
X54348813Y-37224868D01*
X54322306Y-37178958D01*
X54331512Y-37126750D01*
X54372122Y-37092674D01*
X54377788Y-37090855D01*
X54542444Y-37044882D01*
X54542446Y-37044881D01*
X54546100Y-37043861D01*
X54722458Y-36954776D01*
X54878154Y-36833133D01*
X54942706Y-36758349D01*
X55004780Y-36686436D01*
X55004781Y-36686434D01*
X55007257Y-36683566D01*
X55104851Y-36511770D01*
X55113838Y-36484755D01*
X55166022Y-36327883D01*
X55166022Y-36327881D01*
X55167217Y-36324290D01*
X55172005Y-36286393D01*
X55186820Y-36169113D01*
X55191980Y-36128267D01*
X55192375Y-36100000D01*
X55173094Y-35903362D01*
X55115987Y-35714214D01*
X55023229Y-35539760D01*
X54898352Y-35386646D01*
X54895434Y-35384232D01*
X54895430Y-35384228D01*
X54749037Y-35263122D01*
X54746113Y-35260703D01*
X54572311Y-35166729D01*
X54560584Y-35163099D01*
X54387185Y-35109423D01*
X54387182Y-35109422D01*
X54383566Y-35108303D01*
X54334987Y-35103197D01*
X54190840Y-35088046D01*
X54190835Y-35088046D01*
X54187068Y-35087650D01*
X53990300Y-35105557D01*
X53800758Y-35161342D01*
X53797400Y-35163098D01*
X53797394Y-35163100D01*
X53703019Y-35212438D01*
X53650472Y-35219449D01*
X53612313Y-35198558D01*
X52446089Y-34032334D01*
X60990000Y-34032334D01*
X60993811Y-34042804D01*
X60999347Y-34046000D01*
X61822334Y-34046000D01*
X61832804Y-34042189D01*
X61836000Y-34036653D01*
X61836000Y-33213666D01*
X61832189Y-33203196D01*
X61826653Y-33200000D01*
X61174111Y-33200000D01*
X61166567Y-33200743D01*
X61119450Y-33210115D01*
X61105618Y-33215844D01*
X61052155Y-33251567D01*
X61041567Y-33262155D01*
X61005844Y-33315618D01*
X61000115Y-33329450D01*
X60990743Y-33376567D01*
X60990000Y-33384111D01*
X60990000Y-34032334D01*
X52446089Y-34032334D01*
X51746342Y-33332587D01*
X51723938Y-33284541D01*
X51737659Y-33233334D01*
X51781085Y-33202927D01*
X51824254Y-33203812D01*
X51844429Y-33210115D01*
X51896102Y-33226259D01*
X51953462Y-33227311D01*
X52021607Y-33228560D01*
X52021609Y-33228560D01*
X52027129Y-33228661D01*
X52153564Y-33194191D01*
X52265242Y-33125620D01*
X52277597Y-33111971D01*
X52349480Y-33032555D01*
X52353185Y-33028462D01*
X52410325Y-32910526D01*
X52432067Y-32781293D01*
X52432205Y-32770000D01*
X52431397Y-32764353D01*
X52414410Y-32645740D01*
X52414410Y-32645739D01*
X52413627Y-32640274D01*
X52409089Y-32630292D01*
X52365231Y-32533832D01*
X52359386Y-32520977D01*
X52273842Y-32421699D01*
X52265043Y-32415996D01*
X58095814Y-32415996D01*
X58098359Y-32470977D01*
X58100906Y-32526005D01*
X58105523Y-32625767D01*
X58154724Y-32829918D01*
X58241640Y-33021081D01*
X58363137Y-33192360D01*
X58365796Y-33194906D01*
X58365800Y-33194910D01*
X58491894Y-33315618D01*
X58514831Y-33337575D01*
X58517927Y-33339574D01*
X58517932Y-33339578D01*
X58688148Y-33449485D01*
X58688151Y-33449486D01*
X58691246Y-33451485D01*
X58886019Y-33529981D01*
X59092122Y-33570230D01*
X59094911Y-33570366D01*
X59094916Y-33570367D01*
X59095919Y-33570416D01*
X59097643Y-33570500D01*
X59252469Y-33570500D01*
X59254298Y-33570325D01*
X59254308Y-33570325D01*
X59405381Y-33555911D01*
X59405384Y-33555910D01*
X59409046Y-33555561D01*
X59610549Y-33496447D01*
X59654336Y-33473895D01*
X59793959Y-33401985D01*
X59793964Y-33401982D01*
X59797239Y-33400295D01*
X59944601Y-33284541D01*
X59959477Y-33272856D01*
X59959480Y-33272853D01*
X59962379Y-33270576D01*
X60088166Y-33125620D01*
X60097592Y-33114758D01*
X60097594Y-33114755D01*
X60100010Y-33111971D01*
X60154536Y-33017719D01*
X60203318Y-32933396D01*
X60203319Y-32933393D01*
X60205166Y-32930201D01*
X60257914Y-32778302D01*
X60272843Y-32735311D01*
X60272843Y-32735309D01*
X60274053Y-32731826D01*
X60279574Y-32693749D01*
X60303656Y-32527660D01*
X60303656Y-32527659D01*
X60304186Y-32524004D01*
X60295950Y-32346060D01*
X60294648Y-32317917D01*
X60294647Y-32317912D01*
X60294477Y-32314233D01*
X60245276Y-32110082D01*
X60158360Y-31918919D01*
X60036863Y-31747640D01*
X60034204Y-31745094D01*
X60034200Y-31745090D01*
X59887836Y-31604978D01*
X59887835Y-31604978D01*
X59885169Y-31602425D01*
X59882073Y-31600426D01*
X59882068Y-31600422D01*
X59711852Y-31490515D01*
X59711849Y-31490514D01*
X59708754Y-31488515D01*
X59513981Y-31410019D01*
X59307878Y-31369770D01*
X59305089Y-31369634D01*
X59305084Y-31369633D01*
X59304081Y-31369584D01*
X59302357Y-31369500D01*
X59147531Y-31369500D01*
X59145702Y-31369675D01*
X59145692Y-31369675D01*
X58994619Y-31384089D01*
X58994616Y-31384090D01*
X58990954Y-31384439D01*
X58789451Y-31443553D01*
X58786172Y-31445242D01*
X58606041Y-31538015D01*
X58606036Y-31538018D01*
X58602761Y-31539705D01*
X58525465Y-31600422D01*
X58440523Y-31667144D01*
X58440520Y-31667147D01*
X58437621Y-31669424D01*
X58435203Y-31672211D01*
X58308864Y-31817803D01*
X58299990Y-31828029D01*
X58298141Y-31831224D01*
X58298141Y-31831225D01*
X58211709Y-31980630D01*
X58194834Y-32009799D01*
X58125947Y-32208174D01*
X58125418Y-32211821D01*
X58125418Y-32211822D01*
X58107794Y-32333375D01*
X58095814Y-32415996D01*
X52265043Y-32415996D01*
X52163873Y-32350421D01*
X52038318Y-32312872D01*
X52032799Y-32312838D01*
X52032797Y-32312838D01*
X51971315Y-32312462D01*
X51907272Y-32312071D01*
X51901958Y-32313590D01*
X51896496Y-32314338D01*
X51896271Y-32312699D01*
X51850445Y-32309449D01*
X51827236Y-32293481D01*
X51823320Y-32289565D01*
X51800916Y-32241519D01*
X51814637Y-32190312D01*
X51828349Y-32176456D01*
X51828303Y-32176410D01*
X51890938Y-32113665D01*
X51916797Y-32087761D01*
X51971805Y-31975227D01*
X51979529Y-31922281D01*
X51982094Y-31904700D01*
X51982094Y-31904696D01*
X51982500Y-31901915D01*
X51982499Y-31393086D01*
X51971614Y-31319135D01*
X51916410Y-31206697D01*
X51827761Y-31118203D01*
X51715227Y-31063195D01*
X51686840Y-31059054D01*
X51644700Y-31052906D01*
X51644696Y-31052906D01*
X51641915Y-31052500D01*
X51350828Y-31052500D01*
X51058086Y-31052501D01*
X50984135Y-31063386D01*
X50967655Y-31071477D01*
X50914949Y-31077157D01*
X50870921Y-31047628D01*
X50856000Y-31001910D01*
X50856000Y-30718005D01*
X50874132Y-30668189D01*
X50920042Y-30641682D01*
X50967535Y-30648379D01*
X50984773Y-30656805D01*
X51013160Y-30660946D01*
X51055300Y-30667094D01*
X51055304Y-30667094D01*
X51058085Y-30667500D01*
X51349172Y-30667500D01*
X51641914Y-30667499D01*
X51715865Y-30656614D01*
X51721275Y-30653958D01*
X51822554Y-30604233D01*
X51822556Y-30604232D01*
X51828303Y-30601410D01*
X51916797Y-30512761D01*
X51955059Y-30434486D01*
X51969164Y-30405630D01*
X51971805Y-30400227D01*
X51982500Y-30326915D01*
X51982499Y-29818086D01*
X51971614Y-29744135D01*
X51955880Y-29712088D01*
X51919233Y-29637446D01*
X51919232Y-29637444D01*
X51916410Y-29631697D01*
X51827761Y-29543203D01*
X51715227Y-29488195D01*
X51686840Y-29484054D01*
X51644700Y-29477906D01*
X51644696Y-29477906D01*
X51641915Y-29477500D01*
X51609635Y-29477500D01*
X51273358Y-29477501D01*
X51223542Y-29459370D01*
X51218557Y-29454802D01*
X51178556Y-29414801D01*
X51156152Y-29366755D01*
X51169873Y-29315548D01*
X51213299Y-29285141D01*
X51233357Y-29282500D01*
X51632640Y-29282499D01*
X51641914Y-29282499D01*
X51670267Y-29278326D01*
X51709910Y-29272491D01*
X51709913Y-29272490D01*
X51715865Y-29271614D01*
X51718906Y-29270121D01*
X51770672Y-29272596D01*
X51795517Y-29289272D01*
X53059801Y-30553555D01*
X53082205Y-30601601D01*
X53082500Y-30608356D01*
X53082500Y-31765514D01*
X53083243Y-31769249D01*
X53090148Y-31803966D01*
X53090149Y-31803969D01*
X53091638Y-31811454D01*
X53126449Y-31863551D01*
X53178546Y-31898362D01*
X53186031Y-31899851D01*
X53186034Y-31899852D01*
X53210409Y-31904700D01*
X53224486Y-31907500D01*
X57755514Y-31907500D01*
X57769591Y-31904700D01*
X57793966Y-31899852D01*
X57793969Y-31899851D01*
X57801454Y-31898362D01*
X57853551Y-31863551D01*
X57888362Y-31811454D01*
X57889851Y-31803969D01*
X57889852Y-31803966D01*
X57896757Y-31769249D01*
X57897500Y-31765514D01*
X57897500Y-30434486D01*
X57896026Y-30427076D01*
X57889852Y-30396034D01*
X57889851Y-30396031D01*
X57888362Y-30388546D01*
X57853551Y-30336449D01*
X57801454Y-30301638D01*
X57793969Y-30300149D01*
X57793966Y-30300148D01*
X57759249Y-30293243D01*
X57759250Y-30293243D01*
X57755514Y-30292500D01*
X53498357Y-30292500D01*
X53448541Y-30274368D01*
X53443556Y-30269801D01*
X53049751Y-29875996D01*
X58095814Y-29875996D01*
X58105523Y-30085767D01*
X58154724Y-30289918D01*
X58241640Y-30481081D01*
X58363137Y-30652360D01*
X58365796Y-30654906D01*
X58365800Y-30654910D01*
X58447224Y-30732856D01*
X58514831Y-30797575D01*
X58517927Y-30799574D01*
X58517932Y-30799578D01*
X58688148Y-30909485D01*
X58688151Y-30909486D01*
X58691246Y-30911485D01*
X58886019Y-30989981D01*
X59092122Y-31030230D01*
X59094911Y-31030366D01*
X59094916Y-31030367D01*
X59095919Y-31030416D01*
X59097643Y-31030500D01*
X59252469Y-31030500D01*
X59254298Y-31030325D01*
X59254308Y-31030325D01*
X59405381Y-31015911D01*
X59405384Y-31015910D01*
X59409046Y-31015561D01*
X59610549Y-30956447D01*
X59654336Y-30933895D01*
X59793959Y-30861985D01*
X59793964Y-30861982D01*
X59797239Y-30860295D01*
X59880335Y-30795022D01*
X59959477Y-30732856D01*
X59959480Y-30732853D01*
X59962379Y-30730576D01*
X60068437Y-30608356D01*
X60097592Y-30574758D01*
X60097594Y-30574755D01*
X60100010Y-30571971D01*
X60179547Y-30434486D01*
X60203318Y-30393396D01*
X60203319Y-30393393D01*
X60205166Y-30390201D01*
X60274053Y-30191826D01*
X60288689Y-30090887D01*
X60303656Y-29987660D01*
X60303656Y-29987659D01*
X60304186Y-29984004D01*
X60301559Y-29927244D01*
X60294648Y-29777917D01*
X60294647Y-29777912D01*
X60294477Y-29774233D01*
X60245276Y-29570082D01*
X60158360Y-29378919D01*
X60149732Y-29366755D01*
X60083533Y-29273433D01*
X60036863Y-29207640D01*
X60034204Y-29205094D01*
X60034200Y-29205090D01*
X59887836Y-29064978D01*
X59887835Y-29064978D01*
X59885169Y-29062425D01*
X59882073Y-29060426D01*
X59882068Y-29060422D01*
X59711852Y-28950515D01*
X59711849Y-28950514D01*
X59708754Y-28948515D01*
X59513981Y-28870019D01*
X59307878Y-28829770D01*
X59305089Y-28829634D01*
X59305084Y-28829633D01*
X59304081Y-28829584D01*
X59302357Y-28829500D01*
X59147531Y-28829500D01*
X59145702Y-28829675D01*
X59145692Y-28829675D01*
X58994619Y-28844089D01*
X58994616Y-28844090D01*
X58990954Y-28844439D01*
X58789451Y-28903553D01*
X58786172Y-28905242D01*
X58606041Y-28998015D01*
X58606036Y-28998018D01*
X58602761Y-28999705D01*
X58573650Y-29022572D01*
X58440523Y-29127144D01*
X58440520Y-29127147D01*
X58437621Y-29129424D01*
X58435203Y-29132211D01*
X58304788Y-29282500D01*
X58299990Y-29288029D01*
X58298141Y-29291224D01*
X58298141Y-29291225D01*
X58206718Y-29449257D01*
X58194834Y-29469799D01*
X58192019Y-29477906D01*
X58140185Y-29627174D01*
X58125947Y-29668174D01*
X58125418Y-29671821D01*
X58125418Y-29671822D01*
X58115718Y-29738725D01*
X58095814Y-29875996D01*
X53049751Y-29875996D01*
X52439644Y-29265889D01*
X53040000Y-29265889D01*
X53040743Y-29273433D01*
X53050115Y-29320550D01*
X53055844Y-29334382D01*
X53091567Y-29387845D01*
X53102155Y-29398433D01*
X53155618Y-29434156D01*
X53169450Y-29439885D01*
X53216567Y-29449257D01*
X53224111Y-29450000D01*
X55222334Y-29450000D01*
X55232804Y-29446189D01*
X55236000Y-29440653D01*
X55236000Y-29436334D01*
X55744000Y-29436334D01*
X55747811Y-29446804D01*
X55753347Y-29450000D01*
X57755889Y-29450000D01*
X57763433Y-29449257D01*
X57810550Y-29439885D01*
X57824382Y-29434156D01*
X57877845Y-29398433D01*
X57888433Y-29387845D01*
X57924156Y-29334382D01*
X57929885Y-29320550D01*
X57939257Y-29273433D01*
X57940000Y-29265889D01*
X57940000Y-28867666D01*
X57936189Y-28857196D01*
X57930653Y-28854000D01*
X55757666Y-28854000D01*
X55747196Y-28857811D01*
X55744000Y-28863347D01*
X55744000Y-29436334D01*
X55236000Y-29436334D01*
X55236000Y-28867666D01*
X55232189Y-28857196D01*
X55226653Y-28854000D01*
X53053666Y-28854000D01*
X53043196Y-28857811D01*
X53040000Y-28863347D01*
X53040000Y-29265889D01*
X52439644Y-29265889D01*
X52005199Y-28831444D01*
X51982795Y-28783398D01*
X51982500Y-28776643D01*
X51982499Y-28435915D01*
X51982499Y-28433086D01*
X51971614Y-28359135D01*
X51959338Y-28334132D01*
X51958455Y-28332334D01*
X53040000Y-28332334D01*
X53043811Y-28342804D01*
X53049347Y-28346000D01*
X55222334Y-28346000D01*
X55232804Y-28342189D01*
X55236000Y-28336653D01*
X55236000Y-28332334D01*
X55744000Y-28332334D01*
X55747811Y-28342804D01*
X55753347Y-28346000D01*
X57926334Y-28346000D01*
X57936804Y-28342189D01*
X57940000Y-28336653D01*
X57940000Y-27934111D01*
X57939257Y-27926567D01*
X57929885Y-27879450D01*
X57924156Y-27865618D01*
X57888433Y-27812155D01*
X57877845Y-27801567D01*
X57824382Y-27765844D01*
X57810550Y-27760115D01*
X57763433Y-27750743D01*
X57755889Y-27750000D01*
X55757666Y-27750000D01*
X55747196Y-27753811D01*
X55744000Y-27759347D01*
X55744000Y-28332334D01*
X55236000Y-28332334D01*
X55236000Y-27763666D01*
X55232189Y-27753196D01*
X55226653Y-27750000D01*
X53224111Y-27750000D01*
X53216567Y-27750743D01*
X53169450Y-27760115D01*
X53155618Y-27765844D01*
X53102155Y-27801567D01*
X53091567Y-27812155D01*
X53055844Y-27865618D01*
X53050115Y-27879450D01*
X53040743Y-27926567D01*
X53040000Y-27934111D01*
X53040000Y-28332334D01*
X51958455Y-28332334D01*
X51919233Y-28252446D01*
X51919232Y-28252444D01*
X51916410Y-28246697D01*
X51827761Y-28158203D01*
X51727829Y-28109355D01*
X51720630Y-28105836D01*
X51715227Y-28103195D01*
X51685402Y-28098844D01*
X51644700Y-28092906D01*
X51644696Y-28092906D01*
X51641915Y-28092500D01*
X51592276Y-28092500D01*
X51088358Y-28092501D01*
X51038542Y-28074370D01*
X51033557Y-28069802D01*
X50798699Y-27834944D01*
X50776295Y-27786898D01*
X50776000Y-27780143D01*
X50776000Y-27718900D01*
X50794132Y-27669084D01*
X50840042Y-27642577D01*
X50887532Y-27649273D01*
X50984773Y-27696805D01*
X51013160Y-27700946D01*
X51055300Y-27707094D01*
X51055304Y-27707094D01*
X51058085Y-27707500D01*
X51349172Y-27707500D01*
X51641914Y-27707499D01*
X51715865Y-27696614D01*
X51721275Y-27693958D01*
X51822554Y-27644233D01*
X51822556Y-27644232D01*
X51828303Y-27641410D01*
X51916797Y-27552761D01*
X51971805Y-27440227D01*
X51974419Y-27422310D01*
X51999553Y-27375634D01*
X52051107Y-27356000D01*
X52841799Y-27356000D01*
X52845855Y-27356106D01*
X52879609Y-27357875D01*
X52879610Y-27357875D01*
X52887743Y-27358301D01*
X52911539Y-27349167D01*
X52923199Y-27345713D01*
X52940169Y-27342106D01*
X52948134Y-27340413D01*
X52954214Y-27335996D01*
X58095814Y-27335996D01*
X58096424Y-27349167D01*
X58105040Y-27535323D01*
X58105523Y-27545767D01*
X58154724Y-27749918D01*
X58241640Y-27941081D01*
X58363137Y-28112360D01*
X58365796Y-28114906D01*
X58365800Y-28114910D01*
X58509473Y-28252446D01*
X58514831Y-28257575D01*
X58517927Y-28259574D01*
X58517932Y-28259578D01*
X58688148Y-28369485D01*
X58688151Y-28369486D01*
X58691246Y-28371485D01*
X58747917Y-28394324D01*
X58877635Y-28446602D01*
X58886019Y-28449981D01*
X59092122Y-28490230D01*
X59094911Y-28490366D01*
X59094916Y-28490367D01*
X59095919Y-28490416D01*
X59097643Y-28490500D01*
X59252469Y-28490500D01*
X59254298Y-28490325D01*
X59254308Y-28490325D01*
X59405381Y-28475911D01*
X59405384Y-28475910D01*
X59409046Y-28475561D01*
X59610549Y-28416447D01*
X59654336Y-28393895D01*
X59793959Y-28321985D01*
X59793964Y-28321982D01*
X59797239Y-28320295D01*
X59889195Y-28248063D01*
X59959477Y-28192856D01*
X59959480Y-28192853D01*
X59962379Y-28190576D01*
X60064205Y-28073233D01*
X60097592Y-28034758D01*
X60097594Y-28034755D01*
X60100010Y-28031971D01*
X60156623Y-27934111D01*
X60203318Y-27853396D01*
X60203319Y-27853393D01*
X60205166Y-27850201D01*
X60268060Y-27669084D01*
X60272843Y-27655311D01*
X60272843Y-27655309D01*
X60274053Y-27651826D01*
X60277789Y-27626057D01*
X60303656Y-27447660D01*
X60303656Y-27447659D01*
X60304186Y-27444004D01*
X60299797Y-27349167D01*
X60294648Y-27237917D01*
X60294647Y-27237912D01*
X60294477Y-27234233D01*
X60245276Y-27030082D01*
X60158360Y-26838919D01*
X60036863Y-26667640D01*
X60034204Y-26665094D01*
X60034200Y-26665090D01*
X59887836Y-26524978D01*
X59887835Y-26524978D01*
X59885169Y-26522425D01*
X59882073Y-26520426D01*
X59882068Y-26520422D01*
X59711852Y-26410515D01*
X59711849Y-26410514D01*
X59708754Y-26408515D01*
X59569771Y-26352503D01*
X59517408Y-26331400D01*
X59517407Y-26331400D01*
X59513981Y-26330019D01*
X59307878Y-26289770D01*
X59305089Y-26289634D01*
X59305084Y-26289633D01*
X59304081Y-26289584D01*
X59302357Y-26289500D01*
X59147531Y-26289500D01*
X59145702Y-26289675D01*
X59145692Y-26289675D01*
X58994619Y-26304089D01*
X58994616Y-26304090D01*
X58990954Y-26304439D01*
X58789451Y-26363553D01*
X58786172Y-26365242D01*
X58606041Y-26458015D01*
X58606036Y-26458018D01*
X58602761Y-26459705D01*
X58552265Y-26499370D01*
X58440523Y-26587144D01*
X58440520Y-26587147D01*
X58437621Y-26589424D01*
X58386446Y-26648398D01*
X58306225Y-26740844D01*
X58299990Y-26748029D01*
X58298141Y-26751224D01*
X58298141Y-26751225D01*
X58207564Y-26907795D01*
X58194834Y-26929799D01*
X58178074Y-26978063D01*
X58139154Y-27090143D01*
X58125947Y-27128174D01*
X58125418Y-27131821D01*
X58125418Y-27131822D01*
X58096422Y-27331806D01*
X58095814Y-27335996D01*
X52954214Y-27335996D01*
X52955323Y-27335190D01*
X52973105Y-27325535D01*
X52973804Y-27325267D01*
X52973806Y-27325266D01*
X52981407Y-27322348D01*
X52999435Y-27304320D01*
X53008682Y-27296422D01*
X53022711Y-27286229D01*
X53029300Y-27281442D01*
X53033743Y-27273747D01*
X53046057Y-27257698D01*
X53373556Y-26930199D01*
X53421602Y-26907795D01*
X53428357Y-26907500D01*
X57755514Y-26907500D01*
X57762924Y-26906026D01*
X57793966Y-26899852D01*
X57793969Y-26899851D01*
X57801454Y-26898362D01*
X57853551Y-26863551D01*
X57888362Y-26811454D01*
X57889851Y-26803969D01*
X57889852Y-26803966D01*
X57896757Y-26769249D01*
X57897500Y-26765514D01*
X57897500Y-25434486D01*
X57896026Y-25427076D01*
X57889852Y-25396034D01*
X57889851Y-25396031D01*
X57888362Y-25388546D01*
X57853551Y-25336449D01*
X57801454Y-25301638D01*
X57793969Y-25300149D01*
X57793966Y-25300148D01*
X57759249Y-25293243D01*
X57759250Y-25293243D01*
X57755514Y-25292500D01*
X53224486Y-25292500D01*
X53220750Y-25293243D01*
X53220751Y-25293243D01*
X53186034Y-25300148D01*
X53186031Y-25300149D01*
X53178546Y-25301638D01*
X53126449Y-25336449D01*
X53091638Y-25388546D01*
X53090149Y-25396031D01*
X53090148Y-25396034D01*
X53083974Y-25427076D01*
X53082500Y-25434486D01*
X53082500Y-26521643D01*
X53064368Y-26571459D01*
X53059801Y-26576444D01*
X52774944Y-26861301D01*
X52726898Y-26883705D01*
X52720143Y-26884000D01*
X52053241Y-26884000D01*
X52003425Y-26865868D01*
X51976567Y-26817785D01*
X51972492Y-26790096D01*
X51972491Y-26790092D01*
X51971614Y-26784135D01*
X51965010Y-26770684D01*
X51919233Y-26677446D01*
X51919232Y-26677444D01*
X51916410Y-26671697D01*
X51827761Y-26583203D01*
X51715227Y-26528195D01*
X51675675Y-26522425D01*
X51644700Y-26517906D01*
X51644696Y-26517906D01*
X51641915Y-26517500D01*
X51599161Y-26517500D01*
X51143357Y-26517501D01*
X51093541Y-26499370D01*
X51088556Y-26494802D01*
X51051055Y-26457301D01*
X51028651Y-26409255D01*
X51042372Y-26358048D01*
X51085798Y-26327641D01*
X51105856Y-26325000D01*
X51609273Y-26324999D01*
X51641914Y-26324999D01*
X51715865Y-26314114D01*
X51736284Y-26304089D01*
X51822554Y-26261733D01*
X51822556Y-26261732D01*
X51828303Y-26258910D01*
X51901897Y-26185187D01*
X51940633Y-26164134D01*
X51950165Y-26162108D01*
X51950170Y-26162106D01*
X51958134Y-26160413D01*
X51965323Y-26155190D01*
X51983105Y-26145535D01*
X51983804Y-26145267D01*
X51983806Y-26145266D01*
X51991407Y-26142348D01*
X52009435Y-26124320D01*
X52018682Y-26116422D01*
X52032711Y-26106229D01*
X52039300Y-26101442D01*
X52043743Y-26093747D01*
X52056057Y-26077698D01*
X53332239Y-24801516D01*
X53380285Y-24779112D01*
X53424848Y-24788666D01*
X53432781Y-24793099D01*
X53491384Y-24825852D01*
X53491389Y-24825854D01*
X53494697Y-24827703D01*
X53498300Y-24828874D01*
X53498303Y-24828875D01*
X53556429Y-24847761D01*
X53682607Y-24888759D01*
X53686363Y-24889207D01*
X53686368Y-24889208D01*
X53779503Y-24900313D01*
X53878798Y-24912153D01*
X53977298Y-24904574D01*
X54072021Y-24897286D01*
X54072026Y-24897285D01*
X54075797Y-24896995D01*
X54079447Y-24895976D01*
X54262444Y-24844882D01*
X54262446Y-24844881D01*
X54266100Y-24843861D01*
X54349929Y-24801516D01*
X54360857Y-24795996D01*
X58095814Y-24795996D01*
X58097336Y-24828875D01*
X58105263Y-25000143D01*
X58105523Y-25005767D01*
X58154724Y-25209918D01*
X58241640Y-25401081D01*
X58363137Y-25572360D01*
X58365796Y-25574906D01*
X58365800Y-25574910D01*
X58509280Y-25712261D01*
X58514831Y-25717575D01*
X58517927Y-25719574D01*
X58517932Y-25719578D01*
X58688148Y-25829485D01*
X58688151Y-25829486D01*
X58691246Y-25831485D01*
X58886019Y-25909981D01*
X59092122Y-25950230D01*
X59094911Y-25950366D01*
X59094916Y-25950367D01*
X59095919Y-25950416D01*
X59097643Y-25950500D01*
X59252469Y-25950500D01*
X59254298Y-25950325D01*
X59254308Y-25950325D01*
X59405381Y-25935911D01*
X59405384Y-25935910D01*
X59409046Y-25935561D01*
X59610549Y-25876447D01*
X59680156Y-25840597D01*
X59793959Y-25781985D01*
X59793964Y-25781982D01*
X59797239Y-25780295D01*
X59940331Y-25667895D01*
X59959477Y-25652856D01*
X59959480Y-25652853D01*
X59962379Y-25650576D01*
X60071020Y-25525379D01*
X60097592Y-25494758D01*
X60097594Y-25494755D01*
X60100010Y-25491971D01*
X60133266Y-25434486D01*
X60203318Y-25313396D01*
X60203319Y-25313393D01*
X60205166Y-25310201D01*
X60259904Y-25152572D01*
X60272843Y-25115311D01*
X60272843Y-25115309D01*
X60274053Y-25111826D01*
X60288367Y-25013102D01*
X60303656Y-24907660D01*
X60303656Y-24907659D01*
X60304186Y-24904004D01*
X60300690Y-24828461D01*
X60294648Y-24697917D01*
X60294647Y-24697912D01*
X60294477Y-24694233D01*
X60245276Y-24490082D01*
X60158360Y-24298919D01*
X60036863Y-24127640D01*
X60034204Y-24125094D01*
X60034200Y-24125090D01*
X59887836Y-23984978D01*
X59887835Y-23984978D01*
X59885169Y-23982425D01*
X59882073Y-23980426D01*
X59882068Y-23980422D01*
X59711852Y-23870515D01*
X59711849Y-23870514D01*
X59708754Y-23868515D01*
X59578173Y-23815889D01*
X60990000Y-23815889D01*
X60990743Y-23823433D01*
X61000115Y-23870550D01*
X61005844Y-23884382D01*
X61041567Y-23937845D01*
X61052155Y-23948433D01*
X61105618Y-23984156D01*
X61119450Y-23989885D01*
X61166567Y-23999257D01*
X61174111Y-24000000D01*
X61822334Y-24000000D01*
X61832804Y-23996189D01*
X61836000Y-23990653D01*
X61836000Y-23167666D01*
X61832189Y-23157196D01*
X61826653Y-23154000D01*
X61003666Y-23154000D01*
X60993196Y-23157811D01*
X60990000Y-23163347D01*
X60990000Y-23815889D01*
X59578173Y-23815889D01*
X59559496Y-23808362D01*
X59517408Y-23791400D01*
X59517407Y-23791400D01*
X59513981Y-23790019D01*
X59307878Y-23749770D01*
X59305089Y-23749634D01*
X59305084Y-23749633D01*
X59304081Y-23749584D01*
X59302357Y-23749500D01*
X59147531Y-23749500D01*
X59145702Y-23749675D01*
X59145692Y-23749675D01*
X58994619Y-23764089D01*
X58994616Y-23764090D01*
X58990954Y-23764439D01*
X58789451Y-23823553D01*
X58778023Y-23829439D01*
X58606041Y-23918015D01*
X58606036Y-23918018D01*
X58602761Y-23919705D01*
X58583151Y-23935109D01*
X58440523Y-24047144D01*
X58440520Y-24047147D01*
X58437621Y-24049424D01*
X58372655Y-24124290D01*
X58331353Y-24171887D01*
X58299990Y-24208029D01*
X58298141Y-24211224D01*
X58298141Y-24211225D01*
X58208140Y-24366799D01*
X58194834Y-24389799D01*
X58165999Y-24472835D01*
X58141167Y-24544346D01*
X58125947Y-24588174D01*
X58125418Y-24591821D01*
X58125418Y-24591822D01*
X58100458Y-24763970D01*
X58095814Y-24795996D01*
X54360857Y-24795996D01*
X54439073Y-24756486D01*
X54439074Y-24756485D01*
X54442458Y-24754776D01*
X54598154Y-24633133D01*
X54681306Y-24536801D01*
X54724780Y-24486436D01*
X54724781Y-24486434D01*
X54727257Y-24483566D01*
X54824851Y-24311770D01*
X54830127Y-24295909D01*
X54886022Y-24127883D01*
X54886022Y-24127881D01*
X54887217Y-24124290D01*
X54888209Y-24116444D01*
X54903322Y-23996804D01*
X54911980Y-23928267D01*
X54912212Y-23911659D01*
X54912345Y-23902168D01*
X54912345Y-23902163D01*
X54912375Y-23900000D01*
X54912160Y-23897800D01*
X54897957Y-23752961D01*
X54893094Y-23703362D01*
X54835987Y-23514214D01*
X54743229Y-23339760D01*
X54618352Y-23186646D01*
X54615434Y-23184232D01*
X54615430Y-23184228D01*
X54469037Y-23063122D01*
X54466113Y-23060703D01*
X54292311Y-22966729D01*
X54280584Y-22963099D01*
X54107185Y-22909423D01*
X54107182Y-22909422D01*
X54103566Y-22908303D01*
X54054987Y-22903197D01*
X53910840Y-22888046D01*
X53910835Y-22888046D01*
X53907068Y-22887650D01*
X53710300Y-22905557D01*
X53520758Y-22961342D01*
X53345661Y-23052881D01*
X53342710Y-23055254D01*
X53342708Y-23055255D01*
X53298805Y-23090554D01*
X53191678Y-23176686D01*
X53189243Y-23179588D01*
X53189242Y-23179589D01*
X53120952Y-23260975D01*
X53064676Y-23328042D01*
X53062853Y-23331358D01*
X53062851Y-23331361D01*
X53056199Y-23343461D01*
X52969490Y-23501183D01*
X52909748Y-23689515D01*
X52887724Y-23885865D01*
X52904257Y-24082753D01*
X52958718Y-24272680D01*
X53012609Y-24377541D01*
X53019253Y-24430135D01*
X52998480Y-24467766D01*
X52078853Y-25387392D01*
X52030807Y-25409796D01*
X51979600Y-25396075D01*
X51954485Y-25366747D01*
X51919233Y-25294946D01*
X51919232Y-25294944D01*
X51916410Y-25289197D01*
X51827761Y-25200703D01*
X51715227Y-25145695D01*
X51686840Y-25141554D01*
X51644700Y-25135406D01*
X51644696Y-25135406D01*
X51641915Y-25135000D01*
X51350828Y-25135000D01*
X51058086Y-25135001D01*
X50984135Y-25145886D01*
X50970517Y-25152572D01*
X50917812Y-25158252D01*
X50881561Y-25137806D01*
X50798699Y-25054944D01*
X50776295Y-25006898D01*
X50776000Y-25000143D01*
X50776000Y-24761400D01*
X50794132Y-24711584D01*
X50840042Y-24685077D01*
X50887532Y-24691773D01*
X50984773Y-24739305D01*
X51010801Y-24743102D01*
X51055300Y-24749594D01*
X51055304Y-24749594D01*
X51058085Y-24750000D01*
X51349172Y-24750000D01*
X51641914Y-24749999D01*
X51715865Y-24739114D01*
X51731736Y-24731322D01*
X51822554Y-24686733D01*
X51822556Y-24686732D01*
X51828303Y-24683910D01*
X51916797Y-24595261D01*
X51955932Y-24515199D01*
X51969164Y-24488130D01*
X51971805Y-24482727D01*
X51977205Y-24445712D01*
X51982094Y-24412200D01*
X51982094Y-24412196D01*
X51982500Y-24409415D01*
X51982499Y-23900586D01*
X51971614Y-23826635D01*
X51968958Y-23821225D01*
X51919233Y-23719946D01*
X51919232Y-23719944D01*
X51916410Y-23714197D01*
X51827761Y-23625703D01*
X51800965Y-23612605D01*
X51764173Y-23574438D01*
X51757500Y-23542978D01*
X51757500Y-22979087D01*
X51757789Y-22972399D01*
X51758381Y-22965562D01*
X51761326Y-22931563D01*
X51759782Y-22925346D01*
X51759778Y-22925299D01*
X51757500Y-22906680D01*
X51757500Y-22632334D01*
X60990000Y-22632334D01*
X60993811Y-22642804D01*
X60999347Y-22646000D01*
X61822334Y-22646000D01*
X61832804Y-22642189D01*
X61836000Y-22636653D01*
X61836000Y-21813666D01*
X61832189Y-21803196D01*
X61826653Y-21800000D01*
X61174111Y-21800000D01*
X61166567Y-21800743D01*
X61119450Y-21810115D01*
X61105618Y-21815844D01*
X61052155Y-21851567D01*
X61041567Y-21862155D01*
X61005844Y-21915618D01*
X61000115Y-21929450D01*
X60990743Y-21976567D01*
X60990000Y-21984111D01*
X60990000Y-22632334D01*
X51757500Y-22632334D01*
X51757500Y-22171929D01*
X51775632Y-22122113D01*
X51816260Y-22098653D01*
X51815797Y-22096995D01*
X52002444Y-22044882D01*
X52002446Y-22044881D01*
X52006100Y-22043861D01*
X52182458Y-21954776D01*
X52338154Y-21833133D01*
X52467257Y-21683566D01*
X52564851Y-21511770D01*
X52573838Y-21484755D01*
X52626022Y-21327883D01*
X52626022Y-21327881D01*
X52627217Y-21324290D01*
X52632005Y-21286393D01*
X52638059Y-21238463D01*
X52651980Y-21128267D01*
X52652375Y-21100000D01*
X52633094Y-20903362D01*
X52575987Y-20714214D01*
X52483229Y-20539760D01*
X52366096Y-20396141D01*
X52360750Y-20389586D01*
X52360749Y-20389585D01*
X52358352Y-20386646D01*
X52355434Y-20384232D01*
X52355430Y-20384228D01*
X52209037Y-20263122D01*
X52206113Y-20260703D01*
X52032311Y-20166729D01*
X52011449Y-20160271D01*
X51865401Y-20115062D01*
X51844312Y-20108534D01*
X51802085Y-20076483D01*
X51790340Y-20024787D01*
X51814572Y-19977636D01*
X51867229Y-19957000D01*
X53957240Y-19957000D01*
X54007056Y-19975132D01*
G37*
G04 #@! TD.AperFunction*
G04 #@! TA.AperFunction,Conductor*
G36*
X50388824Y-32639416D02*
G01*
X50414854Y-32664118D01*
X50417652Y-32671407D01*
X50435680Y-32689435D01*
X50443578Y-32698682D01*
X50458558Y-32719300D01*
X50466253Y-32723743D01*
X50482302Y-32736057D01*
X53278562Y-35532316D01*
X53300966Y-35580362D01*
X53291675Y-35624451D01*
X53249490Y-35701183D01*
X53189748Y-35889515D01*
X53167724Y-36085865D01*
X53184257Y-36282753D01*
X53238718Y-36472680D01*
X53260499Y-36515061D01*
X53327298Y-36645041D01*
X53327301Y-36645045D01*
X53329031Y-36648412D01*
X53451758Y-36803255D01*
X53454645Y-36805712D01*
X53454647Y-36805714D01*
X53489505Y-36835380D01*
X53602224Y-36931311D01*
X53774697Y-37027703D01*
X53778300Y-37028874D01*
X53778303Y-37028875D01*
X53959006Y-37087589D01*
X53962607Y-37088759D01*
X53966367Y-37089207D01*
X53969099Y-37089808D01*
X54013860Y-37118213D01*
X54029890Y-37168745D01*
X54009689Y-37217758D01*
X53962709Y-37242319D01*
X53952458Y-37243000D01*
X52016675Y-37243000D01*
X51966859Y-37224868D01*
X51940352Y-37178958D01*
X51949558Y-37126750D01*
X51990168Y-37092674D01*
X51995834Y-37090855D01*
X52017887Y-37084698D01*
X52024932Y-37081965D01*
X52201956Y-36992544D01*
X52208327Y-36988501D01*
X52364618Y-36866393D01*
X52370082Y-36861190D01*
X52499677Y-36711053D01*
X52504027Y-36704887D01*
X52601993Y-36532433D01*
X52605059Y-36525548D01*
X52657812Y-36366967D01*
X52657501Y-36355831D01*
X52656861Y-36355110D01*
X52652474Y-36354000D01*
X50634137Y-36354000D01*
X50623667Y-36357811D01*
X50622744Y-36359411D01*
X50622905Y-36362488D01*
X50657965Y-36484755D01*
X50660744Y-36491774D01*
X50751401Y-36668174D01*
X50755490Y-36674518D01*
X50878682Y-36829948D01*
X50883927Y-36835380D01*
X51037851Y-36966379D01*
X51036990Y-36967391D01*
X51064695Y-37006671D01*
X51060255Y-37059498D01*
X51022897Y-37097112D01*
X50970102Y-37101912D01*
X50949411Y-37093064D01*
X50945807Y-37090855D01*
X50802536Y-37003058D01*
X50792698Y-36995910D01*
X50650075Y-36874098D01*
X50641476Y-36865499D01*
X50519664Y-36722876D01*
X50512516Y-36713038D01*
X50470847Y-36645041D01*
X50414512Y-36553111D01*
X50408993Y-36542280D01*
X50337215Y-36368989D01*
X50333457Y-36357424D01*
X50333075Y-36355831D01*
X50289670Y-36175038D01*
X50287768Y-36163029D01*
X50274876Y-35999218D01*
X50275721Y-35990026D01*
X50275471Y-35990026D01*
X50275471Y-35979822D01*
X50278112Y-35969966D01*
X50275215Y-35959153D01*
X50272574Y-35939095D01*
X50272574Y-35832974D01*
X50623094Y-35832974D01*
X50623561Y-35844105D01*
X50624410Y-35845035D01*
X50628340Y-35846000D01*
X51372334Y-35846000D01*
X51382804Y-35842189D01*
X51386000Y-35836653D01*
X51386000Y-35832334D01*
X51894000Y-35832334D01*
X51897811Y-35842804D01*
X51903347Y-35846000D01*
X52646507Y-35846000D01*
X52656977Y-35842189D01*
X52657753Y-35840846D01*
X52657541Y-35837282D01*
X52616568Y-35701572D01*
X52613689Y-35694589D01*
X52520583Y-35519482D01*
X52516397Y-35513182D01*
X52391053Y-35359494D01*
X52385733Y-35354136D01*
X52232918Y-35227717D01*
X52226657Y-35223494D01*
X52052189Y-35129160D01*
X52045242Y-35126240D01*
X51907053Y-35083464D01*
X51895928Y-35084008D01*
X51894895Y-35084964D01*
X51894000Y-35088664D01*
X51894000Y-35832334D01*
X51386000Y-35832334D01*
X51386000Y-35093843D01*
X51382189Y-35083373D01*
X51380717Y-35082523D01*
X51377399Y-35082708D01*
X51248398Y-35120675D01*
X51241399Y-35123503D01*
X51065630Y-35215393D01*
X51059328Y-35219516D01*
X50904748Y-35343802D01*
X50899364Y-35349075D01*
X50771875Y-35501010D01*
X50767613Y-35507233D01*
X50672065Y-35681036D01*
X50669091Y-35687976D01*
X50623094Y-35832974D01*
X50272574Y-35832974D01*
X50272574Y-32706533D01*
X50290706Y-32656717D01*
X50336616Y-32630210D01*
X50388824Y-32639416D01*
G37*
G04 #@! TD.AperFunction*
G04 #@! TA.AperFunction,Conductor*
G36*
X33687056Y-19975132D02*
G01*
X33713563Y-20021042D01*
X33704357Y-20073250D01*
X33659121Y-20108847D01*
X33584290Y-20130871D01*
X33480758Y-20161342D01*
X33305661Y-20252881D01*
X33302710Y-20255254D01*
X33302708Y-20255255D01*
X33243486Y-20302871D01*
X33151678Y-20376686D01*
X33149243Y-20379588D01*
X33149242Y-20379589D01*
X33031859Y-20519482D01*
X33024676Y-20528042D01*
X33022853Y-20531358D01*
X33022851Y-20531361D01*
X32958641Y-20648158D01*
X32929490Y-20701183D01*
X32869748Y-20889515D01*
X32847724Y-21085865D01*
X32864257Y-21282753D01*
X32918718Y-21472680D01*
X32940499Y-21515061D01*
X33007298Y-21645041D01*
X33007301Y-21645045D01*
X33009031Y-21648412D01*
X33131758Y-21803255D01*
X33134645Y-21805712D01*
X33134647Y-21805714D01*
X33205945Y-21866393D01*
X33282224Y-21931311D01*
X33454697Y-22027703D01*
X33458300Y-22028874D01*
X33458303Y-22028875D01*
X33499157Y-22042149D01*
X33570449Y-22065313D01*
X33612224Y-22097951D01*
X33624000Y-22139020D01*
X33624000Y-22293880D01*
X33623894Y-22297936D01*
X33621699Y-22339824D01*
X33630833Y-22363619D01*
X33634287Y-22375280D01*
X33639587Y-22400215D01*
X33644374Y-22406804D01*
X33644810Y-22407404D01*
X33654465Y-22425186D01*
X33654733Y-22425885D01*
X33654734Y-22425887D01*
X33657652Y-22433488D01*
X33675680Y-22451516D01*
X33683578Y-22460763D01*
X33693770Y-22474792D01*
X33693772Y-22474794D01*
X33698558Y-22481381D01*
X33705613Y-22485455D01*
X33705615Y-22485456D01*
X33706255Y-22485826D01*
X33722305Y-22498141D01*
X34145237Y-22921072D01*
X34148030Y-22924015D01*
X34176103Y-22955193D01*
X34183546Y-22958507D01*
X34199390Y-22965562D01*
X34210076Y-22971364D01*
X34224623Y-22980811D01*
X34224626Y-22980812D01*
X34231455Y-22985247D01*
X34239496Y-22986521D01*
X34239497Y-22986521D01*
X34239883Y-22986582D01*
X34240239Y-22986638D01*
X34259633Y-22992384D01*
X34260311Y-22992686D01*
X34260314Y-22992687D01*
X34267756Y-22996000D01*
X34293249Y-22996000D01*
X34305372Y-22996954D01*
X34322500Y-22999667D01*
X34322502Y-22999667D01*
X34330546Y-23000941D01*
X34338417Y-22998832D01*
X34339131Y-22998641D01*
X34359189Y-22996000D01*
X38060143Y-22996000D01*
X38109959Y-23014132D01*
X38114944Y-23018699D01*
X39781301Y-24685056D01*
X39803705Y-24733102D01*
X39804000Y-24739857D01*
X39804000Y-27211799D01*
X39803894Y-27215855D01*
X39801699Y-27257743D01*
X39809949Y-27279234D01*
X39810833Y-27281538D01*
X39814287Y-27293199D01*
X39819587Y-27318134D01*
X39824374Y-27324723D01*
X39824810Y-27325323D01*
X39834465Y-27343105D01*
X39834733Y-27343804D01*
X39834734Y-27343806D01*
X39837652Y-27351407D01*
X39855680Y-27369435D01*
X39863578Y-27378682D01*
X39873770Y-27392711D01*
X39873772Y-27392713D01*
X39878558Y-27399300D01*
X39885613Y-27403374D01*
X39885615Y-27403375D01*
X39886255Y-27403745D01*
X39902305Y-27416060D01*
X40492318Y-28006072D01*
X40495111Y-28009015D01*
X40523184Y-28040193D01*
X40545551Y-28050151D01*
X40546474Y-28050562D01*
X40557155Y-28056361D01*
X40578535Y-28070246D01*
X40587045Y-28071594D01*
X40587315Y-28071637D01*
X40606715Y-28077384D01*
X40614837Y-28081000D01*
X40640330Y-28081000D01*
X40652454Y-28081954D01*
X40669581Y-28084667D01*
X40669583Y-28084667D01*
X40677627Y-28085941D01*
X40685498Y-28083832D01*
X40686212Y-28083641D01*
X40706270Y-28081000D01*
X43091311Y-28081000D01*
X43141127Y-28099132D01*
X43162138Y-28127039D01*
X43182192Y-28172187D01*
X43187256Y-28177242D01*
X43257883Y-28247745D01*
X43263264Y-28253117D01*
X43368034Y-28299436D01*
X43373819Y-28300110D01*
X43373821Y-28300111D01*
X43381804Y-28301041D01*
X43394316Y-28302500D01*
X45135684Y-28302500D01*
X45137959Y-28302229D01*
X45137965Y-28302229D01*
X45155764Y-28300111D01*
X45162497Y-28299310D01*
X45267187Y-28252808D01*
X45336963Y-28182910D01*
X45343063Y-28176799D01*
X45348117Y-28171736D01*
X45394436Y-28066966D01*
X45397500Y-28040684D01*
X45397500Y-27649316D01*
X45396896Y-27644233D01*
X45394997Y-27628278D01*
X45394310Y-27622503D01*
X45347808Y-27517813D01*
X45275498Y-27445630D01*
X45271799Y-27441937D01*
X45266736Y-27436883D01*
X45161966Y-27390564D01*
X45156181Y-27389890D01*
X45156179Y-27389889D01*
X45148196Y-27388959D01*
X45135684Y-27387500D01*
X43394316Y-27387500D01*
X43392041Y-27387771D01*
X43392035Y-27387771D01*
X43376014Y-27389677D01*
X43367503Y-27390690D01*
X43262813Y-27437192D01*
X43181883Y-27518264D01*
X43170691Y-27543580D01*
X43162177Y-27562837D01*
X43125450Y-27601068D01*
X43091295Y-27609000D01*
X40794856Y-27609000D01*
X40745040Y-27590868D01*
X40740055Y-27586301D01*
X40298699Y-27144944D01*
X40276295Y-27096897D01*
X40276000Y-27090143D01*
X40276000Y-24618201D01*
X40276106Y-24614145D01*
X40277875Y-24580391D01*
X40277875Y-24580390D01*
X40278301Y-24572257D01*
X40269167Y-24548461D01*
X40265713Y-24536801D01*
X40262106Y-24519831D01*
X40260413Y-24511866D01*
X40255190Y-24504677D01*
X40245535Y-24486895D01*
X40245267Y-24486196D01*
X40245266Y-24486194D01*
X40242348Y-24478593D01*
X40224320Y-24460565D01*
X40216422Y-24451318D01*
X40212349Y-24445712D01*
X40201442Y-24430700D01*
X40193747Y-24426257D01*
X40177698Y-24413943D01*
X38362664Y-22598909D01*
X38359872Y-22595966D01*
X38337266Y-22570860D01*
X38337267Y-22570860D01*
X38331816Y-22564807D01*
X38308528Y-22554439D01*
X38297842Y-22548636D01*
X38283295Y-22539189D01*
X38276464Y-22534753D01*
X38267680Y-22533362D01*
X38248286Y-22527616D01*
X38247608Y-22527314D01*
X38247605Y-22527313D01*
X38240163Y-22524000D01*
X38214669Y-22524000D01*
X38202546Y-22523046D01*
X38185418Y-22520333D01*
X38185417Y-22520333D01*
X38177372Y-22519059D01*
X38169501Y-22521168D01*
X38168787Y-22521359D01*
X38148729Y-22524000D01*
X34447776Y-22524000D01*
X34397960Y-22505868D01*
X34392975Y-22501301D01*
X34118699Y-22227025D01*
X34096295Y-22178979D01*
X34096000Y-22172224D01*
X34096000Y-22139012D01*
X34114132Y-22089196D01*
X34152658Y-22064367D01*
X34222452Y-22044880D01*
X34222456Y-22044878D01*
X34226100Y-22043861D01*
X34402458Y-21954776D01*
X34558154Y-21833133D01*
X34687257Y-21683566D01*
X34784851Y-21511770D01*
X34793838Y-21484755D01*
X34846022Y-21327883D01*
X34846022Y-21327881D01*
X34847217Y-21324290D01*
X34852005Y-21286393D01*
X34858059Y-21238463D01*
X34871980Y-21128267D01*
X34872375Y-21100000D01*
X34853094Y-20903362D01*
X34795987Y-20714214D01*
X34703229Y-20539760D01*
X34586096Y-20396141D01*
X34580750Y-20389586D01*
X34580749Y-20389585D01*
X34578352Y-20386646D01*
X34575434Y-20384232D01*
X34575430Y-20384228D01*
X34429037Y-20263122D01*
X34426113Y-20260703D01*
X34252311Y-20166729D01*
X34231449Y-20160271D01*
X34085401Y-20115062D01*
X34064312Y-20108534D01*
X34022085Y-20076483D01*
X34010340Y-20024787D01*
X34034572Y-19977636D01*
X34087229Y-19957000D01*
X36177240Y-19957000D01*
X36227056Y-19975132D01*
X36253563Y-20021042D01*
X36244357Y-20073250D01*
X36199121Y-20108847D01*
X36124290Y-20130871D01*
X36020758Y-20161342D01*
X35845661Y-20252881D01*
X35842710Y-20255254D01*
X35842708Y-20255255D01*
X35783486Y-20302871D01*
X35691678Y-20376686D01*
X35689243Y-20379588D01*
X35689242Y-20379589D01*
X35571859Y-20519482D01*
X35564676Y-20528042D01*
X35562853Y-20531358D01*
X35562851Y-20531361D01*
X35498641Y-20648158D01*
X35469490Y-20701183D01*
X35409748Y-20889515D01*
X35387724Y-21085865D01*
X35404257Y-21282753D01*
X35458718Y-21472680D01*
X35480499Y-21515061D01*
X35547298Y-21645041D01*
X35547301Y-21645045D01*
X35549031Y-21648412D01*
X35671758Y-21803255D01*
X35674645Y-21805712D01*
X35674647Y-21805714D01*
X35745945Y-21866393D01*
X35822224Y-21931311D01*
X35994697Y-22027703D01*
X35998300Y-22028874D01*
X35998303Y-22028875D01*
X36039157Y-22042149D01*
X36182607Y-22088759D01*
X36186363Y-22089207D01*
X36186368Y-22089208D01*
X36292538Y-22101867D01*
X36378798Y-22112153D01*
X36477298Y-22104574D01*
X36572021Y-22097286D01*
X36572026Y-22097285D01*
X36575797Y-22096995D01*
X36679609Y-22068010D01*
X36762444Y-22044882D01*
X36762446Y-22044881D01*
X36766100Y-22043861D01*
X36942458Y-21954776D01*
X37098154Y-21833133D01*
X37227257Y-21683566D01*
X37324851Y-21511770D01*
X37333838Y-21484755D01*
X37386022Y-21327883D01*
X37386022Y-21327881D01*
X37387217Y-21324290D01*
X37392005Y-21286393D01*
X37398059Y-21238463D01*
X37411980Y-21128267D01*
X37412375Y-21100000D01*
X37393094Y-20903362D01*
X37335987Y-20714214D01*
X37243229Y-20539760D01*
X37126096Y-20396141D01*
X37120750Y-20389586D01*
X37120749Y-20389585D01*
X37118352Y-20386646D01*
X37115434Y-20384232D01*
X37115430Y-20384228D01*
X36969037Y-20263122D01*
X36966113Y-20260703D01*
X36792311Y-20166729D01*
X36771449Y-20160271D01*
X36625401Y-20115062D01*
X36604312Y-20108534D01*
X36562085Y-20076483D01*
X36550340Y-20024787D01*
X36574572Y-19977636D01*
X36627229Y-19957000D01*
X38717240Y-19957000D01*
X38767056Y-19975132D01*
X38793563Y-20021042D01*
X38784357Y-20073250D01*
X38739121Y-20108847D01*
X38664290Y-20130871D01*
X38560758Y-20161342D01*
X38385661Y-20252881D01*
X38382710Y-20255254D01*
X38382708Y-20255255D01*
X38323486Y-20302871D01*
X38231678Y-20376686D01*
X38229243Y-20379588D01*
X38229242Y-20379589D01*
X38111859Y-20519482D01*
X38104676Y-20528042D01*
X38102853Y-20531358D01*
X38102851Y-20531361D01*
X38038641Y-20648158D01*
X38009490Y-20701183D01*
X37949748Y-20889515D01*
X37927724Y-21085865D01*
X37944257Y-21282753D01*
X37998718Y-21472680D01*
X38020499Y-21515061D01*
X38087298Y-21645041D01*
X38087301Y-21645045D01*
X38089031Y-21648412D01*
X38211758Y-21803255D01*
X38214645Y-21805712D01*
X38214647Y-21805714D01*
X38285945Y-21866393D01*
X38362224Y-21931311D01*
X38534697Y-22027703D01*
X38538300Y-22028874D01*
X38538303Y-22028875D01*
X38579157Y-22042149D01*
X38722607Y-22088759D01*
X38726363Y-22089207D01*
X38726368Y-22089208D01*
X38832538Y-22101867D01*
X38918798Y-22112153D01*
X39017298Y-22104574D01*
X39112021Y-22097286D01*
X39112026Y-22097285D01*
X39115797Y-22096995D01*
X39219609Y-22068010D01*
X39302444Y-22044882D01*
X39302446Y-22044881D01*
X39306100Y-22043861D01*
X39482458Y-21954776D01*
X39638154Y-21833133D01*
X39767257Y-21683566D01*
X39864851Y-21511770D01*
X39873838Y-21484755D01*
X39926022Y-21327883D01*
X39926022Y-21327881D01*
X39927217Y-21324290D01*
X39932005Y-21286393D01*
X39938059Y-21238463D01*
X39951980Y-21128267D01*
X39952375Y-21100000D01*
X39933094Y-20903362D01*
X39875987Y-20714214D01*
X39783229Y-20539760D01*
X39666096Y-20396141D01*
X39660750Y-20389586D01*
X39660749Y-20389585D01*
X39658352Y-20386646D01*
X39655434Y-20384232D01*
X39655430Y-20384228D01*
X39509037Y-20263122D01*
X39506113Y-20260703D01*
X39332311Y-20166729D01*
X39311449Y-20160271D01*
X39165401Y-20115062D01*
X39144312Y-20108534D01*
X39102085Y-20076483D01*
X39090340Y-20024787D01*
X39114572Y-19977636D01*
X39167229Y-19957000D01*
X41257240Y-19957000D01*
X41307056Y-19975132D01*
X41333563Y-20021042D01*
X41324357Y-20073250D01*
X41279121Y-20108847D01*
X41204290Y-20130871D01*
X41100758Y-20161342D01*
X40925661Y-20252881D01*
X40922710Y-20255254D01*
X40922708Y-20255255D01*
X40863486Y-20302871D01*
X40771678Y-20376686D01*
X40769243Y-20379588D01*
X40769242Y-20379589D01*
X40651859Y-20519482D01*
X40644676Y-20528042D01*
X40642853Y-20531358D01*
X40642851Y-20531361D01*
X40578641Y-20648158D01*
X40549490Y-20701183D01*
X40489748Y-20889515D01*
X40467724Y-21085865D01*
X40484257Y-21282753D01*
X40538718Y-21472680D01*
X40560499Y-21515061D01*
X40627298Y-21645041D01*
X40627301Y-21645045D01*
X40629031Y-21648412D01*
X40751758Y-21803255D01*
X40754645Y-21805712D01*
X40754647Y-21805714D01*
X40825945Y-21866393D01*
X40902224Y-21931311D01*
X41074697Y-22027703D01*
X41078300Y-22028874D01*
X41078303Y-22028875D01*
X41119157Y-22042149D01*
X41262607Y-22088759D01*
X41266363Y-22089207D01*
X41266368Y-22089208D01*
X41372538Y-22101867D01*
X41458798Y-22112153D01*
X41557298Y-22104574D01*
X41652021Y-22097286D01*
X41652026Y-22097285D01*
X41655797Y-22096995D01*
X41759609Y-22068010D01*
X41842444Y-22044882D01*
X41842446Y-22044881D01*
X41846100Y-22043861D01*
X42022458Y-21954776D01*
X42178154Y-21833133D01*
X42307257Y-21683566D01*
X42404851Y-21511770D01*
X42413838Y-21484755D01*
X42466022Y-21327883D01*
X42466022Y-21327881D01*
X42467217Y-21324290D01*
X42472005Y-21286393D01*
X42478059Y-21238463D01*
X42491980Y-21128267D01*
X42492375Y-21100000D01*
X42473094Y-20903362D01*
X42415987Y-20714214D01*
X42323229Y-20539760D01*
X42206096Y-20396141D01*
X42200750Y-20389586D01*
X42200749Y-20389585D01*
X42198352Y-20386646D01*
X42195434Y-20384232D01*
X42195430Y-20384228D01*
X42049037Y-20263122D01*
X42046113Y-20260703D01*
X41872311Y-20166729D01*
X41851449Y-20160271D01*
X41705401Y-20115062D01*
X41684312Y-20108534D01*
X41642085Y-20076483D01*
X41630340Y-20024787D01*
X41654572Y-19977636D01*
X41707229Y-19957000D01*
X43797240Y-19957000D01*
X43847056Y-19975132D01*
X43873563Y-20021042D01*
X43864357Y-20073250D01*
X43819121Y-20108847D01*
X43744290Y-20130871D01*
X43640758Y-20161342D01*
X43465661Y-20252881D01*
X43462710Y-20255254D01*
X43462708Y-20255255D01*
X43403486Y-20302871D01*
X43311678Y-20376686D01*
X43309243Y-20379588D01*
X43309242Y-20379589D01*
X43191859Y-20519482D01*
X43184676Y-20528042D01*
X43182853Y-20531358D01*
X43182851Y-20531361D01*
X43118641Y-20648158D01*
X43089490Y-20701183D01*
X43029748Y-20889515D01*
X43007724Y-21085865D01*
X43024257Y-21282753D01*
X43078718Y-21472680D01*
X43100499Y-21515061D01*
X43167298Y-21645041D01*
X43167301Y-21645045D01*
X43169031Y-21648412D01*
X43291758Y-21803255D01*
X43294645Y-21805712D01*
X43294647Y-21805714D01*
X43365945Y-21866393D01*
X43442224Y-21931311D01*
X43614697Y-22027703D01*
X43618300Y-22028874D01*
X43618303Y-22028875D01*
X43659157Y-22042149D01*
X43802607Y-22088759D01*
X43806363Y-22089207D01*
X43806368Y-22089208D01*
X43912538Y-22101867D01*
X43998798Y-22112153D01*
X44097298Y-22104574D01*
X44192021Y-22097286D01*
X44192026Y-22097285D01*
X44195797Y-22096995D01*
X44299609Y-22068010D01*
X44382444Y-22044882D01*
X44382446Y-22044881D01*
X44386100Y-22043861D01*
X44562458Y-21954776D01*
X44718154Y-21833133D01*
X44847257Y-21683566D01*
X44944851Y-21511770D01*
X44953838Y-21484755D01*
X45006022Y-21327883D01*
X45006022Y-21327881D01*
X45007217Y-21324290D01*
X45012005Y-21286393D01*
X45018059Y-21238463D01*
X45031980Y-21128267D01*
X45032375Y-21100000D01*
X45013094Y-20903362D01*
X44955987Y-20714214D01*
X44863229Y-20539760D01*
X44746096Y-20396141D01*
X44740750Y-20389586D01*
X44740749Y-20389585D01*
X44738352Y-20386646D01*
X44735434Y-20384232D01*
X44735430Y-20384228D01*
X44589037Y-20263122D01*
X44586113Y-20260703D01*
X44412311Y-20166729D01*
X44391449Y-20160271D01*
X44245401Y-20115062D01*
X44224312Y-20108534D01*
X44182085Y-20076483D01*
X44170340Y-20024787D01*
X44194572Y-19977636D01*
X44247229Y-19957000D01*
X46337240Y-19957000D01*
X46387056Y-19975132D01*
X46413563Y-20021042D01*
X46404357Y-20073250D01*
X46359121Y-20108847D01*
X46284290Y-20130871D01*
X46180758Y-20161342D01*
X46005661Y-20252881D01*
X46002710Y-20255254D01*
X46002708Y-20255255D01*
X45943486Y-20302871D01*
X45851678Y-20376686D01*
X45849243Y-20379588D01*
X45849242Y-20379589D01*
X45731859Y-20519482D01*
X45724676Y-20528042D01*
X45722853Y-20531358D01*
X45722851Y-20531361D01*
X45658641Y-20648158D01*
X45629490Y-20701183D01*
X45569748Y-20889515D01*
X45547724Y-21085865D01*
X45564257Y-21282753D01*
X45618718Y-21472680D01*
X45640499Y-21515061D01*
X45707298Y-21645041D01*
X45707301Y-21645045D01*
X45709031Y-21648412D01*
X45831758Y-21803255D01*
X45834645Y-21805712D01*
X45834647Y-21805714D01*
X45905945Y-21866393D01*
X45982224Y-21931311D01*
X46154697Y-22027703D01*
X46158300Y-22028874D01*
X46158303Y-22028875D01*
X46199157Y-22042149D01*
X46342607Y-22088759D01*
X46346363Y-22089207D01*
X46346368Y-22089208D01*
X46452538Y-22101867D01*
X46538798Y-22112153D01*
X46637298Y-22104574D01*
X46732021Y-22097286D01*
X46732026Y-22097285D01*
X46735797Y-22096995D01*
X46839609Y-22068010D01*
X46922444Y-22044882D01*
X46922446Y-22044881D01*
X46926100Y-22043861D01*
X47102458Y-21954776D01*
X47258154Y-21833133D01*
X47387257Y-21683566D01*
X47484851Y-21511770D01*
X47493838Y-21484755D01*
X47546022Y-21327883D01*
X47546022Y-21327881D01*
X47547217Y-21324290D01*
X47552005Y-21286393D01*
X47558059Y-21238463D01*
X47571980Y-21128267D01*
X47572375Y-21100000D01*
X47553094Y-20903362D01*
X47495987Y-20714214D01*
X47403229Y-20539760D01*
X47286096Y-20396141D01*
X47280750Y-20389586D01*
X47280749Y-20389585D01*
X47278352Y-20386646D01*
X47275434Y-20384232D01*
X47275430Y-20384228D01*
X47129037Y-20263122D01*
X47126113Y-20260703D01*
X46952311Y-20166729D01*
X46931449Y-20160271D01*
X46785401Y-20115062D01*
X46764312Y-20108534D01*
X46722085Y-20076483D01*
X46710340Y-20024787D01*
X46734572Y-19977636D01*
X46787229Y-19957000D01*
X48877240Y-19957000D01*
X48927056Y-19975132D01*
X48953563Y-20021042D01*
X48944357Y-20073250D01*
X48899121Y-20108847D01*
X48824290Y-20130871D01*
X48720758Y-20161342D01*
X48545661Y-20252881D01*
X48542710Y-20255254D01*
X48542708Y-20255255D01*
X48483486Y-20302871D01*
X48391678Y-20376686D01*
X48389243Y-20379588D01*
X48389242Y-20379589D01*
X48271859Y-20519482D01*
X48264676Y-20528042D01*
X48262853Y-20531358D01*
X48262851Y-20531361D01*
X48198641Y-20648158D01*
X48169490Y-20701183D01*
X48109748Y-20889515D01*
X48087724Y-21085865D01*
X48104257Y-21282753D01*
X48158718Y-21472680D01*
X48180499Y-21515061D01*
X48247298Y-21645041D01*
X48247301Y-21645045D01*
X48249031Y-21648412D01*
X48371758Y-21803255D01*
X48374645Y-21805712D01*
X48374647Y-21805714D01*
X48445945Y-21866393D01*
X48522224Y-21931311D01*
X48694697Y-22027703D01*
X48698300Y-22028874D01*
X48698303Y-22028875D01*
X48739157Y-22042149D01*
X48882607Y-22088759D01*
X48886363Y-22089207D01*
X48886368Y-22089208D01*
X48992538Y-22101867D01*
X49078798Y-22112153D01*
X49177298Y-22104574D01*
X49272021Y-22097286D01*
X49272026Y-22097285D01*
X49275797Y-22096995D01*
X49379609Y-22068010D01*
X49462444Y-22044882D01*
X49462446Y-22044881D01*
X49466100Y-22043861D01*
X49642458Y-21954776D01*
X49798154Y-21833133D01*
X49927257Y-21683566D01*
X50024851Y-21511770D01*
X50033838Y-21484755D01*
X50086022Y-21327883D01*
X50086022Y-21327881D01*
X50087217Y-21324290D01*
X50092005Y-21286393D01*
X50098059Y-21238463D01*
X50111980Y-21128267D01*
X50112375Y-21100000D01*
X50093094Y-20903362D01*
X50035987Y-20714214D01*
X49943229Y-20539760D01*
X49826096Y-20396141D01*
X49820750Y-20389586D01*
X49820749Y-20389585D01*
X49818352Y-20386646D01*
X49815434Y-20384232D01*
X49815430Y-20384228D01*
X49669037Y-20263122D01*
X49666113Y-20260703D01*
X49492311Y-20166729D01*
X49471449Y-20160271D01*
X49325401Y-20115062D01*
X49304312Y-20108534D01*
X49262085Y-20076483D01*
X49250340Y-20024787D01*
X49274572Y-19977636D01*
X49327229Y-19957000D01*
X51417240Y-19957000D01*
X51467056Y-19975132D01*
X51493563Y-20021042D01*
X51484357Y-20073250D01*
X51439121Y-20108847D01*
X51364290Y-20130871D01*
X51260758Y-20161342D01*
X51085661Y-20252881D01*
X51082710Y-20255254D01*
X51082708Y-20255255D01*
X51023486Y-20302871D01*
X50931678Y-20376686D01*
X50929243Y-20379588D01*
X50929242Y-20379589D01*
X50811859Y-20519482D01*
X50804676Y-20528042D01*
X50802853Y-20531358D01*
X50802851Y-20531361D01*
X50738641Y-20648158D01*
X50709490Y-20701183D01*
X50649748Y-20889515D01*
X50627724Y-21085865D01*
X50644257Y-21282753D01*
X50698718Y-21472680D01*
X50720499Y-21515061D01*
X50787298Y-21645041D01*
X50787301Y-21645045D01*
X50789031Y-21648412D01*
X50911758Y-21803255D01*
X50973774Y-21856034D01*
X51015229Y-21891316D01*
X51041415Y-21937411D01*
X51042500Y-21950335D01*
X51042500Y-22525000D01*
X51024368Y-22574816D01*
X50978458Y-22601323D01*
X50965000Y-22602500D01*
X42186414Y-22602500D01*
X42170103Y-22600764D01*
X42163337Y-22599307D01*
X42163333Y-22599307D01*
X42157073Y-22597959D01*
X42128653Y-22601323D01*
X42123246Y-22601963D01*
X42114136Y-22602500D01*
X42110303Y-22602500D01*
X42091405Y-22605646D01*
X42087805Y-22606158D01*
X42064833Y-22608877D01*
X42045242Y-22611196D01*
X42045241Y-22611196D01*
X42038881Y-22611949D01*
X42033106Y-22614722D01*
X42032450Y-22614913D01*
X42031516Y-22615126D01*
X42030457Y-22615461D01*
X42029577Y-22615821D01*
X42028919Y-22616046D01*
X42022598Y-22617098D01*
X42016961Y-22620140D01*
X42016960Y-22620140D01*
X41979240Y-22640493D01*
X41975985Y-22642151D01*
X41935987Y-22661357D01*
X41935981Y-22661361D01*
X41931593Y-22663468D01*
X41927565Y-22666853D01*
X41926504Y-22667914D01*
X41923107Y-22670780D01*
X41917856Y-22673614D01*
X41913507Y-22678319D01*
X41882853Y-22711480D01*
X41880744Y-22713674D01*
X40950026Y-23644392D01*
X40937265Y-23654698D01*
X40926071Y-23661926D01*
X40922106Y-23666956D01*
X40904987Y-23688671D01*
X40898926Y-23695492D01*
X40896210Y-23698208D01*
X40894350Y-23700811D01*
X40894344Y-23700818D01*
X40885055Y-23713816D01*
X40882877Y-23716718D01*
X40852389Y-23755392D01*
X40850266Y-23761439D01*
X40849933Y-23762044D01*
X40849421Y-23762857D01*
X40848913Y-23763835D01*
X40848547Y-23764710D01*
X40848241Y-23765334D01*
X40844516Y-23770547D01*
X40833404Y-23807705D01*
X40830400Y-23817749D01*
X40829271Y-23821222D01*
X40822126Y-23841569D01*
X40812954Y-23867686D01*
X40812500Y-23872928D01*
X40812500Y-23874425D01*
X40812124Y-23878858D01*
X40810415Y-23884574D01*
X40810666Y-23890971D01*
X40810666Y-23890974D01*
X40812440Y-23936109D01*
X40812500Y-23939152D01*
X40812500Y-25571087D01*
X40810764Y-25587398D01*
X40809307Y-25594164D01*
X40809307Y-25594168D01*
X40807959Y-25600428D01*
X40808712Y-25606788D01*
X40811963Y-25634254D01*
X40812500Y-25643364D01*
X40812500Y-25647198D01*
X40813027Y-25650364D01*
X40815643Y-25666085D01*
X40816158Y-25669698D01*
X40820700Y-25708063D01*
X40821949Y-25718619D01*
X40824719Y-25724389D01*
X40824916Y-25725066D01*
X40825127Y-25725993D01*
X40825457Y-25727036D01*
X40825817Y-25727914D01*
X40826046Y-25728582D01*
X40827098Y-25734903D01*
X40830140Y-25740540D01*
X40830140Y-25740541D01*
X40850499Y-25778272D01*
X40852157Y-25781527D01*
X40861598Y-25801189D01*
X40873468Y-25825908D01*
X40876853Y-25829936D01*
X40877914Y-25830997D01*
X40880780Y-25834394D01*
X40883614Y-25839645D01*
X40888319Y-25843994D01*
X40921481Y-25874649D01*
X40923675Y-25876758D01*
X41644801Y-26597884D01*
X41667205Y-26645930D01*
X41667500Y-26652685D01*
X41667501Y-26835909D01*
X41667501Y-27001915D01*
X41678386Y-27075866D01*
X41681042Y-27081275D01*
X41681042Y-27081276D01*
X41688712Y-27096897D01*
X41733590Y-27188304D01*
X41822239Y-27276798D01*
X41827995Y-27279611D01*
X41827994Y-27279611D01*
X41917769Y-27323494D01*
X41934773Y-27331806D01*
X41957970Y-27335190D01*
X42005300Y-27342095D01*
X42005304Y-27342095D01*
X42008085Y-27342501D01*
X42299172Y-27342501D01*
X42591914Y-27342500D01*
X42665865Y-27331615D01*
X42678249Y-27325535D01*
X42772554Y-27279234D01*
X42772556Y-27279233D01*
X42778303Y-27276411D01*
X42866797Y-27187762D01*
X42921805Y-27075228D01*
X42932500Y-27001916D01*
X42933183Y-27002016D01*
X42953801Y-26956022D01*
X43001508Y-26932904D01*
X43009413Y-26932500D01*
X43180496Y-26932500D01*
X43230312Y-26950632D01*
X43235247Y-26955149D01*
X43249097Y-26968974D01*
X43257883Y-26977745D01*
X43263264Y-26983117D01*
X43368034Y-27029436D01*
X43373819Y-27030110D01*
X43373821Y-27030111D01*
X43381804Y-27031041D01*
X43394316Y-27032500D01*
X45135684Y-27032500D01*
X45137959Y-27032229D01*
X45137965Y-27032229D01*
X45156008Y-27030082D01*
X45162497Y-27029310D01*
X45267187Y-26982808D01*
X45348117Y-26901736D01*
X45394436Y-26796966D01*
X45397500Y-26770684D01*
X45397500Y-26379316D01*
X45394310Y-26352503D01*
X45347808Y-26247813D01*
X45285072Y-26185187D01*
X45271799Y-26171937D01*
X45266736Y-26166883D01*
X45161966Y-26120564D01*
X45156181Y-26119890D01*
X45156179Y-26119889D01*
X45148196Y-26118959D01*
X45135684Y-26117500D01*
X43394316Y-26117500D01*
X43392041Y-26117771D01*
X43392035Y-26117771D01*
X43376014Y-26119677D01*
X43367503Y-26120690D01*
X43262813Y-26167192D01*
X43257759Y-26172255D01*
X43235300Y-26194753D01*
X43187273Y-26217199D01*
X43180451Y-26217500D01*
X42794249Y-26217500D01*
X42760215Y-26209627D01*
X42670630Y-26165837D01*
X42665227Y-26163196D01*
X42636840Y-26159055D01*
X42594700Y-26152907D01*
X42594696Y-26152907D01*
X42591915Y-26152501D01*
X42561192Y-26152501D01*
X42242684Y-26152502D01*
X42192868Y-26134371D01*
X42187883Y-26129803D01*
X41997930Y-25939850D01*
X41975526Y-25891804D01*
X41989247Y-25840597D01*
X42026224Y-25812223D01*
X42042804Y-25806188D01*
X42046000Y-25800652D01*
X42046000Y-25796332D01*
X42554000Y-25796332D01*
X42557811Y-25806802D01*
X42563347Y-25809998D01*
X42586163Y-25809998D01*
X42592211Y-25809522D01*
X42681239Y-25795422D01*
X42692700Y-25791698D01*
X42800017Y-25737018D01*
X42809766Y-25729935D01*
X42894936Y-25644765D01*
X42902019Y-25635016D01*
X42954301Y-25532405D01*
X42993072Y-25496250D01*
X43046012Y-25493475D01*
X43088351Y-25525379D01*
X43096031Y-25545699D01*
X43097461Y-25545254D01*
X43102781Y-25562375D01*
X43148656Y-25655812D01*
X43156010Y-25666084D01*
X43229411Y-25739356D01*
X43239698Y-25746694D01*
X43333223Y-25792410D01*
X43344577Y-25795919D01*
X43404038Y-25804594D01*
X43409636Y-25805000D01*
X43997334Y-25805000D01*
X44007804Y-25801189D01*
X44011000Y-25795653D01*
X44011000Y-25791333D01*
X44519000Y-25791333D01*
X44522811Y-25801803D01*
X44528347Y-25804999D01*
X45120347Y-25804999D01*
X45125974Y-25804587D01*
X45186007Y-25795751D01*
X45197375Y-25792219D01*
X45290812Y-25746344D01*
X45301084Y-25738990D01*
X45374356Y-25665589D01*
X45381694Y-25655302D01*
X45422766Y-25571276D01*
X45423814Y-25561388D01*
X45416476Y-25559000D01*
X44532666Y-25559000D01*
X44522196Y-25562811D01*
X44519000Y-25568347D01*
X44519000Y-25791333D01*
X44011000Y-25791333D01*
X44011000Y-25037334D01*
X44519000Y-25037334D01*
X44522811Y-25047804D01*
X44528347Y-25051000D01*
X45415210Y-25051000D01*
X45424532Y-25047607D01*
X45423444Y-25039935D01*
X45381344Y-24954188D01*
X45373990Y-24943916D01*
X45300589Y-24870644D01*
X45290302Y-24863306D01*
X45196777Y-24817590D01*
X45185423Y-24814081D01*
X45125962Y-24805406D01*
X45120364Y-24805000D01*
X44532666Y-24805000D01*
X44522196Y-24808811D01*
X44519000Y-24814347D01*
X44519000Y-25037334D01*
X44011000Y-25037334D01*
X44011000Y-24818667D01*
X44007189Y-24808197D01*
X44001653Y-24805001D01*
X43409653Y-24805001D01*
X43404026Y-24805413D01*
X43343993Y-24814249D01*
X43332625Y-24817781D01*
X43239188Y-24863656D01*
X43228916Y-24871010D01*
X43155644Y-24944411D01*
X43148307Y-24954696D01*
X43122126Y-25008257D01*
X43083959Y-25045049D01*
X43031072Y-25048701D01*
X42988211Y-25017503D01*
X42974999Y-24974222D01*
X42974999Y-24923836D01*
X42974523Y-24917788D01*
X42960423Y-24828760D01*
X42956699Y-24817299D01*
X42902019Y-24709982D01*
X42894936Y-24700233D01*
X42809766Y-24615063D01*
X42800017Y-24607980D01*
X42692701Y-24553300D01*
X42681238Y-24549575D01*
X42592210Y-24535475D01*
X42586165Y-24534999D01*
X42567666Y-24534999D01*
X42557196Y-24538810D01*
X42554000Y-24544346D01*
X42554000Y-25796332D01*
X42046000Y-25796332D01*
X42046000Y-24548666D01*
X42042189Y-24538196D01*
X42036653Y-24535000D01*
X42013837Y-24535000D01*
X42007789Y-24535476D01*
X41918761Y-24549576D01*
X41907300Y-24553300D01*
X41799983Y-24607980D01*
X41790234Y-24615063D01*
X41705064Y-24700233D01*
X41697981Y-24709982D01*
X41674053Y-24756944D01*
X41635282Y-24793099D01*
X41582341Y-24795874D01*
X41540003Y-24763970D01*
X41527500Y-24721760D01*
X41527500Y-24110184D01*
X41545632Y-24060368D01*
X41550199Y-24055383D01*
X42265383Y-23340199D01*
X42313429Y-23317795D01*
X42320184Y-23317500D01*
X47336500Y-23317500D01*
X47386316Y-23335632D01*
X47412823Y-23381542D01*
X47414000Y-23395000D01*
X47414000Y-26635169D01*
X47395868Y-26684985D01*
X47377856Y-26700712D01*
X47350436Y-26718013D01*
X47305186Y-26769249D01*
X47301589Y-26773322D01*
X47255022Y-26798659D01*
X47203064Y-26788135D01*
X47170026Y-26746675D01*
X47166000Y-26722020D01*
X47166000Y-24898213D01*
X47166106Y-24894157D01*
X47167876Y-24860393D01*
X47167876Y-24860391D01*
X47168302Y-24852257D01*
X47159167Y-24828461D01*
X47155712Y-24816798D01*
X47155170Y-24814249D01*
X47150413Y-24791866D01*
X47145626Y-24785277D01*
X47145625Y-24785275D01*
X47145187Y-24784673D01*
X47135536Y-24766898D01*
X47132348Y-24758594D01*
X47114323Y-24740569D01*
X47106426Y-24731322D01*
X47096233Y-24717293D01*
X47096231Y-24717291D01*
X47091442Y-24710700D01*
X47084387Y-24706627D01*
X47084385Y-24706625D01*
X47083744Y-24706255D01*
X47067694Y-24693940D01*
X46247664Y-23873909D01*
X46244872Y-23870966D01*
X46222266Y-23845860D01*
X46222267Y-23845860D01*
X46216816Y-23839807D01*
X46193528Y-23829439D01*
X46182842Y-23823636D01*
X46168295Y-23814189D01*
X46161464Y-23809753D01*
X46152680Y-23808362D01*
X46133286Y-23802616D01*
X46132608Y-23802314D01*
X46132605Y-23802313D01*
X46125163Y-23799000D01*
X46099669Y-23799000D01*
X46087546Y-23798046D01*
X46070418Y-23795333D01*
X46070417Y-23795333D01*
X46062372Y-23794059D01*
X46054501Y-23796168D01*
X46053787Y-23796359D01*
X46033729Y-23799000D01*
X45438689Y-23799000D01*
X45388873Y-23780868D01*
X45367862Y-23752961D01*
X45366445Y-23749770D01*
X45347808Y-23707813D01*
X45306879Y-23666956D01*
X45271799Y-23631937D01*
X45266736Y-23626883D01*
X45161966Y-23580564D01*
X45156181Y-23579890D01*
X45156179Y-23579889D01*
X45148196Y-23578959D01*
X45135684Y-23577500D01*
X43394316Y-23577500D01*
X43392041Y-23577771D01*
X43392035Y-23577771D01*
X43376014Y-23579677D01*
X43367503Y-23580690D01*
X43262813Y-23627192D01*
X43181883Y-23708264D01*
X43135564Y-23813034D01*
X43132500Y-23839316D01*
X43132500Y-24230684D01*
X43135690Y-24257497D01*
X43182192Y-24362187D01*
X43187255Y-24367241D01*
X43257883Y-24437745D01*
X43263264Y-24443117D01*
X43368034Y-24489436D01*
X43373819Y-24490110D01*
X43373821Y-24490111D01*
X43381804Y-24491041D01*
X43394316Y-24492500D01*
X45135684Y-24492500D01*
X45137959Y-24492229D01*
X45137965Y-24492229D01*
X45156008Y-24490082D01*
X45162497Y-24489310D01*
X45267187Y-24442808D01*
X45348117Y-24361736D01*
X45367823Y-24317163D01*
X45404550Y-24278932D01*
X45438705Y-24271000D01*
X45945143Y-24271000D01*
X45994959Y-24289132D01*
X45999944Y-24293699D01*
X46671301Y-24965056D01*
X46693705Y-25013102D01*
X46694000Y-25019857D01*
X46694000Y-27421799D01*
X46693894Y-27425855D01*
X46692626Y-27450060D01*
X46691699Y-27467743D01*
X46699160Y-27487179D01*
X46700833Y-27491538D01*
X46704287Y-27503199D01*
X46709587Y-27528134D01*
X46714374Y-27534723D01*
X46714810Y-27535323D01*
X46724465Y-27553105D01*
X46724733Y-27553804D01*
X46724734Y-27553806D01*
X46727652Y-27561407D01*
X46745680Y-27579435D01*
X46753578Y-27588682D01*
X46768558Y-27609300D01*
X46776253Y-27613743D01*
X46792302Y-27626057D01*
X47717336Y-28551091D01*
X47720128Y-28554034D01*
X47737787Y-28573646D01*
X47757647Y-28622799D01*
X47741265Y-28673217D01*
X47696308Y-28701310D01*
X47680198Y-28703004D01*
X39295364Y-28703034D01*
X39275306Y-28700393D01*
X39274351Y-28700137D01*
X39274349Y-28700137D01*
X39264493Y-28697496D01*
X39254637Y-28700137D01*
X39244433Y-28700137D01*
X39244433Y-28699887D01*
X39235241Y-28700732D01*
X39160415Y-28694843D01*
X39071428Y-28687840D01*
X39059421Y-28685938D01*
X38877034Y-28642151D01*
X38865470Y-28638393D01*
X38692179Y-28566615D01*
X38681348Y-28561096D01*
X38521421Y-28463092D01*
X38511583Y-28455944D01*
X38368960Y-28334132D01*
X38360361Y-28325533D01*
X38238549Y-28182910D01*
X38231401Y-28173072D01*
X38226572Y-28165192D01*
X38133397Y-28013145D01*
X38127878Y-28002314D01*
X38056100Y-27829023D01*
X38052342Y-27817458D01*
X38008555Y-27635072D01*
X38006653Y-27623063D01*
X38005920Y-27613741D01*
X37995959Y-27487179D01*
X37993761Y-27459252D01*
X37994606Y-27450060D01*
X37994356Y-27450060D01*
X37994356Y-27439856D01*
X37996997Y-27430000D01*
X37994100Y-27419187D01*
X37991459Y-27399129D01*
X37991459Y-24866150D01*
X37994100Y-24846092D01*
X37994356Y-24845135D01*
X37996997Y-24835279D01*
X37994973Y-24827724D01*
X37994543Y-24821712D01*
X37994548Y-24821698D01*
X37994515Y-24820761D01*
X37994445Y-24820348D01*
X37994371Y-24819303D01*
X37979318Y-24608844D01*
X37974064Y-24584689D01*
X37963083Y-24534213D01*
X37931063Y-24387018D01*
X37851730Y-24174318D01*
X37822362Y-24120533D01*
X37744261Y-23977502D01*
X37744260Y-23977501D01*
X37742934Y-23975072D01*
X37715066Y-23937845D01*
X37608547Y-23795553D01*
X37608543Y-23795548D01*
X37606889Y-23793339D01*
X37446366Y-23632816D01*
X37444157Y-23631162D01*
X37444152Y-23631158D01*
X37266849Y-23498430D01*
X37264633Y-23496771D01*
X37262203Y-23495444D01*
X37067818Y-23389302D01*
X37067813Y-23389300D01*
X37065387Y-23387975D01*
X36913599Y-23331361D01*
X36855280Y-23309609D01*
X36855278Y-23309608D01*
X36852687Y-23308642D01*
X36705492Y-23276622D01*
X36633565Y-23260975D01*
X36633562Y-23260975D01*
X36630861Y-23260387D01*
X36419353Y-23245259D01*
X36419318Y-23245253D01*
X36419287Y-23245255D01*
X36411981Y-23244732D01*
X36404426Y-23242708D01*
X36394570Y-23245349D01*
X36393613Y-23245605D01*
X36373555Y-23248246D01*
X33350871Y-23248246D01*
X33330813Y-23245605D01*
X33329858Y-23245349D01*
X33329856Y-23245349D01*
X33320000Y-23242708D01*
X33310145Y-23245349D01*
X33299940Y-23245349D01*
X33299940Y-23244285D01*
X33290879Y-23244965D01*
X33254230Y-23240836D01*
X33187819Y-23233352D01*
X33170904Y-23229492D01*
X33107892Y-23207443D01*
X33053592Y-23188442D01*
X33037957Y-23180912D01*
X32932728Y-23114793D01*
X32919159Y-23103973D01*
X32831273Y-23016087D01*
X32820453Y-23002518D01*
X32814086Y-22992384D01*
X32781407Y-22940376D01*
X32754334Y-22897289D01*
X32746804Y-22881654D01*
X32705755Y-22764345D01*
X32701893Y-22747425D01*
X32690281Y-22644367D01*
X32690961Y-22635306D01*
X32689897Y-22635306D01*
X32689897Y-22625101D01*
X32692538Y-22615246D01*
X32689641Y-22604433D01*
X32687000Y-22584375D01*
X32687000Y-20440871D01*
X32689641Y-20420813D01*
X32689897Y-20419857D01*
X32689897Y-20419856D01*
X32692538Y-20410000D01*
X32689898Y-20400145D01*
X32689898Y-20393069D01*
X32690561Y-20382956D01*
X32701104Y-20302871D01*
X32706339Y-20283333D01*
X32743786Y-20192925D01*
X32753902Y-20175405D01*
X32813471Y-20097775D01*
X32827775Y-20083471D01*
X32905405Y-20023902D01*
X32922925Y-20013786D01*
X33013333Y-19976339D01*
X33032869Y-19971104D01*
X33080156Y-19964879D01*
X33112956Y-19960561D01*
X33123069Y-19959898D01*
X33130145Y-19959898D01*
X33140000Y-19962538D01*
X33149856Y-19959897D01*
X33149857Y-19959897D01*
X33150813Y-19959641D01*
X33170871Y-19957000D01*
X33637240Y-19957000D01*
X33687056Y-19975132D01*
G37*
G04 #@! TD.AperFunction*
M02*
