G04 #@! TF.GenerationSoftware,KiCad,Pcbnew,5.0.1*
G04 #@! TF.CreationDate,2019-10-25T23:16:08+02:00*
G04 #@! TF.ProjectId,OtterPill-CAN,4F7474657250696C6C2D43414E2E6B69,rev?*
G04 #@! TF.SameCoordinates,Original*
G04 #@! TF.FileFunction,Paste,Top*
G04 #@! TF.FilePolarity,Positive*
%FSLAX46Y46*%
G04 Gerber Fmt 4.6, Leading zero omitted, Abs format (unit mm)*
G04 Created by KiCad (PCBNEW 5.0.1) date Fri 25 Oct 2019 11:16:08 PM CEST*
%MOMM*%
%LPD*%
G01*
G04 APERTURE LIST*
%ADD10C,0.050000*%
%ADD11R,4.500000X1.300000*%
%ADD12R,1.800000X1.800000*%
%ADD13C,0.100000*%
%ADD14C,0.875000*%
%ADD15C,0.600000*%
G04 APERTURE END LIST*
D10*
X63200000Y-36790000D02*
G75*
G02X62590000Y-37400000I-610000J0D01*
G01*
X62590000Y-19800000D02*
G75*
G02X63200000Y-20410000I0J-610000D01*
G01*
X32530000Y-20410000D02*
G75*
G02X33140000Y-19800000I610000J0D01*
G01*
X33320000Y-23405246D02*
X36404426Y-23405246D01*
X32530000Y-22615246D02*
G75*
G03X33320000Y-23405246I790000J0D01*
G01*
X37834459Y-24835279D02*
G75*
G03X36404426Y-23405246I-1430033J0D01*
G01*
X37834459Y-27430000D02*
X37834459Y-24835279D01*
X50115574Y-35969966D02*
G75*
G03X51545608Y-37400000I1430034J0D01*
G01*
X37834459Y-27430000D02*
G75*
G03X39264493Y-28860034I1430034J0D01*
G01*
X48690000Y-28860000D02*
X39260000Y-28860000D01*
X50115574Y-30290034D02*
G75*
G03X48685540Y-28860000I-1430034J0D01*
G01*
X50115574Y-35964754D02*
X50115574Y-30294754D01*
X32530000Y-20410000D02*
X32530000Y-22615246D01*
X62590000Y-19800000D02*
X33140000Y-19800000D01*
X63200000Y-20400000D02*
X63200000Y-36790000D01*
X51540000Y-37400000D02*
X62600000Y-37400000D01*
D11*
G04 #@! TO.C,J3*
X55490000Y-31100000D03*
X55490000Y-28600000D03*
D12*
X62090000Y-34300000D03*
X62090000Y-22900000D03*
D11*
X55490000Y-26100000D03*
G04 #@! TD*
D13*
G04 #@! TO.C,C9*
G36*
X42577691Y-24736052D02*
X42598926Y-24739202D01*
X42619750Y-24744418D01*
X42639962Y-24751650D01*
X42659368Y-24760829D01*
X42677781Y-24771865D01*
X42695024Y-24784653D01*
X42710930Y-24799069D01*
X42725346Y-24814975D01*
X42738134Y-24832218D01*
X42749170Y-24850631D01*
X42758349Y-24870037D01*
X42765581Y-24890249D01*
X42770797Y-24911073D01*
X42773947Y-24932308D01*
X42775000Y-24953749D01*
X42775000Y-25391249D01*
X42773947Y-25412690D01*
X42770797Y-25433925D01*
X42765581Y-25454749D01*
X42758349Y-25474961D01*
X42749170Y-25494367D01*
X42738134Y-25512780D01*
X42725346Y-25530023D01*
X42710930Y-25545929D01*
X42695024Y-25560345D01*
X42677781Y-25573133D01*
X42659368Y-25584169D01*
X42639962Y-25593348D01*
X42619750Y-25600580D01*
X42598926Y-25605796D01*
X42577691Y-25608946D01*
X42556250Y-25609999D01*
X42043750Y-25609999D01*
X42022309Y-25608946D01*
X42001074Y-25605796D01*
X41980250Y-25600580D01*
X41960038Y-25593348D01*
X41940632Y-25584169D01*
X41922219Y-25573133D01*
X41904976Y-25560345D01*
X41889070Y-25545929D01*
X41874654Y-25530023D01*
X41861866Y-25512780D01*
X41850830Y-25494367D01*
X41841651Y-25474961D01*
X41834419Y-25454749D01*
X41829203Y-25433925D01*
X41826053Y-25412690D01*
X41825000Y-25391249D01*
X41825000Y-24953749D01*
X41826053Y-24932308D01*
X41829203Y-24911073D01*
X41834419Y-24890249D01*
X41841651Y-24870037D01*
X41850830Y-24850631D01*
X41861866Y-24832218D01*
X41874654Y-24814975D01*
X41889070Y-24799069D01*
X41904976Y-24784653D01*
X41922219Y-24771865D01*
X41940632Y-24760829D01*
X41960038Y-24751650D01*
X41980250Y-24744418D01*
X42001074Y-24739202D01*
X42022309Y-24736052D01*
X42043750Y-24734999D01*
X42556250Y-24734999D01*
X42577691Y-24736052D01*
X42577691Y-24736052D01*
G37*
D14*
X42300000Y-25172499D03*
D13*
G36*
X42577691Y-26311054D02*
X42598926Y-26314204D01*
X42619750Y-26319420D01*
X42639962Y-26326652D01*
X42659368Y-26335831D01*
X42677781Y-26346867D01*
X42695024Y-26359655D01*
X42710930Y-26374071D01*
X42725346Y-26389977D01*
X42738134Y-26407220D01*
X42749170Y-26425633D01*
X42758349Y-26445039D01*
X42765581Y-26465251D01*
X42770797Y-26486075D01*
X42773947Y-26507310D01*
X42775000Y-26528751D01*
X42775000Y-26966251D01*
X42773947Y-26987692D01*
X42770797Y-27008927D01*
X42765581Y-27029751D01*
X42758349Y-27049963D01*
X42749170Y-27069369D01*
X42738134Y-27087782D01*
X42725346Y-27105025D01*
X42710930Y-27120931D01*
X42695024Y-27135347D01*
X42677781Y-27148135D01*
X42659368Y-27159171D01*
X42639962Y-27168350D01*
X42619750Y-27175582D01*
X42598926Y-27180798D01*
X42577691Y-27183948D01*
X42556250Y-27185001D01*
X42043750Y-27185001D01*
X42022309Y-27183948D01*
X42001074Y-27180798D01*
X41980250Y-27175582D01*
X41960038Y-27168350D01*
X41940632Y-27159171D01*
X41922219Y-27148135D01*
X41904976Y-27135347D01*
X41889070Y-27120931D01*
X41874654Y-27105025D01*
X41861866Y-27087782D01*
X41850830Y-27069369D01*
X41841651Y-27049963D01*
X41834419Y-27029751D01*
X41829203Y-27008927D01*
X41826053Y-26987692D01*
X41825000Y-26966251D01*
X41825000Y-26528751D01*
X41826053Y-26507310D01*
X41829203Y-26486075D01*
X41834419Y-26465251D01*
X41841651Y-26445039D01*
X41850830Y-26425633D01*
X41861866Y-26407220D01*
X41874654Y-26389977D01*
X41889070Y-26374071D01*
X41904976Y-26359655D01*
X41922219Y-26346867D01*
X41940632Y-26335831D01*
X41960038Y-26326652D01*
X41980250Y-26319420D01*
X42001074Y-26314204D01*
X42022309Y-26311054D01*
X42043750Y-26310001D01*
X42556250Y-26310001D01*
X42577691Y-26311054D01*
X42577691Y-26311054D01*
G37*
D14*
X42300000Y-26747501D03*
G04 #@! TD*
D13*
G04 #@! TO.C,R5*
G36*
X51627691Y-29636053D02*
X51648926Y-29639203D01*
X51669750Y-29644419D01*
X51689962Y-29651651D01*
X51709368Y-29660830D01*
X51727781Y-29671866D01*
X51745024Y-29684654D01*
X51760930Y-29699070D01*
X51775346Y-29714976D01*
X51788134Y-29732219D01*
X51799170Y-29750632D01*
X51808349Y-29770038D01*
X51815581Y-29790250D01*
X51820797Y-29811074D01*
X51823947Y-29832309D01*
X51825000Y-29853750D01*
X51825000Y-30291250D01*
X51823947Y-30312691D01*
X51820797Y-30333926D01*
X51815581Y-30354750D01*
X51808349Y-30374962D01*
X51799170Y-30394368D01*
X51788134Y-30412781D01*
X51775346Y-30430024D01*
X51760930Y-30445930D01*
X51745024Y-30460346D01*
X51727781Y-30473134D01*
X51709368Y-30484170D01*
X51689962Y-30493349D01*
X51669750Y-30500581D01*
X51648926Y-30505797D01*
X51627691Y-30508947D01*
X51606250Y-30510000D01*
X51093750Y-30510000D01*
X51072309Y-30508947D01*
X51051074Y-30505797D01*
X51030250Y-30500581D01*
X51010038Y-30493349D01*
X50990632Y-30484170D01*
X50972219Y-30473134D01*
X50954976Y-30460346D01*
X50939070Y-30445930D01*
X50924654Y-30430024D01*
X50911866Y-30412781D01*
X50900830Y-30394368D01*
X50891651Y-30374962D01*
X50884419Y-30354750D01*
X50879203Y-30333926D01*
X50876053Y-30312691D01*
X50875000Y-30291250D01*
X50875000Y-29853750D01*
X50876053Y-29832309D01*
X50879203Y-29811074D01*
X50884419Y-29790250D01*
X50891651Y-29770038D01*
X50900830Y-29750632D01*
X50911866Y-29732219D01*
X50924654Y-29714976D01*
X50939070Y-29699070D01*
X50954976Y-29684654D01*
X50972219Y-29671866D01*
X50990632Y-29660830D01*
X51010038Y-29651651D01*
X51030250Y-29644419D01*
X51051074Y-29639203D01*
X51072309Y-29636053D01*
X51093750Y-29635000D01*
X51606250Y-29635000D01*
X51627691Y-29636053D01*
X51627691Y-29636053D01*
G37*
D14*
X51350000Y-30072500D03*
D13*
G36*
X51627691Y-31211053D02*
X51648926Y-31214203D01*
X51669750Y-31219419D01*
X51689962Y-31226651D01*
X51709368Y-31235830D01*
X51727781Y-31246866D01*
X51745024Y-31259654D01*
X51760930Y-31274070D01*
X51775346Y-31289976D01*
X51788134Y-31307219D01*
X51799170Y-31325632D01*
X51808349Y-31345038D01*
X51815581Y-31365250D01*
X51820797Y-31386074D01*
X51823947Y-31407309D01*
X51825000Y-31428750D01*
X51825000Y-31866250D01*
X51823947Y-31887691D01*
X51820797Y-31908926D01*
X51815581Y-31929750D01*
X51808349Y-31949962D01*
X51799170Y-31969368D01*
X51788134Y-31987781D01*
X51775346Y-32005024D01*
X51760930Y-32020930D01*
X51745024Y-32035346D01*
X51727781Y-32048134D01*
X51709368Y-32059170D01*
X51689962Y-32068349D01*
X51669750Y-32075581D01*
X51648926Y-32080797D01*
X51627691Y-32083947D01*
X51606250Y-32085000D01*
X51093750Y-32085000D01*
X51072309Y-32083947D01*
X51051074Y-32080797D01*
X51030250Y-32075581D01*
X51010038Y-32068349D01*
X50990632Y-32059170D01*
X50972219Y-32048134D01*
X50954976Y-32035346D01*
X50939070Y-32020930D01*
X50924654Y-32005024D01*
X50911866Y-31987781D01*
X50900830Y-31969368D01*
X50891651Y-31949962D01*
X50884419Y-31929750D01*
X50879203Y-31908926D01*
X50876053Y-31887691D01*
X50875000Y-31866250D01*
X50875000Y-31428750D01*
X50876053Y-31407309D01*
X50879203Y-31386074D01*
X50884419Y-31365250D01*
X50891651Y-31345038D01*
X50900830Y-31325632D01*
X50911866Y-31307219D01*
X50924654Y-31289976D01*
X50939070Y-31274070D01*
X50954976Y-31259654D01*
X50972219Y-31246866D01*
X50990632Y-31235830D01*
X51010038Y-31226651D01*
X51030250Y-31219419D01*
X51051074Y-31214203D01*
X51072309Y-31211053D01*
X51093750Y-31210000D01*
X51606250Y-31210000D01*
X51627691Y-31211053D01*
X51627691Y-31211053D01*
G37*
D14*
X51350000Y-31647500D03*
G04 #@! TD*
D13*
G04 #@! TO.C,U1*
G36*
X45104703Y-23735722D02*
X45119264Y-23737882D01*
X45133543Y-23741459D01*
X45147403Y-23746418D01*
X45160710Y-23752712D01*
X45173336Y-23760280D01*
X45185159Y-23769048D01*
X45196066Y-23778934D01*
X45205952Y-23789841D01*
X45214720Y-23801664D01*
X45222288Y-23814290D01*
X45228582Y-23827597D01*
X45233541Y-23841457D01*
X45237118Y-23855736D01*
X45239278Y-23870297D01*
X45240000Y-23885000D01*
X45240000Y-24185000D01*
X45239278Y-24199703D01*
X45237118Y-24214264D01*
X45233541Y-24228543D01*
X45228582Y-24242403D01*
X45222288Y-24255710D01*
X45214720Y-24268336D01*
X45205952Y-24280159D01*
X45196066Y-24291066D01*
X45185159Y-24300952D01*
X45173336Y-24309720D01*
X45160710Y-24317288D01*
X45147403Y-24323582D01*
X45133543Y-24328541D01*
X45119264Y-24332118D01*
X45104703Y-24334278D01*
X45090000Y-24335000D01*
X43440000Y-24335000D01*
X43425297Y-24334278D01*
X43410736Y-24332118D01*
X43396457Y-24328541D01*
X43382597Y-24323582D01*
X43369290Y-24317288D01*
X43356664Y-24309720D01*
X43344841Y-24300952D01*
X43333934Y-24291066D01*
X43324048Y-24280159D01*
X43315280Y-24268336D01*
X43307712Y-24255710D01*
X43301418Y-24242403D01*
X43296459Y-24228543D01*
X43292882Y-24214264D01*
X43290722Y-24199703D01*
X43290000Y-24185000D01*
X43290000Y-23885000D01*
X43290722Y-23870297D01*
X43292882Y-23855736D01*
X43296459Y-23841457D01*
X43301418Y-23827597D01*
X43307712Y-23814290D01*
X43315280Y-23801664D01*
X43324048Y-23789841D01*
X43333934Y-23778934D01*
X43344841Y-23769048D01*
X43356664Y-23760280D01*
X43369290Y-23752712D01*
X43382597Y-23746418D01*
X43396457Y-23741459D01*
X43410736Y-23737882D01*
X43425297Y-23735722D01*
X43440000Y-23735000D01*
X45090000Y-23735000D01*
X45104703Y-23735722D01*
X45104703Y-23735722D01*
G37*
D15*
X44265000Y-24035000D03*
D13*
G36*
X45104703Y-25005722D02*
X45119264Y-25007882D01*
X45133543Y-25011459D01*
X45147403Y-25016418D01*
X45160710Y-25022712D01*
X45173336Y-25030280D01*
X45185159Y-25039048D01*
X45196066Y-25048934D01*
X45205952Y-25059841D01*
X45214720Y-25071664D01*
X45222288Y-25084290D01*
X45228582Y-25097597D01*
X45233541Y-25111457D01*
X45237118Y-25125736D01*
X45239278Y-25140297D01*
X45240000Y-25155000D01*
X45240000Y-25455000D01*
X45239278Y-25469703D01*
X45237118Y-25484264D01*
X45233541Y-25498543D01*
X45228582Y-25512403D01*
X45222288Y-25525710D01*
X45214720Y-25538336D01*
X45205952Y-25550159D01*
X45196066Y-25561066D01*
X45185159Y-25570952D01*
X45173336Y-25579720D01*
X45160710Y-25587288D01*
X45147403Y-25593582D01*
X45133543Y-25598541D01*
X45119264Y-25602118D01*
X45104703Y-25604278D01*
X45090000Y-25605000D01*
X43440000Y-25605000D01*
X43425297Y-25604278D01*
X43410736Y-25602118D01*
X43396457Y-25598541D01*
X43382597Y-25593582D01*
X43369290Y-25587288D01*
X43356664Y-25579720D01*
X43344841Y-25570952D01*
X43333934Y-25561066D01*
X43324048Y-25550159D01*
X43315280Y-25538336D01*
X43307712Y-25525710D01*
X43301418Y-25512403D01*
X43296459Y-25498543D01*
X43292882Y-25484264D01*
X43290722Y-25469703D01*
X43290000Y-25455000D01*
X43290000Y-25155000D01*
X43290722Y-25140297D01*
X43292882Y-25125736D01*
X43296459Y-25111457D01*
X43301418Y-25097597D01*
X43307712Y-25084290D01*
X43315280Y-25071664D01*
X43324048Y-25059841D01*
X43333934Y-25048934D01*
X43344841Y-25039048D01*
X43356664Y-25030280D01*
X43369290Y-25022712D01*
X43382597Y-25016418D01*
X43396457Y-25011459D01*
X43410736Y-25007882D01*
X43425297Y-25005722D01*
X43440000Y-25005000D01*
X45090000Y-25005000D01*
X45104703Y-25005722D01*
X45104703Y-25005722D01*
G37*
D15*
X44265000Y-25305000D03*
D13*
G36*
X45104703Y-26275722D02*
X45119264Y-26277882D01*
X45133543Y-26281459D01*
X45147403Y-26286418D01*
X45160710Y-26292712D01*
X45173336Y-26300280D01*
X45185159Y-26309048D01*
X45196066Y-26318934D01*
X45205952Y-26329841D01*
X45214720Y-26341664D01*
X45222288Y-26354290D01*
X45228582Y-26367597D01*
X45233541Y-26381457D01*
X45237118Y-26395736D01*
X45239278Y-26410297D01*
X45240000Y-26425000D01*
X45240000Y-26725000D01*
X45239278Y-26739703D01*
X45237118Y-26754264D01*
X45233541Y-26768543D01*
X45228582Y-26782403D01*
X45222288Y-26795710D01*
X45214720Y-26808336D01*
X45205952Y-26820159D01*
X45196066Y-26831066D01*
X45185159Y-26840952D01*
X45173336Y-26849720D01*
X45160710Y-26857288D01*
X45147403Y-26863582D01*
X45133543Y-26868541D01*
X45119264Y-26872118D01*
X45104703Y-26874278D01*
X45090000Y-26875000D01*
X43440000Y-26875000D01*
X43425297Y-26874278D01*
X43410736Y-26872118D01*
X43396457Y-26868541D01*
X43382597Y-26863582D01*
X43369290Y-26857288D01*
X43356664Y-26849720D01*
X43344841Y-26840952D01*
X43333934Y-26831066D01*
X43324048Y-26820159D01*
X43315280Y-26808336D01*
X43307712Y-26795710D01*
X43301418Y-26782403D01*
X43296459Y-26768543D01*
X43292882Y-26754264D01*
X43290722Y-26739703D01*
X43290000Y-26725000D01*
X43290000Y-26425000D01*
X43290722Y-26410297D01*
X43292882Y-26395736D01*
X43296459Y-26381457D01*
X43301418Y-26367597D01*
X43307712Y-26354290D01*
X43315280Y-26341664D01*
X43324048Y-26329841D01*
X43333934Y-26318934D01*
X43344841Y-26309048D01*
X43356664Y-26300280D01*
X43369290Y-26292712D01*
X43382597Y-26286418D01*
X43396457Y-26281459D01*
X43410736Y-26277882D01*
X43425297Y-26275722D01*
X43440000Y-26275000D01*
X45090000Y-26275000D01*
X45104703Y-26275722D01*
X45104703Y-26275722D01*
G37*
D15*
X44265000Y-26575000D03*
D13*
G36*
X45104703Y-27545722D02*
X45119264Y-27547882D01*
X45133543Y-27551459D01*
X45147403Y-27556418D01*
X45160710Y-27562712D01*
X45173336Y-27570280D01*
X45185159Y-27579048D01*
X45196066Y-27588934D01*
X45205952Y-27599841D01*
X45214720Y-27611664D01*
X45222288Y-27624290D01*
X45228582Y-27637597D01*
X45233541Y-27651457D01*
X45237118Y-27665736D01*
X45239278Y-27680297D01*
X45240000Y-27695000D01*
X45240000Y-27995000D01*
X45239278Y-28009703D01*
X45237118Y-28024264D01*
X45233541Y-28038543D01*
X45228582Y-28052403D01*
X45222288Y-28065710D01*
X45214720Y-28078336D01*
X45205952Y-28090159D01*
X45196066Y-28101066D01*
X45185159Y-28110952D01*
X45173336Y-28119720D01*
X45160710Y-28127288D01*
X45147403Y-28133582D01*
X45133543Y-28138541D01*
X45119264Y-28142118D01*
X45104703Y-28144278D01*
X45090000Y-28145000D01*
X43440000Y-28145000D01*
X43425297Y-28144278D01*
X43410736Y-28142118D01*
X43396457Y-28138541D01*
X43382597Y-28133582D01*
X43369290Y-28127288D01*
X43356664Y-28119720D01*
X43344841Y-28110952D01*
X43333934Y-28101066D01*
X43324048Y-28090159D01*
X43315280Y-28078336D01*
X43307712Y-28065710D01*
X43301418Y-28052403D01*
X43296459Y-28038543D01*
X43292882Y-28024264D01*
X43290722Y-28009703D01*
X43290000Y-27995000D01*
X43290000Y-27695000D01*
X43290722Y-27680297D01*
X43292882Y-27665736D01*
X43296459Y-27651457D01*
X43301418Y-27637597D01*
X43307712Y-27624290D01*
X43315280Y-27611664D01*
X43324048Y-27599841D01*
X43333934Y-27588934D01*
X43344841Y-27579048D01*
X43356664Y-27570280D01*
X43369290Y-27562712D01*
X43382597Y-27556418D01*
X43396457Y-27551459D01*
X43410736Y-27547882D01*
X43425297Y-27545722D01*
X43440000Y-27545000D01*
X45090000Y-27545000D01*
X45104703Y-27545722D01*
X45104703Y-27545722D01*
G37*
D15*
X44265000Y-27845000D03*
D13*
G36*
X50054703Y-27545722D02*
X50069264Y-27547882D01*
X50083543Y-27551459D01*
X50097403Y-27556418D01*
X50110710Y-27562712D01*
X50123336Y-27570280D01*
X50135159Y-27579048D01*
X50146066Y-27588934D01*
X50155952Y-27599841D01*
X50164720Y-27611664D01*
X50172288Y-27624290D01*
X50178582Y-27637597D01*
X50183541Y-27651457D01*
X50187118Y-27665736D01*
X50189278Y-27680297D01*
X50190000Y-27695000D01*
X50190000Y-27995000D01*
X50189278Y-28009703D01*
X50187118Y-28024264D01*
X50183541Y-28038543D01*
X50178582Y-28052403D01*
X50172288Y-28065710D01*
X50164720Y-28078336D01*
X50155952Y-28090159D01*
X50146066Y-28101066D01*
X50135159Y-28110952D01*
X50123336Y-28119720D01*
X50110710Y-28127288D01*
X50097403Y-28133582D01*
X50083543Y-28138541D01*
X50069264Y-28142118D01*
X50054703Y-28144278D01*
X50040000Y-28145000D01*
X48390000Y-28145000D01*
X48375297Y-28144278D01*
X48360736Y-28142118D01*
X48346457Y-28138541D01*
X48332597Y-28133582D01*
X48319290Y-28127288D01*
X48306664Y-28119720D01*
X48294841Y-28110952D01*
X48283934Y-28101066D01*
X48274048Y-28090159D01*
X48265280Y-28078336D01*
X48257712Y-28065710D01*
X48251418Y-28052403D01*
X48246459Y-28038543D01*
X48242882Y-28024264D01*
X48240722Y-28009703D01*
X48240000Y-27995000D01*
X48240000Y-27695000D01*
X48240722Y-27680297D01*
X48242882Y-27665736D01*
X48246459Y-27651457D01*
X48251418Y-27637597D01*
X48257712Y-27624290D01*
X48265280Y-27611664D01*
X48274048Y-27599841D01*
X48283934Y-27588934D01*
X48294841Y-27579048D01*
X48306664Y-27570280D01*
X48319290Y-27562712D01*
X48332597Y-27556418D01*
X48346457Y-27551459D01*
X48360736Y-27547882D01*
X48375297Y-27545722D01*
X48390000Y-27545000D01*
X50040000Y-27545000D01*
X50054703Y-27545722D01*
X50054703Y-27545722D01*
G37*
D15*
X49215000Y-27845000D03*
D13*
G36*
X50054703Y-26275722D02*
X50069264Y-26277882D01*
X50083543Y-26281459D01*
X50097403Y-26286418D01*
X50110710Y-26292712D01*
X50123336Y-26300280D01*
X50135159Y-26309048D01*
X50146066Y-26318934D01*
X50155952Y-26329841D01*
X50164720Y-26341664D01*
X50172288Y-26354290D01*
X50178582Y-26367597D01*
X50183541Y-26381457D01*
X50187118Y-26395736D01*
X50189278Y-26410297D01*
X50190000Y-26425000D01*
X50190000Y-26725000D01*
X50189278Y-26739703D01*
X50187118Y-26754264D01*
X50183541Y-26768543D01*
X50178582Y-26782403D01*
X50172288Y-26795710D01*
X50164720Y-26808336D01*
X50155952Y-26820159D01*
X50146066Y-26831066D01*
X50135159Y-26840952D01*
X50123336Y-26849720D01*
X50110710Y-26857288D01*
X50097403Y-26863582D01*
X50083543Y-26868541D01*
X50069264Y-26872118D01*
X50054703Y-26874278D01*
X50040000Y-26875000D01*
X48390000Y-26875000D01*
X48375297Y-26874278D01*
X48360736Y-26872118D01*
X48346457Y-26868541D01*
X48332597Y-26863582D01*
X48319290Y-26857288D01*
X48306664Y-26849720D01*
X48294841Y-26840952D01*
X48283934Y-26831066D01*
X48274048Y-26820159D01*
X48265280Y-26808336D01*
X48257712Y-26795710D01*
X48251418Y-26782403D01*
X48246459Y-26768543D01*
X48242882Y-26754264D01*
X48240722Y-26739703D01*
X48240000Y-26725000D01*
X48240000Y-26425000D01*
X48240722Y-26410297D01*
X48242882Y-26395736D01*
X48246459Y-26381457D01*
X48251418Y-26367597D01*
X48257712Y-26354290D01*
X48265280Y-26341664D01*
X48274048Y-26329841D01*
X48283934Y-26318934D01*
X48294841Y-26309048D01*
X48306664Y-26300280D01*
X48319290Y-26292712D01*
X48332597Y-26286418D01*
X48346457Y-26281459D01*
X48360736Y-26277882D01*
X48375297Y-26275722D01*
X48390000Y-26275000D01*
X50040000Y-26275000D01*
X50054703Y-26275722D01*
X50054703Y-26275722D01*
G37*
D15*
X49215000Y-26575000D03*
D13*
G36*
X50054703Y-25005722D02*
X50069264Y-25007882D01*
X50083543Y-25011459D01*
X50097403Y-25016418D01*
X50110710Y-25022712D01*
X50123336Y-25030280D01*
X50135159Y-25039048D01*
X50146066Y-25048934D01*
X50155952Y-25059841D01*
X50164720Y-25071664D01*
X50172288Y-25084290D01*
X50178582Y-25097597D01*
X50183541Y-25111457D01*
X50187118Y-25125736D01*
X50189278Y-25140297D01*
X50190000Y-25155000D01*
X50190000Y-25455000D01*
X50189278Y-25469703D01*
X50187118Y-25484264D01*
X50183541Y-25498543D01*
X50178582Y-25512403D01*
X50172288Y-25525710D01*
X50164720Y-25538336D01*
X50155952Y-25550159D01*
X50146066Y-25561066D01*
X50135159Y-25570952D01*
X50123336Y-25579720D01*
X50110710Y-25587288D01*
X50097403Y-25593582D01*
X50083543Y-25598541D01*
X50069264Y-25602118D01*
X50054703Y-25604278D01*
X50040000Y-25605000D01*
X48390000Y-25605000D01*
X48375297Y-25604278D01*
X48360736Y-25602118D01*
X48346457Y-25598541D01*
X48332597Y-25593582D01*
X48319290Y-25587288D01*
X48306664Y-25579720D01*
X48294841Y-25570952D01*
X48283934Y-25561066D01*
X48274048Y-25550159D01*
X48265280Y-25538336D01*
X48257712Y-25525710D01*
X48251418Y-25512403D01*
X48246459Y-25498543D01*
X48242882Y-25484264D01*
X48240722Y-25469703D01*
X48240000Y-25455000D01*
X48240000Y-25155000D01*
X48240722Y-25140297D01*
X48242882Y-25125736D01*
X48246459Y-25111457D01*
X48251418Y-25097597D01*
X48257712Y-25084290D01*
X48265280Y-25071664D01*
X48274048Y-25059841D01*
X48283934Y-25048934D01*
X48294841Y-25039048D01*
X48306664Y-25030280D01*
X48319290Y-25022712D01*
X48332597Y-25016418D01*
X48346457Y-25011459D01*
X48360736Y-25007882D01*
X48375297Y-25005722D01*
X48390000Y-25005000D01*
X50040000Y-25005000D01*
X50054703Y-25005722D01*
X50054703Y-25005722D01*
G37*
D15*
X49215000Y-25305000D03*
D13*
G36*
X50054703Y-23735722D02*
X50069264Y-23737882D01*
X50083543Y-23741459D01*
X50097403Y-23746418D01*
X50110710Y-23752712D01*
X50123336Y-23760280D01*
X50135159Y-23769048D01*
X50146066Y-23778934D01*
X50155952Y-23789841D01*
X50164720Y-23801664D01*
X50172288Y-23814290D01*
X50178582Y-23827597D01*
X50183541Y-23841457D01*
X50187118Y-23855736D01*
X50189278Y-23870297D01*
X50190000Y-23885000D01*
X50190000Y-24185000D01*
X50189278Y-24199703D01*
X50187118Y-24214264D01*
X50183541Y-24228543D01*
X50178582Y-24242403D01*
X50172288Y-24255710D01*
X50164720Y-24268336D01*
X50155952Y-24280159D01*
X50146066Y-24291066D01*
X50135159Y-24300952D01*
X50123336Y-24309720D01*
X50110710Y-24317288D01*
X50097403Y-24323582D01*
X50083543Y-24328541D01*
X50069264Y-24332118D01*
X50054703Y-24334278D01*
X50040000Y-24335000D01*
X48390000Y-24335000D01*
X48375297Y-24334278D01*
X48360736Y-24332118D01*
X48346457Y-24328541D01*
X48332597Y-24323582D01*
X48319290Y-24317288D01*
X48306664Y-24309720D01*
X48294841Y-24300952D01*
X48283934Y-24291066D01*
X48274048Y-24280159D01*
X48265280Y-24268336D01*
X48257712Y-24255710D01*
X48251418Y-24242403D01*
X48246459Y-24228543D01*
X48242882Y-24214264D01*
X48240722Y-24199703D01*
X48240000Y-24185000D01*
X48240000Y-23885000D01*
X48240722Y-23870297D01*
X48242882Y-23855736D01*
X48246459Y-23841457D01*
X48251418Y-23827597D01*
X48257712Y-23814290D01*
X48265280Y-23801664D01*
X48274048Y-23789841D01*
X48283934Y-23778934D01*
X48294841Y-23769048D01*
X48306664Y-23760280D01*
X48319290Y-23752712D01*
X48332597Y-23746418D01*
X48346457Y-23741459D01*
X48360736Y-23737882D01*
X48375297Y-23735722D01*
X48390000Y-23735000D01*
X50040000Y-23735000D01*
X50054703Y-23735722D01*
X50054703Y-23735722D01*
G37*
D15*
X49215000Y-24035000D03*
G04 #@! TD*
D13*
G04 #@! TO.C,R2*
G36*
X51627691Y-28251053D02*
X51648926Y-28254203D01*
X51669750Y-28259419D01*
X51689962Y-28266651D01*
X51709368Y-28275830D01*
X51727781Y-28286866D01*
X51745024Y-28299654D01*
X51760930Y-28314070D01*
X51775346Y-28329976D01*
X51788134Y-28347219D01*
X51799170Y-28365632D01*
X51808349Y-28385038D01*
X51815581Y-28405250D01*
X51820797Y-28426074D01*
X51823947Y-28447309D01*
X51825000Y-28468750D01*
X51825000Y-28906250D01*
X51823947Y-28927691D01*
X51820797Y-28948926D01*
X51815581Y-28969750D01*
X51808349Y-28989962D01*
X51799170Y-29009368D01*
X51788134Y-29027781D01*
X51775346Y-29045024D01*
X51760930Y-29060930D01*
X51745024Y-29075346D01*
X51727781Y-29088134D01*
X51709368Y-29099170D01*
X51689962Y-29108349D01*
X51669750Y-29115581D01*
X51648926Y-29120797D01*
X51627691Y-29123947D01*
X51606250Y-29125000D01*
X51093750Y-29125000D01*
X51072309Y-29123947D01*
X51051074Y-29120797D01*
X51030250Y-29115581D01*
X51010038Y-29108349D01*
X50990632Y-29099170D01*
X50972219Y-29088134D01*
X50954976Y-29075346D01*
X50939070Y-29060930D01*
X50924654Y-29045024D01*
X50911866Y-29027781D01*
X50900830Y-29009368D01*
X50891651Y-28989962D01*
X50884419Y-28969750D01*
X50879203Y-28948926D01*
X50876053Y-28927691D01*
X50875000Y-28906250D01*
X50875000Y-28468750D01*
X50876053Y-28447309D01*
X50879203Y-28426074D01*
X50884419Y-28405250D01*
X50891651Y-28385038D01*
X50900830Y-28365632D01*
X50911866Y-28347219D01*
X50924654Y-28329976D01*
X50939070Y-28314070D01*
X50954976Y-28299654D01*
X50972219Y-28286866D01*
X50990632Y-28275830D01*
X51010038Y-28266651D01*
X51030250Y-28259419D01*
X51051074Y-28254203D01*
X51072309Y-28251053D01*
X51093750Y-28250000D01*
X51606250Y-28250000D01*
X51627691Y-28251053D01*
X51627691Y-28251053D01*
G37*
D14*
X51350000Y-28687500D03*
D13*
G36*
X51627691Y-26676053D02*
X51648926Y-26679203D01*
X51669750Y-26684419D01*
X51689962Y-26691651D01*
X51709368Y-26700830D01*
X51727781Y-26711866D01*
X51745024Y-26724654D01*
X51760930Y-26739070D01*
X51775346Y-26754976D01*
X51788134Y-26772219D01*
X51799170Y-26790632D01*
X51808349Y-26810038D01*
X51815581Y-26830250D01*
X51820797Y-26851074D01*
X51823947Y-26872309D01*
X51825000Y-26893750D01*
X51825000Y-27331250D01*
X51823947Y-27352691D01*
X51820797Y-27373926D01*
X51815581Y-27394750D01*
X51808349Y-27414962D01*
X51799170Y-27434368D01*
X51788134Y-27452781D01*
X51775346Y-27470024D01*
X51760930Y-27485930D01*
X51745024Y-27500346D01*
X51727781Y-27513134D01*
X51709368Y-27524170D01*
X51689962Y-27533349D01*
X51669750Y-27540581D01*
X51648926Y-27545797D01*
X51627691Y-27548947D01*
X51606250Y-27550000D01*
X51093750Y-27550000D01*
X51072309Y-27548947D01*
X51051074Y-27545797D01*
X51030250Y-27540581D01*
X51010038Y-27533349D01*
X50990632Y-27524170D01*
X50972219Y-27513134D01*
X50954976Y-27500346D01*
X50939070Y-27485930D01*
X50924654Y-27470024D01*
X50911866Y-27452781D01*
X50900830Y-27434368D01*
X50891651Y-27414962D01*
X50884419Y-27394750D01*
X50879203Y-27373926D01*
X50876053Y-27352691D01*
X50875000Y-27331250D01*
X50875000Y-26893750D01*
X50876053Y-26872309D01*
X50879203Y-26851074D01*
X50884419Y-26830250D01*
X50891651Y-26810038D01*
X50900830Y-26790632D01*
X50911866Y-26772219D01*
X50924654Y-26754976D01*
X50939070Y-26739070D01*
X50954976Y-26724654D01*
X50972219Y-26711866D01*
X50990632Y-26700830D01*
X51010038Y-26691651D01*
X51030250Y-26684419D01*
X51051074Y-26679203D01*
X51072309Y-26676053D01*
X51093750Y-26675000D01*
X51606250Y-26675000D01*
X51627691Y-26676053D01*
X51627691Y-26676053D01*
G37*
D14*
X51350000Y-27112500D03*
G04 #@! TD*
D13*
G04 #@! TO.C,R1*
G36*
X51627691Y-23718553D02*
X51648926Y-23721703D01*
X51669750Y-23726919D01*
X51689962Y-23734151D01*
X51709368Y-23743330D01*
X51727781Y-23754366D01*
X51745024Y-23767154D01*
X51760930Y-23781570D01*
X51775346Y-23797476D01*
X51788134Y-23814719D01*
X51799170Y-23833132D01*
X51808349Y-23852538D01*
X51815581Y-23872750D01*
X51820797Y-23893574D01*
X51823947Y-23914809D01*
X51825000Y-23936250D01*
X51825000Y-24373750D01*
X51823947Y-24395191D01*
X51820797Y-24416426D01*
X51815581Y-24437250D01*
X51808349Y-24457462D01*
X51799170Y-24476868D01*
X51788134Y-24495281D01*
X51775346Y-24512524D01*
X51760930Y-24528430D01*
X51745024Y-24542846D01*
X51727781Y-24555634D01*
X51709368Y-24566670D01*
X51689962Y-24575849D01*
X51669750Y-24583081D01*
X51648926Y-24588297D01*
X51627691Y-24591447D01*
X51606250Y-24592500D01*
X51093750Y-24592500D01*
X51072309Y-24591447D01*
X51051074Y-24588297D01*
X51030250Y-24583081D01*
X51010038Y-24575849D01*
X50990632Y-24566670D01*
X50972219Y-24555634D01*
X50954976Y-24542846D01*
X50939070Y-24528430D01*
X50924654Y-24512524D01*
X50911866Y-24495281D01*
X50900830Y-24476868D01*
X50891651Y-24457462D01*
X50884419Y-24437250D01*
X50879203Y-24416426D01*
X50876053Y-24395191D01*
X50875000Y-24373750D01*
X50875000Y-23936250D01*
X50876053Y-23914809D01*
X50879203Y-23893574D01*
X50884419Y-23872750D01*
X50891651Y-23852538D01*
X50900830Y-23833132D01*
X50911866Y-23814719D01*
X50924654Y-23797476D01*
X50939070Y-23781570D01*
X50954976Y-23767154D01*
X50972219Y-23754366D01*
X50990632Y-23743330D01*
X51010038Y-23734151D01*
X51030250Y-23726919D01*
X51051074Y-23721703D01*
X51072309Y-23718553D01*
X51093750Y-23717500D01*
X51606250Y-23717500D01*
X51627691Y-23718553D01*
X51627691Y-23718553D01*
G37*
D14*
X51350000Y-24155000D03*
D13*
G36*
X51627691Y-25293553D02*
X51648926Y-25296703D01*
X51669750Y-25301919D01*
X51689962Y-25309151D01*
X51709368Y-25318330D01*
X51727781Y-25329366D01*
X51745024Y-25342154D01*
X51760930Y-25356570D01*
X51775346Y-25372476D01*
X51788134Y-25389719D01*
X51799170Y-25408132D01*
X51808349Y-25427538D01*
X51815581Y-25447750D01*
X51820797Y-25468574D01*
X51823947Y-25489809D01*
X51825000Y-25511250D01*
X51825000Y-25948750D01*
X51823947Y-25970191D01*
X51820797Y-25991426D01*
X51815581Y-26012250D01*
X51808349Y-26032462D01*
X51799170Y-26051868D01*
X51788134Y-26070281D01*
X51775346Y-26087524D01*
X51760930Y-26103430D01*
X51745024Y-26117846D01*
X51727781Y-26130634D01*
X51709368Y-26141670D01*
X51689962Y-26150849D01*
X51669750Y-26158081D01*
X51648926Y-26163297D01*
X51627691Y-26166447D01*
X51606250Y-26167500D01*
X51093750Y-26167500D01*
X51072309Y-26166447D01*
X51051074Y-26163297D01*
X51030250Y-26158081D01*
X51010038Y-26150849D01*
X50990632Y-26141670D01*
X50972219Y-26130634D01*
X50954976Y-26117846D01*
X50939070Y-26103430D01*
X50924654Y-26087524D01*
X50911866Y-26070281D01*
X50900830Y-26051868D01*
X50891651Y-26032462D01*
X50884419Y-26012250D01*
X50879203Y-25991426D01*
X50876053Y-25970191D01*
X50875000Y-25948750D01*
X50875000Y-25511250D01*
X50876053Y-25489809D01*
X50879203Y-25468574D01*
X50884419Y-25447750D01*
X50891651Y-25427538D01*
X50900830Y-25408132D01*
X50911866Y-25389719D01*
X50924654Y-25372476D01*
X50939070Y-25356570D01*
X50954976Y-25342154D01*
X50972219Y-25329366D01*
X50990632Y-25318330D01*
X51010038Y-25309151D01*
X51030250Y-25301919D01*
X51051074Y-25296703D01*
X51072309Y-25293553D01*
X51093750Y-25292500D01*
X51606250Y-25292500D01*
X51627691Y-25293553D01*
X51627691Y-25293553D01*
G37*
D14*
X51350000Y-25730000D03*
G04 #@! TD*
M02*
