G04 #@! TF.GenerationSoftware,KiCad,Pcbnew,5.0.1*
G04 #@! TF.CreationDate,2019-10-25T23:16:08+02:00*
G04 #@! TF.ProjectId,OtterPill-CAN,4F7474657250696C6C2D43414E2E6B69,rev?*
G04 #@! TF.SameCoordinates,Original*
G04 #@! TF.FileFunction,Soldermask,Bot*
G04 #@! TF.FilePolarity,Negative*
%FSLAX46Y46*%
G04 Gerber Fmt 4.6, Leading zero omitted, Abs format (unit mm)*
G04 Created by KiCad (PCBNEW 5.0.1) date Fri 25 Oct 2019 11:16:08 PM CEST*
%MOMM*%
%LPD*%
G01*
G04 APERTURE LIST*
%ADD10C,0.050000*%
%ADD11C,1.700000*%
%ADD12O,1.700000X1.700000*%
G04 APERTURE END LIST*
D10*
X63200000Y-36790000D02*
G75*
G02X62590000Y-37400000I-610000J0D01*
G01*
X62590000Y-19800000D02*
G75*
G02X63200000Y-20410000I0J-610000D01*
G01*
X32530000Y-20410000D02*
G75*
G02X33140000Y-19800000I610000J0D01*
G01*
X33320000Y-23405246D02*
X36404426Y-23405246D01*
X32530000Y-22615246D02*
G75*
G03X33320000Y-23405246I790000J0D01*
G01*
X37834459Y-24835279D02*
G75*
G03X36404426Y-23405246I-1430033J0D01*
G01*
X37834459Y-27430000D02*
X37834459Y-24835279D01*
X50115574Y-35969966D02*
G75*
G03X51545608Y-37400000I1430034J0D01*
G01*
X37834459Y-27430000D02*
G75*
G03X39264493Y-28860034I1430034J0D01*
G01*
X48690000Y-28860000D02*
X39260000Y-28860000D01*
X50115574Y-30290034D02*
G75*
G03X48685540Y-28860000I-1430034J0D01*
G01*
X50115574Y-35964754D02*
X50115574Y-30294754D01*
X32530000Y-20410000D02*
X32530000Y-22615246D01*
X62590000Y-19800000D02*
X33140000Y-19800000D01*
X63200000Y-20400000D02*
X63200000Y-36790000D01*
X51540000Y-37400000D02*
X62600000Y-37400000D01*
D11*
G04 #@! TO.C,J7*
X53900000Y-23900000D03*
G04 #@! TD*
G04 #@! TO.C,J1*
X59260000Y-36100000D03*
D12*
X56720000Y-36100000D03*
X54180000Y-36100000D03*
X51640000Y-36100000D03*
G04 #@! TD*
D11*
G04 #@! TO.C,J2*
X33860000Y-21100000D03*
D12*
X36400000Y-21100000D03*
X38940000Y-21100000D03*
X41480000Y-21100000D03*
X44020000Y-21100000D03*
X46560000Y-21100000D03*
X49100000Y-21100000D03*
X51640000Y-21100000D03*
X54180000Y-21100000D03*
X56720000Y-21100000D03*
X59260000Y-21100000D03*
G04 #@! TD*
G04 #@! TO.C,J5*
X59200000Y-32470000D03*
D11*
X59200000Y-29930000D03*
D12*
X59200000Y-27390000D03*
D11*
X59200000Y-24850000D03*
G04 #@! TD*
M02*
