M48
; DRILL file {KiCad 6.0.0-d3dd2cf0fa~116~ubuntu20.04.1} date Wed 19 Jan 2022 12:38:59 AM CET
; FORMAT={-:-/ absolute / metric / decimal}
; #@! TF.CreationDate,2022-01-19T00:38:59+01:00
; #@! TF.GenerationSoftware,Kicad,Pcbnew,6.0.0-d3dd2cf0fa~116~ubuntu20.04.1
; #@! TF.FileFunction,Plated,1,2,PTH
FMAT,2
METRIC
; #@! TA.AperFunction,Plated,PTH,ViaDrill
T1C0.300
; #@! TA.AperFunction,Plated,PTH,ComponentDrill
T2C1.000
%
G90
G05
T1
X38.05Y-23.59
X39.92Y-28.09
X40.11Y-23.46
X42.35Y-23.85
X45.91Y-25.33
X46.02Y-27.88
X46.92Y-23.92
X47.65Y-27.07
X51.97Y-32.77
X53.71Y-29.84
X53.72Y-27.33
X54.31Y-33.11
X56.23Y-24.62
X56.56Y-29.87
X56.59Y-27.35
X57.61Y-27.35
X57.62Y-29.85
X57.66Y-33.42
X58.28Y-28.61
T2
X33.86Y-21.1
X36.4Y-21.1
X38.94Y-21.1
X41.48Y-21.1
X44.02Y-21.1
X46.56Y-21.1
X49.1Y-21.1
X51.64Y-21.1
X51.64Y-36.1
X53.9Y-23.9
X54.18Y-21.1
X54.18Y-36.1
X56.72Y-21.1
X56.72Y-36.1
X59.26Y-21.1
X59.26Y-36.1
T0
M30
