G04 #@! TF.GenerationSoftware,KiCad,Pcbnew,5.1.4+dfsg1-1*
G04 #@! TF.CreationDate,2019-11-18T14:51:44+01:00*
G04 #@! TF.ProjectId,OtterPill-CAN,4f747465-7250-4696-9c6c-2d43414e2e6b,rev?*
G04 #@! TF.SameCoordinates,Original*
G04 #@! TF.FileFunction,Soldermask,Bot*
G04 #@! TF.FilePolarity,Negative*
%FSLAX46Y46*%
G04 Gerber Fmt 4.6, Leading zero omitted, Abs format (unit mm)*
G04 Created by KiCad (PCBNEW 5.1.4+dfsg1-1) date 2019-11-18 14:51:44*
%MOMM*%
%LPD*%
G04 APERTURE LIST*
%ADD10C,0.050000*%
%ADD11C,0.100000*%
G04 APERTURE END LIST*
D10*
X63200000Y-37100000D02*
G75*
G02X62900000Y-37400000I-300000J0D01*
G01*
X62900000Y-19800000D02*
G75*
G02X63200000Y-20100000I0J-300000D01*
G01*
X32530000Y-20410000D02*
G75*
G02X33140000Y-19800000I610000J0D01*
G01*
X33320000Y-23405246D02*
X36404426Y-23405246D01*
X32530000Y-22615246D02*
G75*
G03X33320000Y-23405246I790000J0D01*
G01*
X37834459Y-24835279D02*
G75*
G03X36404426Y-23405246I-1430033J0D01*
G01*
X37834459Y-27430000D02*
X37834459Y-24835279D01*
X50115574Y-35969966D02*
G75*
G03X51545608Y-37400000I1430034J0D01*
G01*
X37834459Y-27430000D02*
G75*
G03X39264493Y-28860034I1430034J0D01*
G01*
X48685540Y-28860000D02*
X39264493Y-28860034D01*
X50115574Y-30290034D02*
G75*
G03X48685540Y-28860000I-1430034J0D01*
G01*
X50115574Y-35969966D02*
X50115574Y-30290034D01*
X32530000Y-20410000D02*
X32530000Y-22615246D01*
X62900000Y-19800000D02*
X33140000Y-19800000D01*
X63200000Y-20100000D02*
X63200000Y-37100000D01*
X51545608Y-37400000D02*
X62900000Y-37400000D01*
D11*
G36*
X54346627Y-35262299D02*
G01*
X54413762Y-35282664D01*
X54506855Y-35310903D01*
X54506857Y-35310904D01*
X54654518Y-35389831D01*
X54783949Y-35496051D01*
X54890169Y-35625482D01*
X54969096Y-35773143D01*
X55017701Y-35933373D01*
X55034112Y-36100000D01*
X55017701Y-36266627D01*
X54969096Y-36426857D01*
X54890169Y-36574518D01*
X54783949Y-36703949D01*
X54654518Y-36810169D01*
X54573901Y-36853260D01*
X54506855Y-36889097D01*
X54426742Y-36913398D01*
X54346627Y-36937701D01*
X54221752Y-36950000D01*
X54138248Y-36950000D01*
X54013373Y-36937701D01*
X53933258Y-36913398D01*
X53853145Y-36889097D01*
X53786099Y-36853260D01*
X53705482Y-36810169D01*
X53576051Y-36703949D01*
X53469831Y-36574518D01*
X53390904Y-36426857D01*
X53342299Y-36266627D01*
X53325888Y-36100000D01*
X53342299Y-35933373D01*
X53390904Y-35773143D01*
X53469831Y-35625482D01*
X53576051Y-35496051D01*
X53705482Y-35389831D01*
X53853143Y-35310904D01*
X53853145Y-35310903D01*
X53946238Y-35282664D01*
X54013373Y-35262299D01*
X54138248Y-35250000D01*
X54221752Y-35250000D01*
X54346627Y-35262299D01*
X54346627Y-35262299D01*
G37*
G36*
X51806627Y-35262299D02*
G01*
X51873762Y-35282664D01*
X51966855Y-35310903D01*
X51966857Y-35310904D01*
X52114518Y-35389831D01*
X52243949Y-35496051D01*
X52350169Y-35625482D01*
X52429096Y-35773143D01*
X52477701Y-35933373D01*
X52494112Y-36100000D01*
X52477701Y-36266627D01*
X52429096Y-36426857D01*
X52350169Y-36574518D01*
X52243949Y-36703949D01*
X52114518Y-36810169D01*
X52033901Y-36853260D01*
X51966855Y-36889097D01*
X51886742Y-36913398D01*
X51806627Y-36937701D01*
X51681752Y-36950000D01*
X51598248Y-36950000D01*
X51473373Y-36937701D01*
X51393258Y-36913398D01*
X51313145Y-36889097D01*
X51246099Y-36853260D01*
X51165482Y-36810169D01*
X51036051Y-36703949D01*
X50929831Y-36574518D01*
X50850904Y-36426857D01*
X50802299Y-36266627D01*
X50785888Y-36100000D01*
X50802299Y-35933373D01*
X50850904Y-35773143D01*
X50929831Y-35625482D01*
X51036051Y-35496051D01*
X51165482Y-35389831D01*
X51313143Y-35310904D01*
X51313145Y-35310903D01*
X51406238Y-35282664D01*
X51473373Y-35262299D01*
X51598248Y-35250000D01*
X51681752Y-35250000D01*
X51806627Y-35262299D01*
X51806627Y-35262299D01*
G37*
G36*
X59507935Y-35282664D02*
G01*
X59662624Y-35346739D01*
X59662626Y-35346740D01*
X59801844Y-35439762D01*
X59920238Y-35558156D01*
X60013260Y-35697374D01*
X60013261Y-35697376D01*
X60077336Y-35852065D01*
X60110000Y-36016281D01*
X60110000Y-36183719D01*
X60077336Y-36347935D01*
X60044646Y-36426855D01*
X60013260Y-36502626D01*
X59920238Y-36641844D01*
X59801844Y-36760238D01*
X59662626Y-36853260D01*
X59662625Y-36853261D01*
X59662624Y-36853261D01*
X59507935Y-36917336D01*
X59343719Y-36950000D01*
X59176281Y-36950000D01*
X59012065Y-36917336D01*
X58857376Y-36853261D01*
X58857375Y-36853261D01*
X58857374Y-36853260D01*
X58718156Y-36760238D01*
X58599762Y-36641844D01*
X58506740Y-36502626D01*
X58475354Y-36426855D01*
X58442664Y-36347935D01*
X58410000Y-36183719D01*
X58410000Y-36016281D01*
X58442664Y-35852065D01*
X58506739Y-35697376D01*
X58506740Y-35697374D01*
X58599762Y-35558156D01*
X58718156Y-35439762D01*
X58857374Y-35346740D01*
X58857376Y-35346739D01*
X59012065Y-35282664D01*
X59176281Y-35250000D01*
X59343719Y-35250000D01*
X59507935Y-35282664D01*
X59507935Y-35282664D01*
G37*
G36*
X56886627Y-35262299D02*
G01*
X56953762Y-35282664D01*
X57046855Y-35310903D01*
X57046857Y-35310904D01*
X57194518Y-35389831D01*
X57323949Y-35496051D01*
X57430169Y-35625482D01*
X57509096Y-35773143D01*
X57557701Y-35933373D01*
X57574112Y-36100000D01*
X57557701Y-36266627D01*
X57509096Y-36426857D01*
X57430169Y-36574518D01*
X57323949Y-36703949D01*
X57194518Y-36810169D01*
X57113901Y-36853260D01*
X57046855Y-36889097D01*
X56966742Y-36913398D01*
X56886627Y-36937701D01*
X56761752Y-36950000D01*
X56678248Y-36950000D01*
X56553373Y-36937701D01*
X56473258Y-36913398D01*
X56393145Y-36889097D01*
X56326099Y-36853260D01*
X56245482Y-36810169D01*
X56116051Y-36703949D01*
X56009831Y-36574518D01*
X55930904Y-36426857D01*
X55882299Y-36266627D01*
X55865888Y-36100000D01*
X55882299Y-35933373D01*
X55930904Y-35773143D01*
X56009831Y-35625482D01*
X56116051Y-35496051D01*
X56245482Y-35389831D01*
X56393143Y-35310904D01*
X56393145Y-35310903D01*
X56486238Y-35282664D01*
X56553373Y-35262299D01*
X56678248Y-35250000D01*
X56761752Y-35250000D01*
X56886627Y-35262299D01*
X56886627Y-35262299D01*
G37*
G36*
X59366627Y-31632299D02*
G01*
X59446742Y-31656602D01*
X59526855Y-31680903D01*
X59526857Y-31680904D01*
X59674518Y-31759831D01*
X59803949Y-31866051D01*
X59910169Y-31995482D01*
X59989096Y-32143143D01*
X60037701Y-32303373D01*
X60054112Y-32470000D01*
X60037701Y-32636627D01*
X59989096Y-32796857D01*
X59910169Y-32944518D01*
X59803949Y-33073949D01*
X59674518Y-33180169D01*
X59526857Y-33259096D01*
X59526855Y-33259097D01*
X59446742Y-33283398D01*
X59366627Y-33307701D01*
X59241752Y-33320000D01*
X59158248Y-33320000D01*
X59033373Y-33307701D01*
X58953258Y-33283398D01*
X58873145Y-33259097D01*
X58873143Y-33259096D01*
X58725482Y-33180169D01*
X58596051Y-33073949D01*
X58489831Y-32944518D01*
X58410904Y-32796857D01*
X58362299Y-32636627D01*
X58345888Y-32470000D01*
X58362299Y-32303373D01*
X58410904Y-32143143D01*
X58489831Y-31995482D01*
X58596051Y-31866051D01*
X58725482Y-31759831D01*
X58873143Y-31680904D01*
X58873145Y-31680903D01*
X58953258Y-31656602D01*
X59033373Y-31632299D01*
X59158248Y-31620000D01*
X59241752Y-31620000D01*
X59366627Y-31632299D01*
X59366627Y-31632299D01*
G37*
G36*
X59447935Y-29112664D02*
G01*
X59602624Y-29176739D01*
X59602626Y-29176740D01*
X59741844Y-29269762D01*
X59860238Y-29388156D01*
X59953260Y-29527374D01*
X59953261Y-29527376D01*
X60017336Y-29682065D01*
X60050000Y-29846281D01*
X60050000Y-30013719D01*
X60017336Y-30177935D01*
X59953261Y-30332624D01*
X59953260Y-30332626D01*
X59860238Y-30471844D01*
X59741844Y-30590238D01*
X59602626Y-30683260D01*
X59602625Y-30683261D01*
X59602624Y-30683261D01*
X59447935Y-30747336D01*
X59283719Y-30780000D01*
X59116281Y-30780000D01*
X58952065Y-30747336D01*
X58797376Y-30683261D01*
X58797375Y-30683261D01*
X58797374Y-30683260D01*
X58658156Y-30590238D01*
X58539762Y-30471844D01*
X58446740Y-30332626D01*
X58446739Y-30332624D01*
X58382664Y-30177935D01*
X58350000Y-30013719D01*
X58350000Y-29846281D01*
X58382664Y-29682065D01*
X58446739Y-29527376D01*
X58446740Y-29527374D01*
X58539762Y-29388156D01*
X58658156Y-29269762D01*
X58797374Y-29176740D01*
X58797376Y-29176739D01*
X58952065Y-29112664D01*
X59116281Y-29080000D01*
X59283719Y-29080000D01*
X59447935Y-29112664D01*
X59447935Y-29112664D01*
G37*
G36*
X59366627Y-26552299D02*
G01*
X59446742Y-26576602D01*
X59526855Y-26600903D01*
X59526857Y-26600904D01*
X59674518Y-26679831D01*
X59803949Y-26786051D01*
X59910169Y-26915482D01*
X59989096Y-27063143D01*
X60037701Y-27223373D01*
X60054112Y-27390000D01*
X60037701Y-27556627D01*
X59989096Y-27716857D01*
X59910169Y-27864518D01*
X59803949Y-27993949D01*
X59674518Y-28100169D01*
X59526857Y-28179096D01*
X59526855Y-28179097D01*
X59446742Y-28203398D01*
X59366627Y-28227701D01*
X59241752Y-28240000D01*
X59158248Y-28240000D01*
X59033373Y-28227701D01*
X58953258Y-28203399D01*
X58873145Y-28179097D01*
X58873143Y-28179096D01*
X58725482Y-28100169D01*
X58596051Y-27993949D01*
X58489831Y-27864518D01*
X58410904Y-27716857D01*
X58362299Y-27556627D01*
X58345888Y-27390000D01*
X58362299Y-27223373D01*
X58410904Y-27063143D01*
X58489831Y-26915482D01*
X58596051Y-26786051D01*
X58725482Y-26679831D01*
X58873143Y-26600904D01*
X58873145Y-26600903D01*
X58953258Y-26576601D01*
X59033373Y-26552299D01*
X59158248Y-26540000D01*
X59241752Y-26540000D01*
X59366627Y-26552299D01*
X59366627Y-26552299D01*
G37*
G36*
X59447935Y-24032664D02*
G01*
X59602624Y-24096739D01*
X59602626Y-24096740D01*
X59741844Y-24189762D01*
X59860238Y-24308156D01*
X59949564Y-24441843D01*
X59953261Y-24447376D01*
X60017336Y-24602065D01*
X60050000Y-24766281D01*
X60050000Y-24933719D01*
X60017336Y-25097935D01*
X59953261Y-25252624D01*
X59953260Y-25252626D01*
X59860238Y-25391844D01*
X59741844Y-25510238D01*
X59602626Y-25603260D01*
X59602625Y-25603261D01*
X59602624Y-25603261D01*
X59447935Y-25667336D01*
X59283719Y-25700000D01*
X59116281Y-25700000D01*
X58952065Y-25667336D01*
X58797376Y-25603261D01*
X58797375Y-25603261D01*
X58797374Y-25603260D01*
X58658156Y-25510238D01*
X58539762Y-25391844D01*
X58446740Y-25252626D01*
X58446739Y-25252624D01*
X58382664Y-25097935D01*
X58350000Y-24933719D01*
X58350000Y-24766281D01*
X58382664Y-24602065D01*
X58446739Y-24447376D01*
X58450436Y-24441843D01*
X58539762Y-24308156D01*
X58658156Y-24189762D01*
X58797374Y-24096740D01*
X58797376Y-24096739D01*
X58952065Y-24032664D01*
X59116281Y-24000000D01*
X59283719Y-24000000D01*
X59447935Y-24032664D01*
X59447935Y-24032664D01*
G37*
G36*
X54147935Y-23082664D02*
G01*
X54302624Y-23146739D01*
X54302626Y-23146740D01*
X54441844Y-23239762D01*
X54560238Y-23358156D01*
X54653260Y-23497374D01*
X54653261Y-23497376D01*
X54717336Y-23652065D01*
X54750000Y-23816281D01*
X54750000Y-23983719D01*
X54717336Y-24147935D01*
X54700010Y-24189762D01*
X54653260Y-24302626D01*
X54560238Y-24441844D01*
X54441844Y-24560238D01*
X54302626Y-24653260D01*
X54302625Y-24653261D01*
X54302624Y-24653261D01*
X54147935Y-24717336D01*
X53983719Y-24750000D01*
X53816281Y-24750000D01*
X53652065Y-24717336D01*
X53497376Y-24653261D01*
X53497375Y-24653261D01*
X53497374Y-24653260D01*
X53358156Y-24560238D01*
X53239762Y-24441844D01*
X53146740Y-24302626D01*
X53099990Y-24189762D01*
X53082664Y-24147935D01*
X53050000Y-23983719D01*
X53050000Y-23816281D01*
X53082664Y-23652065D01*
X53146739Y-23497376D01*
X53146740Y-23497374D01*
X53239762Y-23358156D01*
X53358156Y-23239762D01*
X53497374Y-23146740D01*
X53497376Y-23146739D01*
X53652065Y-23082664D01*
X53816281Y-23050000D01*
X53983719Y-23050000D01*
X54147935Y-23082664D01*
X54147935Y-23082664D01*
G37*
G36*
X34107935Y-20282664D02*
G01*
X34262624Y-20346739D01*
X34262626Y-20346740D01*
X34401844Y-20439762D01*
X34520238Y-20558156D01*
X34613260Y-20697374D01*
X34613261Y-20697376D01*
X34677336Y-20852065D01*
X34710000Y-21016281D01*
X34710000Y-21183719D01*
X34677336Y-21347935D01*
X34644646Y-21426855D01*
X34613260Y-21502626D01*
X34520238Y-21641844D01*
X34401844Y-21760238D01*
X34262626Y-21853260D01*
X34262625Y-21853261D01*
X34262624Y-21853261D01*
X34107935Y-21917336D01*
X33943719Y-21950000D01*
X33776281Y-21950000D01*
X33612065Y-21917336D01*
X33457376Y-21853261D01*
X33457375Y-21853261D01*
X33457374Y-21853260D01*
X33318156Y-21760238D01*
X33199762Y-21641844D01*
X33106740Y-21502626D01*
X33075354Y-21426855D01*
X33042664Y-21347935D01*
X33010000Y-21183719D01*
X33010000Y-21016281D01*
X33042664Y-20852065D01*
X33106739Y-20697376D01*
X33106740Y-20697374D01*
X33199762Y-20558156D01*
X33318156Y-20439762D01*
X33457374Y-20346740D01*
X33457376Y-20346739D01*
X33612065Y-20282664D01*
X33776281Y-20250000D01*
X33943719Y-20250000D01*
X34107935Y-20282664D01*
X34107935Y-20282664D01*
G37*
G36*
X36566627Y-20262299D02*
G01*
X36633762Y-20282664D01*
X36726855Y-20310903D01*
X36726857Y-20310904D01*
X36874518Y-20389831D01*
X37003949Y-20496051D01*
X37110169Y-20625482D01*
X37189096Y-20773143D01*
X37237701Y-20933373D01*
X37254112Y-21100000D01*
X37237701Y-21266627D01*
X37189096Y-21426857D01*
X37110169Y-21574518D01*
X37003949Y-21703949D01*
X36874518Y-21810169D01*
X36793901Y-21853260D01*
X36726855Y-21889097D01*
X36646742Y-21913398D01*
X36566627Y-21937701D01*
X36441752Y-21950000D01*
X36358248Y-21950000D01*
X36233373Y-21937701D01*
X36153258Y-21913398D01*
X36073145Y-21889097D01*
X36006099Y-21853260D01*
X35925482Y-21810169D01*
X35796051Y-21703949D01*
X35689831Y-21574518D01*
X35610904Y-21426857D01*
X35562299Y-21266627D01*
X35545888Y-21100000D01*
X35562299Y-20933373D01*
X35610904Y-20773143D01*
X35689831Y-20625482D01*
X35796051Y-20496051D01*
X35925482Y-20389831D01*
X36073143Y-20310904D01*
X36073145Y-20310903D01*
X36166238Y-20282664D01*
X36233373Y-20262299D01*
X36358248Y-20250000D01*
X36441752Y-20250000D01*
X36566627Y-20262299D01*
X36566627Y-20262299D01*
G37*
G36*
X41646627Y-20262299D02*
G01*
X41713762Y-20282664D01*
X41806855Y-20310903D01*
X41806857Y-20310904D01*
X41954518Y-20389831D01*
X42083949Y-20496051D01*
X42190169Y-20625482D01*
X42269096Y-20773143D01*
X42317701Y-20933373D01*
X42334112Y-21100000D01*
X42317701Y-21266627D01*
X42269096Y-21426857D01*
X42190169Y-21574518D01*
X42083949Y-21703949D01*
X41954518Y-21810169D01*
X41873901Y-21853260D01*
X41806855Y-21889097D01*
X41726742Y-21913398D01*
X41646627Y-21937701D01*
X41521752Y-21950000D01*
X41438248Y-21950000D01*
X41313373Y-21937701D01*
X41233258Y-21913398D01*
X41153145Y-21889097D01*
X41086099Y-21853260D01*
X41005482Y-21810169D01*
X40876051Y-21703949D01*
X40769831Y-21574518D01*
X40690904Y-21426857D01*
X40642299Y-21266627D01*
X40625888Y-21100000D01*
X40642299Y-20933373D01*
X40690904Y-20773143D01*
X40769831Y-20625482D01*
X40876051Y-20496051D01*
X41005482Y-20389831D01*
X41153143Y-20310904D01*
X41153145Y-20310903D01*
X41246238Y-20282664D01*
X41313373Y-20262299D01*
X41438248Y-20250000D01*
X41521752Y-20250000D01*
X41646627Y-20262299D01*
X41646627Y-20262299D01*
G37*
G36*
X44186627Y-20262299D02*
G01*
X44253762Y-20282664D01*
X44346855Y-20310903D01*
X44346857Y-20310904D01*
X44494518Y-20389831D01*
X44623949Y-20496051D01*
X44730169Y-20625482D01*
X44809096Y-20773143D01*
X44857701Y-20933373D01*
X44874112Y-21100000D01*
X44857701Y-21266627D01*
X44809096Y-21426857D01*
X44730169Y-21574518D01*
X44623949Y-21703949D01*
X44494518Y-21810169D01*
X44413901Y-21853260D01*
X44346855Y-21889097D01*
X44266742Y-21913398D01*
X44186627Y-21937701D01*
X44061752Y-21950000D01*
X43978248Y-21950000D01*
X43853373Y-21937701D01*
X43773258Y-21913398D01*
X43693145Y-21889097D01*
X43626099Y-21853260D01*
X43545482Y-21810169D01*
X43416051Y-21703949D01*
X43309831Y-21574518D01*
X43230904Y-21426857D01*
X43182299Y-21266627D01*
X43165888Y-21100000D01*
X43182299Y-20933373D01*
X43230904Y-20773143D01*
X43309831Y-20625482D01*
X43416051Y-20496051D01*
X43545482Y-20389831D01*
X43693143Y-20310904D01*
X43693145Y-20310903D01*
X43786238Y-20282664D01*
X43853373Y-20262299D01*
X43978248Y-20250000D01*
X44061752Y-20250000D01*
X44186627Y-20262299D01*
X44186627Y-20262299D01*
G37*
G36*
X46726627Y-20262299D02*
G01*
X46793762Y-20282664D01*
X46886855Y-20310903D01*
X46886857Y-20310904D01*
X47034518Y-20389831D01*
X47163949Y-20496051D01*
X47270169Y-20625482D01*
X47349096Y-20773143D01*
X47397701Y-20933373D01*
X47414112Y-21100000D01*
X47397701Y-21266627D01*
X47349096Y-21426857D01*
X47270169Y-21574518D01*
X47163949Y-21703949D01*
X47034518Y-21810169D01*
X46953901Y-21853260D01*
X46886855Y-21889097D01*
X46806742Y-21913398D01*
X46726627Y-21937701D01*
X46601752Y-21950000D01*
X46518248Y-21950000D01*
X46393373Y-21937701D01*
X46313258Y-21913398D01*
X46233145Y-21889097D01*
X46166099Y-21853260D01*
X46085482Y-21810169D01*
X45956051Y-21703949D01*
X45849831Y-21574518D01*
X45770904Y-21426857D01*
X45722299Y-21266627D01*
X45705888Y-21100000D01*
X45722299Y-20933373D01*
X45770904Y-20773143D01*
X45849831Y-20625482D01*
X45956051Y-20496051D01*
X46085482Y-20389831D01*
X46233143Y-20310904D01*
X46233145Y-20310903D01*
X46326238Y-20282664D01*
X46393373Y-20262299D01*
X46518248Y-20250000D01*
X46601752Y-20250000D01*
X46726627Y-20262299D01*
X46726627Y-20262299D01*
G37*
G36*
X49266627Y-20262299D02*
G01*
X49333762Y-20282664D01*
X49426855Y-20310903D01*
X49426857Y-20310904D01*
X49574518Y-20389831D01*
X49703949Y-20496051D01*
X49810169Y-20625482D01*
X49889096Y-20773143D01*
X49937701Y-20933373D01*
X49954112Y-21100000D01*
X49937701Y-21266627D01*
X49889096Y-21426857D01*
X49810169Y-21574518D01*
X49703949Y-21703949D01*
X49574518Y-21810169D01*
X49493901Y-21853260D01*
X49426855Y-21889097D01*
X49346742Y-21913398D01*
X49266627Y-21937701D01*
X49141752Y-21950000D01*
X49058248Y-21950000D01*
X48933373Y-21937701D01*
X48853258Y-21913398D01*
X48773145Y-21889097D01*
X48706099Y-21853260D01*
X48625482Y-21810169D01*
X48496051Y-21703949D01*
X48389831Y-21574518D01*
X48310904Y-21426857D01*
X48262299Y-21266627D01*
X48245888Y-21100000D01*
X48262299Y-20933373D01*
X48310904Y-20773143D01*
X48389831Y-20625482D01*
X48496051Y-20496051D01*
X48625482Y-20389831D01*
X48773143Y-20310904D01*
X48773145Y-20310903D01*
X48866238Y-20282664D01*
X48933373Y-20262299D01*
X49058248Y-20250000D01*
X49141752Y-20250000D01*
X49266627Y-20262299D01*
X49266627Y-20262299D01*
G37*
G36*
X51806627Y-20262299D02*
G01*
X51873762Y-20282664D01*
X51966855Y-20310903D01*
X51966857Y-20310904D01*
X52114518Y-20389831D01*
X52243949Y-20496051D01*
X52350169Y-20625482D01*
X52429096Y-20773143D01*
X52477701Y-20933373D01*
X52494112Y-21100000D01*
X52477701Y-21266627D01*
X52429096Y-21426857D01*
X52350169Y-21574518D01*
X52243949Y-21703949D01*
X52114518Y-21810169D01*
X52033901Y-21853260D01*
X51966855Y-21889097D01*
X51886742Y-21913398D01*
X51806627Y-21937701D01*
X51681752Y-21950000D01*
X51598248Y-21950000D01*
X51473373Y-21937701D01*
X51393258Y-21913398D01*
X51313145Y-21889097D01*
X51246099Y-21853260D01*
X51165482Y-21810169D01*
X51036051Y-21703949D01*
X50929831Y-21574518D01*
X50850904Y-21426857D01*
X50802299Y-21266627D01*
X50785888Y-21100000D01*
X50802299Y-20933373D01*
X50850904Y-20773143D01*
X50929831Y-20625482D01*
X51036051Y-20496051D01*
X51165482Y-20389831D01*
X51313143Y-20310904D01*
X51313145Y-20310903D01*
X51406238Y-20282664D01*
X51473373Y-20262299D01*
X51598248Y-20250000D01*
X51681752Y-20250000D01*
X51806627Y-20262299D01*
X51806627Y-20262299D01*
G37*
G36*
X54346627Y-20262299D02*
G01*
X54413762Y-20282664D01*
X54506855Y-20310903D01*
X54506857Y-20310904D01*
X54654518Y-20389831D01*
X54783949Y-20496051D01*
X54890169Y-20625482D01*
X54969096Y-20773143D01*
X55017701Y-20933373D01*
X55034112Y-21100000D01*
X55017701Y-21266627D01*
X54969096Y-21426857D01*
X54890169Y-21574518D01*
X54783949Y-21703949D01*
X54654518Y-21810169D01*
X54573901Y-21853260D01*
X54506855Y-21889097D01*
X54426742Y-21913398D01*
X54346627Y-21937701D01*
X54221752Y-21950000D01*
X54138248Y-21950000D01*
X54013373Y-21937701D01*
X53933258Y-21913398D01*
X53853145Y-21889097D01*
X53786099Y-21853260D01*
X53705482Y-21810169D01*
X53576051Y-21703949D01*
X53469831Y-21574518D01*
X53390904Y-21426857D01*
X53342299Y-21266627D01*
X53325888Y-21100000D01*
X53342299Y-20933373D01*
X53390904Y-20773143D01*
X53469831Y-20625482D01*
X53576051Y-20496051D01*
X53705482Y-20389831D01*
X53853143Y-20310904D01*
X53853145Y-20310903D01*
X53946238Y-20282664D01*
X54013373Y-20262299D01*
X54138248Y-20250000D01*
X54221752Y-20250000D01*
X54346627Y-20262299D01*
X54346627Y-20262299D01*
G37*
G36*
X56886627Y-20262299D02*
G01*
X56953762Y-20282664D01*
X57046855Y-20310903D01*
X57046857Y-20310904D01*
X57194518Y-20389831D01*
X57323949Y-20496051D01*
X57430169Y-20625482D01*
X57509096Y-20773143D01*
X57557701Y-20933373D01*
X57574112Y-21100000D01*
X57557701Y-21266627D01*
X57509096Y-21426857D01*
X57430169Y-21574518D01*
X57323949Y-21703949D01*
X57194518Y-21810169D01*
X57113901Y-21853260D01*
X57046855Y-21889097D01*
X56966742Y-21913398D01*
X56886627Y-21937701D01*
X56761752Y-21950000D01*
X56678248Y-21950000D01*
X56553373Y-21937701D01*
X56473258Y-21913398D01*
X56393145Y-21889097D01*
X56326099Y-21853260D01*
X56245482Y-21810169D01*
X56116051Y-21703949D01*
X56009831Y-21574518D01*
X55930904Y-21426857D01*
X55882299Y-21266627D01*
X55865888Y-21100000D01*
X55882299Y-20933373D01*
X55930904Y-20773143D01*
X56009831Y-20625482D01*
X56116051Y-20496051D01*
X56245482Y-20389831D01*
X56393143Y-20310904D01*
X56393145Y-20310903D01*
X56486238Y-20282664D01*
X56553373Y-20262299D01*
X56678248Y-20250000D01*
X56761752Y-20250000D01*
X56886627Y-20262299D01*
X56886627Y-20262299D01*
G37*
G36*
X59426627Y-20262299D02*
G01*
X59493762Y-20282664D01*
X59586855Y-20310903D01*
X59586857Y-20310904D01*
X59734518Y-20389831D01*
X59863949Y-20496051D01*
X59970169Y-20625482D01*
X60049096Y-20773143D01*
X60097701Y-20933373D01*
X60114112Y-21100000D01*
X60097701Y-21266627D01*
X60049096Y-21426857D01*
X59970169Y-21574518D01*
X59863949Y-21703949D01*
X59734518Y-21810169D01*
X59653901Y-21853260D01*
X59586855Y-21889097D01*
X59506742Y-21913398D01*
X59426627Y-21937701D01*
X59301752Y-21950000D01*
X59218248Y-21950000D01*
X59093373Y-21937701D01*
X59013258Y-21913398D01*
X58933145Y-21889097D01*
X58866099Y-21853260D01*
X58785482Y-21810169D01*
X58656051Y-21703949D01*
X58549831Y-21574518D01*
X58470904Y-21426857D01*
X58422299Y-21266627D01*
X58405888Y-21100000D01*
X58422299Y-20933373D01*
X58470904Y-20773143D01*
X58549831Y-20625482D01*
X58656051Y-20496051D01*
X58785482Y-20389831D01*
X58933143Y-20310904D01*
X58933145Y-20310903D01*
X59026238Y-20282664D01*
X59093373Y-20262299D01*
X59218248Y-20250000D01*
X59301752Y-20250000D01*
X59426627Y-20262299D01*
X59426627Y-20262299D01*
G37*
G36*
X39106627Y-20262299D02*
G01*
X39173762Y-20282664D01*
X39266855Y-20310903D01*
X39266857Y-20310904D01*
X39414518Y-20389831D01*
X39543949Y-20496051D01*
X39650169Y-20625482D01*
X39729096Y-20773143D01*
X39777701Y-20933373D01*
X39794112Y-21100000D01*
X39777701Y-21266627D01*
X39729096Y-21426857D01*
X39650169Y-21574518D01*
X39543949Y-21703949D01*
X39414518Y-21810169D01*
X39333901Y-21853260D01*
X39266855Y-21889097D01*
X39186742Y-21913398D01*
X39106627Y-21937701D01*
X38981752Y-21950000D01*
X38898248Y-21950000D01*
X38773373Y-21937701D01*
X38693258Y-21913398D01*
X38613145Y-21889097D01*
X38546099Y-21853260D01*
X38465482Y-21810169D01*
X38336051Y-21703949D01*
X38229831Y-21574518D01*
X38150904Y-21426857D01*
X38102299Y-21266627D01*
X38085888Y-21100000D01*
X38102299Y-20933373D01*
X38150904Y-20773143D01*
X38229831Y-20625482D01*
X38336051Y-20496051D01*
X38465482Y-20389831D01*
X38613143Y-20310904D01*
X38613145Y-20310903D01*
X38706238Y-20282664D01*
X38773373Y-20262299D01*
X38898248Y-20250000D01*
X38981752Y-20250000D01*
X39106627Y-20262299D01*
X39106627Y-20262299D01*
G37*
M02*
