G04 #@! TF.GenerationSoftware,KiCad,Pcbnew,5.1.4+dfsg1-1*
G04 #@! TF.CreationDate,2019-11-18T14:51:44+01:00*
G04 #@! TF.ProjectId,OtterPill-CAN,4f747465-7250-4696-9c6c-2d43414e2e6b,rev?*
G04 #@! TF.SameCoordinates,Original*
G04 #@! TF.FileFunction,Legend,Bot*
G04 #@! TF.FilePolarity,Positive*
%FSLAX46Y46*%
G04 Gerber Fmt 4.6, Leading zero omitted, Abs format (unit mm)*
G04 Created by KiCad (PCBNEW 5.1.4+dfsg1-1) date 2019-11-18 14:51:44*
%MOMM*%
%LPD*%
G04 APERTURE LIST*
%ADD10C,0.050000*%
%ADD11C,0.100000*%
G04 APERTURE END LIST*
D10*
X63200000Y-37100000D02*
G75*
G02X62900000Y-37400000I-300000J0D01*
G01*
D11*
X55225610Y-36100000D02*
G75*
G03X55225610Y-36100000I-1045610J0D01*
G01*
X34905610Y-21090000D02*
G75*
G03X34905610Y-21090000I-1045610J0D01*
G01*
X52695610Y-21090000D02*
G75*
G03X52695610Y-21090000I-1045610J0D01*
G01*
X57765610Y-21100000D02*
G75*
G03X57765610Y-21100000I-1045610J0D01*
G01*
X54945610Y-23900000D02*
G75*
G03X54945610Y-23900000I-1045610J0D01*
G01*
D10*
X62900000Y-19800000D02*
G75*
G02X63200000Y-20100000I0J-300000D01*
G01*
X32530000Y-20410000D02*
G75*
G02X33140000Y-19800000I610000J0D01*
G01*
X33320000Y-23405246D02*
X36404426Y-23405246D01*
X32530000Y-22615246D02*
G75*
G03X33320000Y-23405246I790000J0D01*
G01*
X37834459Y-24835279D02*
G75*
G03X36404426Y-23405246I-1430033J0D01*
G01*
X37834459Y-27430000D02*
X37834459Y-24835279D01*
X50115574Y-35969966D02*
G75*
G03X51545608Y-37400000I1430034J0D01*
G01*
X37834459Y-27430000D02*
G75*
G03X39264493Y-28860034I1430034J0D01*
G01*
X48685540Y-28860000D02*
X39264493Y-28860034D01*
X50115574Y-30290034D02*
G75*
G03X48685540Y-28860000I-1430034J0D01*
G01*
X50115574Y-35969966D02*
X50115574Y-30290034D01*
D11*
X60671666Y-26110000D02*
X61171666Y-26110000D01*
X61271666Y-26076666D01*
X61338333Y-26010000D01*
X61371666Y-25910000D01*
X61371666Y-25843333D01*
X61371666Y-26743333D02*
X61005000Y-26743333D01*
X60938333Y-26710000D01*
X60905000Y-26643333D01*
X60905000Y-26510000D01*
X60938333Y-26443333D01*
X61338333Y-26743333D02*
X61371666Y-26676666D01*
X61371666Y-26510000D01*
X61338333Y-26443333D01*
X61271666Y-26410000D01*
X61205000Y-26410000D01*
X61138333Y-26443333D01*
X61105000Y-26510000D01*
X61105000Y-26676666D01*
X61071666Y-26743333D01*
X60905000Y-27076666D02*
X61371666Y-27076666D01*
X60971666Y-27076666D02*
X60938333Y-27110000D01*
X60905000Y-27176666D01*
X60905000Y-27276666D01*
X60938333Y-27343333D01*
X61005000Y-27376666D01*
X61371666Y-27376666D01*
X61371666Y-28243333D02*
X60671666Y-28243333D01*
X61005000Y-28243333D02*
X61005000Y-28643333D01*
X61371666Y-28643333D02*
X60671666Y-28643333D01*
X61338333Y-29243333D02*
X61371666Y-29176666D01*
X61371666Y-29043333D01*
X61338333Y-28976666D01*
X61271666Y-28943333D01*
X61005000Y-28943333D01*
X60938333Y-28976666D01*
X60905000Y-29043333D01*
X60905000Y-29176666D01*
X60938333Y-29243333D01*
X61005000Y-29276666D01*
X61071666Y-29276666D01*
X61138333Y-28943333D01*
X60905000Y-29576666D02*
X61371666Y-29576666D01*
X60971666Y-29576666D02*
X60938333Y-29610000D01*
X60905000Y-29676666D01*
X60905000Y-29776666D01*
X60938333Y-29843333D01*
X61005000Y-29876666D01*
X61371666Y-29876666D01*
X61371666Y-30210000D02*
X60905000Y-30210000D01*
X61038333Y-30210000D02*
X60971666Y-30243333D01*
X60938333Y-30276666D01*
X60905000Y-30343333D01*
X60905000Y-30409999D01*
X61371666Y-30643333D02*
X60905000Y-30643333D01*
X60671666Y-30643333D02*
X60705000Y-30610000D01*
X60738333Y-30643333D01*
X60705000Y-30676666D01*
X60671666Y-30643333D01*
X60738333Y-30643333D01*
X61371666Y-30976666D02*
X60671666Y-30976666D01*
X61105000Y-31043333D02*
X61371666Y-31243333D01*
X60905000Y-31243333D02*
X61171666Y-30976666D01*
X61888333Y-27360000D02*
X61855000Y-27393333D01*
X61821666Y-27460000D01*
X61821666Y-27626666D01*
X61855000Y-27693333D01*
X61888333Y-27726666D01*
X61955000Y-27760000D01*
X62021666Y-27760000D01*
X62121666Y-27726666D01*
X62521666Y-27326666D01*
X62521666Y-27760000D01*
X61821666Y-28193333D02*
X61821666Y-28260000D01*
X61855000Y-28326666D01*
X61888333Y-28360000D01*
X61955000Y-28393333D01*
X62088333Y-28426666D01*
X62255000Y-28426666D01*
X62388333Y-28393333D01*
X62455000Y-28360000D01*
X62488333Y-28326666D01*
X62521666Y-28260000D01*
X62521666Y-28193333D01*
X62488333Y-28126666D01*
X62455000Y-28093333D01*
X62388333Y-28060000D01*
X62255000Y-28026666D01*
X62088333Y-28026666D01*
X61955000Y-28060000D01*
X61888333Y-28093333D01*
X61855000Y-28126666D01*
X61821666Y-28193333D01*
X62521666Y-29093333D02*
X62521666Y-28693333D01*
X62521666Y-28893333D02*
X61821666Y-28893333D01*
X61921666Y-28826666D01*
X61988333Y-28760000D01*
X62021666Y-28693333D01*
X62521666Y-29426666D02*
X62521666Y-29560000D01*
X62488333Y-29626666D01*
X62455000Y-29660000D01*
X62355000Y-29726666D01*
X62221666Y-29760000D01*
X61955000Y-29760000D01*
X61888333Y-29726666D01*
X61855000Y-29693333D01*
X61821666Y-29626666D01*
X61821666Y-29493333D01*
X61855000Y-29426666D01*
X61888333Y-29393333D01*
X61955000Y-29360000D01*
X62121666Y-29360000D01*
X62188333Y-29393333D01*
X62221666Y-29426666D01*
X62255000Y-29493333D01*
X62255000Y-29626666D01*
X62221666Y-29693333D01*
X62188333Y-29726666D01*
X62121666Y-29760000D01*
X52178333Y-34250000D02*
X52245000Y-34216666D01*
X52345000Y-34216666D01*
X52445000Y-34250000D01*
X52511666Y-34316666D01*
X52545000Y-34383333D01*
X52578333Y-34516666D01*
X52578333Y-34616666D01*
X52545000Y-34750000D01*
X52511666Y-34816666D01*
X52445000Y-34883333D01*
X52345000Y-34916666D01*
X52278333Y-34916666D01*
X52178333Y-34883333D01*
X52145000Y-34850000D01*
X52145000Y-34616666D01*
X52278333Y-34616666D01*
X51845000Y-34916666D02*
X51845000Y-34216666D01*
X51445000Y-34916666D01*
X51445000Y-34216666D01*
X51111666Y-34916666D02*
X51111666Y-34216666D01*
X50945000Y-34216666D01*
X50845000Y-34250000D01*
X50778333Y-34316666D01*
X50745000Y-34383333D01*
X50711666Y-34516666D01*
X50711666Y-34616666D01*
X50745000Y-34750000D01*
X50778333Y-34816666D01*
X50845000Y-34883333D01*
X50945000Y-34916666D01*
X51111666Y-34916666D01*
X55061666Y-34916666D02*
X55061666Y-34216666D01*
X54795000Y-34216666D01*
X54728333Y-34250000D01*
X54695000Y-34283333D01*
X54661666Y-34350000D01*
X54661666Y-34450000D01*
X54695000Y-34516666D01*
X54728333Y-34550000D01*
X54795000Y-34583333D01*
X55061666Y-34583333D01*
X54128333Y-34550000D02*
X54028333Y-34583333D01*
X53995000Y-34616666D01*
X53961666Y-34683333D01*
X53961666Y-34783333D01*
X53995000Y-34850000D01*
X54028333Y-34883333D01*
X54095000Y-34916666D01*
X54361666Y-34916666D01*
X54361666Y-34216666D01*
X54128333Y-34216666D01*
X54061666Y-34250000D01*
X54028333Y-34283333D01*
X53995000Y-34350000D01*
X53995000Y-34416666D01*
X54028333Y-34483333D01*
X54061666Y-34516666D01*
X54128333Y-34550000D01*
X54361666Y-34550000D01*
X53628333Y-34916666D02*
X53495000Y-34916666D01*
X53428333Y-34883333D01*
X53395000Y-34850000D01*
X53328333Y-34750000D01*
X53295000Y-34616666D01*
X53295000Y-34350000D01*
X53328333Y-34283333D01*
X53361666Y-34250000D01*
X53428333Y-34216666D01*
X53561666Y-34216666D01*
X53628333Y-34250000D01*
X53661666Y-34283333D01*
X53695000Y-34350000D01*
X53695000Y-34516666D01*
X53661666Y-34583333D01*
X53628333Y-34616666D01*
X53561666Y-34650000D01*
X53428333Y-34650000D01*
X53361666Y-34616666D01*
X53328333Y-34583333D01*
X53295000Y-34516666D01*
X57895000Y-34916666D02*
X57895000Y-34216666D01*
X57628333Y-34216666D01*
X57561666Y-34250000D01*
X57528333Y-34283333D01*
X57495000Y-34350000D01*
X57495000Y-34450000D01*
X57528333Y-34516666D01*
X57561666Y-34550000D01*
X57628333Y-34583333D01*
X57895000Y-34583333D01*
X57228333Y-34716666D02*
X56895000Y-34716666D01*
X57295000Y-34916666D02*
X57061666Y-34216666D01*
X56828333Y-34916666D01*
X56228333Y-34916666D02*
X56628333Y-34916666D01*
X56428333Y-34916666D02*
X56428333Y-34216666D01*
X56495000Y-34316666D01*
X56561666Y-34383333D01*
X56628333Y-34416666D01*
X55795000Y-34216666D02*
X55728333Y-34216666D01*
X55661666Y-34250000D01*
X55628333Y-34283333D01*
X55595000Y-34350000D01*
X55561666Y-34483333D01*
X55561666Y-34650000D01*
X55595000Y-34783333D01*
X55628333Y-34850000D01*
X55661666Y-34883333D01*
X55728333Y-34916666D01*
X55795000Y-34916666D01*
X55861666Y-34883333D01*
X55895000Y-34850000D01*
X55928333Y-34783333D01*
X55961666Y-34650000D01*
X55961666Y-34483333D01*
X55928333Y-34350000D01*
X55895000Y-34283333D01*
X55861666Y-34250000D01*
X55795000Y-34216666D01*
X60061666Y-34916666D02*
X60061666Y-34216666D01*
X59795000Y-34216666D01*
X59728333Y-34250000D01*
X59695000Y-34283333D01*
X59661666Y-34350000D01*
X59661666Y-34450000D01*
X59695000Y-34516666D01*
X59728333Y-34550000D01*
X59795000Y-34583333D01*
X60061666Y-34583333D01*
X59395000Y-34716666D02*
X59061666Y-34716666D01*
X59461666Y-34916666D02*
X59228333Y-34216666D01*
X58995000Y-34916666D01*
X58728333Y-34916666D02*
X58595000Y-34916666D01*
X58528333Y-34883333D01*
X58495000Y-34850000D01*
X58428333Y-34750000D01*
X58395000Y-34616666D01*
X58395000Y-34350000D01*
X58428333Y-34283333D01*
X58461666Y-34250000D01*
X58528333Y-34216666D01*
X58661666Y-34216666D01*
X58728333Y-34250000D01*
X58761666Y-34283333D01*
X58795000Y-34350000D01*
X58795000Y-34516666D01*
X58761666Y-34583333D01*
X58728333Y-34616666D01*
X58661666Y-34650000D01*
X58528333Y-34650000D01*
X58461666Y-34616666D01*
X58428333Y-34583333D01*
X58395000Y-34516666D01*
X40588333Y-22253333D02*
X40588333Y-22953333D01*
X40855000Y-22953333D01*
X40921666Y-22920000D01*
X40955000Y-22886666D01*
X40988333Y-22820000D01*
X40988333Y-22720000D01*
X40955000Y-22653333D01*
X40921666Y-22620000D01*
X40855000Y-22586666D01*
X40588333Y-22586666D01*
X41521666Y-22620000D02*
X41621666Y-22586666D01*
X41655000Y-22553333D01*
X41688333Y-22486666D01*
X41688333Y-22386666D01*
X41655000Y-22320000D01*
X41621666Y-22286666D01*
X41555000Y-22253333D01*
X41288333Y-22253333D01*
X41288333Y-22953333D01*
X41521666Y-22953333D01*
X41588333Y-22920000D01*
X41621666Y-22886666D01*
X41655000Y-22820000D01*
X41655000Y-22753333D01*
X41621666Y-22686666D01*
X41588333Y-22653333D01*
X41521666Y-22620000D01*
X41288333Y-22620000D01*
X41921666Y-22953333D02*
X42388333Y-22953333D01*
X42088333Y-22253333D01*
X56161666Y-22930000D02*
X56095000Y-22963333D01*
X55995000Y-22963333D01*
X55895000Y-22930000D01*
X55828333Y-22863333D01*
X55795000Y-22796666D01*
X55761666Y-22663333D01*
X55761666Y-22563333D01*
X55795000Y-22430000D01*
X55828333Y-22363333D01*
X55895000Y-22296666D01*
X55995000Y-22263333D01*
X56061666Y-22263333D01*
X56161666Y-22296666D01*
X56195000Y-22330000D01*
X56195000Y-22563333D01*
X56061666Y-22563333D01*
X56495000Y-22263333D02*
X56495000Y-22963333D01*
X56895000Y-22263333D01*
X56895000Y-22963333D01*
X57228333Y-22263333D02*
X57228333Y-22963333D01*
X57395000Y-22963333D01*
X57495000Y-22930000D01*
X57561666Y-22863333D01*
X57595000Y-22796666D01*
X57628333Y-22663333D01*
X57628333Y-22563333D01*
X57595000Y-22430000D01*
X57561666Y-22363333D01*
X57495000Y-22296666D01*
X57395000Y-22263333D01*
X57228333Y-22263333D01*
X45633333Y-22243333D02*
X45633333Y-22943333D01*
X45900000Y-22943333D01*
X45966666Y-22910000D01*
X46000000Y-22876666D01*
X46033333Y-22810000D01*
X46033333Y-22710000D01*
X46000000Y-22643333D01*
X45966666Y-22610000D01*
X45900000Y-22576666D01*
X45633333Y-22576666D01*
X46566666Y-22610000D02*
X46666666Y-22576666D01*
X46700000Y-22543333D01*
X46733333Y-22476666D01*
X46733333Y-22376666D01*
X46700000Y-22310000D01*
X46666666Y-22276666D01*
X46600000Y-22243333D01*
X46333333Y-22243333D01*
X46333333Y-22943333D01*
X46566666Y-22943333D01*
X46633333Y-22910000D01*
X46666666Y-22876666D01*
X46700000Y-22810000D01*
X46700000Y-22743333D01*
X46666666Y-22676666D01*
X46633333Y-22643333D01*
X46566666Y-22610000D01*
X46333333Y-22610000D01*
X46966666Y-22943333D02*
X47400000Y-22943333D01*
X47166666Y-22676666D01*
X47266666Y-22676666D01*
X47333333Y-22643333D01*
X47366666Y-22610000D01*
X47400000Y-22543333D01*
X47400000Y-22376666D01*
X47366666Y-22310000D01*
X47333333Y-22276666D01*
X47266666Y-22243333D01*
X47066666Y-22243333D01*
X47000000Y-22276666D01*
X46966666Y-22310000D01*
X50713333Y-22953333D02*
X51146666Y-22953333D01*
X50913333Y-22686666D01*
X51013333Y-22686666D01*
X51080000Y-22653333D01*
X51113333Y-22620000D01*
X51146666Y-22553333D01*
X51146666Y-22386666D01*
X51113333Y-22320000D01*
X51080000Y-22286666D01*
X51013333Y-22253333D01*
X50813333Y-22253333D01*
X50746666Y-22286666D01*
X50713333Y-22320000D01*
X51346666Y-22953333D02*
X51580000Y-22253333D01*
X51813333Y-22953333D01*
X51980000Y-22953333D02*
X52413333Y-22953333D01*
X52180000Y-22686666D01*
X52280000Y-22686666D01*
X52346666Y-22653333D01*
X52380000Y-22620000D01*
X52413333Y-22553333D01*
X52413333Y-22386666D01*
X52380000Y-22320000D01*
X52346666Y-22286666D01*
X52280000Y-22253333D01*
X52080000Y-22253333D01*
X52013333Y-22286666D01*
X51980000Y-22320000D01*
X53397142Y-22108571D02*
X53397142Y-22708571D01*
X53625714Y-22708571D01*
X53682857Y-22680000D01*
X53711428Y-22651428D01*
X53740000Y-22594285D01*
X53740000Y-22508571D01*
X53711428Y-22451428D01*
X53682857Y-22422857D01*
X53625714Y-22394285D01*
X53397142Y-22394285D01*
X54197142Y-22422857D02*
X54282857Y-22394285D01*
X54311428Y-22365714D01*
X54340000Y-22308571D01*
X54340000Y-22222857D01*
X54311428Y-22165714D01*
X54282857Y-22137142D01*
X54225714Y-22108571D01*
X53997142Y-22108571D01*
X53997142Y-22708571D01*
X54197142Y-22708571D01*
X54254285Y-22680000D01*
X54282857Y-22651428D01*
X54311428Y-22594285D01*
X54311428Y-22537142D01*
X54282857Y-22480000D01*
X54254285Y-22451428D01*
X54197142Y-22422857D01*
X53997142Y-22422857D01*
X54882857Y-22708571D02*
X54597142Y-22708571D01*
X54568571Y-22422857D01*
X54597142Y-22451428D01*
X54654285Y-22480000D01*
X54797142Y-22480000D01*
X54854285Y-22451428D01*
X54882857Y-22422857D01*
X54911428Y-22365714D01*
X54911428Y-22222857D01*
X54882857Y-22165714D01*
X54854285Y-22137142D01*
X54797142Y-22108571D01*
X54654285Y-22108571D01*
X54597142Y-22137142D01*
X54568571Y-22165714D01*
X48188333Y-22253333D02*
X48188333Y-22953333D01*
X48455000Y-22953333D01*
X48521666Y-22920000D01*
X48555000Y-22886666D01*
X48588333Y-22820000D01*
X48588333Y-22720000D01*
X48555000Y-22653333D01*
X48521666Y-22620000D01*
X48455000Y-22586666D01*
X48188333Y-22586666D01*
X49121666Y-22620000D02*
X49221666Y-22586666D01*
X49255000Y-22553333D01*
X49288333Y-22486666D01*
X49288333Y-22386666D01*
X49255000Y-22320000D01*
X49221666Y-22286666D01*
X49155000Y-22253333D01*
X48888333Y-22253333D01*
X48888333Y-22953333D01*
X49121666Y-22953333D01*
X49188333Y-22920000D01*
X49221666Y-22886666D01*
X49255000Y-22820000D01*
X49255000Y-22753333D01*
X49221666Y-22686666D01*
X49188333Y-22653333D01*
X49121666Y-22620000D01*
X48888333Y-22620000D01*
X49888333Y-22720000D02*
X49888333Y-22253333D01*
X49721666Y-22986666D02*
X49555000Y-22486666D01*
X49988333Y-22486666D01*
X35260000Y-22243333D02*
X35260000Y-22943333D01*
X35526666Y-22943333D01*
X35593333Y-22910000D01*
X35626666Y-22876666D01*
X35660000Y-22810000D01*
X35660000Y-22710000D01*
X35626666Y-22643333D01*
X35593333Y-22610000D01*
X35526666Y-22576666D01*
X35260000Y-22576666D01*
X35926666Y-22443333D02*
X36260000Y-22443333D01*
X35860000Y-22243333D02*
X36093333Y-22943333D01*
X36326666Y-22243333D01*
X36926666Y-22243333D02*
X36526666Y-22243333D01*
X36726666Y-22243333D02*
X36726666Y-22943333D01*
X36660000Y-22843333D01*
X36593333Y-22776666D01*
X36526666Y-22743333D01*
X37560000Y-22943333D02*
X37226666Y-22943333D01*
X37193333Y-22610000D01*
X37226666Y-22643333D01*
X37293333Y-22676666D01*
X37460000Y-22676666D01*
X37526666Y-22643333D01*
X37560000Y-22610000D01*
X37593333Y-22543333D01*
X37593333Y-22376666D01*
X37560000Y-22310000D01*
X37526666Y-22276666D01*
X37460000Y-22243333D01*
X37293333Y-22243333D01*
X37226666Y-22276666D01*
X37193333Y-22310000D01*
X38038333Y-22253333D02*
X38038333Y-22953333D01*
X38305000Y-22953333D01*
X38371666Y-22920000D01*
X38405000Y-22886666D01*
X38438333Y-22820000D01*
X38438333Y-22720000D01*
X38405000Y-22653333D01*
X38371666Y-22620000D01*
X38305000Y-22586666D01*
X38038333Y-22586666D01*
X38971666Y-22620000D02*
X39071666Y-22586666D01*
X39105000Y-22553333D01*
X39138333Y-22486666D01*
X39138333Y-22386666D01*
X39105000Y-22320000D01*
X39071666Y-22286666D01*
X39005000Y-22253333D01*
X38738333Y-22253333D01*
X38738333Y-22953333D01*
X38971666Y-22953333D01*
X39038333Y-22920000D01*
X39071666Y-22886666D01*
X39105000Y-22820000D01*
X39105000Y-22753333D01*
X39071666Y-22686666D01*
X39038333Y-22653333D01*
X38971666Y-22620000D01*
X38738333Y-22620000D01*
X39405000Y-22886666D02*
X39438333Y-22920000D01*
X39505000Y-22953333D01*
X39671666Y-22953333D01*
X39738333Y-22920000D01*
X39771666Y-22886666D01*
X39805000Y-22820000D01*
X39805000Y-22753333D01*
X39771666Y-22653333D01*
X39371666Y-22253333D01*
X39805000Y-22253333D01*
X58478333Y-22953333D02*
X58711666Y-22253333D01*
X58945000Y-22953333D01*
X59178333Y-22253333D02*
X59178333Y-22953333D01*
X59511666Y-22253333D02*
X59511666Y-22953333D01*
X59911666Y-22253333D01*
X59911666Y-22953333D01*
X32933333Y-22243333D02*
X32933333Y-22943333D01*
X33200000Y-22943333D01*
X33266666Y-22910000D01*
X33300000Y-22876666D01*
X33333333Y-22810000D01*
X33333333Y-22710000D01*
X33300000Y-22643333D01*
X33266666Y-22610000D01*
X33200000Y-22576666D01*
X32933333Y-22576666D01*
X33866666Y-22610000D02*
X33966666Y-22576666D01*
X34000000Y-22543333D01*
X34033333Y-22476666D01*
X34033333Y-22376666D01*
X34000000Y-22310000D01*
X33966666Y-22276666D01*
X33900000Y-22243333D01*
X33633333Y-22243333D01*
X33633333Y-22943333D01*
X33866666Y-22943333D01*
X33933333Y-22910000D01*
X33966666Y-22876666D01*
X34000000Y-22810000D01*
X34000000Y-22743333D01*
X33966666Y-22676666D01*
X33933333Y-22643333D01*
X33866666Y-22610000D01*
X33633333Y-22610000D01*
X34433333Y-22643333D02*
X34366666Y-22676666D01*
X34333333Y-22710000D01*
X34300000Y-22776666D01*
X34300000Y-22810000D01*
X34333333Y-22876666D01*
X34366666Y-22910000D01*
X34433333Y-22943333D01*
X34566666Y-22943333D01*
X34633333Y-22910000D01*
X34666666Y-22876666D01*
X34700000Y-22810000D01*
X34700000Y-22776666D01*
X34666666Y-22710000D01*
X34633333Y-22676666D01*
X34566666Y-22643333D01*
X34433333Y-22643333D01*
X34366666Y-22610000D01*
X34333333Y-22576666D01*
X34300000Y-22510000D01*
X34300000Y-22376666D01*
X34333333Y-22310000D01*
X34366666Y-22276666D01*
X34433333Y-22243333D01*
X34566666Y-22243333D01*
X34633333Y-22276666D01*
X34666666Y-22310000D01*
X34700000Y-22376666D01*
X34700000Y-22510000D01*
X34666666Y-22576666D01*
X34633333Y-22610000D01*
X34566666Y-22643333D01*
X43143333Y-22253333D02*
X43143333Y-22953333D01*
X43410000Y-22953333D01*
X43476666Y-22920000D01*
X43510000Y-22886666D01*
X43543333Y-22820000D01*
X43543333Y-22720000D01*
X43510000Y-22653333D01*
X43476666Y-22620000D01*
X43410000Y-22586666D01*
X43143333Y-22586666D01*
X44076666Y-22620000D02*
X44176666Y-22586666D01*
X44210000Y-22553333D01*
X44243333Y-22486666D01*
X44243333Y-22386666D01*
X44210000Y-22320000D01*
X44176666Y-22286666D01*
X44110000Y-22253333D01*
X43843333Y-22253333D01*
X43843333Y-22953333D01*
X44076666Y-22953333D01*
X44143333Y-22920000D01*
X44176666Y-22886666D01*
X44210000Y-22820000D01*
X44210000Y-22753333D01*
X44176666Y-22686666D01*
X44143333Y-22653333D01*
X44076666Y-22620000D01*
X43843333Y-22620000D01*
X44843333Y-22953333D02*
X44710000Y-22953333D01*
X44643333Y-22920000D01*
X44610000Y-22886666D01*
X44543333Y-22786666D01*
X44510000Y-22653333D01*
X44510000Y-22386666D01*
X44543333Y-22320000D01*
X44576666Y-22286666D01*
X44643333Y-22253333D01*
X44776666Y-22253333D01*
X44843333Y-22286666D01*
X44876666Y-22320000D01*
X44910000Y-22386666D01*
X44910000Y-22553333D01*
X44876666Y-22620000D01*
X44843333Y-22653333D01*
X44776666Y-22686666D01*
X44643333Y-22686666D01*
X44576666Y-22653333D01*
X44543333Y-22620000D01*
X44510000Y-22553333D01*
D10*
X32530000Y-20410000D02*
X32530000Y-22615246D01*
X62900000Y-19800000D02*
X33140000Y-19800000D01*
X63200000Y-20100000D02*
X63200000Y-37100000D01*
X51545608Y-37400000D02*
X62900000Y-37400000D01*
M02*
