M48
;DRILL file {KiCad 5.0.1} date Sun 27 Oct 2019 07:11:35 PM CET
;FORMAT={-:-/ absolute / inch / decimal}
FMAT,2
INCH,TZ
T1C0.0118
T2C0.0394
%
G90
G05
M72
T1
X1.498Y-0.9287
X1.5717Y-1.1059
X1.5791Y-0.9236
X1.6673Y-0.939
X1.8075Y-0.9972
X1.8118Y-1.0976
X1.8472Y-0.9417
X1.876Y-1.0657
X2.0461Y-1.2902
X2.1146Y-1.1748
X2.115Y-1.076
X2.1382Y-1.3035
X2.2138Y-0.9693
X2.2268Y-1.176
X2.228Y-1.0768
X2.2681Y-1.0768
X2.2685Y-1.1752
X2.2701Y-1.3157
X2.2945Y-1.1264
T2
X2.122Y-0.9409
X1.3331Y-0.8307
X1.4331Y-0.8307
X1.5331Y-0.8307
X1.6331Y-0.8307
X1.7331Y-0.8307
X1.8331Y-0.8307
X1.9331Y-0.8307
X2.0331Y-0.8307
X2.1331Y-0.8307
X2.2331Y-0.8307
X2.3331Y-0.8307
X2.0331Y-1.4213
X2.1331Y-1.4213
X2.2331Y-1.4213
X2.3331Y-1.4213
T0
M30
