G04 #@! TF.GenerationSoftware,KiCad,Pcbnew,6.0.0-d3dd2cf0fa~116~ubuntu20.04.1*
G04 #@! TF.CreationDate,2022-01-19T00:38:56+01:00*
G04 #@! TF.ProjectId,OtterPill-CAN,4f747465-7250-4696-9c6c-2d43414e2e6b,rev?*
G04 #@! TF.SameCoordinates,Original*
G04 #@! TF.FileFunction,Copper,L2,Bot*
G04 #@! TF.FilePolarity,Positive*
%FSLAX46Y46*%
G04 Gerber Fmt 4.6, Leading zero omitted, Abs format (unit mm)*
G04 Created by KiCad (PCBNEW 6.0.0-d3dd2cf0fa~116~ubuntu20.04.1) date 2022-01-19 00:38:56*
%MOMM*%
%LPD*%
G01*
G04 APERTURE LIST*
G04 #@! TA.AperFunction,Profile*
%ADD10C,0.050000*%
G04 #@! TD*
G04 #@! TA.AperFunction,ComponentPad*
%ADD11C,1.700000*%
G04 #@! TD*
G04 #@! TA.AperFunction,ComponentPad*
%ADD12O,1.700000X1.700000*%
G04 #@! TD*
G04 #@! TA.AperFunction,ViaPad*
%ADD13C,0.600000*%
G04 #@! TD*
G04 #@! TA.AperFunction,Conductor*
%ADD14C,0.157000*%
G04 #@! TD*
G04 APERTURE END LIST*
D10*
X62900000Y-37400000D02*
G75*
G03*
X63200000Y-37100000I0J300000D01*
G01*
X63200000Y-20100000D02*
G75*
G03*
X62900000Y-19800000I-300000J0D01*
G01*
X33140000Y-19800000D02*
G75*
G03*
X32530000Y-20410000I0J-610000D01*
G01*
X33320000Y-23405246D02*
X36404426Y-23405246D01*
X32530000Y-22615246D02*
G75*
G03*
X33320000Y-23405246I790000J0D01*
G01*
X37834459Y-24835279D02*
G75*
G03*
X36404426Y-23405246I-1430033J0D01*
G01*
X37834459Y-27430000D02*
X37834459Y-24835279D01*
X50115574Y-35969966D02*
G75*
G03*
X51545608Y-37400000I1430034J0D01*
G01*
X37834459Y-27430000D02*
G75*
G03*
X39264493Y-28860034I1430034J0D01*
G01*
X48685540Y-28860000D02*
X39264493Y-28860034D01*
X50115574Y-30290034D02*
G75*
G03*
X48685540Y-28860000I-1430034J0D01*
G01*
X50115574Y-35969966D02*
X50115574Y-30290034D01*
X32530000Y-20410000D02*
X32530000Y-22615246D01*
X62900000Y-19800000D02*
X33140000Y-19800000D01*
X63200000Y-20100000D02*
X63200000Y-37100000D01*
X51545608Y-37400000D02*
X62900000Y-37400000D01*
D11*
X53900000Y-23900000D03*
X59260000Y-36100000D03*
D12*
X56720000Y-36100000D03*
X54180000Y-36100000D03*
X51640000Y-36100000D03*
D11*
X33860000Y-21100000D03*
D12*
X36400000Y-21100000D03*
X38940000Y-21100000D03*
X41480000Y-21100000D03*
X44020000Y-21100000D03*
X46560000Y-21100000D03*
X49100000Y-21100000D03*
X51640000Y-21100000D03*
X54180000Y-21100000D03*
X56720000Y-21100000D03*
X59260000Y-21100000D03*
D13*
X57610000Y-27350000D03*
X57620000Y-29850000D03*
X56590000Y-27350000D03*
X56560000Y-29870000D03*
X58280000Y-28610000D03*
X45910000Y-25330000D03*
X46020000Y-27880000D03*
X42350000Y-23850000D03*
X46920000Y-23920000D03*
X56230000Y-24620000D03*
X53720000Y-27330000D03*
X53710000Y-29840000D03*
X40110000Y-23460000D03*
X38050000Y-23590000D03*
X39920000Y-28090000D03*
X54310000Y-33110000D03*
X57660000Y-33420000D03*
X51970000Y-32770000D03*
X47650000Y-27070000D03*
D14*
X47949999Y-27369999D02*
X48599999Y-27369999D01*
X47650000Y-27070000D02*
X47949999Y-27369999D01*
X51970000Y-30740000D02*
X51970000Y-32770000D01*
X48599999Y-27369999D02*
X51970000Y-30740000D01*
G04 #@! TA.AperFunction,Conductor*
G36*
X33687056Y-19975132D02*
G01*
X33713563Y-20021042D01*
X33704357Y-20073250D01*
X33659121Y-20108847D01*
X33584290Y-20130871D01*
X33480758Y-20161342D01*
X33305661Y-20252881D01*
X33302710Y-20255254D01*
X33302708Y-20255255D01*
X33243486Y-20302871D01*
X33151678Y-20376686D01*
X33149243Y-20379588D01*
X33149242Y-20379589D01*
X33031859Y-20519482D01*
X33024676Y-20528042D01*
X33022853Y-20531358D01*
X33022851Y-20531361D01*
X32958641Y-20648158D01*
X32929490Y-20701183D01*
X32869748Y-20889515D01*
X32847724Y-21085865D01*
X32864257Y-21282753D01*
X32918718Y-21472680D01*
X32940499Y-21515061D01*
X33007298Y-21645041D01*
X33007301Y-21645045D01*
X33009031Y-21648412D01*
X33131758Y-21803255D01*
X33134645Y-21805712D01*
X33134647Y-21805714D01*
X33169505Y-21835380D01*
X33282224Y-21931311D01*
X33454697Y-22027703D01*
X33458300Y-22028874D01*
X33458303Y-22028875D01*
X33499157Y-22042149D01*
X33642607Y-22088759D01*
X33646363Y-22089207D01*
X33646368Y-22089208D01*
X33752538Y-22101867D01*
X33838798Y-22112153D01*
X33937298Y-22104574D01*
X34032021Y-22097286D01*
X34032026Y-22097285D01*
X34035797Y-22096995D01*
X34150447Y-22064984D01*
X34222444Y-22044882D01*
X34222446Y-22044881D01*
X34226100Y-22043861D01*
X34402458Y-21954776D01*
X34558154Y-21833133D01*
X34687257Y-21683566D01*
X34784851Y-21511770D01*
X34793838Y-21484755D01*
X34846022Y-21327883D01*
X34846022Y-21327881D01*
X34847217Y-21324290D01*
X34852005Y-21286393D01*
X34858059Y-21238463D01*
X34871980Y-21128267D01*
X34872375Y-21100000D01*
X34853094Y-20903362D01*
X34795987Y-20714214D01*
X34703229Y-20539760D01*
X34586096Y-20396141D01*
X34580750Y-20389586D01*
X34580749Y-20389585D01*
X34578352Y-20386646D01*
X34575434Y-20384232D01*
X34575430Y-20384228D01*
X34429037Y-20263122D01*
X34426113Y-20260703D01*
X34252311Y-20166729D01*
X34231449Y-20160271D01*
X34085401Y-20115062D01*
X34064312Y-20108534D01*
X34022085Y-20076483D01*
X34010340Y-20024787D01*
X34034572Y-19977636D01*
X34087229Y-19957000D01*
X36177240Y-19957000D01*
X36227056Y-19975132D01*
X36253563Y-20021042D01*
X36244357Y-20073250D01*
X36199121Y-20108847D01*
X36124290Y-20130871D01*
X36020758Y-20161342D01*
X35845661Y-20252881D01*
X35842710Y-20255254D01*
X35842708Y-20255255D01*
X35783486Y-20302871D01*
X35691678Y-20376686D01*
X35689243Y-20379588D01*
X35689242Y-20379589D01*
X35571859Y-20519482D01*
X35564676Y-20528042D01*
X35562853Y-20531358D01*
X35562851Y-20531361D01*
X35498641Y-20648158D01*
X35469490Y-20701183D01*
X35409748Y-20889515D01*
X35387724Y-21085865D01*
X35404257Y-21282753D01*
X35458718Y-21472680D01*
X35480499Y-21515061D01*
X35547298Y-21645041D01*
X35547301Y-21645045D01*
X35549031Y-21648412D01*
X35671758Y-21803255D01*
X35674645Y-21805712D01*
X35674647Y-21805714D01*
X35709505Y-21835380D01*
X35822224Y-21931311D01*
X35994697Y-22027703D01*
X35998300Y-22028874D01*
X35998303Y-22028875D01*
X36039157Y-22042149D01*
X36182607Y-22088759D01*
X36186363Y-22089207D01*
X36186368Y-22089208D01*
X36292538Y-22101867D01*
X36378798Y-22112153D01*
X36477298Y-22104574D01*
X36572021Y-22097286D01*
X36572026Y-22097285D01*
X36575797Y-22096995D01*
X36690447Y-22064984D01*
X36762444Y-22044882D01*
X36762446Y-22044881D01*
X36766100Y-22043861D01*
X36942458Y-21954776D01*
X37098154Y-21833133D01*
X37227257Y-21683566D01*
X37324851Y-21511770D01*
X37333838Y-21484755D01*
X37386022Y-21327883D01*
X37386022Y-21327881D01*
X37387217Y-21324290D01*
X37392005Y-21286393D01*
X37398059Y-21238463D01*
X37411980Y-21128267D01*
X37412375Y-21100000D01*
X37393094Y-20903362D01*
X37335987Y-20714214D01*
X37243229Y-20539760D01*
X37126096Y-20396141D01*
X37120750Y-20389586D01*
X37120749Y-20389585D01*
X37118352Y-20386646D01*
X37115434Y-20384232D01*
X37115430Y-20384228D01*
X36969037Y-20263122D01*
X36966113Y-20260703D01*
X36792311Y-20166729D01*
X36771449Y-20160271D01*
X36625401Y-20115062D01*
X36604312Y-20108534D01*
X36562085Y-20076483D01*
X36550340Y-20024787D01*
X36574572Y-19977636D01*
X36627229Y-19957000D01*
X38717240Y-19957000D01*
X38767056Y-19975132D01*
X38793563Y-20021042D01*
X38784357Y-20073250D01*
X38739121Y-20108847D01*
X38664290Y-20130871D01*
X38560758Y-20161342D01*
X38385661Y-20252881D01*
X38382710Y-20255254D01*
X38382708Y-20255255D01*
X38323486Y-20302871D01*
X38231678Y-20376686D01*
X38229243Y-20379588D01*
X38229242Y-20379589D01*
X38111859Y-20519482D01*
X38104676Y-20528042D01*
X38102853Y-20531358D01*
X38102851Y-20531361D01*
X38038641Y-20648158D01*
X38009490Y-20701183D01*
X37949748Y-20889515D01*
X37927724Y-21085865D01*
X37944257Y-21282753D01*
X37998718Y-21472680D01*
X38020499Y-21515061D01*
X38087298Y-21645041D01*
X38087301Y-21645045D01*
X38089031Y-21648412D01*
X38211758Y-21803255D01*
X38214645Y-21805712D01*
X38214647Y-21805714D01*
X38249505Y-21835380D01*
X38362224Y-21931311D01*
X38534697Y-22027703D01*
X38538300Y-22028874D01*
X38538303Y-22028875D01*
X38579157Y-22042149D01*
X38722607Y-22088759D01*
X38726363Y-22089207D01*
X38726368Y-22089208D01*
X38832538Y-22101867D01*
X38918798Y-22112153D01*
X39017298Y-22104574D01*
X39112021Y-22097286D01*
X39112026Y-22097285D01*
X39115797Y-22096995D01*
X39230447Y-22064984D01*
X39302444Y-22044882D01*
X39302446Y-22044881D01*
X39306100Y-22043861D01*
X39482458Y-21954776D01*
X39638154Y-21833133D01*
X39767257Y-21683566D01*
X39864851Y-21511770D01*
X39873838Y-21484755D01*
X39926022Y-21327883D01*
X39926022Y-21327881D01*
X39927217Y-21324290D01*
X39932005Y-21286393D01*
X39938059Y-21238463D01*
X39951980Y-21128267D01*
X39952375Y-21100000D01*
X39933094Y-20903362D01*
X39875987Y-20714214D01*
X39783229Y-20539760D01*
X39666096Y-20396141D01*
X39660750Y-20389586D01*
X39660749Y-20389585D01*
X39658352Y-20386646D01*
X39655434Y-20384232D01*
X39655430Y-20384228D01*
X39509037Y-20263122D01*
X39506113Y-20260703D01*
X39332311Y-20166729D01*
X39311449Y-20160271D01*
X39165401Y-20115062D01*
X39144312Y-20108534D01*
X39102085Y-20076483D01*
X39090340Y-20024787D01*
X39114572Y-19977636D01*
X39167229Y-19957000D01*
X41257240Y-19957000D01*
X41307056Y-19975132D01*
X41333563Y-20021042D01*
X41324357Y-20073250D01*
X41279121Y-20108847D01*
X41204290Y-20130871D01*
X41100758Y-20161342D01*
X40925661Y-20252881D01*
X40922710Y-20255254D01*
X40922708Y-20255255D01*
X40863486Y-20302871D01*
X40771678Y-20376686D01*
X40769243Y-20379588D01*
X40769242Y-20379589D01*
X40651859Y-20519482D01*
X40644676Y-20528042D01*
X40642853Y-20531358D01*
X40642851Y-20531361D01*
X40578641Y-20648158D01*
X40549490Y-20701183D01*
X40489748Y-20889515D01*
X40467724Y-21085865D01*
X40484257Y-21282753D01*
X40538718Y-21472680D01*
X40560499Y-21515061D01*
X40627298Y-21645041D01*
X40627301Y-21645045D01*
X40629031Y-21648412D01*
X40751758Y-21803255D01*
X40754645Y-21805712D01*
X40754647Y-21805714D01*
X40789505Y-21835380D01*
X40902224Y-21931311D01*
X41074697Y-22027703D01*
X41078300Y-22028874D01*
X41078303Y-22028875D01*
X41119157Y-22042149D01*
X41262607Y-22088759D01*
X41266363Y-22089207D01*
X41266368Y-22089208D01*
X41372538Y-22101867D01*
X41458798Y-22112153D01*
X41557298Y-22104574D01*
X41652021Y-22097286D01*
X41652026Y-22097285D01*
X41655797Y-22096995D01*
X41770447Y-22064984D01*
X41842444Y-22044882D01*
X41842446Y-22044881D01*
X41846100Y-22043861D01*
X42022458Y-21954776D01*
X42178154Y-21833133D01*
X42307257Y-21683566D01*
X42404851Y-21511770D01*
X42413838Y-21484755D01*
X42466022Y-21327883D01*
X42466022Y-21327881D01*
X42467217Y-21324290D01*
X42472005Y-21286393D01*
X42478059Y-21238463D01*
X42491980Y-21128267D01*
X42492375Y-21100000D01*
X42473094Y-20903362D01*
X42415987Y-20714214D01*
X42323229Y-20539760D01*
X42206096Y-20396141D01*
X42200750Y-20389586D01*
X42200749Y-20389585D01*
X42198352Y-20386646D01*
X42195434Y-20384232D01*
X42195430Y-20384228D01*
X42049037Y-20263122D01*
X42046113Y-20260703D01*
X41872311Y-20166729D01*
X41851449Y-20160271D01*
X41705401Y-20115062D01*
X41684312Y-20108534D01*
X41642085Y-20076483D01*
X41630340Y-20024787D01*
X41654572Y-19977636D01*
X41707229Y-19957000D01*
X43797240Y-19957000D01*
X43847056Y-19975132D01*
X43873563Y-20021042D01*
X43864357Y-20073250D01*
X43819121Y-20108847D01*
X43744290Y-20130871D01*
X43640758Y-20161342D01*
X43465661Y-20252881D01*
X43462710Y-20255254D01*
X43462708Y-20255255D01*
X43403486Y-20302871D01*
X43311678Y-20376686D01*
X43309243Y-20379588D01*
X43309242Y-20379589D01*
X43191859Y-20519482D01*
X43184676Y-20528042D01*
X43182853Y-20531358D01*
X43182851Y-20531361D01*
X43118641Y-20648158D01*
X43089490Y-20701183D01*
X43029748Y-20889515D01*
X43007724Y-21085865D01*
X43024257Y-21282753D01*
X43078718Y-21472680D01*
X43100499Y-21515061D01*
X43167298Y-21645041D01*
X43167301Y-21645045D01*
X43169031Y-21648412D01*
X43291758Y-21803255D01*
X43294645Y-21805712D01*
X43294647Y-21805714D01*
X43329505Y-21835380D01*
X43442224Y-21931311D01*
X43614697Y-22027703D01*
X43618300Y-22028874D01*
X43618303Y-22028875D01*
X43659157Y-22042149D01*
X43802607Y-22088759D01*
X43806363Y-22089207D01*
X43806368Y-22089208D01*
X43912538Y-22101867D01*
X43998798Y-22112153D01*
X44097298Y-22104574D01*
X44192021Y-22097286D01*
X44192026Y-22097285D01*
X44195797Y-22096995D01*
X44310447Y-22064984D01*
X44382444Y-22044882D01*
X44382446Y-22044881D01*
X44386100Y-22043861D01*
X44562458Y-21954776D01*
X44718154Y-21833133D01*
X44847257Y-21683566D01*
X44944851Y-21511770D01*
X44953838Y-21484755D01*
X45006022Y-21327883D01*
X45006022Y-21327881D01*
X45007217Y-21324290D01*
X45012005Y-21286393D01*
X45018059Y-21238463D01*
X45031980Y-21128267D01*
X45032375Y-21100000D01*
X45013094Y-20903362D01*
X44955987Y-20714214D01*
X44863229Y-20539760D01*
X44746096Y-20396141D01*
X44740750Y-20389586D01*
X44740749Y-20389585D01*
X44738352Y-20386646D01*
X44735434Y-20384232D01*
X44735430Y-20384228D01*
X44589037Y-20263122D01*
X44586113Y-20260703D01*
X44412311Y-20166729D01*
X44391449Y-20160271D01*
X44245401Y-20115062D01*
X44224312Y-20108534D01*
X44182085Y-20076483D01*
X44170340Y-20024787D01*
X44194572Y-19977636D01*
X44247229Y-19957000D01*
X46337240Y-19957000D01*
X46387056Y-19975132D01*
X46413563Y-20021042D01*
X46404357Y-20073250D01*
X46359121Y-20108847D01*
X46284290Y-20130871D01*
X46180758Y-20161342D01*
X46005661Y-20252881D01*
X46002710Y-20255254D01*
X46002708Y-20255255D01*
X45943486Y-20302871D01*
X45851678Y-20376686D01*
X45849243Y-20379588D01*
X45849242Y-20379589D01*
X45731859Y-20519482D01*
X45724676Y-20528042D01*
X45722853Y-20531358D01*
X45722851Y-20531361D01*
X45658641Y-20648158D01*
X45629490Y-20701183D01*
X45569748Y-20889515D01*
X45547724Y-21085865D01*
X45564257Y-21282753D01*
X45618718Y-21472680D01*
X45640499Y-21515061D01*
X45707298Y-21645041D01*
X45707301Y-21645045D01*
X45709031Y-21648412D01*
X45831758Y-21803255D01*
X45834645Y-21805712D01*
X45834647Y-21805714D01*
X45869505Y-21835380D01*
X45982224Y-21931311D01*
X46154697Y-22027703D01*
X46158300Y-22028874D01*
X46158303Y-22028875D01*
X46199157Y-22042149D01*
X46342607Y-22088759D01*
X46346363Y-22089207D01*
X46346368Y-22089208D01*
X46452538Y-22101867D01*
X46538798Y-22112153D01*
X46637298Y-22104574D01*
X46732021Y-22097286D01*
X46732026Y-22097285D01*
X46735797Y-22096995D01*
X46850447Y-22064984D01*
X46922444Y-22044882D01*
X46922446Y-22044881D01*
X46926100Y-22043861D01*
X47102458Y-21954776D01*
X47258154Y-21833133D01*
X47387257Y-21683566D01*
X47484851Y-21511770D01*
X47493838Y-21484755D01*
X47546022Y-21327883D01*
X47546022Y-21327881D01*
X47547217Y-21324290D01*
X47552005Y-21286393D01*
X47558059Y-21238463D01*
X47571980Y-21128267D01*
X47572375Y-21100000D01*
X47553094Y-20903362D01*
X47495987Y-20714214D01*
X47403229Y-20539760D01*
X47286096Y-20396141D01*
X47280750Y-20389586D01*
X47280749Y-20389585D01*
X47278352Y-20386646D01*
X47275434Y-20384232D01*
X47275430Y-20384228D01*
X47129037Y-20263122D01*
X47126113Y-20260703D01*
X46952311Y-20166729D01*
X46931449Y-20160271D01*
X46785401Y-20115062D01*
X46764312Y-20108534D01*
X46722085Y-20076483D01*
X46710340Y-20024787D01*
X46734572Y-19977636D01*
X46787229Y-19957000D01*
X48877240Y-19957000D01*
X48927056Y-19975132D01*
X48953563Y-20021042D01*
X48944357Y-20073250D01*
X48899121Y-20108847D01*
X48824290Y-20130871D01*
X48720758Y-20161342D01*
X48545661Y-20252881D01*
X48542710Y-20255254D01*
X48542708Y-20255255D01*
X48483486Y-20302871D01*
X48391678Y-20376686D01*
X48389243Y-20379588D01*
X48389242Y-20379589D01*
X48271859Y-20519482D01*
X48264676Y-20528042D01*
X48262853Y-20531358D01*
X48262851Y-20531361D01*
X48198641Y-20648158D01*
X48169490Y-20701183D01*
X48109748Y-20889515D01*
X48087724Y-21085865D01*
X48104257Y-21282753D01*
X48158718Y-21472680D01*
X48180499Y-21515061D01*
X48247298Y-21645041D01*
X48247301Y-21645045D01*
X48249031Y-21648412D01*
X48371758Y-21803255D01*
X48374645Y-21805712D01*
X48374647Y-21805714D01*
X48409505Y-21835380D01*
X48522224Y-21931311D01*
X48694697Y-22027703D01*
X48698300Y-22028874D01*
X48698303Y-22028875D01*
X48739157Y-22042149D01*
X48882607Y-22088759D01*
X48886363Y-22089207D01*
X48886368Y-22089208D01*
X48992538Y-22101867D01*
X49078798Y-22112153D01*
X49177298Y-22104574D01*
X49272021Y-22097286D01*
X49272026Y-22097285D01*
X49275797Y-22096995D01*
X49390447Y-22064984D01*
X49462444Y-22044882D01*
X49462446Y-22044881D01*
X49466100Y-22043861D01*
X49642458Y-21954776D01*
X49798154Y-21833133D01*
X49927257Y-21683566D01*
X50024851Y-21511770D01*
X50033838Y-21484755D01*
X50086022Y-21327883D01*
X50086022Y-21327881D01*
X50087217Y-21324290D01*
X50092005Y-21286393D01*
X50098059Y-21238463D01*
X50111980Y-21128267D01*
X50112375Y-21100000D01*
X50093094Y-20903362D01*
X50035987Y-20714214D01*
X49943229Y-20539760D01*
X49826096Y-20396141D01*
X49820750Y-20389586D01*
X49820749Y-20389585D01*
X49818352Y-20386646D01*
X49815434Y-20384232D01*
X49815430Y-20384228D01*
X49669037Y-20263122D01*
X49666113Y-20260703D01*
X49492311Y-20166729D01*
X49471449Y-20160271D01*
X49325401Y-20115062D01*
X49304312Y-20108534D01*
X49262085Y-20076483D01*
X49250340Y-20024787D01*
X49274572Y-19977636D01*
X49327229Y-19957000D01*
X51417240Y-19957000D01*
X51467056Y-19975132D01*
X51493563Y-20021042D01*
X51484357Y-20073250D01*
X51439121Y-20108847D01*
X51364290Y-20130871D01*
X51260758Y-20161342D01*
X51085661Y-20252881D01*
X51082710Y-20255254D01*
X51082708Y-20255255D01*
X51023486Y-20302871D01*
X50931678Y-20376686D01*
X50929243Y-20379588D01*
X50929242Y-20379589D01*
X50811859Y-20519482D01*
X50804676Y-20528042D01*
X50802853Y-20531358D01*
X50802851Y-20531361D01*
X50738641Y-20648158D01*
X50709490Y-20701183D01*
X50649748Y-20889515D01*
X50627724Y-21085865D01*
X50644257Y-21282753D01*
X50698718Y-21472680D01*
X50720499Y-21515061D01*
X50787298Y-21645041D01*
X50787301Y-21645045D01*
X50789031Y-21648412D01*
X50911758Y-21803255D01*
X50914645Y-21805712D01*
X50914647Y-21805714D01*
X50949505Y-21835380D01*
X51062224Y-21931311D01*
X51234697Y-22027703D01*
X51238300Y-22028874D01*
X51238303Y-22028875D01*
X51279157Y-22042149D01*
X51422607Y-22088759D01*
X51426363Y-22089207D01*
X51426368Y-22089208D01*
X51532538Y-22101867D01*
X51618798Y-22112153D01*
X51717298Y-22104574D01*
X51812021Y-22097286D01*
X51812026Y-22097285D01*
X51815797Y-22096995D01*
X51930447Y-22064984D01*
X52002444Y-22044882D01*
X52002446Y-22044881D01*
X52006100Y-22043861D01*
X52182458Y-21954776D01*
X52338154Y-21833133D01*
X52467257Y-21683566D01*
X52564851Y-21511770D01*
X52573838Y-21484755D01*
X52626022Y-21327883D01*
X52626022Y-21327881D01*
X52627217Y-21324290D01*
X52632005Y-21286393D01*
X52638059Y-21238463D01*
X52651980Y-21128267D01*
X52652375Y-21100000D01*
X52633094Y-20903362D01*
X52575987Y-20714214D01*
X52483229Y-20539760D01*
X52366096Y-20396141D01*
X52360750Y-20389586D01*
X52360749Y-20389585D01*
X52358352Y-20386646D01*
X52355434Y-20384232D01*
X52355430Y-20384228D01*
X52209037Y-20263122D01*
X52206113Y-20260703D01*
X52032311Y-20166729D01*
X52011449Y-20160271D01*
X51865401Y-20115062D01*
X51844312Y-20108534D01*
X51802085Y-20076483D01*
X51790340Y-20024787D01*
X51814572Y-19977636D01*
X51867229Y-19957000D01*
X53957240Y-19957000D01*
X54007056Y-19975132D01*
X54033563Y-20021042D01*
X54024357Y-20073250D01*
X53979121Y-20108847D01*
X53904290Y-20130871D01*
X53800758Y-20161342D01*
X53625661Y-20252881D01*
X53622710Y-20255254D01*
X53622708Y-20255255D01*
X53563486Y-20302871D01*
X53471678Y-20376686D01*
X53469243Y-20379588D01*
X53469242Y-20379589D01*
X53351859Y-20519482D01*
X53344676Y-20528042D01*
X53342853Y-20531358D01*
X53342851Y-20531361D01*
X53278641Y-20648158D01*
X53249490Y-20701183D01*
X53189748Y-20889515D01*
X53167724Y-21085865D01*
X53184257Y-21282753D01*
X53238718Y-21472680D01*
X53260499Y-21515061D01*
X53327298Y-21645041D01*
X53327301Y-21645045D01*
X53329031Y-21648412D01*
X53451758Y-21803255D01*
X53454645Y-21805712D01*
X53454647Y-21805714D01*
X53489505Y-21835380D01*
X53602224Y-21931311D01*
X53774697Y-22027703D01*
X53778300Y-22028874D01*
X53778303Y-22028875D01*
X53819157Y-22042149D01*
X53962607Y-22088759D01*
X53966363Y-22089207D01*
X53966368Y-22089208D01*
X54072538Y-22101867D01*
X54158798Y-22112153D01*
X54257298Y-22104574D01*
X54352021Y-22097286D01*
X54352026Y-22097285D01*
X54355797Y-22096995D01*
X54470447Y-22064984D01*
X54542444Y-22044882D01*
X54542446Y-22044881D01*
X54546100Y-22043861D01*
X54722458Y-21954776D01*
X54878154Y-21833133D01*
X55007257Y-21683566D01*
X55104851Y-21511770D01*
X55113838Y-21484755D01*
X55155534Y-21359411D01*
X55702744Y-21359411D01*
X55702905Y-21362488D01*
X55737965Y-21484755D01*
X55740744Y-21491774D01*
X55831401Y-21668174D01*
X55835490Y-21674518D01*
X55958682Y-21829948D01*
X55963927Y-21835380D01*
X56114963Y-21963921D01*
X56121162Y-21968229D01*
X56294284Y-22064984D01*
X56301209Y-22068010D01*
X56453003Y-22117330D01*
X56464138Y-22116941D01*
X56464963Y-22116198D01*
X56466000Y-22112038D01*
X56466000Y-22105622D01*
X56974000Y-22105622D01*
X56977811Y-22116092D01*
X56979539Y-22117089D01*
X56982371Y-22116951D01*
X57097887Y-22084698D01*
X57104932Y-22081965D01*
X57281956Y-21992544D01*
X57288327Y-21988501D01*
X57444618Y-21866393D01*
X57450082Y-21861190D01*
X57579677Y-21711053D01*
X57584027Y-21704887D01*
X57681993Y-21532433D01*
X57685059Y-21525548D01*
X57737812Y-21366967D01*
X57737501Y-21355831D01*
X57736861Y-21355110D01*
X57732474Y-21354000D01*
X56987666Y-21354000D01*
X56977196Y-21357811D01*
X56974000Y-21363347D01*
X56974000Y-22105622D01*
X56466000Y-22105622D01*
X56466000Y-21367666D01*
X56462189Y-21357196D01*
X56456653Y-21354000D01*
X55714137Y-21354000D01*
X55703667Y-21357811D01*
X55702744Y-21359411D01*
X55155534Y-21359411D01*
X55166022Y-21327883D01*
X55166022Y-21327881D01*
X55167217Y-21324290D01*
X55172005Y-21286393D01*
X55178059Y-21238463D01*
X55191980Y-21128267D01*
X55192375Y-21100000D01*
X55173094Y-20903362D01*
X55115987Y-20714214D01*
X55023229Y-20539760D01*
X54906096Y-20396141D01*
X54900750Y-20389586D01*
X54900749Y-20389585D01*
X54898352Y-20386646D01*
X54895434Y-20384232D01*
X54895430Y-20384228D01*
X54749037Y-20263122D01*
X54746113Y-20260703D01*
X54572311Y-20166729D01*
X54551449Y-20160271D01*
X54405401Y-20115062D01*
X54384312Y-20108534D01*
X54342085Y-20076483D01*
X54330340Y-20024787D01*
X54354572Y-19977636D01*
X54407229Y-19957000D01*
X56346705Y-19957000D01*
X56396521Y-19975132D01*
X56423028Y-20021042D01*
X56413822Y-20073250D01*
X56368586Y-20108847D01*
X56328397Y-20120675D01*
X56321402Y-20123502D01*
X56145630Y-20215393D01*
X56139328Y-20219516D01*
X55984748Y-20343802D01*
X55979364Y-20349075D01*
X55851875Y-20501010D01*
X55847613Y-20507233D01*
X55752065Y-20681036D01*
X55749091Y-20687976D01*
X55703094Y-20832974D01*
X55703561Y-20844105D01*
X55704410Y-20845035D01*
X55708340Y-20846000D01*
X57726507Y-20846000D01*
X57736977Y-20842189D01*
X57737753Y-20840846D01*
X57737541Y-20837282D01*
X57696568Y-20701572D01*
X57693689Y-20694589D01*
X57600583Y-20519482D01*
X57596397Y-20513182D01*
X57471053Y-20359494D01*
X57465733Y-20354136D01*
X57312918Y-20227717D01*
X57306657Y-20223494D01*
X57132189Y-20129160D01*
X57125242Y-20126240D01*
X57068043Y-20108534D01*
X57025816Y-20076482D01*
X57014071Y-20024787D01*
X57038303Y-19977636D01*
X57090960Y-19957000D01*
X59037240Y-19957000D01*
X59087056Y-19975132D01*
X59113563Y-20021042D01*
X59104357Y-20073250D01*
X59059121Y-20108847D01*
X58984290Y-20130871D01*
X58880758Y-20161342D01*
X58705661Y-20252881D01*
X58702710Y-20255254D01*
X58702708Y-20255255D01*
X58643486Y-20302871D01*
X58551678Y-20376686D01*
X58549243Y-20379588D01*
X58549242Y-20379589D01*
X58431859Y-20519482D01*
X58424676Y-20528042D01*
X58422853Y-20531358D01*
X58422851Y-20531361D01*
X58358641Y-20648158D01*
X58329490Y-20701183D01*
X58269748Y-20889515D01*
X58247724Y-21085865D01*
X58264257Y-21282753D01*
X58318718Y-21472680D01*
X58340499Y-21515061D01*
X58407298Y-21645041D01*
X58407301Y-21645045D01*
X58409031Y-21648412D01*
X58531758Y-21803255D01*
X58534645Y-21805712D01*
X58534647Y-21805714D01*
X58569505Y-21835380D01*
X58682224Y-21931311D01*
X58854697Y-22027703D01*
X58858300Y-22028874D01*
X58858303Y-22028875D01*
X58899157Y-22042149D01*
X59042607Y-22088759D01*
X59046363Y-22089207D01*
X59046368Y-22089208D01*
X59152538Y-22101867D01*
X59238798Y-22112153D01*
X59337298Y-22104574D01*
X59432021Y-22097286D01*
X59432026Y-22097285D01*
X59435797Y-22096995D01*
X59550447Y-22064984D01*
X59622444Y-22044882D01*
X59622446Y-22044881D01*
X59626100Y-22043861D01*
X59802458Y-21954776D01*
X59958154Y-21833133D01*
X60087257Y-21683566D01*
X60184851Y-21511770D01*
X60193838Y-21484755D01*
X60246022Y-21327883D01*
X60246022Y-21327881D01*
X60247217Y-21324290D01*
X60252005Y-21286393D01*
X60258059Y-21238463D01*
X60271980Y-21128267D01*
X60272375Y-21100000D01*
X60253094Y-20903362D01*
X60195987Y-20714214D01*
X60103229Y-20539760D01*
X59986096Y-20396141D01*
X59980750Y-20389586D01*
X59980749Y-20389585D01*
X59978352Y-20386646D01*
X59975434Y-20384232D01*
X59975430Y-20384228D01*
X59829037Y-20263122D01*
X59826113Y-20260703D01*
X59652311Y-20166729D01*
X59631449Y-20160271D01*
X59485401Y-20115062D01*
X59464312Y-20108534D01*
X59422085Y-20076483D01*
X59410340Y-20024787D01*
X59434572Y-19977636D01*
X59487229Y-19957000D01*
X62869129Y-19957000D01*
X62889187Y-19959641D01*
X62890141Y-19959897D01*
X62890144Y-19959897D01*
X62900000Y-19962538D01*
X62909070Y-19960107D01*
X62922052Y-19961386D01*
X62939608Y-19964879D01*
X62967541Y-19976450D01*
X62988298Y-19990319D01*
X63009681Y-20011702D01*
X63023550Y-20032459D01*
X63035121Y-20060392D01*
X63038614Y-20077948D01*
X63039893Y-20090930D01*
X63037462Y-20100000D01*
X63040103Y-20109856D01*
X63040103Y-20109859D01*
X63040359Y-20110813D01*
X63043000Y-20130871D01*
X63043000Y-37069129D01*
X63040359Y-37089187D01*
X63040103Y-37090141D01*
X63040103Y-37090144D01*
X63037462Y-37100000D01*
X63039893Y-37109070D01*
X63038614Y-37122052D01*
X63035121Y-37139608D01*
X63023550Y-37167541D01*
X63009681Y-37188298D01*
X62988298Y-37209681D01*
X62967541Y-37223550D01*
X62939608Y-37235121D01*
X62922052Y-37238614D01*
X62909070Y-37239893D01*
X62900000Y-37237462D01*
X62890144Y-37240103D01*
X62890141Y-37240103D01*
X62889187Y-37240359D01*
X62869129Y-37243000D01*
X59478629Y-37243000D01*
X59428813Y-37224868D01*
X59402306Y-37178958D01*
X59411512Y-37126750D01*
X59452122Y-37092674D01*
X59457788Y-37090855D01*
X59622444Y-37044882D01*
X59622446Y-37044881D01*
X59626100Y-37043861D01*
X59802458Y-36954776D01*
X59958154Y-36833133D01*
X60022706Y-36758349D01*
X60084780Y-36686436D01*
X60084781Y-36686434D01*
X60087257Y-36683566D01*
X60184851Y-36511770D01*
X60193838Y-36484755D01*
X60246022Y-36327883D01*
X60246022Y-36327881D01*
X60247217Y-36324290D01*
X60252005Y-36286393D01*
X60266820Y-36169113D01*
X60271980Y-36128267D01*
X60272375Y-36100000D01*
X60253094Y-35903362D01*
X60195987Y-35714214D01*
X60103229Y-35539760D01*
X59978352Y-35386646D01*
X59975434Y-35384232D01*
X59975430Y-35384228D01*
X59829037Y-35263122D01*
X59826113Y-35260703D01*
X59652311Y-35166729D01*
X59640584Y-35163099D01*
X59467185Y-35109423D01*
X59467182Y-35109422D01*
X59463566Y-35108303D01*
X59414987Y-35103197D01*
X59270840Y-35088046D01*
X59270835Y-35088046D01*
X59267068Y-35087650D01*
X59070300Y-35105557D01*
X58880758Y-35161342D01*
X58705661Y-35252881D01*
X58702710Y-35255254D01*
X58702708Y-35255255D01*
X58592578Y-35343802D01*
X58551678Y-35376686D01*
X58549243Y-35379588D01*
X58549242Y-35379589D01*
X58431859Y-35519482D01*
X58424676Y-35528042D01*
X58422853Y-35531358D01*
X58422851Y-35531361D01*
X58358641Y-35648158D01*
X58329490Y-35701183D01*
X58269748Y-35889515D01*
X58247724Y-36085865D01*
X58264257Y-36282753D01*
X58318718Y-36472680D01*
X58340499Y-36515061D01*
X58407298Y-36645041D01*
X58407301Y-36645045D01*
X58409031Y-36648412D01*
X58531758Y-36803255D01*
X58534645Y-36805712D01*
X58534647Y-36805714D01*
X58569505Y-36835380D01*
X58682224Y-36931311D01*
X58854697Y-37027703D01*
X58858300Y-37028874D01*
X58858303Y-37028875D01*
X59039006Y-37087589D01*
X59042607Y-37088759D01*
X59046367Y-37089207D01*
X59049099Y-37089808D01*
X59093860Y-37118213D01*
X59109890Y-37168745D01*
X59089689Y-37217758D01*
X59042709Y-37242319D01*
X59032458Y-37243000D01*
X56938629Y-37243000D01*
X56888813Y-37224868D01*
X56862306Y-37178958D01*
X56871512Y-37126750D01*
X56912122Y-37092674D01*
X56917788Y-37090855D01*
X57082444Y-37044882D01*
X57082446Y-37044881D01*
X57086100Y-37043861D01*
X57262458Y-36954776D01*
X57418154Y-36833133D01*
X57482706Y-36758349D01*
X57544780Y-36686436D01*
X57544781Y-36686434D01*
X57547257Y-36683566D01*
X57644851Y-36511770D01*
X57653838Y-36484755D01*
X57706022Y-36327883D01*
X57706022Y-36327881D01*
X57707217Y-36324290D01*
X57712005Y-36286393D01*
X57726820Y-36169113D01*
X57731980Y-36128267D01*
X57732375Y-36100000D01*
X57713094Y-35903362D01*
X57655987Y-35714214D01*
X57563229Y-35539760D01*
X57438352Y-35386646D01*
X57435434Y-35384232D01*
X57435430Y-35384228D01*
X57289037Y-35263122D01*
X57286113Y-35260703D01*
X57112311Y-35166729D01*
X57100584Y-35163099D01*
X56927185Y-35109423D01*
X56927182Y-35109422D01*
X56923566Y-35108303D01*
X56874987Y-35103197D01*
X56730840Y-35088046D01*
X56730835Y-35088046D01*
X56727068Y-35087650D01*
X56530300Y-35105557D01*
X56340758Y-35161342D01*
X56165661Y-35252881D01*
X56162710Y-35255254D01*
X56162708Y-35255255D01*
X56052578Y-35343802D01*
X56011678Y-35376686D01*
X56009243Y-35379588D01*
X56009242Y-35379589D01*
X55891859Y-35519482D01*
X55884676Y-35528042D01*
X55882853Y-35531358D01*
X55882851Y-35531361D01*
X55818641Y-35648158D01*
X55789490Y-35701183D01*
X55729748Y-35889515D01*
X55707724Y-36085865D01*
X55724257Y-36282753D01*
X55778718Y-36472680D01*
X55800499Y-36515061D01*
X55867298Y-36645041D01*
X55867301Y-36645045D01*
X55869031Y-36648412D01*
X55991758Y-36803255D01*
X55994645Y-36805712D01*
X55994647Y-36805714D01*
X56029505Y-36835380D01*
X56142224Y-36931311D01*
X56314697Y-37027703D01*
X56318300Y-37028874D01*
X56318303Y-37028875D01*
X56499006Y-37087589D01*
X56502607Y-37088759D01*
X56506367Y-37089207D01*
X56509099Y-37089808D01*
X56553860Y-37118213D01*
X56569890Y-37168745D01*
X56549689Y-37217758D01*
X56502709Y-37242319D01*
X56492458Y-37243000D01*
X54398629Y-37243000D01*
X54348813Y-37224868D01*
X54322306Y-37178958D01*
X54331512Y-37126750D01*
X54372122Y-37092674D01*
X54377788Y-37090855D01*
X54542444Y-37044882D01*
X54542446Y-37044881D01*
X54546100Y-37043861D01*
X54722458Y-36954776D01*
X54878154Y-36833133D01*
X54942706Y-36758349D01*
X55004780Y-36686436D01*
X55004781Y-36686434D01*
X55007257Y-36683566D01*
X55104851Y-36511770D01*
X55113838Y-36484755D01*
X55166022Y-36327883D01*
X55166022Y-36327881D01*
X55167217Y-36324290D01*
X55172005Y-36286393D01*
X55186820Y-36169113D01*
X55191980Y-36128267D01*
X55192375Y-36100000D01*
X55173094Y-35903362D01*
X55115987Y-35714214D01*
X55023229Y-35539760D01*
X54898352Y-35386646D01*
X54895434Y-35384232D01*
X54895430Y-35384228D01*
X54749037Y-35263122D01*
X54746113Y-35260703D01*
X54572311Y-35166729D01*
X54560584Y-35163099D01*
X54387185Y-35109423D01*
X54387182Y-35109422D01*
X54383566Y-35108303D01*
X54334987Y-35103197D01*
X54190840Y-35088046D01*
X54190835Y-35088046D01*
X54187068Y-35087650D01*
X53990300Y-35105557D01*
X53800758Y-35161342D01*
X53625661Y-35252881D01*
X53622710Y-35255254D01*
X53622708Y-35255255D01*
X53512578Y-35343802D01*
X53471678Y-35376686D01*
X53469243Y-35379588D01*
X53469242Y-35379589D01*
X53351859Y-35519482D01*
X53344676Y-35528042D01*
X53342853Y-35531358D01*
X53342851Y-35531361D01*
X53278641Y-35648158D01*
X53249490Y-35701183D01*
X53189748Y-35889515D01*
X53167724Y-36085865D01*
X53184257Y-36282753D01*
X53238718Y-36472680D01*
X53260499Y-36515061D01*
X53327298Y-36645041D01*
X53327301Y-36645045D01*
X53329031Y-36648412D01*
X53451758Y-36803255D01*
X53454645Y-36805712D01*
X53454647Y-36805714D01*
X53489505Y-36835380D01*
X53602224Y-36931311D01*
X53774697Y-37027703D01*
X53778300Y-37028874D01*
X53778303Y-37028875D01*
X53959006Y-37087589D01*
X53962607Y-37088759D01*
X53966367Y-37089207D01*
X53969099Y-37089808D01*
X54013860Y-37118213D01*
X54029890Y-37168745D01*
X54009689Y-37217758D01*
X53962709Y-37242319D01*
X53952458Y-37243000D01*
X52016675Y-37243000D01*
X51966859Y-37224868D01*
X51940352Y-37178958D01*
X51949558Y-37126750D01*
X51990168Y-37092674D01*
X51995834Y-37090855D01*
X52017887Y-37084698D01*
X52024932Y-37081965D01*
X52201956Y-36992544D01*
X52208327Y-36988501D01*
X52364618Y-36866393D01*
X52370082Y-36861190D01*
X52499677Y-36711053D01*
X52504027Y-36704887D01*
X52601993Y-36532433D01*
X52605059Y-36525548D01*
X52657812Y-36366967D01*
X52657501Y-36355831D01*
X52656861Y-36355110D01*
X52652474Y-36354000D01*
X50634137Y-36354000D01*
X50623667Y-36357811D01*
X50622744Y-36359411D01*
X50622905Y-36362488D01*
X50657965Y-36484755D01*
X50660744Y-36491774D01*
X50751401Y-36668174D01*
X50755490Y-36674518D01*
X50878682Y-36829948D01*
X50883927Y-36835380D01*
X51037851Y-36966379D01*
X51036990Y-36967391D01*
X51064695Y-37006671D01*
X51060255Y-37059498D01*
X51022897Y-37097112D01*
X50970102Y-37101912D01*
X50949411Y-37093064D01*
X50945807Y-37090855D01*
X50802536Y-37003058D01*
X50792698Y-36995910D01*
X50650075Y-36874098D01*
X50641476Y-36865499D01*
X50519664Y-36722876D01*
X50512516Y-36713038D01*
X50470847Y-36645041D01*
X50414512Y-36553111D01*
X50408993Y-36542280D01*
X50337215Y-36368989D01*
X50333457Y-36357424D01*
X50333075Y-36355831D01*
X50289670Y-36175038D01*
X50287768Y-36163029D01*
X50274876Y-35999218D01*
X50275721Y-35990026D01*
X50275471Y-35990026D01*
X50275471Y-35979822D01*
X50278112Y-35969966D01*
X50275215Y-35959153D01*
X50272574Y-35939095D01*
X50272574Y-35832974D01*
X50623094Y-35832974D01*
X50623561Y-35844105D01*
X50624410Y-35845035D01*
X50628340Y-35846000D01*
X51372334Y-35846000D01*
X51382804Y-35842189D01*
X51386000Y-35836653D01*
X51386000Y-35832334D01*
X51894000Y-35832334D01*
X51897811Y-35842804D01*
X51903347Y-35846000D01*
X52646507Y-35846000D01*
X52656977Y-35842189D01*
X52657753Y-35840846D01*
X52657541Y-35837282D01*
X52616568Y-35701572D01*
X52613689Y-35694589D01*
X52520583Y-35519482D01*
X52516397Y-35513182D01*
X52391053Y-35359494D01*
X52385733Y-35354136D01*
X52232918Y-35227717D01*
X52226657Y-35223494D01*
X52052189Y-35129160D01*
X52045242Y-35126240D01*
X51907053Y-35083464D01*
X51895928Y-35084008D01*
X51894895Y-35084964D01*
X51894000Y-35088664D01*
X51894000Y-35832334D01*
X51386000Y-35832334D01*
X51386000Y-35093843D01*
X51382189Y-35083373D01*
X51380717Y-35082523D01*
X51377399Y-35082708D01*
X51248398Y-35120675D01*
X51241399Y-35123503D01*
X51065630Y-35215393D01*
X51059328Y-35219516D01*
X50904748Y-35343802D01*
X50899364Y-35349075D01*
X50771875Y-35501010D01*
X50767613Y-35507233D01*
X50672065Y-35681036D01*
X50669091Y-35687976D01*
X50623094Y-35832974D01*
X50272574Y-35832974D01*
X50272574Y-30320905D01*
X50275215Y-30300847D01*
X50275471Y-30299890D01*
X50278112Y-30290034D01*
X50276088Y-30282479D01*
X50275658Y-30276467D01*
X50275663Y-30276453D01*
X50275630Y-30275516D01*
X50275560Y-30275103D01*
X50275486Y-30274058D01*
X50260433Y-30063599D01*
X50212178Y-29841773D01*
X50132845Y-29629072D01*
X50102591Y-29573665D01*
X50025376Y-29432257D01*
X50025375Y-29432256D01*
X50024049Y-29429827D01*
X49983686Y-29375909D01*
X49889662Y-29250307D01*
X49889658Y-29250302D01*
X49888004Y-29248093D01*
X49727481Y-29087570D01*
X49725272Y-29085916D01*
X49725267Y-29085912D01*
X49547963Y-28953184D01*
X49545747Y-28951525D01*
X49455992Y-28902515D01*
X49348933Y-28844056D01*
X49348928Y-28844054D01*
X49346502Y-28842729D01*
X49133801Y-28763396D01*
X48986606Y-28731376D01*
X48914679Y-28715729D01*
X48914676Y-28715729D01*
X48911975Y-28715141D01*
X48700467Y-28700013D01*
X48700432Y-28700007D01*
X48700401Y-28700009D01*
X48693095Y-28699486D01*
X48685540Y-28697462D01*
X48674728Y-28700359D01*
X48654670Y-28703000D01*
X43975476Y-28703017D01*
X39295364Y-28703034D01*
X39275306Y-28700393D01*
X39274351Y-28700137D01*
X39274349Y-28700137D01*
X39264493Y-28697496D01*
X39254637Y-28700137D01*
X39244433Y-28700137D01*
X39244433Y-28699887D01*
X39235241Y-28700732D01*
X39160415Y-28694843D01*
X39071428Y-28687840D01*
X39059421Y-28685938D01*
X38877034Y-28642151D01*
X38865470Y-28638393D01*
X38692179Y-28566615D01*
X38681348Y-28561096D01*
X38521421Y-28463092D01*
X38511583Y-28455944D01*
X38368960Y-28334132D01*
X38360361Y-28325533D01*
X38238549Y-28182910D01*
X38231401Y-28173072D01*
X38192355Y-28109355D01*
X38133397Y-28013145D01*
X38127878Y-28002314D01*
X38056100Y-27829023D01*
X38052342Y-27817458D01*
X38013683Y-27656435D01*
X38008555Y-27635072D01*
X38006653Y-27623063D01*
X38005026Y-27602383D01*
X37993761Y-27459252D01*
X37994606Y-27450060D01*
X37994356Y-27450060D01*
X37994356Y-27439856D01*
X37996997Y-27430000D01*
X37994100Y-27419187D01*
X37991459Y-27399129D01*
X37991459Y-27064353D01*
X47187829Y-27064353D01*
X47204821Y-27194296D01*
X47207043Y-27199346D01*
X47210623Y-27207481D01*
X47257601Y-27314247D01*
X47341925Y-27414563D01*
X47451016Y-27487179D01*
X47576102Y-27526259D01*
X47633462Y-27527311D01*
X47701607Y-27528560D01*
X47701609Y-27528560D01*
X47707129Y-27528661D01*
X47712458Y-27527208D01*
X47712459Y-27527208D01*
X47715812Y-27526294D01*
X47768643Y-27530684D01*
X47793788Y-27549205D01*
X47808183Y-27565192D01*
X47831470Y-27575560D01*
X47842157Y-27581363D01*
X47863535Y-27595246D01*
X47872319Y-27596637D01*
X47891713Y-27602383D01*
X47892391Y-27602685D01*
X47892394Y-27602686D01*
X47899836Y-27605999D01*
X47925330Y-27605999D01*
X47937453Y-27606953D01*
X47954581Y-27609666D01*
X47954582Y-27609666D01*
X47962627Y-27610940D01*
X47970498Y-27608831D01*
X47971212Y-27608640D01*
X47991270Y-27605999D01*
X48470142Y-27605999D01*
X48519958Y-27624131D01*
X48524943Y-27628698D01*
X51711301Y-30815055D01*
X51733705Y-30863101D01*
X51734000Y-30869856D01*
X51734000Y-32335169D01*
X51715868Y-32384985D01*
X51697856Y-32400712D01*
X51670436Y-32418013D01*
X51583686Y-32516239D01*
X51527991Y-32634864D01*
X51527142Y-32640317D01*
X51527141Y-32640320D01*
X51512351Y-32735311D01*
X51507829Y-32764353D01*
X51524821Y-32894296D01*
X51527043Y-32899346D01*
X51542026Y-32933396D01*
X51577601Y-33014247D01*
X51581154Y-33018473D01*
X51581154Y-33018474D01*
X51585374Y-33023494D01*
X51661925Y-33114563D01*
X51771016Y-33187179D01*
X51896102Y-33226259D01*
X51953462Y-33227311D01*
X52021607Y-33228560D01*
X52021609Y-33228560D01*
X52027129Y-33228661D01*
X52153564Y-33194191D01*
X52265242Y-33125620D01*
X52277597Y-33111971D01*
X52349480Y-33032555D01*
X52353185Y-33028462D01*
X52410325Y-32910526D01*
X52432067Y-32781293D01*
X52432205Y-32770000D01*
X52431397Y-32764353D01*
X52414410Y-32645740D01*
X52414410Y-32645739D01*
X52413627Y-32640274D01*
X52359386Y-32520977D01*
X52355304Y-32516239D01*
X52277446Y-32425882D01*
X52273842Y-32421699D01*
X52269210Y-32418697D01*
X52269207Y-32418694D01*
X52265044Y-32415996D01*
X58095814Y-32415996D01*
X58095985Y-32419687D01*
X58100906Y-32526005D01*
X58105523Y-32625767D01*
X58154724Y-32829918D01*
X58241640Y-33021081D01*
X58363137Y-33192360D01*
X58365796Y-33194906D01*
X58365800Y-33194910D01*
X58447224Y-33272856D01*
X58514831Y-33337575D01*
X58517927Y-33339574D01*
X58517932Y-33339578D01*
X58688148Y-33449485D01*
X58688151Y-33449486D01*
X58691246Y-33451485D01*
X58886019Y-33529981D01*
X59092122Y-33570230D01*
X59094911Y-33570366D01*
X59094916Y-33570367D01*
X59095919Y-33570416D01*
X59097643Y-33570500D01*
X59252469Y-33570500D01*
X59254298Y-33570325D01*
X59254308Y-33570325D01*
X59405381Y-33555911D01*
X59405384Y-33555910D01*
X59409046Y-33555561D01*
X59610549Y-33496447D01*
X59654336Y-33473895D01*
X59793959Y-33401985D01*
X59793964Y-33401982D01*
X59797239Y-33400295D01*
X59880335Y-33335022D01*
X59959477Y-33272856D01*
X59959480Y-33272853D01*
X59962379Y-33270576D01*
X60091718Y-33121527D01*
X60097592Y-33114758D01*
X60097594Y-33114755D01*
X60100010Y-33111971D01*
X60154536Y-33017719D01*
X60203318Y-32933396D01*
X60203319Y-32933393D01*
X60205166Y-32930201D01*
X60257914Y-32778302D01*
X60272843Y-32735311D01*
X60272843Y-32735309D01*
X60274053Y-32731826D01*
X60288836Y-32629868D01*
X60303656Y-32527660D01*
X60303656Y-32527659D01*
X60304186Y-32524004D01*
X60296518Y-32358327D01*
X60294648Y-32317917D01*
X60294647Y-32317912D01*
X60294477Y-32314233D01*
X60245276Y-32110082D01*
X60158360Y-31918919D01*
X60036863Y-31747640D01*
X60034204Y-31745094D01*
X60034200Y-31745090D01*
X59887836Y-31604978D01*
X59887835Y-31604978D01*
X59885169Y-31602425D01*
X59882073Y-31600426D01*
X59882068Y-31600422D01*
X59711852Y-31490515D01*
X59711849Y-31490514D01*
X59708754Y-31488515D01*
X59513981Y-31410019D01*
X59307878Y-31369770D01*
X59305089Y-31369634D01*
X59305084Y-31369633D01*
X59304081Y-31369584D01*
X59302357Y-31369500D01*
X59147531Y-31369500D01*
X59145702Y-31369675D01*
X59145692Y-31369675D01*
X58994619Y-31384089D01*
X58994616Y-31384090D01*
X58990954Y-31384439D01*
X58789451Y-31443553D01*
X58786172Y-31445242D01*
X58606041Y-31538015D01*
X58606036Y-31538018D01*
X58602761Y-31539705D01*
X58525465Y-31600422D01*
X58440523Y-31667144D01*
X58440520Y-31667147D01*
X58437621Y-31669424D01*
X58299990Y-31828029D01*
X58194834Y-32009799D01*
X58125947Y-32208174D01*
X58125418Y-32211821D01*
X58125418Y-32211822D01*
X58107471Y-32335603D01*
X58095814Y-32415996D01*
X52265044Y-32415996D01*
X52241348Y-32400637D01*
X52209406Y-32358327D01*
X52206000Y-32335603D01*
X52206000Y-30748201D01*
X52206106Y-30744145D01*
X52207875Y-30710391D01*
X52207875Y-30710390D01*
X52208301Y-30702257D01*
X52199167Y-30678461D01*
X52195713Y-30666801D01*
X52192106Y-30649831D01*
X52190413Y-30641866D01*
X52185190Y-30634677D01*
X52175535Y-30616895D01*
X52175267Y-30616196D01*
X52175266Y-30616194D01*
X52172348Y-30608593D01*
X52154320Y-30590565D01*
X52146422Y-30581318D01*
X52136229Y-30567289D01*
X52131442Y-30560700D01*
X52123747Y-30556257D01*
X52107698Y-30543943D01*
X51439751Y-29875996D01*
X58095814Y-29875996D01*
X58095985Y-29879687D01*
X58104625Y-30066357D01*
X58105523Y-30085767D01*
X58154724Y-30289918D01*
X58241640Y-30481081D01*
X58363137Y-30652360D01*
X58365796Y-30654906D01*
X58365800Y-30654910D01*
X58447224Y-30732856D01*
X58514831Y-30797575D01*
X58517927Y-30799574D01*
X58517932Y-30799578D01*
X58688148Y-30909485D01*
X58688151Y-30909486D01*
X58691246Y-30911485D01*
X58886019Y-30989981D01*
X59092122Y-31030230D01*
X59094911Y-31030366D01*
X59094916Y-31030367D01*
X59095919Y-31030416D01*
X59097643Y-31030500D01*
X59252469Y-31030500D01*
X59254298Y-31030325D01*
X59254308Y-31030325D01*
X59405381Y-31015911D01*
X59405384Y-31015910D01*
X59409046Y-31015561D01*
X59610549Y-30956447D01*
X59654336Y-30933895D01*
X59793959Y-30861985D01*
X59793964Y-30861982D01*
X59797239Y-30860295D01*
X59880335Y-30795022D01*
X59959477Y-30732856D01*
X59959480Y-30732853D01*
X59962379Y-30730576D01*
X60045596Y-30634677D01*
X60097592Y-30574758D01*
X60097594Y-30574755D01*
X60100010Y-30571971D01*
X60205166Y-30390201D01*
X60274053Y-30191826D01*
X60288689Y-30090887D01*
X60303656Y-29987660D01*
X60303656Y-29987659D01*
X60304186Y-29984004D01*
X60294477Y-29774233D01*
X60245276Y-29570082D01*
X60158360Y-29378919D01*
X60036863Y-29207640D01*
X60034204Y-29205094D01*
X60034200Y-29205090D01*
X59887836Y-29064978D01*
X59887835Y-29064978D01*
X59885169Y-29062425D01*
X59882073Y-29060426D01*
X59882068Y-29060422D01*
X59711852Y-28950515D01*
X59711849Y-28950514D01*
X59708754Y-28948515D01*
X59513981Y-28870019D01*
X59307878Y-28829770D01*
X59305089Y-28829634D01*
X59305084Y-28829633D01*
X59304081Y-28829584D01*
X59302357Y-28829500D01*
X59147531Y-28829500D01*
X59145702Y-28829675D01*
X59145692Y-28829675D01*
X58994619Y-28844089D01*
X58994616Y-28844090D01*
X58990954Y-28844439D01*
X58789451Y-28903553D01*
X58786172Y-28905242D01*
X58606041Y-28998015D01*
X58606036Y-28998018D01*
X58602761Y-28999705D01*
X58573650Y-29022572D01*
X58440523Y-29127144D01*
X58440520Y-29127147D01*
X58437621Y-29129424D01*
X58435203Y-29132211D01*
X58332724Y-29250307D01*
X58299990Y-29288029D01*
X58194834Y-29469799D01*
X58193623Y-29473287D01*
X58140370Y-29626641D01*
X58125947Y-29668174D01*
X58095814Y-29875996D01*
X51439751Y-29875996D01*
X48899751Y-27335996D01*
X58095814Y-27335996D01*
X58095985Y-27339687D01*
X58104910Y-27532517D01*
X58105523Y-27545767D01*
X58154724Y-27749918D01*
X58241640Y-27941081D01*
X58363137Y-28112360D01*
X58365796Y-28114906D01*
X58365800Y-28114910D01*
X58447224Y-28192856D01*
X58514831Y-28257575D01*
X58517927Y-28259574D01*
X58517932Y-28259578D01*
X58688148Y-28369485D01*
X58688151Y-28369486D01*
X58691246Y-28371485D01*
X58886019Y-28449981D01*
X59092122Y-28490230D01*
X59094911Y-28490366D01*
X59094916Y-28490367D01*
X59095919Y-28490416D01*
X59097643Y-28490500D01*
X59252469Y-28490500D01*
X59254298Y-28490325D01*
X59254308Y-28490325D01*
X59405381Y-28475911D01*
X59405384Y-28475910D01*
X59409046Y-28475561D01*
X59610549Y-28416447D01*
X59654336Y-28393895D01*
X59793959Y-28321985D01*
X59793964Y-28321982D01*
X59797239Y-28320295D01*
X59880335Y-28255022D01*
X59959477Y-28192856D01*
X59959480Y-28192853D01*
X59962379Y-28190576D01*
X60100010Y-28031971D01*
X60205166Y-27850201D01*
X60242921Y-27741478D01*
X60272843Y-27655311D01*
X60272843Y-27655309D01*
X60274053Y-27651826D01*
X60278069Y-27624131D01*
X60303656Y-27447660D01*
X60303656Y-27447659D01*
X60304186Y-27444004D01*
X60298376Y-27318474D01*
X60294648Y-27237917D01*
X60294647Y-27237912D01*
X60294477Y-27234233D01*
X60245276Y-27030082D01*
X60158360Y-26838919D01*
X60149200Y-26826005D01*
X60078177Y-26725882D01*
X60036863Y-26667640D01*
X60034204Y-26665094D01*
X60034200Y-26665090D01*
X59887836Y-26524978D01*
X59887835Y-26524978D01*
X59885169Y-26522425D01*
X59882073Y-26520426D01*
X59882068Y-26520422D01*
X59711852Y-26410515D01*
X59711849Y-26410514D01*
X59708754Y-26408515D01*
X59513981Y-26330019D01*
X59307878Y-26289770D01*
X59305089Y-26289634D01*
X59305084Y-26289633D01*
X59304081Y-26289584D01*
X59302357Y-26289500D01*
X59147531Y-26289500D01*
X59145702Y-26289675D01*
X59145692Y-26289675D01*
X58994619Y-26304089D01*
X58994616Y-26304090D01*
X58990954Y-26304439D01*
X58789451Y-26363553D01*
X58786172Y-26365242D01*
X58606041Y-26458015D01*
X58606036Y-26458018D01*
X58602761Y-26459705D01*
X58525465Y-26520422D01*
X58440523Y-26587144D01*
X58440520Y-26587147D01*
X58437621Y-26589424D01*
X58417274Y-26612872D01*
X58326037Y-26718013D01*
X58299990Y-26748029D01*
X58298141Y-26751224D01*
X58298141Y-26751225D01*
X58257641Y-26821233D01*
X58194834Y-26929799D01*
X58161175Y-27026726D01*
X58150004Y-27058898D01*
X58125947Y-27128174D01*
X58125418Y-27131821D01*
X58125418Y-27131822D01*
X58098355Y-27318474D01*
X58095814Y-27335996D01*
X48899751Y-27335996D01*
X48772663Y-27208908D01*
X48769871Y-27205965D01*
X48747265Y-27180859D01*
X48747266Y-27180859D01*
X48741815Y-27174806D01*
X48718527Y-27164438D01*
X48707841Y-27158635D01*
X48693294Y-27149188D01*
X48686463Y-27144752D01*
X48677679Y-27143361D01*
X48658285Y-27137615D01*
X48657607Y-27137313D01*
X48657604Y-27137312D01*
X48650162Y-27133999D01*
X48624668Y-27133999D01*
X48612545Y-27133045D01*
X48595417Y-27130332D01*
X48595416Y-27130332D01*
X48587371Y-27129058D01*
X48579500Y-27131167D01*
X48578786Y-27131358D01*
X48558728Y-27133999D01*
X48188562Y-27133999D01*
X48138746Y-27115867D01*
X48111845Y-27067486D01*
X48094410Y-26945740D01*
X48094410Y-26945739D01*
X48093627Y-26940274D01*
X48039386Y-26820977D01*
X48035304Y-26816239D01*
X47979283Y-26751225D01*
X47953842Y-26721699D01*
X47843873Y-26650421D01*
X47718318Y-26612872D01*
X47712799Y-26612838D01*
X47712797Y-26612838D01*
X47651315Y-26612462D01*
X47587272Y-26612071D01*
X47581962Y-26613589D01*
X47581959Y-26613589D01*
X47466579Y-26646565D01*
X47461268Y-26648083D01*
X47350436Y-26718013D01*
X47263686Y-26816239D01*
X47261342Y-26821231D01*
X47261341Y-26821233D01*
X47251459Y-26842281D01*
X47207991Y-26934864D01*
X47207142Y-26940317D01*
X47207141Y-26940320D01*
X47193165Y-27030082D01*
X47187829Y-27064353D01*
X37991459Y-27064353D01*
X37991459Y-24866150D01*
X37994100Y-24846092D01*
X37994356Y-24845135D01*
X37996997Y-24835279D01*
X37994973Y-24827724D01*
X37994543Y-24821712D01*
X37994548Y-24821698D01*
X37994515Y-24820761D01*
X37994445Y-24820348D01*
X37994371Y-24819303D01*
X37979318Y-24608844D01*
X37977456Y-24600282D01*
X37952690Y-24486436D01*
X37931063Y-24387018D01*
X37851730Y-24174318D01*
X37822362Y-24120533D01*
X37744261Y-23977502D01*
X37744260Y-23977501D01*
X37742934Y-23975072D01*
X37676154Y-23885865D01*
X52887724Y-23885865D01*
X52904257Y-24082753D01*
X52958718Y-24272680D01*
X52980499Y-24315061D01*
X53047298Y-24445041D01*
X53047301Y-24445045D01*
X53049031Y-24448412D01*
X53171758Y-24603255D01*
X53174645Y-24605712D01*
X53174647Y-24605714D01*
X53273221Y-24689606D01*
X53322224Y-24731311D01*
X53494697Y-24827703D01*
X53498300Y-24828874D01*
X53498303Y-24828875D01*
X53518013Y-24835279D01*
X53682607Y-24888759D01*
X53686363Y-24889207D01*
X53686368Y-24889208D01*
X53779503Y-24900313D01*
X53878798Y-24912153D01*
X53977298Y-24904574D01*
X54072021Y-24897286D01*
X54072026Y-24897285D01*
X54075797Y-24896995D01*
X54109489Y-24887588D01*
X54262444Y-24844882D01*
X54262446Y-24844881D01*
X54266100Y-24843861D01*
X54345573Y-24803716D01*
X54360856Y-24795996D01*
X58095814Y-24795996D01*
X58097336Y-24828875D01*
X58100489Y-24896995D01*
X58105523Y-25005767D01*
X58154724Y-25209918D01*
X58241640Y-25401081D01*
X58363137Y-25572360D01*
X58365796Y-25574906D01*
X58365800Y-25574910D01*
X58447224Y-25652856D01*
X58514831Y-25717575D01*
X58517927Y-25719574D01*
X58517932Y-25719578D01*
X58688148Y-25829485D01*
X58688151Y-25829486D01*
X58691246Y-25831485D01*
X58886019Y-25909981D01*
X59092122Y-25950230D01*
X59094911Y-25950366D01*
X59094916Y-25950367D01*
X59095919Y-25950416D01*
X59097643Y-25950500D01*
X59252469Y-25950500D01*
X59254298Y-25950325D01*
X59254308Y-25950325D01*
X59405381Y-25935911D01*
X59405384Y-25935910D01*
X59409046Y-25935561D01*
X59610549Y-25876447D01*
X59654336Y-25853895D01*
X59793959Y-25781985D01*
X59793964Y-25781982D01*
X59797239Y-25780295D01*
X59880335Y-25715022D01*
X59959477Y-25652856D01*
X59959480Y-25652853D01*
X59962379Y-25650576D01*
X60100010Y-25491971D01*
X60205166Y-25310201D01*
X60274053Y-25111826D01*
X60274582Y-25108178D01*
X60303656Y-24907660D01*
X60303656Y-24907659D01*
X60304186Y-24904004D01*
X60300709Y-24828875D01*
X60294648Y-24697917D01*
X60294647Y-24697912D01*
X60294477Y-24694233D01*
X60245276Y-24490082D01*
X60158360Y-24298919D01*
X60036863Y-24127640D01*
X60034204Y-24125094D01*
X60034200Y-24125090D01*
X59887836Y-23984978D01*
X59887835Y-23984978D01*
X59885169Y-23982425D01*
X59882073Y-23980426D01*
X59882068Y-23980422D01*
X59711852Y-23870515D01*
X59711849Y-23870514D01*
X59708754Y-23868515D01*
X59513981Y-23790019D01*
X59307878Y-23749770D01*
X59305089Y-23749634D01*
X59305084Y-23749633D01*
X59304081Y-23749584D01*
X59302357Y-23749500D01*
X59147531Y-23749500D01*
X59145702Y-23749675D01*
X59145692Y-23749675D01*
X58994619Y-23764089D01*
X58994616Y-23764090D01*
X58990954Y-23764439D01*
X58789451Y-23823553D01*
X58786172Y-23825242D01*
X58606041Y-23918015D01*
X58606036Y-23918018D01*
X58602761Y-23919705D01*
X58583151Y-23935109D01*
X58440523Y-24047144D01*
X58440520Y-24047147D01*
X58437621Y-24049424D01*
X58372655Y-24124290D01*
X58331353Y-24171887D01*
X58299990Y-24208029D01*
X58298141Y-24211224D01*
X58298141Y-24211225D01*
X58239975Y-24311770D01*
X58194834Y-24389799D01*
X58125947Y-24588174D01*
X58095814Y-24795996D01*
X54360856Y-24795996D01*
X54439073Y-24756486D01*
X54439074Y-24756485D01*
X54442458Y-24754776D01*
X54598154Y-24633133D01*
X54721633Y-24490082D01*
X54724780Y-24486436D01*
X54724781Y-24486434D01*
X54727257Y-24483566D01*
X54824851Y-24311770D01*
X54830127Y-24295909D01*
X54886022Y-24127883D01*
X54886022Y-24127881D01*
X54887217Y-24124290D01*
X54892005Y-24086393D01*
X54906347Y-23972856D01*
X54911980Y-23928267D01*
X54912375Y-23900000D01*
X54893094Y-23703362D01*
X54835987Y-23514214D01*
X54743229Y-23339760D01*
X54618352Y-23186646D01*
X54615434Y-23184232D01*
X54615430Y-23184228D01*
X54469037Y-23063122D01*
X54466113Y-23060703D01*
X54292311Y-22966729D01*
X54280584Y-22963099D01*
X54107185Y-22909423D01*
X54107182Y-22909422D01*
X54103566Y-22908303D01*
X54054987Y-22903197D01*
X53910840Y-22888046D01*
X53910835Y-22888046D01*
X53907068Y-22887650D01*
X53710300Y-22905557D01*
X53520758Y-22961342D01*
X53345661Y-23052881D01*
X53342710Y-23055254D01*
X53342708Y-23055255D01*
X53298805Y-23090554D01*
X53191678Y-23176686D01*
X53189243Y-23179588D01*
X53189242Y-23179589D01*
X53120952Y-23260975D01*
X53064676Y-23328042D01*
X53062853Y-23331358D01*
X53062851Y-23331361D01*
X53056199Y-23343461D01*
X52969490Y-23501183D01*
X52909748Y-23689515D01*
X52887724Y-23885865D01*
X37676154Y-23885865D01*
X37630772Y-23825242D01*
X37608547Y-23795553D01*
X37608543Y-23795548D01*
X37606889Y-23793339D01*
X37446366Y-23632816D01*
X37444157Y-23631162D01*
X37444152Y-23631158D01*
X37266849Y-23498430D01*
X37264633Y-23496771D01*
X37262203Y-23495444D01*
X37067818Y-23389302D01*
X37067813Y-23389300D01*
X37065387Y-23387975D01*
X36913599Y-23331361D01*
X36855280Y-23309609D01*
X36855278Y-23309608D01*
X36852687Y-23308642D01*
X36705492Y-23276622D01*
X36633565Y-23260975D01*
X36633562Y-23260975D01*
X36630861Y-23260387D01*
X36419353Y-23245259D01*
X36419318Y-23245253D01*
X36419287Y-23245255D01*
X36411981Y-23244732D01*
X36404426Y-23242708D01*
X36394570Y-23245349D01*
X36393613Y-23245605D01*
X36373555Y-23248246D01*
X33350871Y-23248246D01*
X33330813Y-23245605D01*
X33329858Y-23245349D01*
X33329856Y-23245349D01*
X33320000Y-23242708D01*
X33310145Y-23245349D01*
X33299940Y-23245349D01*
X33299940Y-23244285D01*
X33290879Y-23244965D01*
X33254230Y-23240836D01*
X33187819Y-23233352D01*
X33170904Y-23229492D01*
X33107892Y-23207443D01*
X33053592Y-23188442D01*
X33037957Y-23180912D01*
X32932728Y-23114793D01*
X32919159Y-23103973D01*
X32831273Y-23016087D01*
X32820453Y-23002518D01*
X32754334Y-22897289D01*
X32746804Y-22881654D01*
X32705755Y-22764345D01*
X32701893Y-22747425D01*
X32690281Y-22644367D01*
X32690961Y-22635306D01*
X32689897Y-22635306D01*
X32689897Y-22625101D01*
X32692538Y-22615246D01*
X32689641Y-22604433D01*
X32687000Y-22584375D01*
X32687000Y-20440871D01*
X32689641Y-20420813D01*
X32689897Y-20419857D01*
X32689897Y-20419856D01*
X32692538Y-20410000D01*
X32689898Y-20400145D01*
X32689898Y-20393069D01*
X32690561Y-20382956D01*
X32701104Y-20302871D01*
X32706339Y-20283333D01*
X32743786Y-20192925D01*
X32753902Y-20175405D01*
X32813471Y-20097775D01*
X32827775Y-20083471D01*
X32905405Y-20023902D01*
X32922925Y-20013786D01*
X33013333Y-19976339D01*
X33032869Y-19971104D01*
X33080156Y-19964879D01*
X33112956Y-19960561D01*
X33123069Y-19959898D01*
X33130145Y-19959898D01*
X33140000Y-19962538D01*
X33149856Y-19959897D01*
X33149857Y-19959897D01*
X33150813Y-19959641D01*
X33170871Y-19957000D01*
X33637240Y-19957000D01*
X33687056Y-19975132D01*
G37*
G04 #@! TD.AperFunction*
M02*
