G04 #@! TF.GenerationSoftware,KiCad,Pcbnew,5.1.4+dfsg1-1*
G04 #@! TF.CreationDate,2019-11-18T14:51:44+01:00*
G04 #@! TF.ProjectId,OtterPill-CAN,4f747465-7250-4696-9c6c-2d43414e2e6b,rev?*
G04 #@! TF.SameCoordinates,Original*
G04 #@! TF.FileFunction,Copper,L2,Bot*
G04 #@! TF.FilePolarity,Positive*
%FSLAX46Y46*%
G04 Gerber Fmt 4.6, Leading zero omitted, Abs format (unit mm)*
G04 Created by KiCad (PCBNEW 5.1.4+dfsg1-1) date 2019-11-18 14:51:44*
%MOMM*%
%LPD*%
G04 APERTURE LIST*
%ADD10C,0.050000*%
%ADD11C,1.700000*%
%ADD12O,1.700000X1.700000*%
%ADD13C,0.600000*%
%ADD14C,0.157000*%
G04 APERTURE END LIST*
D10*
X63200000Y-37100000D02*
G75*
G02X62900000Y-37400000I-300000J0D01*
G01*
X62900000Y-19800000D02*
G75*
G02X63200000Y-20100000I0J-300000D01*
G01*
X32530000Y-20410000D02*
G75*
G02X33140000Y-19800000I610000J0D01*
G01*
X33320000Y-23405246D02*
X36404426Y-23405246D01*
X32530000Y-22615246D02*
G75*
G03X33320000Y-23405246I790000J0D01*
G01*
X37834459Y-24835279D02*
G75*
G03X36404426Y-23405246I-1430033J0D01*
G01*
X37834459Y-27430000D02*
X37834459Y-24835279D01*
X50115574Y-35969966D02*
G75*
G03X51545608Y-37400000I1430034J0D01*
G01*
X37834459Y-27430000D02*
G75*
G03X39264493Y-28860034I1430034J0D01*
G01*
X48685540Y-28860000D02*
X39264493Y-28860034D01*
X50115574Y-30290034D02*
G75*
G03X48685540Y-28860000I-1430034J0D01*
G01*
X50115574Y-35969966D02*
X50115574Y-30290034D01*
X32530000Y-20410000D02*
X32530000Y-22615246D01*
X62900000Y-19800000D02*
X33140000Y-19800000D01*
X63200000Y-20100000D02*
X63200000Y-37100000D01*
X51545608Y-37400000D02*
X62900000Y-37400000D01*
D11*
X53900000Y-23900000D03*
X59260000Y-36100000D03*
D12*
X56720000Y-36100000D03*
X54180000Y-36100000D03*
X51640000Y-36100000D03*
D11*
X33860000Y-21100000D03*
D12*
X36400000Y-21100000D03*
X38940000Y-21100000D03*
X41480000Y-21100000D03*
X44020000Y-21100000D03*
X46560000Y-21100000D03*
X49100000Y-21100000D03*
X51640000Y-21100000D03*
X54180000Y-21100000D03*
X56720000Y-21100000D03*
X59260000Y-21100000D03*
D13*
X57610000Y-27350000D03*
X57620000Y-29850000D03*
X56590000Y-27350000D03*
X56560000Y-29870000D03*
X58280000Y-28610000D03*
X45910000Y-25330000D03*
X46020000Y-27880000D03*
X42350000Y-23850000D03*
X46920000Y-23920000D03*
X56230000Y-24620000D03*
X53720000Y-27330000D03*
X53710000Y-29840000D03*
X40110000Y-23460000D03*
X38050000Y-23590000D03*
X39920000Y-28090000D03*
X54310000Y-33110000D03*
X57660000Y-33420000D03*
X51970000Y-32770000D03*
X47650000Y-27070000D03*
D14*
X47949999Y-27369999D02*
X48599999Y-27369999D01*
X47650000Y-27070000D02*
X47949999Y-27369999D01*
X51970000Y-30740000D02*
X51970000Y-32770000D01*
X48599999Y-27369999D02*
X51970000Y-30740000D01*
G36*
X35982587Y-20092277D02*
G01*
X35794011Y-20193073D01*
X35628722Y-20328722D01*
X35493073Y-20494011D01*
X35392277Y-20682587D01*
X35330206Y-20887205D01*
X35309248Y-21100000D01*
X35330206Y-21312795D01*
X35392277Y-21517413D01*
X35493073Y-21705989D01*
X35628722Y-21871278D01*
X35794011Y-22006927D01*
X35982587Y-22107723D01*
X36187205Y-22169794D01*
X36346674Y-22185500D01*
X36453326Y-22185500D01*
X36612795Y-22169794D01*
X36817413Y-22107723D01*
X37005989Y-22006927D01*
X37171278Y-21871278D01*
X37306927Y-21705989D01*
X37407723Y-21517413D01*
X37469794Y-21312795D01*
X37490752Y-21100000D01*
X37469794Y-20887205D01*
X37407723Y-20682587D01*
X37306927Y-20494011D01*
X37171278Y-20328722D01*
X37005989Y-20193073D01*
X36817413Y-20092277D01*
X36712660Y-20060500D01*
X38627340Y-20060500D01*
X38522587Y-20092277D01*
X38334011Y-20193073D01*
X38168722Y-20328722D01*
X38033073Y-20494011D01*
X37932277Y-20682587D01*
X37870206Y-20887205D01*
X37849248Y-21100000D01*
X37870206Y-21312795D01*
X37932277Y-21517413D01*
X38033073Y-21705989D01*
X38168722Y-21871278D01*
X38334011Y-22006927D01*
X38522587Y-22107723D01*
X38727205Y-22169794D01*
X38886674Y-22185500D01*
X38993326Y-22185500D01*
X39152795Y-22169794D01*
X39357413Y-22107723D01*
X39545989Y-22006927D01*
X39711278Y-21871278D01*
X39846927Y-21705989D01*
X39947723Y-21517413D01*
X40009794Y-21312795D01*
X40030752Y-21100000D01*
X40009794Y-20887205D01*
X39947723Y-20682587D01*
X39846927Y-20494011D01*
X39711278Y-20328722D01*
X39545989Y-20193073D01*
X39357413Y-20092277D01*
X39252660Y-20060500D01*
X41167340Y-20060500D01*
X41062587Y-20092277D01*
X40874011Y-20193073D01*
X40708722Y-20328722D01*
X40573073Y-20494011D01*
X40472277Y-20682587D01*
X40410206Y-20887205D01*
X40389248Y-21100000D01*
X40410206Y-21312795D01*
X40472277Y-21517413D01*
X40573073Y-21705989D01*
X40708722Y-21871278D01*
X40874011Y-22006927D01*
X41062587Y-22107723D01*
X41267205Y-22169794D01*
X41426674Y-22185500D01*
X41533326Y-22185500D01*
X41692795Y-22169794D01*
X41897413Y-22107723D01*
X42085989Y-22006927D01*
X42251278Y-21871278D01*
X42386927Y-21705989D01*
X42487723Y-21517413D01*
X42549794Y-21312795D01*
X42570752Y-21100000D01*
X42549794Y-20887205D01*
X42487723Y-20682587D01*
X42386927Y-20494011D01*
X42251278Y-20328722D01*
X42085989Y-20193073D01*
X41897413Y-20092277D01*
X41792660Y-20060500D01*
X43707340Y-20060500D01*
X43602587Y-20092277D01*
X43414011Y-20193073D01*
X43248722Y-20328722D01*
X43113073Y-20494011D01*
X43012277Y-20682587D01*
X42950206Y-20887205D01*
X42929248Y-21100000D01*
X42950206Y-21312795D01*
X43012277Y-21517413D01*
X43113073Y-21705989D01*
X43248722Y-21871278D01*
X43414011Y-22006927D01*
X43602587Y-22107723D01*
X43807205Y-22169794D01*
X43966674Y-22185500D01*
X44073326Y-22185500D01*
X44232795Y-22169794D01*
X44437413Y-22107723D01*
X44625989Y-22006927D01*
X44791278Y-21871278D01*
X44926927Y-21705989D01*
X45027723Y-21517413D01*
X45089794Y-21312795D01*
X45110752Y-21100000D01*
X45089794Y-20887205D01*
X45027723Y-20682587D01*
X44926927Y-20494011D01*
X44791278Y-20328722D01*
X44625989Y-20193073D01*
X44437413Y-20092277D01*
X44332660Y-20060500D01*
X46247340Y-20060500D01*
X46142587Y-20092277D01*
X45954011Y-20193073D01*
X45788722Y-20328722D01*
X45653073Y-20494011D01*
X45552277Y-20682587D01*
X45490206Y-20887205D01*
X45469248Y-21100000D01*
X45490206Y-21312795D01*
X45552277Y-21517413D01*
X45653073Y-21705989D01*
X45788722Y-21871278D01*
X45954011Y-22006927D01*
X46142587Y-22107723D01*
X46347205Y-22169794D01*
X46506674Y-22185500D01*
X46613326Y-22185500D01*
X46772795Y-22169794D01*
X46977413Y-22107723D01*
X47165989Y-22006927D01*
X47331278Y-21871278D01*
X47466927Y-21705989D01*
X47567723Y-21517413D01*
X47629794Y-21312795D01*
X47650752Y-21100000D01*
X47629794Y-20887205D01*
X47567723Y-20682587D01*
X47466927Y-20494011D01*
X47331278Y-20328722D01*
X47165989Y-20193073D01*
X46977413Y-20092277D01*
X46872660Y-20060500D01*
X48787340Y-20060500D01*
X48682587Y-20092277D01*
X48494011Y-20193073D01*
X48328722Y-20328722D01*
X48193073Y-20494011D01*
X48092277Y-20682587D01*
X48030206Y-20887205D01*
X48009248Y-21100000D01*
X48030206Y-21312795D01*
X48092277Y-21517413D01*
X48193073Y-21705989D01*
X48328722Y-21871278D01*
X48494011Y-22006927D01*
X48682587Y-22107723D01*
X48887205Y-22169794D01*
X49046674Y-22185500D01*
X49153326Y-22185500D01*
X49312795Y-22169794D01*
X49517413Y-22107723D01*
X49705989Y-22006927D01*
X49871278Y-21871278D01*
X50006927Y-21705989D01*
X50107723Y-21517413D01*
X50169794Y-21312795D01*
X50190752Y-21100000D01*
X50169794Y-20887205D01*
X50107723Y-20682587D01*
X50006927Y-20494011D01*
X49871278Y-20328722D01*
X49705989Y-20193073D01*
X49517413Y-20092277D01*
X49412660Y-20060500D01*
X51327340Y-20060500D01*
X51222587Y-20092277D01*
X51034011Y-20193073D01*
X50868722Y-20328722D01*
X50733073Y-20494011D01*
X50632277Y-20682587D01*
X50570206Y-20887205D01*
X50549248Y-21100000D01*
X50570206Y-21312795D01*
X50632277Y-21517413D01*
X50733073Y-21705989D01*
X50868722Y-21871278D01*
X51034011Y-22006927D01*
X51222587Y-22107723D01*
X51427205Y-22169794D01*
X51586674Y-22185500D01*
X51693326Y-22185500D01*
X51852795Y-22169794D01*
X52057413Y-22107723D01*
X52245989Y-22006927D01*
X52411278Y-21871278D01*
X52546927Y-21705989D01*
X52647723Y-21517413D01*
X52709794Y-21312795D01*
X52730752Y-21100000D01*
X52709794Y-20887205D01*
X52647723Y-20682587D01*
X52546927Y-20494011D01*
X52411278Y-20328722D01*
X52245989Y-20193073D01*
X52057413Y-20092277D01*
X51952660Y-20060500D01*
X53867340Y-20060500D01*
X53762587Y-20092277D01*
X53574011Y-20193073D01*
X53408722Y-20328722D01*
X53273073Y-20494011D01*
X53172277Y-20682587D01*
X53110206Y-20887205D01*
X53089248Y-21100000D01*
X53110206Y-21312795D01*
X53172277Y-21517413D01*
X53273073Y-21705989D01*
X53408722Y-21871278D01*
X53574011Y-22006927D01*
X53762587Y-22107723D01*
X53967205Y-22169794D01*
X54126674Y-22185500D01*
X54233326Y-22185500D01*
X54392795Y-22169794D01*
X54597413Y-22107723D01*
X54785989Y-22006927D01*
X54951278Y-21871278D01*
X55086927Y-21705989D01*
X55187723Y-21517413D01*
X55208861Y-21447729D01*
X55646400Y-21447729D01*
X55734867Y-21650496D01*
X55861192Y-21832108D01*
X56020521Y-21985586D01*
X56206731Y-22105031D01*
X56372272Y-22173591D01*
X56544500Y-22144230D01*
X56544500Y-21275500D01*
X56895500Y-21275500D01*
X56895500Y-22144230D01*
X57067728Y-22173591D01*
X57233269Y-22105031D01*
X57419479Y-21985586D01*
X57578808Y-21832108D01*
X57705133Y-21650496D01*
X57793600Y-21447729D01*
X57765154Y-21275500D01*
X56895500Y-21275500D01*
X56544500Y-21275500D01*
X55674846Y-21275500D01*
X55646400Y-21447729D01*
X55208861Y-21447729D01*
X55249794Y-21312795D01*
X55270752Y-21100000D01*
X55249794Y-20887205D01*
X55187723Y-20682587D01*
X55086927Y-20494011D01*
X54951278Y-20328722D01*
X54785989Y-20193073D01*
X54597413Y-20092277D01*
X54492660Y-20060500D01*
X56289958Y-20060500D01*
X56206731Y-20094969D01*
X56020521Y-20214414D01*
X55861192Y-20367892D01*
X55734867Y-20549504D01*
X55646400Y-20752271D01*
X55674846Y-20924500D01*
X56544500Y-20924500D01*
X56544500Y-20904500D01*
X56895500Y-20904500D01*
X56895500Y-20924500D01*
X57765154Y-20924500D01*
X57793600Y-20752271D01*
X57705133Y-20549504D01*
X57578808Y-20367892D01*
X57419479Y-20214414D01*
X57233269Y-20094969D01*
X57150042Y-20060500D01*
X58947340Y-20060500D01*
X58842587Y-20092277D01*
X58654011Y-20193073D01*
X58488722Y-20328722D01*
X58353073Y-20494011D01*
X58252277Y-20682587D01*
X58190206Y-20887205D01*
X58169248Y-21100000D01*
X58190206Y-21312795D01*
X58252277Y-21517413D01*
X58353073Y-21705989D01*
X58488722Y-21871278D01*
X58654011Y-22006927D01*
X58842587Y-22107723D01*
X59047205Y-22169794D01*
X59206674Y-22185500D01*
X59313326Y-22185500D01*
X59472795Y-22169794D01*
X59677413Y-22107723D01*
X59865989Y-22006927D01*
X60031278Y-21871278D01*
X60166927Y-21705989D01*
X60267723Y-21517413D01*
X60329794Y-21312795D01*
X60350752Y-21100000D01*
X60329794Y-20887205D01*
X60267723Y-20682587D01*
X60166927Y-20494011D01*
X60031278Y-20328722D01*
X59865989Y-20193073D01*
X59677413Y-20092277D01*
X59572660Y-20060500D01*
X62887260Y-20060500D01*
X62907432Y-20062478D01*
X62914573Y-20064634D01*
X62921165Y-20068139D01*
X62926955Y-20072861D01*
X62931710Y-20078608D01*
X62935262Y-20085179D01*
X62937470Y-20092311D01*
X62939500Y-20111624D01*
X62939501Y-37087250D01*
X62937522Y-37107432D01*
X62935366Y-37114575D01*
X62931862Y-37121163D01*
X62927140Y-37126954D01*
X62921389Y-37131711D01*
X62914821Y-37135263D01*
X62907690Y-37137470D01*
X62888376Y-37139500D01*
X59586974Y-37139500D01*
X59774177Y-37061957D01*
X59951966Y-36943163D01*
X60103163Y-36791966D01*
X60221957Y-36614177D01*
X60303785Y-36416629D01*
X60345500Y-36206912D01*
X60345500Y-35993088D01*
X60303785Y-35783371D01*
X60221957Y-35585823D01*
X60103163Y-35408034D01*
X59951966Y-35256837D01*
X59774177Y-35138043D01*
X59576629Y-35056215D01*
X59366912Y-35014500D01*
X59153088Y-35014500D01*
X58943371Y-35056215D01*
X58745823Y-35138043D01*
X58568034Y-35256837D01*
X58416837Y-35408034D01*
X58298043Y-35585823D01*
X58216215Y-35783371D01*
X58174500Y-35993088D01*
X58174500Y-36206912D01*
X58216215Y-36416629D01*
X58298043Y-36614177D01*
X58416837Y-36791966D01*
X58568034Y-36943163D01*
X58745823Y-37061957D01*
X58933026Y-37139500D01*
X57032660Y-37139500D01*
X57137413Y-37107723D01*
X57325989Y-37006927D01*
X57491278Y-36871278D01*
X57626927Y-36705989D01*
X57727723Y-36517413D01*
X57789794Y-36312795D01*
X57810752Y-36100000D01*
X57789794Y-35887205D01*
X57727723Y-35682587D01*
X57626927Y-35494011D01*
X57491278Y-35328722D01*
X57325989Y-35193073D01*
X57137413Y-35092277D01*
X56932795Y-35030206D01*
X56773326Y-35014500D01*
X56666674Y-35014500D01*
X56507205Y-35030206D01*
X56302587Y-35092277D01*
X56114011Y-35193073D01*
X55948722Y-35328722D01*
X55813073Y-35494011D01*
X55712277Y-35682587D01*
X55650206Y-35887205D01*
X55629248Y-36100000D01*
X55650206Y-36312795D01*
X55712277Y-36517413D01*
X55813073Y-36705989D01*
X55948722Y-36871278D01*
X56114011Y-37006927D01*
X56302587Y-37107723D01*
X56407340Y-37139500D01*
X54492660Y-37139500D01*
X54597413Y-37107723D01*
X54785989Y-37006927D01*
X54951278Y-36871278D01*
X55086927Y-36705989D01*
X55187723Y-36517413D01*
X55249794Y-36312795D01*
X55270752Y-36100000D01*
X55249794Y-35887205D01*
X55187723Y-35682587D01*
X55086927Y-35494011D01*
X54951278Y-35328722D01*
X54785989Y-35193073D01*
X54597413Y-35092277D01*
X54392795Y-35030206D01*
X54233326Y-35014500D01*
X54126674Y-35014500D01*
X53967205Y-35030206D01*
X53762587Y-35092277D01*
X53574011Y-35193073D01*
X53408722Y-35328722D01*
X53273073Y-35494011D01*
X53172277Y-35682587D01*
X53110206Y-35887205D01*
X53089248Y-36100000D01*
X53110206Y-36312795D01*
X53172277Y-36517413D01*
X53273073Y-36705989D01*
X53408722Y-36871278D01*
X53574011Y-37006927D01*
X53762587Y-37107723D01*
X53867340Y-37139500D01*
X52070042Y-37139500D01*
X52153269Y-37105031D01*
X52339479Y-36985586D01*
X52498808Y-36832108D01*
X52625133Y-36650496D01*
X52713600Y-36447729D01*
X52685154Y-36275500D01*
X51815500Y-36275500D01*
X51815500Y-36295500D01*
X51464500Y-36295500D01*
X51464500Y-36275500D01*
X50594846Y-36275500D01*
X50566400Y-36447729D01*
X50654867Y-36650496D01*
X50781192Y-36832108D01*
X50881349Y-36928587D01*
X50722392Y-36798944D01*
X50577054Y-36623260D01*
X50468610Y-36422696D01*
X50401185Y-36204882D01*
X50376074Y-35965964D01*
X50376074Y-35752271D01*
X50566400Y-35752271D01*
X50594846Y-35924500D01*
X51464500Y-35924500D01*
X51464500Y-35055770D01*
X51815500Y-35055770D01*
X51815500Y-35924500D01*
X52685154Y-35924500D01*
X52713600Y-35752271D01*
X52625133Y-35549504D01*
X52498808Y-35367892D01*
X52339479Y-35214414D01*
X52153269Y-35094969D01*
X51987728Y-35026409D01*
X51815500Y-35055770D01*
X51464500Y-35055770D01*
X51292272Y-35026409D01*
X51126731Y-35094969D01*
X50940521Y-35214414D01*
X50781192Y-35367892D01*
X50654867Y-35549504D01*
X50566400Y-35752271D01*
X50376074Y-35752271D01*
X50376074Y-30277242D01*
X50374904Y-30265368D01*
X50374967Y-30256441D01*
X50374612Y-30252822D01*
X50345439Y-29975257D01*
X50340692Y-29952131D01*
X50336268Y-29928936D01*
X50335216Y-29925454D01*
X50252686Y-29658842D01*
X50243529Y-29637058D01*
X50234692Y-29615185D01*
X50232989Y-29611983D01*
X50232985Y-29611974D01*
X50232980Y-29611967D01*
X50100240Y-29366469D01*
X50087028Y-29346881D01*
X50074109Y-29327138D01*
X50071816Y-29324327D01*
X50071811Y-29324320D01*
X50071805Y-29324314D01*
X49893910Y-29109275D01*
X49877172Y-29092653D01*
X49860638Y-29075769D01*
X49857835Y-29073451D01*
X49641553Y-28897055D01*
X49621874Y-28883980D01*
X49602405Y-28870649D01*
X49599211Y-28868923D01*
X49599207Y-28868920D01*
X49599203Y-28868918D01*
X49352781Y-28737894D01*
X49330941Y-28728892D01*
X49309251Y-28719595D01*
X49305777Y-28718520D01*
X49038595Y-28637853D01*
X49015428Y-28633266D01*
X48992340Y-28628358D01*
X48988723Y-28627978D01*
X48710961Y-28600743D01*
X48710951Y-28600743D01*
X48698331Y-28599500D01*
X39277246Y-28599535D01*
X39037572Y-28576034D01*
X38819292Y-28510132D01*
X38617975Y-28403090D01*
X38441277Y-28258978D01*
X38295939Y-28083294D01*
X38187495Y-27882730D01*
X38120070Y-27664916D01*
X38094959Y-27425998D01*
X38094959Y-27017258D01*
X47114500Y-27017258D01*
X47114500Y-27122742D01*
X47135079Y-27226200D01*
X47175446Y-27323654D01*
X47234050Y-27411361D01*
X47308639Y-27485950D01*
X47396346Y-27544554D01*
X47493800Y-27584921D01*
X47597258Y-27605500D01*
X47702742Y-27605500D01*
X47734338Y-27599215D01*
X47774706Y-27632343D01*
X47829255Y-27661501D01*
X47888444Y-27679455D01*
X47949999Y-27685518D01*
X47965420Y-27683999D01*
X48469937Y-27683999D01*
X51656000Y-30870063D01*
X51656001Y-32335767D01*
X51628639Y-32354050D01*
X51554050Y-32428639D01*
X51495446Y-32516346D01*
X51455079Y-32613800D01*
X51434500Y-32717258D01*
X51434500Y-32822742D01*
X51455079Y-32926200D01*
X51495446Y-33023654D01*
X51554050Y-33111361D01*
X51628639Y-33185950D01*
X51716346Y-33244554D01*
X51813800Y-33284921D01*
X51917258Y-33305500D01*
X52022742Y-33305500D01*
X52126200Y-33284921D01*
X52223654Y-33244554D01*
X52311361Y-33185950D01*
X52385950Y-33111361D01*
X52444554Y-33023654D01*
X52484921Y-32926200D01*
X52505500Y-32822742D01*
X52505500Y-32717258D01*
X52484921Y-32613800D01*
X52444554Y-32516346D01*
X52413587Y-32470000D01*
X58109248Y-32470000D01*
X58130206Y-32682795D01*
X58192277Y-32887413D01*
X58293073Y-33075989D01*
X58428722Y-33241278D01*
X58594011Y-33376927D01*
X58782587Y-33477723D01*
X58987205Y-33539794D01*
X59146674Y-33555500D01*
X59253326Y-33555500D01*
X59412795Y-33539794D01*
X59617413Y-33477723D01*
X59805989Y-33376927D01*
X59971278Y-33241278D01*
X60106927Y-33075989D01*
X60207723Y-32887413D01*
X60269794Y-32682795D01*
X60290752Y-32470000D01*
X60269794Y-32257205D01*
X60207723Y-32052587D01*
X60106927Y-31864011D01*
X59971278Y-31698722D01*
X59805989Y-31563073D01*
X59617413Y-31462277D01*
X59412795Y-31400206D01*
X59253326Y-31384500D01*
X59146674Y-31384500D01*
X58987205Y-31400206D01*
X58782587Y-31462277D01*
X58594011Y-31563073D01*
X58428722Y-31698722D01*
X58293073Y-31864011D01*
X58192277Y-32052587D01*
X58130206Y-32257205D01*
X58109248Y-32470000D01*
X52413587Y-32470000D01*
X52385950Y-32428639D01*
X52311361Y-32354050D01*
X52284000Y-32335768D01*
X52284000Y-30755421D01*
X52285519Y-30739999D01*
X52279456Y-30678445D01*
X52261502Y-30619256D01*
X52232344Y-30564707D01*
X52193106Y-30516894D01*
X52181125Y-30507062D01*
X51497151Y-29823088D01*
X58114500Y-29823088D01*
X58114500Y-30036912D01*
X58156215Y-30246629D01*
X58238043Y-30444177D01*
X58356837Y-30621966D01*
X58508034Y-30773163D01*
X58685823Y-30891957D01*
X58883371Y-30973785D01*
X59093088Y-31015500D01*
X59306912Y-31015500D01*
X59516629Y-30973785D01*
X59714177Y-30891957D01*
X59891966Y-30773163D01*
X60043163Y-30621966D01*
X60161957Y-30444177D01*
X60243785Y-30246629D01*
X60285500Y-30036912D01*
X60285500Y-29823088D01*
X60243785Y-29613371D01*
X60161957Y-29415823D01*
X60043163Y-29238034D01*
X59891966Y-29086837D01*
X59714177Y-28968043D01*
X59516629Y-28886215D01*
X59306912Y-28844500D01*
X59093088Y-28844500D01*
X58883371Y-28886215D01*
X58685823Y-28968043D01*
X58508034Y-29086837D01*
X58356837Y-29238034D01*
X58238043Y-29415823D01*
X58156215Y-29613371D01*
X58114500Y-29823088D01*
X51497151Y-29823088D01*
X49064063Y-27390000D01*
X58109248Y-27390000D01*
X58130206Y-27602795D01*
X58192277Y-27807413D01*
X58293073Y-27995989D01*
X58428722Y-28161278D01*
X58594011Y-28296927D01*
X58782587Y-28397723D01*
X58987205Y-28459794D01*
X59146674Y-28475500D01*
X59253326Y-28475500D01*
X59412795Y-28459794D01*
X59617413Y-28397723D01*
X59805989Y-28296927D01*
X59971278Y-28161278D01*
X60106927Y-27995989D01*
X60207723Y-27807413D01*
X60269794Y-27602795D01*
X60290752Y-27390000D01*
X60269794Y-27177205D01*
X60207723Y-26972587D01*
X60106927Y-26784011D01*
X59971278Y-26618722D01*
X59805989Y-26483073D01*
X59617413Y-26382277D01*
X59412795Y-26320206D01*
X59253326Y-26304500D01*
X59146674Y-26304500D01*
X58987205Y-26320206D01*
X58782587Y-26382277D01*
X58594011Y-26483073D01*
X58428722Y-26618722D01*
X58293073Y-26784011D01*
X58192277Y-26972587D01*
X58130206Y-27177205D01*
X58109248Y-27390000D01*
X49064063Y-27390000D01*
X48832943Y-27158881D01*
X48823105Y-27146893D01*
X48775292Y-27107655D01*
X48720743Y-27078497D01*
X48661554Y-27060543D01*
X48615421Y-27055999D01*
X48615420Y-27055999D01*
X48599999Y-27054480D01*
X48584578Y-27055999D01*
X48185500Y-27055999D01*
X48185500Y-27017258D01*
X48164921Y-26913800D01*
X48124554Y-26816346D01*
X48065950Y-26728639D01*
X47991361Y-26654050D01*
X47903654Y-26595446D01*
X47806200Y-26555079D01*
X47702742Y-26534500D01*
X47597258Y-26534500D01*
X47493800Y-26555079D01*
X47396346Y-26595446D01*
X47308639Y-26654050D01*
X47234050Y-26728639D01*
X47175446Y-26816346D01*
X47135079Y-26913800D01*
X47114500Y-27017258D01*
X38094959Y-27017258D01*
X38094959Y-24822487D01*
X38093789Y-24810613D01*
X38093852Y-24801686D01*
X38093497Y-24798067D01*
X38064324Y-24520502D01*
X38059577Y-24497376D01*
X38055153Y-24474181D01*
X38054101Y-24470699D01*
X37971571Y-24204087D01*
X37962414Y-24182303D01*
X37953577Y-24160430D01*
X37951870Y-24157219D01*
X37819125Y-23911715D01*
X37805925Y-23892144D01*
X37792995Y-23872385D01*
X37790696Y-23869566D01*
X37727429Y-23793088D01*
X52814500Y-23793088D01*
X52814500Y-24006912D01*
X52856215Y-24216629D01*
X52938043Y-24414177D01*
X53056837Y-24591966D01*
X53208034Y-24743163D01*
X53385823Y-24861957D01*
X53583371Y-24943785D01*
X53793088Y-24985500D01*
X54006912Y-24985500D01*
X54216629Y-24943785D01*
X54414177Y-24861957D01*
X54591966Y-24743163D01*
X54592041Y-24743088D01*
X58114500Y-24743088D01*
X58114500Y-24956912D01*
X58156215Y-25166629D01*
X58238043Y-25364177D01*
X58356837Y-25541966D01*
X58508034Y-25693163D01*
X58685823Y-25811957D01*
X58883371Y-25893785D01*
X59093088Y-25935500D01*
X59306912Y-25935500D01*
X59516629Y-25893785D01*
X59714177Y-25811957D01*
X59891966Y-25693163D01*
X60043163Y-25541966D01*
X60161957Y-25364177D01*
X60243785Y-25166629D01*
X60285500Y-24956912D01*
X60285500Y-24743088D01*
X60243785Y-24533371D01*
X60161957Y-24335823D01*
X60043163Y-24158034D01*
X59891966Y-24006837D01*
X59714177Y-23888043D01*
X59516629Y-23806215D01*
X59306912Y-23764500D01*
X59093088Y-23764500D01*
X58883371Y-23806215D01*
X58685823Y-23888043D01*
X58508034Y-24006837D01*
X58356837Y-24158034D01*
X58238043Y-24335823D01*
X58156215Y-24533371D01*
X58114500Y-24743088D01*
X54592041Y-24743088D01*
X54743163Y-24591966D01*
X54861957Y-24414177D01*
X54943785Y-24216629D01*
X54985500Y-24006912D01*
X54985500Y-23793088D01*
X54943785Y-23583371D01*
X54861957Y-23385823D01*
X54743163Y-23208034D01*
X54591966Y-23056837D01*
X54414177Y-22938043D01*
X54216629Y-22856215D01*
X54006912Y-22814500D01*
X53793088Y-22814500D01*
X53583371Y-22856215D01*
X53385823Y-22938043D01*
X53208034Y-23056837D01*
X53056837Y-23208034D01*
X52938043Y-23385823D01*
X52856215Y-23583371D01*
X52814500Y-23793088D01*
X37727429Y-23793088D01*
X37612795Y-23654520D01*
X37596020Y-23637862D01*
X37579522Y-23621014D01*
X37576725Y-23618701D01*
X37576720Y-23618696D01*
X37576715Y-23618692D01*
X37360437Y-23442301D01*
X37340791Y-23429248D01*
X37321290Y-23415895D01*
X37318091Y-23414166D01*
X37071666Y-23283140D01*
X37049807Y-23274130D01*
X37028137Y-23264842D01*
X37024662Y-23263766D01*
X36757481Y-23183099D01*
X36734308Y-23178511D01*
X36711226Y-23173604D01*
X36707609Y-23173224D01*
X36429847Y-23145989D01*
X36429838Y-23145989D01*
X36417218Y-23144746D01*
X33332743Y-23144746D01*
X33217393Y-23133436D01*
X33118701Y-23103639D01*
X33027669Y-23055236D01*
X32947779Y-22990080D01*
X32882061Y-22910640D01*
X32833024Y-22819949D01*
X32802539Y-22721467D01*
X32790500Y-22606926D01*
X32790500Y-21287350D01*
X32816215Y-21416629D01*
X32898043Y-21614177D01*
X33016837Y-21791966D01*
X33168034Y-21943163D01*
X33345823Y-22061957D01*
X33543371Y-22143785D01*
X33753088Y-22185500D01*
X33966912Y-22185500D01*
X34176629Y-22143785D01*
X34374177Y-22061957D01*
X34551966Y-21943163D01*
X34703163Y-21791966D01*
X34821957Y-21614177D01*
X34903785Y-21416629D01*
X34945500Y-21206912D01*
X34945500Y-20993088D01*
X34903785Y-20783371D01*
X34821957Y-20585823D01*
X34703163Y-20408034D01*
X34551966Y-20256837D01*
X34374177Y-20138043D01*
X34186974Y-20060500D01*
X36087340Y-20060500D01*
X35982587Y-20092277D01*
X35982587Y-20092277D01*
G37*
X35982587Y-20092277D02*
X35794011Y-20193073D01*
X35628722Y-20328722D01*
X35493073Y-20494011D01*
X35392277Y-20682587D01*
X35330206Y-20887205D01*
X35309248Y-21100000D01*
X35330206Y-21312795D01*
X35392277Y-21517413D01*
X35493073Y-21705989D01*
X35628722Y-21871278D01*
X35794011Y-22006927D01*
X35982587Y-22107723D01*
X36187205Y-22169794D01*
X36346674Y-22185500D01*
X36453326Y-22185500D01*
X36612795Y-22169794D01*
X36817413Y-22107723D01*
X37005989Y-22006927D01*
X37171278Y-21871278D01*
X37306927Y-21705989D01*
X37407723Y-21517413D01*
X37469794Y-21312795D01*
X37490752Y-21100000D01*
X37469794Y-20887205D01*
X37407723Y-20682587D01*
X37306927Y-20494011D01*
X37171278Y-20328722D01*
X37005989Y-20193073D01*
X36817413Y-20092277D01*
X36712660Y-20060500D01*
X38627340Y-20060500D01*
X38522587Y-20092277D01*
X38334011Y-20193073D01*
X38168722Y-20328722D01*
X38033073Y-20494011D01*
X37932277Y-20682587D01*
X37870206Y-20887205D01*
X37849248Y-21100000D01*
X37870206Y-21312795D01*
X37932277Y-21517413D01*
X38033073Y-21705989D01*
X38168722Y-21871278D01*
X38334011Y-22006927D01*
X38522587Y-22107723D01*
X38727205Y-22169794D01*
X38886674Y-22185500D01*
X38993326Y-22185500D01*
X39152795Y-22169794D01*
X39357413Y-22107723D01*
X39545989Y-22006927D01*
X39711278Y-21871278D01*
X39846927Y-21705989D01*
X39947723Y-21517413D01*
X40009794Y-21312795D01*
X40030752Y-21100000D01*
X40009794Y-20887205D01*
X39947723Y-20682587D01*
X39846927Y-20494011D01*
X39711278Y-20328722D01*
X39545989Y-20193073D01*
X39357413Y-20092277D01*
X39252660Y-20060500D01*
X41167340Y-20060500D01*
X41062587Y-20092277D01*
X40874011Y-20193073D01*
X40708722Y-20328722D01*
X40573073Y-20494011D01*
X40472277Y-20682587D01*
X40410206Y-20887205D01*
X40389248Y-21100000D01*
X40410206Y-21312795D01*
X40472277Y-21517413D01*
X40573073Y-21705989D01*
X40708722Y-21871278D01*
X40874011Y-22006927D01*
X41062587Y-22107723D01*
X41267205Y-22169794D01*
X41426674Y-22185500D01*
X41533326Y-22185500D01*
X41692795Y-22169794D01*
X41897413Y-22107723D01*
X42085989Y-22006927D01*
X42251278Y-21871278D01*
X42386927Y-21705989D01*
X42487723Y-21517413D01*
X42549794Y-21312795D01*
X42570752Y-21100000D01*
X42549794Y-20887205D01*
X42487723Y-20682587D01*
X42386927Y-20494011D01*
X42251278Y-20328722D01*
X42085989Y-20193073D01*
X41897413Y-20092277D01*
X41792660Y-20060500D01*
X43707340Y-20060500D01*
X43602587Y-20092277D01*
X43414011Y-20193073D01*
X43248722Y-20328722D01*
X43113073Y-20494011D01*
X43012277Y-20682587D01*
X42950206Y-20887205D01*
X42929248Y-21100000D01*
X42950206Y-21312795D01*
X43012277Y-21517413D01*
X43113073Y-21705989D01*
X43248722Y-21871278D01*
X43414011Y-22006927D01*
X43602587Y-22107723D01*
X43807205Y-22169794D01*
X43966674Y-22185500D01*
X44073326Y-22185500D01*
X44232795Y-22169794D01*
X44437413Y-22107723D01*
X44625989Y-22006927D01*
X44791278Y-21871278D01*
X44926927Y-21705989D01*
X45027723Y-21517413D01*
X45089794Y-21312795D01*
X45110752Y-21100000D01*
X45089794Y-20887205D01*
X45027723Y-20682587D01*
X44926927Y-20494011D01*
X44791278Y-20328722D01*
X44625989Y-20193073D01*
X44437413Y-20092277D01*
X44332660Y-20060500D01*
X46247340Y-20060500D01*
X46142587Y-20092277D01*
X45954011Y-20193073D01*
X45788722Y-20328722D01*
X45653073Y-20494011D01*
X45552277Y-20682587D01*
X45490206Y-20887205D01*
X45469248Y-21100000D01*
X45490206Y-21312795D01*
X45552277Y-21517413D01*
X45653073Y-21705989D01*
X45788722Y-21871278D01*
X45954011Y-22006927D01*
X46142587Y-22107723D01*
X46347205Y-22169794D01*
X46506674Y-22185500D01*
X46613326Y-22185500D01*
X46772795Y-22169794D01*
X46977413Y-22107723D01*
X47165989Y-22006927D01*
X47331278Y-21871278D01*
X47466927Y-21705989D01*
X47567723Y-21517413D01*
X47629794Y-21312795D01*
X47650752Y-21100000D01*
X47629794Y-20887205D01*
X47567723Y-20682587D01*
X47466927Y-20494011D01*
X47331278Y-20328722D01*
X47165989Y-20193073D01*
X46977413Y-20092277D01*
X46872660Y-20060500D01*
X48787340Y-20060500D01*
X48682587Y-20092277D01*
X48494011Y-20193073D01*
X48328722Y-20328722D01*
X48193073Y-20494011D01*
X48092277Y-20682587D01*
X48030206Y-20887205D01*
X48009248Y-21100000D01*
X48030206Y-21312795D01*
X48092277Y-21517413D01*
X48193073Y-21705989D01*
X48328722Y-21871278D01*
X48494011Y-22006927D01*
X48682587Y-22107723D01*
X48887205Y-22169794D01*
X49046674Y-22185500D01*
X49153326Y-22185500D01*
X49312795Y-22169794D01*
X49517413Y-22107723D01*
X49705989Y-22006927D01*
X49871278Y-21871278D01*
X50006927Y-21705989D01*
X50107723Y-21517413D01*
X50169794Y-21312795D01*
X50190752Y-21100000D01*
X50169794Y-20887205D01*
X50107723Y-20682587D01*
X50006927Y-20494011D01*
X49871278Y-20328722D01*
X49705989Y-20193073D01*
X49517413Y-20092277D01*
X49412660Y-20060500D01*
X51327340Y-20060500D01*
X51222587Y-20092277D01*
X51034011Y-20193073D01*
X50868722Y-20328722D01*
X50733073Y-20494011D01*
X50632277Y-20682587D01*
X50570206Y-20887205D01*
X50549248Y-21100000D01*
X50570206Y-21312795D01*
X50632277Y-21517413D01*
X50733073Y-21705989D01*
X50868722Y-21871278D01*
X51034011Y-22006927D01*
X51222587Y-22107723D01*
X51427205Y-22169794D01*
X51586674Y-22185500D01*
X51693326Y-22185500D01*
X51852795Y-22169794D01*
X52057413Y-22107723D01*
X52245989Y-22006927D01*
X52411278Y-21871278D01*
X52546927Y-21705989D01*
X52647723Y-21517413D01*
X52709794Y-21312795D01*
X52730752Y-21100000D01*
X52709794Y-20887205D01*
X52647723Y-20682587D01*
X52546927Y-20494011D01*
X52411278Y-20328722D01*
X52245989Y-20193073D01*
X52057413Y-20092277D01*
X51952660Y-20060500D01*
X53867340Y-20060500D01*
X53762587Y-20092277D01*
X53574011Y-20193073D01*
X53408722Y-20328722D01*
X53273073Y-20494011D01*
X53172277Y-20682587D01*
X53110206Y-20887205D01*
X53089248Y-21100000D01*
X53110206Y-21312795D01*
X53172277Y-21517413D01*
X53273073Y-21705989D01*
X53408722Y-21871278D01*
X53574011Y-22006927D01*
X53762587Y-22107723D01*
X53967205Y-22169794D01*
X54126674Y-22185500D01*
X54233326Y-22185500D01*
X54392795Y-22169794D01*
X54597413Y-22107723D01*
X54785989Y-22006927D01*
X54951278Y-21871278D01*
X55086927Y-21705989D01*
X55187723Y-21517413D01*
X55208861Y-21447729D01*
X55646400Y-21447729D01*
X55734867Y-21650496D01*
X55861192Y-21832108D01*
X56020521Y-21985586D01*
X56206731Y-22105031D01*
X56372272Y-22173591D01*
X56544500Y-22144230D01*
X56544500Y-21275500D01*
X56895500Y-21275500D01*
X56895500Y-22144230D01*
X57067728Y-22173591D01*
X57233269Y-22105031D01*
X57419479Y-21985586D01*
X57578808Y-21832108D01*
X57705133Y-21650496D01*
X57793600Y-21447729D01*
X57765154Y-21275500D01*
X56895500Y-21275500D01*
X56544500Y-21275500D01*
X55674846Y-21275500D01*
X55646400Y-21447729D01*
X55208861Y-21447729D01*
X55249794Y-21312795D01*
X55270752Y-21100000D01*
X55249794Y-20887205D01*
X55187723Y-20682587D01*
X55086927Y-20494011D01*
X54951278Y-20328722D01*
X54785989Y-20193073D01*
X54597413Y-20092277D01*
X54492660Y-20060500D01*
X56289958Y-20060500D01*
X56206731Y-20094969D01*
X56020521Y-20214414D01*
X55861192Y-20367892D01*
X55734867Y-20549504D01*
X55646400Y-20752271D01*
X55674846Y-20924500D01*
X56544500Y-20924500D01*
X56544500Y-20904500D01*
X56895500Y-20904500D01*
X56895500Y-20924500D01*
X57765154Y-20924500D01*
X57793600Y-20752271D01*
X57705133Y-20549504D01*
X57578808Y-20367892D01*
X57419479Y-20214414D01*
X57233269Y-20094969D01*
X57150042Y-20060500D01*
X58947340Y-20060500D01*
X58842587Y-20092277D01*
X58654011Y-20193073D01*
X58488722Y-20328722D01*
X58353073Y-20494011D01*
X58252277Y-20682587D01*
X58190206Y-20887205D01*
X58169248Y-21100000D01*
X58190206Y-21312795D01*
X58252277Y-21517413D01*
X58353073Y-21705989D01*
X58488722Y-21871278D01*
X58654011Y-22006927D01*
X58842587Y-22107723D01*
X59047205Y-22169794D01*
X59206674Y-22185500D01*
X59313326Y-22185500D01*
X59472795Y-22169794D01*
X59677413Y-22107723D01*
X59865989Y-22006927D01*
X60031278Y-21871278D01*
X60166927Y-21705989D01*
X60267723Y-21517413D01*
X60329794Y-21312795D01*
X60350752Y-21100000D01*
X60329794Y-20887205D01*
X60267723Y-20682587D01*
X60166927Y-20494011D01*
X60031278Y-20328722D01*
X59865989Y-20193073D01*
X59677413Y-20092277D01*
X59572660Y-20060500D01*
X62887260Y-20060500D01*
X62907432Y-20062478D01*
X62914573Y-20064634D01*
X62921165Y-20068139D01*
X62926955Y-20072861D01*
X62931710Y-20078608D01*
X62935262Y-20085179D01*
X62937470Y-20092311D01*
X62939500Y-20111624D01*
X62939501Y-37087250D01*
X62937522Y-37107432D01*
X62935366Y-37114575D01*
X62931862Y-37121163D01*
X62927140Y-37126954D01*
X62921389Y-37131711D01*
X62914821Y-37135263D01*
X62907690Y-37137470D01*
X62888376Y-37139500D01*
X59586974Y-37139500D01*
X59774177Y-37061957D01*
X59951966Y-36943163D01*
X60103163Y-36791966D01*
X60221957Y-36614177D01*
X60303785Y-36416629D01*
X60345500Y-36206912D01*
X60345500Y-35993088D01*
X60303785Y-35783371D01*
X60221957Y-35585823D01*
X60103163Y-35408034D01*
X59951966Y-35256837D01*
X59774177Y-35138043D01*
X59576629Y-35056215D01*
X59366912Y-35014500D01*
X59153088Y-35014500D01*
X58943371Y-35056215D01*
X58745823Y-35138043D01*
X58568034Y-35256837D01*
X58416837Y-35408034D01*
X58298043Y-35585823D01*
X58216215Y-35783371D01*
X58174500Y-35993088D01*
X58174500Y-36206912D01*
X58216215Y-36416629D01*
X58298043Y-36614177D01*
X58416837Y-36791966D01*
X58568034Y-36943163D01*
X58745823Y-37061957D01*
X58933026Y-37139500D01*
X57032660Y-37139500D01*
X57137413Y-37107723D01*
X57325989Y-37006927D01*
X57491278Y-36871278D01*
X57626927Y-36705989D01*
X57727723Y-36517413D01*
X57789794Y-36312795D01*
X57810752Y-36100000D01*
X57789794Y-35887205D01*
X57727723Y-35682587D01*
X57626927Y-35494011D01*
X57491278Y-35328722D01*
X57325989Y-35193073D01*
X57137413Y-35092277D01*
X56932795Y-35030206D01*
X56773326Y-35014500D01*
X56666674Y-35014500D01*
X56507205Y-35030206D01*
X56302587Y-35092277D01*
X56114011Y-35193073D01*
X55948722Y-35328722D01*
X55813073Y-35494011D01*
X55712277Y-35682587D01*
X55650206Y-35887205D01*
X55629248Y-36100000D01*
X55650206Y-36312795D01*
X55712277Y-36517413D01*
X55813073Y-36705989D01*
X55948722Y-36871278D01*
X56114011Y-37006927D01*
X56302587Y-37107723D01*
X56407340Y-37139500D01*
X54492660Y-37139500D01*
X54597413Y-37107723D01*
X54785989Y-37006927D01*
X54951278Y-36871278D01*
X55086927Y-36705989D01*
X55187723Y-36517413D01*
X55249794Y-36312795D01*
X55270752Y-36100000D01*
X55249794Y-35887205D01*
X55187723Y-35682587D01*
X55086927Y-35494011D01*
X54951278Y-35328722D01*
X54785989Y-35193073D01*
X54597413Y-35092277D01*
X54392795Y-35030206D01*
X54233326Y-35014500D01*
X54126674Y-35014500D01*
X53967205Y-35030206D01*
X53762587Y-35092277D01*
X53574011Y-35193073D01*
X53408722Y-35328722D01*
X53273073Y-35494011D01*
X53172277Y-35682587D01*
X53110206Y-35887205D01*
X53089248Y-36100000D01*
X53110206Y-36312795D01*
X53172277Y-36517413D01*
X53273073Y-36705989D01*
X53408722Y-36871278D01*
X53574011Y-37006927D01*
X53762587Y-37107723D01*
X53867340Y-37139500D01*
X52070042Y-37139500D01*
X52153269Y-37105031D01*
X52339479Y-36985586D01*
X52498808Y-36832108D01*
X52625133Y-36650496D01*
X52713600Y-36447729D01*
X52685154Y-36275500D01*
X51815500Y-36275500D01*
X51815500Y-36295500D01*
X51464500Y-36295500D01*
X51464500Y-36275500D01*
X50594846Y-36275500D01*
X50566400Y-36447729D01*
X50654867Y-36650496D01*
X50781192Y-36832108D01*
X50881349Y-36928587D01*
X50722392Y-36798944D01*
X50577054Y-36623260D01*
X50468610Y-36422696D01*
X50401185Y-36204882D01*
X50376074Y-35965964D01*
X50376074Y-35752271D01*
X50566400Y-35752271D01*
X50594846Y-35924500D01*
X51464500Y-35924500D01*
X51464500Y-35055770D01*
X51815500Y-35055770D01*
X51815500Y-35924500D01*
X52685154Y-35924500D01*
X52713600Y-35752271D01*
X52625133Y-35549504D01*
X52498808Y-35367892D01*
X52339479Y-35214414D01*
X52153269Y-35094969D01*
X51987728Y-35026409D01*
X51815500Y-35055770D01*
X51464500Y-35055770D01*
X51292272Y-35026409D01*
X51126731Y-35094969D01*
X50940521Y-35214414D01*
X50781192Y-35367892D01*
X50654867Y-35549504D01*
X50566400Y-35752271D01*
X50376074Y-35752271D01*
X50376074Y-30277242D01*
X50374904Y-30265368D01*
X50374967Y-30256441D01*
X50374612Y-30252822D01*
X50345439Y-29975257D01*
X50340692Y-29952131D01*
X50336268Y-29928936D01*
X50335216Y-29925454D01*
X50252686Y-29658842D01*
X50243529Y-29637058D01*
X50234692Y-29615185D01*
X50232989Y-29611983D01*
X50232985Y-29611974D01*
X50232980Y-29611967D01*
X50100240Y-29366469D01*
X50087028Y-29346881D01*
X50074109Y-29327138D01*
X50071816Y-29324327D01*
X50071811Y-29324320D01*
X50071805Y-29324314D01*
X49893910Y-29109275D01*
X49877172Y-29092653D01*
X49860638Y-29075769D01*
X49857835Y-29073451D01*
X49641553Y-28897055D01*
X49621874Y-28883980D01*
X49602405Y-28870649D01*
X49599211Y-28868923D01*
X49599207Y-28868920D01*
X49599203Y-28868918D01*
X49352781Y-28737894D01*
X49330941Y-28728892D01*
X49309251Y-28719595D01*
X49305777Y-28718520D01*
X49038595Y-28637853D01*
X49015428Y-28633266D01*
X48992340Y-28628358D01*
X48988723Y-28627978D01*
X48710961Y-28600743D01*
X48710951Y-28600743D01*
X48698331Y-28599500D01*
X39277246Y-28599535D01*
X39037572Y-28576034D01*
X38819292Y-28510132D01*
X38617975Y-28403090D01*
X38441277Y-28258978D01*
X38295939Y-28083294D01*
X38187495Y-27882730D01*
X38120070Y-27664916D01*
X38094959Y-27425998D01*
X38094959Y-27017258D01*
X47114500Y-27017258D01*
X47114500Y-27122742D01*
X47135079Y-27226200D01*
X47175446Y-27323654D01*
X47234050Y-27411361D01*
X47308639Y-27485950D01*
X47396346Y-27544554D01*
X47493800Y-27584921D01*
X47597258Y-27605500D01*
X47702742Y-27605500D01*
X47734338Y-27599215D01*
X47774706Y-27632343D01*
X47829255Y-27661501D01*
X47888444Y-27679455D01*
X47949999Y-27685518D01*
X47965420Y-27683999D01*
X48469937Y-27683999D01*
X51656000Y-30870063D01*
X51656001Y-32335767D01*
X51628639Y-32354050D01*
X51554050Y-32428639D01*
X51495446Y-32516346D01*
X51455079Y-32613800D01*
X51434500Y-32717258D01*
X51434500Y-32822742D01*
X51455079Y-32926200D01*
X51495446Y-33023654D01*
X51554050Y-33111361D01*
X51628639Y-33185950D01*
X51716346Y-33244554D01*
X51813800Y-33284921D01*
X51917258Y-33305500D01*
X52022742Y-33305500D01*
X52126200Y-33284921D01*
X52223654Y-33244554D01*
X52311361Y-33185950D01*
X52385950Y-33111361D01*
X52444554Y-33023654D01*
X52484921Y-32926200D01*
X52505500Y-32822742D01*
X52505500Y-32717258D01*
X52484921Y-32613800D01*
X52444554Y-32516346D01*
X52413587Y-32470000D01*
X58109248Y-32470000D01*
X58130206Y-32682795D01*
X58192277Y-32887413D01*
X58293073Y-33075989D01*
X58428722Y-33241278D01*
X58594011Y-33376927D01*
X58782587Y-33477723D01*
X58987205Y-33539794D01*
X59146674Y-33555500D01*
X59253326Y-33555500D01*
X59412795Y-33539794D01*
X59617413Y-33477723D01*
X59805989Y-33376927D01*
X59971278Y-33241278D01*
X60106927Y-33075989D01*
X60207723Y-32887413D01*
X60269794Y-32682795D01*
X60290752Y-32470000D01*
X60269794Y-32257205D01*
X60207723Y-32052587D01*
X60106927Y-31864011D01*
X59971278Y-31698722D01*
X59805989Y-31563073D01*
X59617413Y-31462277D01*
X59412795Y-31400206D01*
X59253326Y-31384500D01*
X59146674Y-31384500D01*
X58987205Y-31400206D01*
X58782587Y-31462277D01*
X58594011Y-31563073D01*
X58428722Y-31698722D01*
X58293073Y-31864011D01*
X58192277Y-32052587D01*
X58130206Y-32257205D01*
X58109248Y-32470000D01*
X52413587Y-32470000D01*
X52385950Y-32428639D01*
X52311361Y-32354050D01*
X52284000Y-32335768D01*
X52284000Y-30755421D01*
X52285519Y-30739999D01*
X52279456Y-30678445D01*
X52261502Y-30619256D01*
X52232344Y-30564707D01*
X52193106Y-30516894D01*
X52181125Y-30507062D01*
X51497151Y-29823088D01*
X58114500Y-29823088D01*
X58114500Y-30036912D01*
X58156215Y-30246629D01*
X58238043Y-30444177D01*
X58356837Y-30621966D01*
X58508034Y-30773163D01*
X58685823Y-30891957D01*
X58883371Y-30973785D01*
X59093088Y-31015500D01*
X59306912Y-31015500D01*
X59516629Y-30973785D01*
X59714177Y-30891957D01*
X59891966Y-30773163D01*
X60043163Y-30621966D01*
X60161957Y-30444177D01*
X60243785Y-30246629D01*
X60285500Y-30036912D01*
X60285500Y-29823088D01*
X60243785Y-29613371D01*
X60161957Y-29415823D01*
X60043163Y-29238034D01*
X59891966Y-29086837D01*
X59714177Y-28968043D01*
X59516629Y-28886215D01*
X59306912Y-28844500D01*
X59093088Y-28844500D01*
X58883371Y-28886215D01*
X58685823Y-28968043D01*
X58508034Y-29086837D01*
X58356837Y-29238034D01*
X58238043Y-29415823D01*
X58156215Y-29613371D01*
X58114500Y-29823088D01*
X51497151Y-29823088D01*
X49064063Y-27390000D01*
X58109248Y-27390000D01*
X58130206Y-27602795D01*
X58192277Y-27807413D01*
X58293073Y-27995989D01*
X58428722Y-28161278D01*
X58594011Y-28296927D01*
X58782587Y-28397723D01*
X58987205Y-28459794D01*
X59146674Y-28475500D01*
X59253326Y-28475500D01*
X59412795Y-28459794D01*
X59617413Y-28397723D01*
X59805989Y-28296927D01*
X59971278Y-28161278D01*
X60106927Y-27995989D01*
X60207723Y-27807413D01*
X60269794Y-27602795D01*
X60290752Y-27390000D01*
X60269794Y-27177205D01*
X60207723Y-26972587D01*
X60106927Y-26784011D01*
X59971278Y-26618722D01*
X59805989Y-26483073D01*
X59617413Y-26382277D01*
X59412795Y-26320206D01*
X59253326Y-26304500D01*
X59146674Y-26304500D01*
X58987205Y-26320206D01*
X58782587Y-26382277D01*
X58594011Y-26483073D01*
X58428722Y-26618722D01*
X58293073Y-26784011D01*
X58192277Y-26972587D01*
X58130206Y-27177205D01*
X58109248Y-27390000D01*
X49064063Y-27390000D01*
X48832943Y-27158881D01*
X48823105Y-27146893D01*
X48775292Y-27107655D01*
X48720743Y-27078497D01*
X48661554Y-27060543D01*
X48615421Y-27055999D01*
X48615420Y-27055999D01*
X48599999Y-27054480D01*
X48584578Y-27055999D01*
X48185500Y-27055999D01*
X48185500Y-27017258D01*
X48164921Y-26913800D01*
X48124554Y-26816346D01*
X48065950Y-26728639D01*
X47991361Y-26654050D01*
X47903654Y-26595446D01*
X47806200Y-26555079D01*
X47702742Y-26534500D01*
X47597258Y-26534500D01*
X47493800Y-26555079D01*
X47396346Y-26595446D01*
X47308639Y-26654050D01*
X47234050Y-26728639D01*
X47175446Y-26816346D01*
X47135079Y-26913800D01*
X47114500Y-27017258D01*
X38094959Y-27017258D01*
X38094959Y-24822487D01*
X38093789Y-24810613D01*
X38093852Y-24801686D01*
X38093497Y-24798067D01*
X38064324Y-24520502D01*
X38059577Y-24497376D01*
X38055153Y-24474181D01*
X38054101Y-24470699D01*
X37971571Y-24204087D01*
X37962414Y-24182303D01*
X37953577Y-24160430D01*
X37951870Y-24157219D01*
X37819125Y-23911715D01*
X37805925Y-23892144D01*
X37792995Y-23872385D01*
X37790696Y-23869566D01*
X37727429Y-23793088D01*
X52814500Y-23793088D01*
X52814500Y-24006912D01*
X52856215Y-24216629D01*
X52938043Y-24414177D01*
X53056837Y-24591966D01*
X53208034Y-24743163D01*
X53385823Y-24861957D01*
X53583371Y-24943785D01*
X53793088Y-24985500D01*
X54006912Y-24985500D01*
X54216629Y-24943785D01*
X54414177Y-24861957D01*
X54591966Y-24743163D01*
X54592041Y-24743088D01*
X58114500Y-24743088D01*
X58114500Y-24956912D01*
X58156215Y-25166629D01*
X58238043Y-25364177D01*
X58356837Y-25541966D01*
X58508034Y-25693163D01*
X58685823Y-25811957D01*
X58883371Y-25893785D01*
X59093088Y-25935500D01*
X59306912Y-25935500D01*
X59516629Y-25893785D01*
X59714177Y-25811957D01*
X59891966Y-25693163D01*
X60043163Y-25541966D01*
X60161957Y-25364177D01*
X60243785Y-25166629D01*
X60285500Y-24956912D01*
X60285500Y-24743088D01*
X60243785Y-24533371D01*
X60161957Y-24335823D01*
X60043163Y-24158034D01*
X59891966Y-24006837D01*
X59714177Y-23888043D01*
X59516629Y-23806215D01*
X59306912Y-23764500D01*
X59093088Y-23764500D01*
X58883371Y-23806215D01*
X58685823Y-23888043D01*
X58508034Y-24006837D01*
X58356837Y-24158034D01*
X58238043Y-24335823D01*
X58156215Y-24533371D01*
X58114500Y-24743088D01*
X54592041Y-24743088D01*
X54743163Y-24591966D01*
X54861957Y-24414177D01*
X54943785Y-24216629D01*
X54985500Y-24006912D01*
X54985500Y-23793088D01*
X54943785Y-23583371D01*
X54861957Y-23385823D01*
X54743163Y-23208034D01*
X54591966Y-23056837D01*
X54414177Y-22938043D01*
X54216629Y-22856215D01*
X54006912Y-22814500D01*
X53793088Y-22814500D01*
X53583371Y-22856215D01*
X53385823Y-22938043D01*
X53208034Y-23056837D01*
X53056837Y-23208034D01*
X52938043Y-23385823D01*
X52856215Y-23583371D01*
X52814500Y-23793088D01*
X37727429Y-23793088D01*
X37612795Y-23654520D01*
X37596020Y-23637862D01*
X37579522Y-23621014D01*
X37576725Y-23618701D01*
X37576720Y-23618696D01*
X37576715Y-23618692D01*
X37360437Y-23442301D01*
X37340791Y-23429248D01*
X37321290Y-23415895D01*
X37318091Y-23414166D01*
X37071666Y-23283140D01*
X37049807Y-23274130D01*
X37028137Y-23264842D01*
X37024662Y-23263766D01*
X36757481Y-23183099D01*
X36734308Y-23178511D01*
X36711226Y-23173604D01*
X36707609Y-23173224D01*
X36429847Y-23145989D01*
X36429838Y-23145989D01*
X36417218Y-23144746D01*
X33332743Y-23144746D01*
X33217393Y-23133436D01*
X33118701Y-23103639D01*
X33027669Y-23055236D01*
X32947779Y-22990080D01*
X32882061Y-22910640D01*
X32833024Y-22819949D01*
X32802539Y-22721467D01*
X32790500Y-22606926D01*
X32790500Y-21287350D01*
X32816215Y-21416629D01*
X32898043Y-21614177D01*
X33016837Y-21791966D01*
X33168034Y-21943163D01*
X33345823Y-22061957D01*
X33543371Y-22143785D01*
X33753088Y-22185500D01*
X33966912Y-22185500D01*
X34176629Y-22143785D01*
X34374177Y-22061957D01*
X34551966Y-21943163D01*
X34703163Y-21791966D01*
X34821957Y-21614177D01*
X34903785Y-21416629D01*
X34945500Y-21206912D01*
X34945500Y-20993088D01*
X34903785Y-20783371D01*
X34821957Y-20585823D01*
X34703163Y-20408034D01*
X34551966Y-20256837D01*
X34374177Y-20138043D01*
X34186974Y-20060500D01*
X36087340Y-20060500D01*
X35982587Y-20092277D01*
M02*
