G04 #@! TF.GenerationSoftware,KiCad,Pcbnew,5.0.1*
G04 #@! TF.CreationDate,2019-10-27T19:11:33+01:00*
G04 #@! TF.ProjectId,OtterPill-CAN,4F7474657250696C6C2D43414E2E6B69,rev?*
G04 #@! TF.SameCoordinates,Original*
G04 #@! TF.FileFunction,Copper,L1,Top,Signal*
G04 #@! TF.FilePolarity,Positive*
%FSLAX46Y46*%
G04 Gerber Fmt 4.6, Leading zero omitted, Abs format (unit mm)*
G04 Created by KiCad (PCBNEW 5.0.1) date Sun 27 Oct 2019 07:11:33 PM CET*
%MOMM*%
%LPD*%
G01*
G04 APERTURE LIST*
G04 #@! TA.AperFunction,NonConductor*
%ADD10C,0.050000*%
G04 #@! TD*
G04 #@! TA.AperFunction,ComponentPad*
%ADD11C,1.700000*%
G04 #@! TD*
G04 #@! TA.AperFunction,ComponentPad*
%ADD12O,1.700000X1.700000*%
G04 #@! TD*
G04 #@! TA.AperFunction,SMDPad,CuDef*
%ADD13R,4.500000X1.300000*%
G04 #@! TD*
G04 #@! TA.AperFunction,SMDPad,CuDef*
%ADD14R,1.800000X1.800000*%
G04 #@! TD*
G04 #@! TA.AperFunction,Conductor*
%ADD15C,0.100000*%
G04 #@! TD*
G04 #@! TA.AperFunction,SMDPad,CuDef*
%ADD16C,0.875000*%
G04 #@! TD*
G04 #@! TA.AperFunction,SMDPad,CuDef*
%ADD17C,0.600000*%
G04 #@! TD*
G04 #@! TA.AperFunction,ViaPad*
%ADD18C,0.600000*%
G04 #@! TD*
G04 #@! TA.AperFunction,Conductor*
%ADD19C,0.400000*%
G04 #@! TD*
G04 #@! TA.AperFunction,Conductor*
%ADD20C,0.157000*%
G04 #@! TD*
G04 APERTURE END LIST*
D10*
X63200000Y-37100000D02*
G75*
G02X62900000Y-37400000I-300000J0D01*
G01*
X62900000Y-19800000D02*
G75*
G02X63200000Y-20100000I0J-300000D01*
G01*
X32530000Y-20410000D02*
G75*
G02X33140000Y-19800000I610000J0D01*
G01*
X33320000Y-23405246D02*
X36404426Y-23405246D01*
X32530000Y-22615246D02*
G75*
G03X33320000Y-23405246I790000J0D01*
G01*
X37834459Y-24835279D02*
G75*
G03X36404426Y-23405246I-1430033J0D01*
G01*
X37834459Y-27430000D02*
X37834459Y-24835279D01*
X50115574Y-35969966D02*
G75*
G03X51545608Y-37400000I1430034J0D01*
G01*
X37834459Y-27430000D02*
G75*
G03X39264493Y-28860034I1430034J0D01*
G01*
X48690000Y-28860000D02*
X39260000Y-28860000D01*
X50115574Y-30290034D02*
G75*
G03X48685540Y-28860000I-1430034J0D01*
G01*
X50115574Y-35964754D02*
X50115574Y-30294754D01*
X32530000Y-20410000D02*
X32530000Y-22615246D01*
X62900000Y-19800000D02*
X33140000Y-19800000D01*
X63200000Y-20110000D02*
X63200000Y-37100000D01*
X51540000Y-37400000D02*
X62900000Y-37400000D01*
D11*
G04 #@! TO.P,J7,1*
G04 #@! TO.N,Net-(J7-Pad1)*
X53900000Y-23900000D03*
G04 #@! TD*
G04 #@! TO.P,J1,1*
G04 #@! TO.N,315*
X59260000Y-36100000D03*
D12*
G04 #@! TO.P,J1,2*
G04 #@! TO.N,314*
X56720000Y-36100000D03*
G04 #@! TO.P,J1,3*
G04 #@! TO.N,TXD*
X54180000Y-36100000D03*
G04 #@! TO.P,J1,4*
G04 #@! TO.N,GND*
X51640000Y-36100000D03*
G04 #@! TD*
D11*
G04 #@! TO.P,J2,1*
G04 #@! TO.N,RXD*
X33860000Y-21100000D03*
D12*
G04 #@! TO.P,J2,2*
G04 #@! TO.N,46*
X36400000Y-21100000D03*
G04 #@! TO.P,J2,3*
G04 #@! TO.N,47*
X38940000Y-21100000D03*
G04 #@! TO.P,J2,4*
G04 #@! TO.N,48*
X41480000Y-21100000D03*
G04 #@! TO.P,J2,5*
G04 #@! TO.N,49*
X44020000Y-21100000D03*
G04 #@! TO.P,J2,6*
G04 #@! TO.N,410*
X46560000Y-21100000D03*
G04 #@! TO.P,J2,7*
G04 #@! TO.N,411*
X49100000Y-21100000D03*
G04 #@! TO.P,J2,8*
G04 #@! TO.N,+3V3*
X51640000Y-21100000D03*
G04 #@! TO.P,J2,9*
G04 #@! TO.N,413*
X54180000Y-21100000D03*
G04 #@! TO.P,J2,10*
G04 #@! TO.N,GND*
X56720000Y-21100000D03*
G04 #@! TO.P,J2,11*
G04 #@! TO.N,VIN*
X59260000Y-21100000D03*
G04 #@! TD*
D13*
G04 #@! TO.P,J3,1*
G04 #@! TO.N,CAN_L*
X55490000Y-31100000D03*
G04 #@! TO.P,J3,2*
G04 #@! TO.N,GND*
X55490000Y-28600000D03*
D14*
G04 #@! TO.P,J3,MP*
X62090000Y-34300000D03*
X62090000Y-22900000D03*
D13*
G04 #@! TO.P,J3,3*
G04 #@! TO.N,CAN_H*
X55490000Y-26100000D03*
G04 #@! TD*
D15*
G04 #@! TO.N,GND*
G04 #@! TO.C,C9*
G36*
X42577691Y-24736052D02*
X42598926Y-24739202D01*
X42619750Y-24744418D01*
X42639962Y-24751650D01*
X42659368Y-24760829D01*
X42677781Y-24771865D01*
X42695024Y-24784653D01*
X42710930Y-24799069D01*
X42725346Y-24814975D01*
X42738134Y-24832218D01*
X42749170Y-24850631D01*
X42758349Y-24870037D01*
X42765581Y-24890249D01*
X42770797Y-24911073D01*
X42773947Y-24932308D01*
X42775000Y-24953749D01*
X42775000Y-25391249D01*
X42773947Y-25412690D01*
X42770797Y-25433925D01*
X42765581Y-25454749D01*
X42758349Y-25474961D01*
X42749170Y-25494367D01*
X42738134Y-25512780D01*
X42725346Y-25530023D01*
X42710930Y-25545929D01*
X42695024Y-25560345D01*
X42677781Y-25573133D01*
X42659368Y-25584169D01*
X42639962Y-25593348D01*
X42619750Y-25600580D01*
X42598926Y-25605796D01*
X42577691Y-25608946D01*
X42556250Y-25609999D01*
X42043750Y-25609999D01*
X42022309Y-25608946D01*
X42001074Y-25605796D01*
X41980250Y-25600580D01*
X41960038Y-25593348D01*
X41940632Y-25584169D01*
X41922219Y-25573133D01*
X41904976Y-25560345D01*
X41889070Y-25545929D01*
X41874654Y-25530023D01*
X41861866Y-25512780D01*
X41850830Y-25494367D01*
X41841651Y-25474961D01*
X41834419Y-25454749D01*
X41829203Y-25433925D01*
X41826053Y-25412690D01*
X41825000Y-25391249D01*
X41825000Y-24953749D01*
X41826053Y-24932308D01*
X41829203Y-24911073D01*
X41834419Y-24890249D01*
X41841651Y-24870037D01*
X41850830Y-24850631D01*
X41861866Y-24832218D01*
X41874654Y-24814975D01*
X41889070Y-24799069D01*
X41904976Y-24784653D01*
X41922219Y-24771865D01*
X41940632Y-24760829D01*
X41960038Y-24751650D01*
X41980250Y-24744418D01*
X42001074Y-24739202D01*
X42022309Y-24736052D01*
X42043750Y-24734999D01*
X42556250Y-24734999D01*
X42577691Y-24736052D01*
X42577691Y-24736052D01*
G37*
D16*
G04 #@! TD*
G04 #@! TO.P,C9,2*
G04 #@! TO.N,GND*
X42300000Y-25172499D03*
D15*
G04 #@! TO.N,+3V3*
G04 #@! TO.C,C9*
G36*
X42577691Y-26311054D02*
X42598926Y-26314204D01*
X42619750Y-26319420D01*
X42639962Y-26326652D01*
X42659368Y-26335831D01*
X42677781Y-26346867D01*
X42695024Y-26359655D01*
X42710930Y-26374071D01*
X42725346Y-26389977D01*
X42738134Y-26407220D01*
X42749170Y-26425633D01*
X42758349Y-26445039D01*
X42765581Y-26465251D01*
X42770797Y-26486075D01*
X42773947Y-26507310D01*
X42775000Y-26528751D01*
X42775000Y-26966251D01*
X42773947Y-26987692D01*
X42770797Y-27008927D01*
X42765581Y-27029751D01*
X42758349Y-27049963D01*
X42749170Y-27069369D01*
X42738134Y-27087782D01*
X42725346Y-27105025D01*
X42710930Y-27120931D01*
X42695024Y-27135347D01*
X42677781Y-27148135D01*
X42659368Y-27159171D01*
X42639962Y-27168350D01*
X42619750Y-27175582D01*
X42598926Y-27180798D01*
X42577691Y-27183948D01*
X42556250Y-27185001D01*
X42043750Y-27185001D01*
X42022309Y-27183948D01*
X42001074Y-27180798D01*
X41980250Y-27175582D01*
X41960038Y-27168350D01*
X41940632Y-27159171D01*
X41922219Y-27148135D01*
X41904976Y-27135347D01*
X41889070Y-27120931D01*
X41874654Y-27105025D01*
X41861866Y-27087782D01*
X41850830Y-27069369D01*
X41841651Y-27049963D01*
X41834419Y-27029751D01*
X41829203Y-27008927D01*
X41826053Y-26987692D01*
X41825000Y-26966251D01*
X41825000Y-26528751D01*
X41826053Y-26507310D01*
X41829203Y-26486075D01*
X41834419Y-26465251D01*
X41841651Y-26445039D01*
X41850830Y-26425633D01*
X41861866Y-26407220D01*
X41874654Y-26389977D01*
X41889070Y-26374071D01*
X41904976Y-26359655D01*
X41922219Y-26346867D01*
X41940632Y-26335831D01*
X41960038Y-26326652D01*
X41980250Y-26319420D01*
X42001074Y-26314204D01*
X42022309Y-26311054D01*
X42043750Y-26310001D01*
X42556250Y-26310001D01*
X42577691Y-26311054D01*
X42577691Y-26311054D01*
G37*
D16*
G04 #@! TD*
G04 #@! TO.P,C9,1*
G04 #@! TO.N,+3V3*
X42300000Y-26747501D03*
D15*
G04 #@! TO.N,Net-(R5-Pad1)*
G04 #@! TO.C,R5*
G36*
X51627691Y-29636053D02*
X51648926Y-29639203D01*
X51669750Y-29644419D01*
X51689962Y-29651651D01*
X51709368Y-29660830D01*
X51727781Y-29671866D01*
X51745024Y-29684654D01*
X51760930Y-29699070D01*
X51775346Y-29714976D01*
X51788134Y-29732219D01*
X51799170Y-29750632D01*
X51808349Y-29770038D01*
X51815581Y-29790250D01*
X51820797Y-29811074D01*
X51823947Y-29832309D01*
X51825000Y-29853750D01*
X51825000Y-30291250D01*
X51823947Y-30312691D01*
X51820797Y-30333926D01*
X51815581Y-30354750D01*
X51808349Y-30374962D01*
X51799170Y-30394368D01*
X51788134Y-30412781D01*
X51775346Y-30430024D01*
X51760930Y-30445930D01*
X51745024Y-30460346D01*
X51727781Y-30473134D01*
X51709368Y-30484170D01*
X51689962Y-30493349D01*
X51669750Y-30500581D01*
X51648926Y-30505797D01*
X51627691Y-30508947D01*
X51606250Y-30510000D01*
X51093750Y-30510000D01*
X51072309Y-30508947D01*
X51051074Y-30505797D01*
X51030250Y-30500581D01*
X51010038Y-30493349D01*
X50990632Y-30484170D01*
X50972219Y-30473134D01*
X50954976Y-30460346D01*
X50939070Y-30445930D01*
X50924654Y-30430024D01*
X50911866Y-30412781D01*
X50900830Y-30394368D01*
X50891651Y-30374962D01*
X50884419Y-30354750D01*
X50879203Y-30333926D01*
X50876053Y-30312691D01*
X50875000Y-30291250D01*
X50875000Y-29853750D01*
X50876053Y-29832309D01*
X50879203Y-29811074D01*
X50884419Y-29790250D01*
X50891651Y-29770038D01*
X50900830Y-29750632D01*
X50911866Y-29732219D01*
X50924654Y-29714976D01*
X50939070Y-29699070D01*
X50954976Y-29684654D01*
X50972219Y-29671866D01*
X50990632Y-29660830D01*
X51010038Y-29651651D01*
X51030250Y-29644419D01*
X51051074Y-29639203D01*
X51072309Y-29636053D01*
X51093750Y-29635000D01*
X51606250Y-29635000D01*
X51627691Y-29636053D01*
X51627691Y-29636053D01*
G37*
D16*
G04 #@! TD*
G04 #@! TO.P,R5,1*
G04 #@! TO.N,Net-(R5-Pad1)*
X51350000Y-30072500D03*
D15*
G04 #@! TO.N,+3V3*
G04 #@! TO.C,R5*
G36*
X51627691Y-31211053D02*
X51648926Y-31214203D01*
X51669750Y-31219419D01*
X51689962Y-31226651D01*
X51709368Y-31235830D01*
X51727781Y-31246866D01*
X51745024Y-31259654D01*
X51760930Y-31274070D01*
X51775346Y-31289976D01*
X51788134Y-31307219D01*
X51799170Y-31325632D01*
X51808349Y-31345038D01*
X51815581Y-31365250D01*
X51820797Y-31386074D01*
X51823947Y-31407309D01*
X51825000Y-31428750D01*
X51825000Y-31866250D01*
X51823947Y-31887691D01*
X51820797Y-31908926D01*
X51815581Y-31929750D01*
X51808349Y-31949962D01*
X51799170Y-31969368D01*
X51788134Y-31987781D01*
X51775346Y-32005024D01*
X51760930Y-32020930D01*
X51745024Y-32035346D01*
X51727781Y-32048134D01*
X51709368Y-32059170D01*
X51689962Y-32068349D01*
X51669750Y-32075581D01*
X51648926Y-32080797D01*
X51627691Y-32083947D01*
X51606250Y-32085000D01*
X51093750Y-32085000D01*
X51072309Y-32083947D01*
X51051074Y-32080797D01*
X51030250Y-32075581D01*
X51010038Y-32068349D01*
X50990632Y-32059170D01*
X50972219Y-32048134D01*
X50954976Y-32035346D01*
X50939070Y-32020930D01*
X50924654Y-32005024D01*
X50911866Y-31987781D01*
X50900830Y-31969368D01*
X50891651Y-31949962D01*
X50884419Y-31929750D01*
X50879203Y-31908926D01*
X50876053Y-31887691D01*
X50875000Y-31866250D01*
X50875000Y-31428750D01*
X50876053Y-31407309D01*
X50879203Y-31386074D01*
X50884419Y-31365250D01*
X50891651Y-31345038D01*
X50900830Y-31325632D01*
X50911866Y-31307219D01*
X50924654Y-31289976D01*
X50939070Y-31274070D01*
X50954976Y-31259654D01*
X50972219Y-31246866D01*
X50990632Y-31235830D01*
X51010038Y-31226651D01*
X51030250Y-31219419D01*
X51051074Y-31214203D01*
X51072309Y-31211053D01*
X51093750Y-31210000D01*
X51606250Y-31210000D01*
X51627691Y-31211053D01*
X51627691Y-31211053D01*
G37*
D16*
G04 #@! TD*
G04 #@! TO.P,R5,2*
G04 #@! TO.N,+3V3*
X51350000Y-31647500D03*
D15*
G04 #@! TO.N,TXD*
G04 #@! TO.C,U1*
G36*
X45104703Y-23735722D02*
X45119264Y-23737882D01*
X45133543Y-23741459D01*
X45147403Y-23746418D01*
X45160710Y-23752712D01*
X45173336Y-23760280D01*
X45185159Y-23769048D01*
X45196066Y-23778934D01*
X45205952Y-23789841D01*
X45214720Y-23801664D01*
X45222288Y-23814290D01*
X45228582Y-23827597D01*
X45233541Y-23841457D01*
X45237118Y-23855736D01*
X45239278Y-23870297D01*
X45240000Y-23885000D01*
X45240000Y-24185000D01*
X45239278Y-24199703D01*
X45237118Y-24214264D01*
X45233541Y-24228543D01*
X45228582Y-24242403D01*
X45222288Y-24255710D01*
X45214720Y-24268336D01*
X45205952Y-24280159D01*
X45196066Y-24291066D01*
X45185159Y-24300952D01*
X45173336Y-24309720D01*
X45160710Y-24317288D01*
X45147403Y-24323582D01*
X45133543Y-24328541D01*
X45119264Y-24332118D01*
X45104703Y-24334278D01*
X45090000Y-24335000D01*
X43440000Y-24335000D01*
X43425297Y-24334278D01*
X43410736Y-24332118D01*
X43396457Y-24328541D01*
X43382597Y-24323582D01*
X43369290Y-24317288D01*
X43356664Y-24309720D01*
X43344841Y-24300952D01*
X43333934Y-24291066D01*
X43324048Y-24280159D01*
X43315280Y-24268336D01*
X43307712Y-24255710D01*
X43301418Y-24242403D01*
X43296459Y-24228543D01*
X43292882Y-24214264D01*
X43290722Y-24199703D01*
X43290000Y-24185000D01*
X43290000Y-23885000D01*
X43290722Y-23870297D01*
X43292882Y-23855736D01*
X43296459Y-23841457D01*
X43301418Y-23827597D01*
X43307712Y-23814290D01*
X43315280Y-23801664D01*
X43324048Y-23789841D01*
X43333934Y-23778934D01*
X43344841Y-23769048D01*
X43356664Y-23760280D01*
X43369290Y-23752712D01*
X43382597Y-23746418D01*
X43396457Y-23741459D01*
X43410736Y-23737882D01*
X43425297Y-23735722D01*
X43440000Y-23735000D01*
X45090000Y-23735000D01*
X45104703Y-23735722D01*
X45104703Y-23735722D01*
G37*
D17*
G04 #@! TD*
G04 #@! TO.P,U1,1*
G04 #@! TO.N,TXD*
X44265000Y-24035000D03*
D15*
G04 #@! TO.N,GND*
G04 #@! TO.C,U1*
G36*
X45104703Y-25005722D02*
X45119264Y-25007882D01*
X45133543Y-25011459D01*
X45147403Y-25016418D01*
X45160710Y-25022712D01*
X45173336Y-25030280D01*
X45185159Y-25039048D01*
X45196066Y-25048934D01*
X45205952Y-25059841D01*
X45214720Y-25071664D01*
X45222288Y-25084290D01*
X45228582Y-25097597D01*
X45233541Y-25111457D01*
X45237118Y-25125736D01*
X45239278Y-25140297D01*
X45240000Y-25155000D01*
X45240000Y-25455000D01*
X45239278Y-25469703D01*
X45237118Y-25484264D01*
X45233541Y-25498543D01*
X45228582Y-25512403D01*
X45222288Y-25525710D01*
X45214720Y-25538336D01*
X45205952Y-25550159D01*
X45196066Y-25561066D01*
X45185159Y-25570952D01*
X45173336Y-25579720D01*
X45160710Y-25587288D01*
X45147403Y-25593582D01*
X45133543Y-25598541D01*
X45119264Y-25602118D01*
X45104703Y-25604278D01*
X45090000Y-25605000D01*
X43440000Y-25605000D01*
X43425297Y-25604278D01*
X43410736Y-25602118D01*
X43396457Y-25598541D01*
X43382597Y-25593582D01*
X43369290Y-25587288D01*
X43356664Y-25579720D01*
X43344841Y-25570952D01*
X43333934Y-25561066D01*
X43324048Y-25550159D01*
X43315280Y-25538336D01*
X43307712Y-25525710D01*
X43301418Y-25512403D01*
X43296459Y-25498543D01*
X43292882Y-25484264D01*
X43290722Y-25469703D01*
X43290000Y-25455000D01*
X43290000Y-25155000D01*
X43290722Y-25140297D01*
X43292882Y-25125736D01*
X43296459Y-25111457D01*
X43301418Y-25097597D01*
X43307712Y-25084290D01*
X43315280Y-25071664D01*
X43324048Y-25059841D01*
X43333934Y-25048934D01*
X43344841Y-25039048D01*
X43356664Y-25030280D01*
X43369290Y-25022712D01*
X43382597Y-25016418D01*
X43396457Y-25011459D01*
X43410736Y-25007882D01*
X43425297Y-25005722D01*
X43440000Y-25005000D01*
X45090000Y-25005000D01*
X45104703Y-25005722D01*
X45104703Y-25005722D01*
G37*
D17*
G04 #@! TD*
G04 #@! TO.P,U1,2*
G04 #@! TO.N,GND*
X44265000Y-25305000D03*
D15*
G04 #@! TO.N,+3V3*
G04 #@! TO.C,U1*
G36*
X45104703Y-26275722D02*
X45119264Y-26277882D01*
X45133543Y-26281459D01*
X45147403Y-26286418D01*
X45160710Y-26292712D01*
X45173336Y-26300280D01*
X45185159Y-26309048D01*
X45196066Y-26318934D01*
X45205952Y-26329841D01*
X45214720Y-26341664D01*
X45222288Y-26354290D01*
X45228582Y-26367597D01*
X45233541Y-26381457D01*
X45237118Y-26395736D01*
X45239278Y-26410297D01*
X45240000Y-26425000D01*
X45240000Y-26725000D01*
X45239278Y-26739703D01*
X45237118Y-26754264D01*
X45233541Y-26768543D01*
X45228582Y-26782403D01*
X45222288Y-26795710D01*
X45214720Y-26808336D01*
X45205952Y-26820159D01*
X45196066Y-26831066D01*
X45185159Y-26840952D01*
X45173336Y-26849720D01*
X45160710Y-26857288D01*
X45147403Y-26863582D01*
X45133543Y-26868541D01*
X45119264Y-26872118D01*
X45104703Y-26874278D01*
X45090000Y-26875000D01*
X43440000Y-26875000D01*
X43425297Y-26874278D01*
X43410736Y-26872118D01*
X43396457Y-26868541D01*
X43382597Y-26863582D01*
X43369290Y-26857288D01*
X43356664Y-26849720D01*
X43344841Y-26840952D01*
X43333934Y-26831066D01*
X43324048Y-26820159D01*
X43315280Y-26808336D01*
X43307712Y-26795710D01*
X43301418Y-26782403D01*
X43296459Y-26768543D01*
X43292882Y-26754264D01*
X43290722Y-26739703D01*
X43290000Y-26725000D01*
X43290000Y-26425000D01*
X43290722Y-26410297D01*
X43292882Y-26395736D01*
X43296459Y-26381457D01*
X43301418Y-26367597D01*
X43307712Y-26354290D01*
X43315280Y-26341664D01*
X43324048Y-26329841D01*
X43333934Y-26318934D01*
X43344841Y-26309048D01*
X43356664Y-26300280D01*
X43369290Y-26292712D01*
X43382597Y-26286418D01*
X43396457Y-26281459D01*
X43410736Y-26277882D01*
X43425297Y-26275722D01*
X43440000Y-26275000D01*
X45090000Y-26275000D01*
X45104703Y-26275722D01*
X45104703Y-26275722D01*
G37*
D17*
G04 #@! TD*
G04 #@! TO.P,U1,3*
G04 #@! TO.N,+3V3*
X44265000Y-26575000D03*
D15*
G04 #@! TO.N,RXD*
G04 #@! TO.C,U1*
G36*
X45104703Y-27545722D02*
X45119264Y-27547882D01*
X45133543Y-27551459D01*
X45147403Y-27556418D01*
X45160710Y-27562712D01*
X45173336Y-27570280D01*
X45185159Y-27579048D01*
X45196066Y-27588934D01*
X45205952Y-27599841D01*
X45214720Y-27611664D01*
X45222288Y-27624290D01*
X45228582Y-27637597D01*
X45233541Y-27651457D01*
X45237118Y-27665736D01*
X45239278Y-27680297D01*
X45240000Y-27695000D01*
X45240000Y-27995000D01*
X45239278Y-28009703D01*
X45237118Y-28024264D01*
X45233541Y-28038543D01*
X45228582Y-28052403D01*
X45222288Y-28065710D01*
X45214720Y-28078336D01*
X45205952Y-28090159D01*
X45196066Y-28101066D01*
X45185159Y-28110952D01*
X45173336Y-28119720D01*
X45160710Y-28127288D01*
X45147403Y-28133582D01*
X45133543Y-28138541D01*
X45119264Y-28142118D01*
X45104703Y-28144278D01*
X45090000Y-28145000D01*
X43440000Y-28145000D01*
X43425297Y-28144278D01*
X43410736Y-28142118D01*
X43396457Y-28138541D01*
X43382597Y-28133582D01*
X43369290Y-28127288D01*
X43356664Y-28119720D01*
X43344841Y-28110952D01*
X43333934Y-28101066D01*
X43324048Y-28090159D01*
X43315280Y-28078336D01*
X43307712Y-28065710D01*
X43301418Y-28052403D01*
X43296459Y-28038543D01*
X43292882Y-28024264D01*
X43290722Y-28009703D01*
X43290000Y-27995000D01*
X43290000Y-27695000D01*
X43290722Y-27680297D01*
X43292882Y-27665736D01*
X43296459Y-27651457D01*
X43301418Y-27637597D01*
X43307712Y-27624290D01*
X43315280Y-27611664D01*
X43324048Y-27599841D01*
X43333934Y-27588934D01*
X43344841Y-27579048D01*
X43356664Y-27570280D01*
X43369290Y-27562712D01*
X43382597Y-27556418D01*
X43396457Y-27551459D01*
X43410736Y-27547882D01*
X43425297Y-27545722D01*
X43440000Y-27545000D01*
X45090000Y-27545000D01*
X45104703Y-27545722D01*
X45104703Y-27545722D01*
G37*
D17*
G04 #@! TD*
G04 #@! TO.P,U1,4*
G04 #@! TO.N,RXD*
X44265000Y-27845000D03*
D15*
G04 #@! TO.N,Net-(R5-Pad1)*
G04 #@! TO.C,U1*
G36*
X50054703Y-27545722D02*
X50069264Y-27547882D01*
X50083543Y-27551459D01*
X50097403Y-27556418D01*
X50110710Y-27562712D01*
X50123336Y-27570280D01*
X50135159Y-27579048D01*
X50146066Y-27588934D01*
X50155952Y-27599841D01*
X50164720Y-27611664D01*
X50172288Y-27624290D01*
X50178582Y-27637597D01*
X50183541Y-27651457D01*
X50187118Y-27665736D01*
X50189278Y-27680297D01*
X50190000Y-27695000D01*
X50190000Y-27995000D01*
X50189278Y-28009703D01*
X50187118Y-28024264D01*
X50183541Y-28038543D01*
X50178582Y-28052403D01*
X50172288Y-28065710D01*
X50164720Y-28078336D01*
X50155952Y-28090159D01*
X50146066Y-28101066D01*
X50135159Y-28110952D01*
X50123336Y-28119720D01*
X50110710Y-28127288D01*
X50097403Y-28133582D01*
X50083543Y-28138541D01*
X50069264Y-28142118D01*
X50054703Y-28144278D01*
X50040000Y-28145000D01*
X48390000Y-28145000D01*
X48375297Y-28144278D01*
X48360736Y-28142118D01*
X48346457Y-28138541D01*
X48332597Y-28133582D01*
X48319290Y-28127288D01*
X48306664Y-28119720D01*
X48294841Y-28110952D01*
X48283934Y-28101066D01*
X48274048Y-28090159D01*
X48265280Y-28078336D01*
X48257712Y-28065710D01*
X48251418Y-28052403D01*
X48246459Y-28038543D01*
X48242882Y-28024264D01*
X48240722Y-28009703D01*
X48240000Y-27995000D01*
X48240000Y-27695000D01*
X48240722Y-27680297D01*
X48242882Y-27665736D01*
X48246459Y-27651457D01*
X48251418Y-27637597D01*
X48257712Y-27624290D01*
X48265280Y-27611664D01*
X48274048Y-27599841D01*
X48283934Y-27588934D01*
X48294841Y-27579048D01*
X48306664Y-27570280D01*
X48319290Y-27562712D01*
X48332597Y-27556418D01*
X48346457Y-27551459D01*
X48360736Y-27547882D01*
X48375297Y-27545722D01*
X48390000Y-27545000D01*
X50040000Y-27545000D01*
X50054703Y-27545722D01*
X50054703Y-27545722D01*
G37*
D17*
G04 #@! TD*
G04 #@! TO.P,U1,5*
G04 #@! TO.N,Net-(R5-Pad1)*
X49215000Y-27845000D03*
D15*
G04 #@! TO.N,CAN_L*
G04 #@! TO.C,U1*
G36*
X50054703Y-26275722D02*
X50069264Y-26277882D01*
X50083543Y-26281459D01*
X50097403Y-26286418D01*
X50110710Y-26292712D01*
X50123336Y-26300280D01*
X50135159Y-26309048D01*
X50146066Y-26318934D01*
X50155952Y-26329841D01*
X50164720Y-26341664D01*
X50172288Y-26354290D01*
X50178582Y-26367597D01*
X50183541Y-26381457D01*
X50187118Y-26395736D01*
X50189278Y-26410297D01*
X50190000Y-26425000D01*
X50190000Y-26725000D01*
X50189278Y-26739703D01*
X50187118Y-26754264D01*
X50183541Y-26768543D01*
X50178582Y-26782403D01*
X50172288Y-26795710D01*
X50164720Y-26808336D01*
X50155952Y-26820159D01*
X50146066Y-26831066D01*
X50135159Y-26840952D01*
X50123336Y-26849720D01*
X50110710Y-26857288D01*
X50097403Y-26863582D01*
X50083543Y-26868541D01*
X50069264Y-26872118D01*
X50054703Y-26874278D01*
X50040000Y-26875000D01*
X48390000Y-26875000D01*
X48375297Y-26874278D01*
X48360736Y-26872118D01*
X48346457Y-26868541D01*
X48332597Y-26863582D01*
X48319290Y-26857288D01*
X48306664Y-26849720D01*
X48294841Y-26840952D01*
X48283934Y-26831066D01*
X48274048Y-26820159D01*
X48265280Y-26808336D01*
X48257712Y-26795710D01*
X48251418Y-26782403D01*
X48246459Y-26768543D01*
X48242882Y-26754264D01*
X48240722Y-26739703D01*
X48240000Y-26725000D01*
X48240000Y-26425000D01*
X48240722Y-26410297D01*
X48242882Y-26395736D01*
X48246459Y-26381457D01*
X48251418Y-26367597D01*
X48257712Y-26354290D01*
X48265280Y-26341664D01*
X48274048Y-26329841D01*
X48283934Y-26318934D01*
X48294841Y-26309048D01*
X48306664Y-26300280D01*
X48319290Y-26292712D01*
X48332597Y-26286418D01*
X48346457Y-26281459D01*
X48360736Y-26277882D01*
X48375297Y-26275722D01*
X48390000Y-26275000D01*
X50040000Y-26275000D01*
X50054703Y-26275722D01*
X50054703Y-26275722D01*
G37*
D17*
G04 #@! TD*
G04 #@! TO.P,U1,6*
G04 #@! TO.N,CAN_L*
X49215000Y-26575000D03*
D15*
G04 #@! TO.N,CAN_H*
G04 #@! TO.C,U1*
G36*
X50054703Y-25005722D02*
X50069264Y-25007882D01*
X50083543Y-25011459D01*
X50097403Y-25016418D01*
X50110710Y-25022712D01*
X50123336Y-25030280D01*
X50135159Y-25039048D01*
X50146066Y-25048934D01*
X50155952Y-25059841D01*
X50164720Y-25071664D01*
X50172288Y-25084290D01*
X50178582Y-25097597D01*
X50183541Y-25111457D01*
X50187118Y-25125736D01*
X50189278Y-25140297D01*
X50190000Y-25155000D01*
X50190000Y-25455000D01*
X50189278Y-25469703D01*
X50187118Y-25484264D01*
X50183541Y-25498543D01*
X50178582Y-25512403D01*
X50172288Y-25525710D01*
X50164720Y-25538336D01*
X50155952Y-25550159D01*
X50146066Y-25561066D01*
X50135159Y-25570952D01*
X50123336Y-25579720D01*
X50110710Y-25587288D01*
X50097403Y-25593582D01*
X50083543Y-25598541D01*
X50069264Y-25602118D01*
X50054703Y-25604278D01*
X50040000Y-25605000D01*
X48390000Y-25605000D01*
X48375297Y-25604278D01*
X48360736Y-25602118D01*
X48346457Y-25598541D01*
X48332597Y-25593582D01*
X48319290Y-25587288D01*
X48306664Y-25579720D01*
X48294841Y-25570952D01*
X48283934Y-25561066D01*
X48274048Y-25550159D01*
X48265280Y-25538336D01*
X48257712Y-25525710D01*
X48251418Y-25512403D01*
X48246459Y-25498543D01*
X48242882Y-25484264D01*
X48240722Y-25469703D01*
X48240000Y-25455000D01*
X48240000Y-25155000D01*
X48240722Y-25140297D01*
X48242882Y-25125736D01*
X48246459Y-25111457D01*
X48251418Y-25097597D01*
X48257712Y-25084290D01*
X48265280Y-25071664D01*
X48274048Y-25059841D01*
X48283934Y-25048934D01*
X48294841Y-25039048D01*
X48306664Y-25030280D01*
X48319290Y-25022712D01*
X48332597Y-25016418D01*
X48346457Y-25011459D01*
X48360736Y-25007882D01*
X48375297Y-25005722D01*
X48390000Y-25005000D01*
X50040000Y-25005000D01*
X50054703Y-25005722D01*
X50054703Y-25005722D01*
G37*
D17*
G04 #@! TD*
G04 #@! TO.P,U1,7*
G04 #@! TO.N,CAN_H*
X49215000Y-25305000D03*
D15*
G04 #@! TO.N,Net-(J7-Pad1)*
G04 #@! TO.C,U1*
G36*
X50054703Y-23735722D02*
X50069264Y-23737882D01*
X50083543Y-23741459D01*
X50097403Y-23746418D01*
X50110710Y-23752712D01*
X50123336Y-23760280D01*
X50135159Y-23769048D01*
X50146066Y-23778934D01*
X50155952Y-23789841D01*
X50164720Y-23801664D01*
X50172288Y-23814290D01*
X50178582Y-23827597D01*
X50183541Y-23841457D01*
X50187118Y-23855736D01*
X50189278Y-23870297D01*
X50190000Y-23885000D01*
X50190000Y-24185000D01*
X50189278Y-24199703D01*
X50187118Y-24214264D01*
X50183541Y-24228543D01*
X50178582Y-24242403D01*
X50172288Y-24255710D01*
X50164720Y-24268336D01*
X50155952Y-24280159D01*
X50146066Y-24291066D01*
X50135159Y-24300952D01*
X50123336Y-24309720D01*
X50110710Y-24317288D01*
X50097403Y-24323582D01*
X50083543Y-24328541D01*
X50069264Y-24332118D01*
X50054703Y-24334278D01*
X50040000Y-24335000D01*
X48390000Y-24335000D01*
X48375297Y-24334278D01*
X48360736Y-24332118D01*
X48346457Y-24328541D01*
X48332597Y-24323582D01*
X48319290Y-24317288D01*
X48306664Y-24309720D01*
X48294841Y-24300952D01*
X48283934Y-24291066D01*
X48274048Y-24280159D01*
X48265280Y-24268336D01*
X48257712Y-24255710D01*
X48251418Y-24242403D01*
X48246459Y-24228543D01*
X48242882Y-24214264D01*
X48240722Y-24199703D01*
X48240000Y-24185000D01*
X48240000Y-23885000D01*
X48240722Y-23870297D01*
X48242882Y-23855736D01*
X48246459Y-23841457D01*
X48251418Y-23827597D01*
X48257712Y-23814290D01*
X48265280Y-23801664D01*
X48274048Y-23789841D01*
X48283934Y-23778934D01*
X48294841Y-23769048D01*
X48306664Y-23760280D01*
X48319290Y-23752712D01*
X48332597Y-23746418D01*
X48346457Y-23741459D01*
X48360736Y-23737882D01*
X48375297Y-23735722D01*
X48390000Y-23735000D01*
X50040000Y-23735000D01*
X50054703Y-23735722D01*
X50054703Y-23735722D01*
G37*
D17*
G04 #@! TD*
G04 #@! TO.P,U1,8*
G04 #@! TO.N,Net-(J7-Pad1)*
X49215000Y-24035000D03*
D15*
G04 #@! TO.N,CAN_L*
G04 #@! TO.C,R2*
G36*
X51627691Y-28251053D02*
X51648926Y-28254203D01*
X51669750Y-28259419D01*
X51689962Y-28266651D01*
X51709368Y-28275830D01*
X51727781Y-28286866D01*
X51745024Y-28299654D01*
X51760930Y-28314070D01*
X51775346Y-28329976D01*
X51788134Y-28347219D01*
X51799170Y-28365632D01*
X51808349Y-28385038D01*
X51815581Y-28405250D01*
X51820797Y-28426074D01*
X51823947Y-28447309D01*
X51825000Y-28468750D01*
X51825000Y-28906250D01*
X51823947Y-28927691D01*
X51820797Y-28948926D01*
X51815581Y-28969750D01*
X51808349Y-28989962D01*
X51799170Y-29009368D01*
X51788134Y-29027781D01*
X51775346Y-29045024D01*
X51760930Y-29060930D01*
X51745024Y-29075346D01*
X51727781Y-29088134D01*
X51709368Y-29099170D01*
X51689962Y-29108349D01*
X51669750Y-29115581D01*
X51648926Y-29120797D01*
X51627691Y-29123947D01*
X51606250Y-29125000D01*
X51093750Y-29125000D01*
X51072309Y-29123947D01*
X51051074Y-29120797D01*
X51030250Y-29115581D01*
X51010038Y-29108349D01*
X50990632Y-29099170D01*
X50972219Y-29088134D01*
X50954976Y-29075346D01*
X50939070Y-29060930D01*
X50924654Y-29045024D01*
X50911866Y-29027781D01*
X50900830Y-29009368D01*
X50891651Y-28989962D01*
X50884419Y-28969750D01*
X50879203Y-28948926D01*
X50876053Y-28927691D01*
X50875000Y-28906250D01*
X50875000Y-28468750D01*
X50876053Y-28447309D01*
X50879203Y-28426074D01*
X50884419Y-28405250D01*
X50891651Y-28385038D01*
X50900830Y-28365632D01*
X50911866Y-28347219D01*
X50924654Y-28329976D01*
X50939070Y-28314070D01*
X50954976Y-28299654D01*
X50972219Y-28286866D01*
X50990632Y-28275830D01*
X51010038Y-28266651D01*
X51030250Y-28259419D01*
X51051074Y-28254203D01*
X51072309Y-28251053D01*
X51093750Y-28250000D01*
X51606250Y-28250000D01*
X51627691Y-28251053D01*
X51627691Y-28251053D01*
G37*
D16*
G04 #@! TD*
G04 #@! TO.P,R2,2*
G04 #@! TO.N,CAN_L*
X51350000Y-28687500D03*
D15*
G04 #@! TO.N,CAN_H*
G04 #@! TO.C,R2*
G36*
X51627691Y-26676053D02*
X51648926Y-26679203D01*
X51669750Y-26684419D01*
X51689962Y-26691651D01*
X51709368Y-26700830D01*
X51727781Y-26711866D01*
X51745024Y-26724654D01*
X51760930Y-26739070D01*
X51775346Y-26754976D01*
X51788134Y-26772219D01*
X51799170Y-26790632D01*
X51808349Y-26810038D01*
X51815581Y-26830250D01*
X51820797Y-26851074D01*
X51823947Y-26872309D01*
X51825000Y-26893750D01*
X51825000Y-27331250D01*
X51823947Y-27352691D01*
X51820797Y-27373926D01*
X51815581Y-27394750D01*
X51808349Y-27414962D01*
X51799170Y-27434368D01*
X51788134Y-27452781D01*
X51775346Y-27470024D01*
X51760930Y-27485930D01*
X51745024Y-27500346D01*
X51727781Y-27513134D01*
X51709368Y-27524170D01*
X51689962Y-27533349D01*
X51669750Y-27540581D01*
X51648926Y-27545797D01*
X51627691Y-27548947D01*
X51606250Y-27550000D01*
X51093750Y-27550000D01*
X51072309Y-27548947D01*
X51051074Y-27545797D01*
X51030250Y-27540581D01*
X51010038Y-27533349D01*
X50990632Y-27524170D01*
X50972219Y-27513134D01*
X50954976Y-27500346D01*
X50939070Y-27485930D01*
X50924654Y-27470024D01*
X50911866Y-27452781D01*
X50900830Y-27434368D01*
X50891651Y-27414962D01*
X50884419Y-27394750D01*
X50879203Y-27373926D01*
X50876053Y-27352691D01*
X50875000Y-27331250D01*
X50875000Y-26893750D01*
X50876053Y-26872309D01*
X50879203Y-26851074D01*
X50884419Y-26830250D01*
X50891651Y-26810038D01*
X50900830Y-26790632D01*
X50911866Y-26772219D01*
X50924654Y-26754976D01*
X50939070Y-26739070D01*
X50954976Y-26724654D01*
X50972219Y-26711866D01*
X50990632Y-26700830D01*
X51010038Y-26691651D01*
X51030250Y-26684419D01*
X51051074Y-26679203D01*
X51072309Y-26676053D01*
X51093750Y-26675000D01*
X51606250Y-26675000D01*
X51627691Y-26676053D01*
X51627691Y-26676053D01*
G37*
D16*
G04 #@! TD*
G04 #@! TO.P,R2,1*
G04 #@! TO.N,CAN_H*
X51350000Y-27112500D03*
D15*
G04 #@! TO.N,+3V3*
G04 #@! TO.C,R1*
G36*
X51627691Y-23718553D02*
X51648926Y-23721703D01*
X51669750Y-23726919D01*
X51689962Y-23734151D01*
X51709368Y-23743330D01*
X51727781Y-23754366D01*
X51745024Y-23767154D01*
X51760930Y-23781570D01*
X51775346Y-23797476D01*
X51788134Y-23814719D01*
X51799170Y-23833132D01*
X51808349Y-23852538D01*
X51815581Y-23872750D01*
X51820797Y-23893574D01*
X51823947Y-23914809D01*
X51825000Y-23936250D01*
X51825000Y-24373750D01*
X51823947Y-24395191D01*
X51820797Y-24416426D01*
X51815581Y-24437250D01*
X51808349Y-24457462D01*
X51799170Y-24476868D01*
X51788134Y-24495281D01*
X51775346Y-24512524D01*
X51760930Y-24528430D01*
X51745024Y-24542846D01*
X51727781Y-24555634D01*
X51709368Y-24566670D01*
X51689962Y-24575849D01*
X51669750Y-24583081D01*
X51648926Y-24588297D01*
X51627691Y-24591447D01*
X51606250Y-24592500D01*
X51093750Y-24592500D01*
X51072309Y-24591447D01*
X51051074Y-24588297D01*
X51030250Y-24583081D01*
X51010038Y-24575849D01*
X50990632Y-24566670D01*
X50972219Y-24555634D01*
X50954976Y-24542846D01*
X50939070Y-24528430D01*
X50924654Y-24512524D01*
X50911866Y-24495281D01*
X50900830Y-24476868D01*
X50891651Y-24457462D01*
X50884419Y-24437250D01*
X50879203Y-24416426D01*
X50876053Y-24395191D01*
X50875000Y-24373750D01*
X50875000Y-23936250D01*
X50876053Y-23914809D01*
X50879203Y-23893574D01*
X50884419Y-23872750D01*
X50891651Y-23852538D01*
X50900830Y-23833132D01*
X50911866Y-23814719D01*
X50924654Y-23797476D01*
X50939070Y-23781570D01*
X50954976Y-23767154D01*
X50972219Y-23754366D01*
X50990632Y-23743330D01*
X51010038Y-23734151D01*
X51030250Y-23726919D01*
X51051074Y-23721703D01*
X51072309Y-23718553D01*
X51093750Y-23717500D01*
X51606250Y-23717500D01*
X51627691Y-23718553D01*
X51627691Y-23718553D01*
G37*
D16*
G04 #@! TD*
G04 #@! TO.P,R1,1*
G04 #@! TO.N,+3V3*
X51350000Y-24155000D03*
D15*
G04 #@! TO.N,Net-(J7-Pad1)*
G04 #@! TO.C,R1*
G36*
X51627691Y-25293553D02*
X51648926Y-25296703D01*
X51669750Y-25301919D01*
X51689962Y-25309151D01*
X51709368Y-25318330D01*
X51727781Y-25329366D01*
X51745024Y-25342154D01*
X51760930Y-25356570D01*
X51775346Y-25372476D01*
X51788134Y-25389719D01*
X51799170Y-25408132D01*
X51808349Y-25427538D01*
X51815581Y-25447750D01*
X51820797Y-25468574D01*
X51823947Y-25489809D01*
X51825000Y-25511250D01*
X51825000Y-25948750D01*
X51823947Y-25970191D01*
X51820797Y-25991426D01*
X51815581Y-26012250D01*
X51808349Y-26032462D01*
X51799170Y-26051868D01*
X51788134Y-26070281D01*
X51775346Y-26087524D01*
X51760930Y-26103430D01*
X51745024Y-26117846D01*
X51727781Y-26130634D01*
X51709368Y-26141670D01*
X51689962Y-26150849D01*
X51669750Y-26158081D01*
X51648926Y-26163297D01*
X51627691Y-26166447D01*
X51606250Y-26167500D01*
X51093750Y-26167500D01*
X51072309Y-26166447D01*
X51051074Y-26163297D01*
X51030250Y-26158081D01*
X51010038Y-26150849D01*
X50990632Y-26141670D01*
X50972219Y-26130634D01*
X50954976Y-26117846D01*
X50939070Y-26103430D01*
X50924654Y-26087524D01*
X50911866Y-26070281D01*
X50900830Y-26051868D01*
X50891651Y-26032462D01*
X50884419Y-26012250D01*
X50879203Y-25991426D01*
X50876053Y-25970191D01*
X50875000Y-25948750D01*
X50875000Y-25511250D01*
X50876053Y-25489809D01*
X50879203Y-25468574D01*
X50884419Y-25447750D01*
X50891651Y-25427538D01*
X50900830Y-25408132D01*
X50911866Y-25389719D01*
X50924654Y-25372476D01*
X50939070Y-25356570D01*
X50954976Y-25342154D01*
X50972219Y-25329366D01*
X50990632Y-25318330D01*
X51010038Y-25309151D01*
X51030250Y-25301919D01*
X51051074Y-25296703D01*
X51072309Y-25293553D01*
X51093750Y-25292500D01*
X51606250Y-25292500D01*
X51627691Y-25293553D01*
X51627691Y-25293553D01*
G37*
D16*
G04 #@! TD*
G04 #@! TO.P,R1,2*
G04 #@! TO.N,Net-(J7-Pad1)*
X51350000Y-25730000D03*
D18*
G04 #@! TO.N,GND*
X57610000Y-27350000D03*
X57620000Y-29850000D03*
X56590000Y-27350000D03*
X56560000Y-29870000D03*
X58280000Y-28610000D03*
X45910000Y-25330000D03*
X46020000Y-27880000D03*
X42350000Y-23850000D03*
X46920000Y-23920000D03*
X56230000Y-24620000D03*
X53720000Y-27330000D03*
X53710000Y-29840000D03*
X40110000Y-23460000D03*
X38050000Y-23590000D03*
X39920000Y-28090000D03*
X54310000Y-33110000D03*
X57660000Y-33420000D03*
G04 #@! TO.N,+3V3*
X51970000Y-32770000D03*
X47650000Y-27070000D03*
G04 #@! TD*
D19*
G04 #@! TO.N,+3V3*
X42472501Y-26575000D02*
X42300000Y-26747501D01*
X44265000Y-26575000D02*
X42472501Y-26575000D01*
X51640000Y-21100000D02*
X51400000Y-21340000D01*
X51400000Y-24105000D02*
X51350000Y-24155000D01*
X51400000Y-21340000D02*
X51400000Y-22960000D01*
X51400000Y-22960000D02*
X51400000Y-24105000D01*
X42140000Y-22960000D02*
X41170000Y-23930000D01*
X41170000Y-25617501D02*
X42300000Y-26747501D01*
X41170000Y-23930000D02*
X41170000Y-25617501D01*
D20*
X51350000Y-31647500D02*
X51350000Y-32150000D01*
X51350000Y-32150000D02*
X51970000Y-32770000D01*
X47650000Y-22960000D02*
X47650000Y-27070000D01*
D19*
X51400000Y-22960000D02*
X47650000Y-22960000D01*
X47650000Y-22960000D02*
X42140000Y-22960000D01*
D20*
G04 #@! TO.N,Net-(J7-Pad1)*
X50540000Y-24620000D02*
X50540000Y-25130000D01*
X50540000Y-25130000D02*
X51350000Y-25940000D01*
X49215000Y-24035000D02*
X49955000Y-24035000D01*
X49955000Y-24035000D02*
X50540000Y-24620000D01*
X51860000Y-25940000D02*
X51350000Y-25940000D01*
X53900000Y-23900000D02*
X51860000Y-25940000D01*
G04 #@! TO.N,CAN_L*
X51737500Y-28897500D02*
X53940000Y-31100000D01*
X53940000Y-31100000D02*
X55490000Y-31100000D01*
X49915000Y-26575000D02*
X50540000Y-27200000D01*
X50540000Y-27910000D02*
X51527500Y-28897500D01*
X49215000Y-26575000D02*
X49915000Y-26575000D01*
X50540000Y-27200000D02*
X50540000Y-27910000D01*
X51527500Y-28897500D02*
X51737500Y-28897500D01*
G04 #@! TO.N,CAN_H*
X53870000Y-26100000D02*
X55490000Y-26100000D01*
X52850000Y-27120000D02*
X53870000Y-26100000D01*
X49895000Y-25305000D02*
X50530000Y-25940000D01*
X50530000Y-25940000D02*
X50530000Y-26270000D01*
X51380000Y-27120000D02*
X52850000Y-27120000D01*
X49215000Y-25305000D02*
X49895000Y-25305000D01*
X50530000Y-26270000D02*
X51380000Y-27120000D01*
G04 #@! TO.N,TXD*
X46930000Y-27430000D02*
X46930000Y-24890000D01*
X46075000Y-24035000D02*
X44265000Y-24035000D01*
X50620000Y-32540000D02*
X50620000Y-29740000D01*
X50620000Y-29740000D02*
X49270000Y-28390000D01*
X49270000Y-28390000D02*
X47890000Y-28390000D01*
X47890000Y-28390000D02*
X46930000Y-27430000D01*
X46930000Y-24890000D02*
X46075000Y-24035000D01*
X54180000Y-36100000D02*
X50620000Y-32540000D01*
G04 #@! TO.N,RXD*
X33860000Y-22302081D02*
X34317919Y-22760000D01*
X33860000Y-21100000D02*
X33860000Y-22302081D01*
X34317919Y-22760000D02*
X38190000Y-22760000D01*
X38190000Y-22760000D02*
X40040000Y-24610000D01*
X40040000Y-24610000D02*
X40040000Y-27220000D01*
X40665000Y-27845000D02*
X44265000Y-27845000D01*
X40040000Y-27220000D02*
X40665000Y-27845000D01*
G04 #@! TO.N,Net-(R5-Pad1)*
X51350000Y-29920000D02*
X51350000Y-30282500D01*
X49215000Y-27845000D02*
X49275000Y-27845000D01*
X49275000Y-27845000D02*
X51350000Y-29920000D01*
G04 #@! TD*
G04 #@! TO.N,GND*
G36*
X50396894Y-32763106D02*
X50408882Y-32772944D01*
X53223219Y-35587282D01*
X53172277Y-35682587D01*
X53110206Y-35887205D01*
X53089248Y-36100000D01*
X53110206Y-36312795D01*
X53172277Y-36517413D01*
X53273073Y-36705989D01*
X53408722Y-36871278D01*
X53574011Y-37006927D01*
X53762587Y-37107723D01*
X53867340Y-37139500D01*
X52070042Y-37139500D01*
X52153269Y-37105031D01*
X52339479Y-36985586D01*
X52498808Y-36832108D01*
X52625133Y-36650496D01*
X52713600Y-36447729D01*
X52685154Y-36275500D01*
X51815500Y-36275500D01*
X51815500Y-36295500D01*
X51464500Y-36295500D01*
X51464500Y-36275500D01*
X50594846Y-36275500D01*
X50566400Y-36447729D01*
X50654867Y-36650496D01*
X50781192Y-36832108D01*
X50881349Y-36928587D01*
X50722392Y-36798944D01*
X50577054Y-36623260D01*
X50468610Y-36422696D01*
X50401185Y-36204882D01*
X50376074Y-35965964D01*
X50376074Y-35752271D01*
X50566400Y-35752271D01*
X50594846Y-35924500D01*
X51464500Y-35924500D01*
X51464500Y-35055770D01*
X51815500Y-35055770D01*
X51815500Y-35924500D01*
X52685154Y-35924500D01*
X52713600Y-35752271D01*
X52625133Y-35549504D01*
X52498808Y-35367892D01*
X52339479Y-35214414D01*
X52153269Y-35094969D01*
X51987728Y-35026409D01*
X51815500Y-35055770D01*
X51464500Y-35055770D01*
X51292272Y-35026409D01*
X51126731Y-35094969D01*
X50940521Y-35214414D01*
X50781192Y-35367892D01*
X50654867Y-35549504D01*
X50566400Y-35752271D01*
X50376074Y-35752271D01*
X50376074Y-32737736D01*
X50396894Y-32763106D01*
X50396894Y-32763106D01*
G37*
X50396894Y-32763106D02*
X50408882Y-32772944D01*
X53223219Y-35587282D01*
X53172277Y-35682587D01*
X53110206Y-35887205D01*
X53089248Y-36100000D01*
X53110206Y-36312795D01*
X53172277Y-36517413D01*
X53273073Y-36705989D01*
X53408722Y-36871278D01*
X53574011Y-37006927D01*
X53762587Y-37107723D01*
X53867340Y-37139500D01*
X52070042Y-37139500D01*
X52153269Y-37105031D01*
X52339479Y-36985586D01*
X52498808Y-36832108D01*
X52625133Y-36650496D01*
X52713600Y-36447729D01*
X52685154Y-36275500D01*
X51815500Y-36275500D01*
X51815500Y-36295500D01*
X51464500Y-36295500D01*
X51464500Y-36275500D01*
X50594846Y-36275500D01*
X50566400Y-36447729D01*
X50654867Y-36650496D01*
X50781192Y-36832108D01*
X50881349Y-36928587D01*
X50722392Y-36798944D01*
X50577054Y-36623260D01*
X50468610Y-36422696D01*
X50401185Y-36204882D01*
X50376074Y-35965964D01*
X50376074Y-35752271D01*
X50566400Y-35752271D01*
X50594846Y-35924500D01*
X51464500Y-35924500D01*
X51464500Y-35055770D01*
X51815500Y-35055770D01*
X51815500Y-35924500D01*
X52685154Y-35924500D01*
X52713600Y-35752271D01*
X52625133Y-35549504D01*
X52498808Y-35367892D01*
X52339479Y-35214414D01*
X52153269Y-35094969D01*
X51987728Y-35026409D01*
X51815500Y-35055770D01*
X51464500Y-35055770D01*
X51292272Y-35026409D01*
X51126731Y-35094969D01*
X50940521Y-35214414D01*
X50781192Y-35367892D01*
X50654867Y-35549504D01*
X50566400Y-35752271D01*
X50376074Y-35752271D01*
X50376074Y-32737736D01*
X50396894Y-32763106D01*
G36*
X53762587Y-20092277D02*
X53574011Y-20193073D01*
X53408722Y-20328722D01*
X53273073Y-20494011D01*
X53172277Y-20682587D01*
X53110206Y-20887205D01*
X53089248Y-21100000D01*
X53110206Y-21312795D01*
X53172277Y-21517413D01*
X53273073Y-21705989D01*
X53408722Y-21871278D01*
X53574011Y-22006927D01*
X53762587Y-22107723D01*
X53967205Y-22169794D01*
X54126674Y-22185500D01*
X54233326Y-22185500D01*
X54392795Y-22169794D01*
X54597413Y-22107723D01*
X54785989Y-22006927D01*
X54951278Y-21871278D01*
X55086927Y-21705989D01*
X55187723Y-21517413D01*
X55208861Y-21447729D01*
X55646400Y-21447729D01*
X55734867Y-21650496D01*
X55861192Y-21832108D01*
X56020521Y-21985586D01*
X56206731Y-22105031D01*
X56372272Y-22173591D01*
X56544500Y-22144230D01*
X56544500Y-21275500D01*
X56895500Y-21275500D01*
X56895500Y-22144230D01*
X57067728Y-22173591D01*
X57233269Y-22105031D01*
X57419479Y-21985586D01*
X57578808Y-21832108D01*
X57705133Y-21650496D01*
X57793600Y-21447729D01*
X57765154Y-21275500D01*
X56895500Y-21275500D01*
X56544500Y-21275500D01*
X55674846Y-21275500D01*
X55646400Y-21447729D01*
X55208861Y-21447729D01*
X55249794Y-21312795D01*
X55270752Y-21100000D01*
X55249794Y-20887205D01*
X55187723Y-20682587D01*
X55086927Y-20494011D01*
X54951278Y-20328722D01*
X54785989Y-20193073D01*
X54597413Y-20092277D01*
X54492660Y-20060500D01*
X56289958Y-20060500D01*
X56206731Y-20094969D01*
X56020521Y-20214414D01*
X55861192Y-20367892D01*
X55734867Y-20549504D01*
X55646400Y-20752271D01*
X55674846Y-20924500D01*
X56544500Y-20924500D01*
X56544500Y-20904500D01*
X56895500Y-20904500D01*
X56895500Y-20924500D01*
X57765154Y-20924500D01*
X57793600Y-20752271D01*
X57705133Y-20549504D01*
X57578808Y-20367892D01*
X57419479Y-20214414D01*
X57233269Y-20094969D01*
X57150042Y-20060500D01*
X58947340Y-20060500D01*
X58842587Y-20092277D01*
X58654011Y-20193073D01*
X58488722Y-20328722D01*
X58353073Y-20494011D01*
X58252277Y-20682587D01*
X58190206Y-20887205D01*
X58169248Y-21100000D01*
X58190206Y-21312795D01*
X58252277Y-21517413D01*
X58353073Y-21705989D01*
X58488722Y-21871278D01*
X58654011Y-22006927D01*
X58842587Y-22107723D01*
X59047205Y-22169794D01*
X59206674Y-22185500D01*
X59313326Y-22185500D01*
X59472795Y-22169794D01*
X59677413Y-22107723D01*
X59865989Y-22006927D01*
X59907853Y-21972570D01*
X60911500Y-21972570D01*
X60911500Y-22654875D01*
X60981125Y-22724500D01*
X61914500Y-22724500D01*
X61914500Y-21791125D01*
X61844875Y-21721500D01*
X61162570Y-21721500D01*
X61108765Y-21732203D01*
X61058081Y-21753196D01*
X61012467Y-21783675D01*
X60973675Y-21822466D01*
X60943197Y-21868081D01*
X60922203Y-21918764D01*
X60911500Y-21972570D01*
X59907853Y-21972570D01*
X60031278Y-21871278D01*
X60166927Y-21705989D01*
X60267723Y-21517413D01*
X60329794Y-21312795D01*
X60350752Y-21100000D01*
X60329794Y-20887205D01*
X60267723Y-20682587D01*
X60166927Y-20494011D01*
X60031278Y-20328722D01*
X59865989Y-20193073D01*
X59677413Y-20092277D01*
X59572660Y-20060500D01*
X62887260Y-20060500D01*
X62907432Y-20062478D01*
X62914573Y-20064634D01*
X62921165Y-20068139D01*
X62926955Y-20072861D01*
X62931710Y-20078608D01*
X62935262Y-20085179D01*
X62937470Y-20092311D01*
X62939500Y-20111624D01*
X62939500Y-21721500D01*
X62335125Y-21721500D01*
X62265500Y-21791125D01*
X62265500Y-22724500D01*
X62285500Y-22724500D01*
X62285500Y-23075500D01*
X62265500Y-23075500D01*
X62265500Y-24008875D01*
X62335125Y-24078500D01*
X62939500Y-24078500D01*
X62939501Y-33121500D01*
X62335125Y-33121500D01*
X62265500Y-33191125D01*
X62265500Y-34124500D01*
X62285500Y-34124500D01*
X62285500Y-34475500D01*
X62265500Y-34475500D01*
X62265500Y-35408875D01*
X62335125Y-35478500D01*
X62939501Y-35478500D01*
X62939501Y-37087250D01*
X62937522Y-37107432D01*
X62935366Y-37114575D01*
X62931862Y-37121163D01*
X62927140Y-37126954D01*
X62921389Y-37131711D01*
X62914821Y-37135263D01*
X62907690Y-37137470D01*
X62888376Y-37139500D01*
X59586974Y-37139500D01*
X59774177Y-37061957D01*
X59951966Y-36943163D01*
X60103163Y-36791966D01*
X60221957Y-36614177D01*
X60303785Y-36416629D01*
X60345500Y-36206912D01*
X60345500Y-35993088D01*
X60303785Y-35783371D01*
X60221957Y-35585823D01*
X60103163Y-35408034D01*
X59951966Y-35256837D01*
X59774177Y-35138043D01*
X59576629Y-35056215D01*
X59366912Y-35014500D01*
X59153088Y-35014500D01*
X58943371Y-35056215D01*
X58745823Y-35138043D01*
X58568034Y-35256837D01*
X58416837Y-35408034D01*
X58298043Y-35585823D01*
X58216215Y-35783371D01*
X58174500Y-35993088D01*
X58174500Y-36206912D01*
X58216215Y-36416629D01*
X58298043Y-36614177D01*
X58416837Y-36791966D01*
X58568034Y-36943163D01*
X58745823Y-37061957D01*
X58933026Y-37139500D01*
X57032660Y-37139500D01*
X57137413Y-37107723D01*
X57325989Y-37006927D01*
X57491278Y-36871278D01*
X57626927Y-36705989D01*
X57727723Y-36517413D01*
X57789794Y-36312795D01*
X57810752Y-36100000D01*
X57789794Y-35887205D01*
X57727723Y-35682587D01*
X57626927Y-35494011D01*
X57491278Y-35328722D01*
X57325989Y-35193073D01*
X57137413Y-35092277D01*
X56932795Y-35030206D01*
X56773326Y-35014500D01*
X56666674Y-35014500D01*
X56507205Y-35030206D01*
X56302587Y-35092277D01*
X56114011Y-35193073D01*
X55948722Y-35328722D01*
X55813073Y-35494011D01*
X55712277Y-35682587D01*
X55650206Y-35887205D01*
X55629248Y-36100000D01*
X55650206Y-36312795D01*
X55712277Y-36517413D01*
X55813073Y-36705989D01*
X55948722Y-36871278D01*
X56114011Y-37006927D01*
X56302587Y-37107723D01*
X56407340Y-37139500D01*
X54492660Y-37139500D01*
X54597413Y-37107723D01*
X54785989Y-37006927D01*
X54951278Y-36871278D01*
X55086927Y-36705989D01*
X55187723Y-36517413D01*
X55249794Y-36312795D01*
X55270752Y-36100000D01*
X55249794Y-35887205D01*
X55187723Y-35682587D01*
X55086927Y-35494011D01*
X54951278Y-35328722D01*
X54785989Y-35193073D01*
X54597413Y-35092277D01*
X54392795Y-35030206D01*
X54233326Y-35014500D01*
X54126674Y-35014500D01*
X53967205Y-35030206D01*
X53762587Y-35092277D01*
X53667282Y-35143219D01*
X53069188Y-34545125D01*
X60911500Y-34545125D01*
X60911500Y-35227430D01*
X60922203Y-35281236D01*
X60943197Y-35331919D01*
X60973675Y-35377534D01*
X61012467Y-35416325D01*
X61058081Y-35446804D01*
X61108765Y-35467797D01*
X61162570Y-35478500D01*
X61844875Y-35478500D01*
X61914500Y-35408875D01*
X61914500Y-34475500D01*
X60981125Y-34475500D01*
X60911500Y-34545125D01*
X53069188Y-34545125D01*
X51805577Y-33281515D01*
X51813800Y-33284921D01*
X51917258Y-33305500D01*
X52022742Y-33305500D01*
X52126200Y-33284921D01*
X52223654Y-33244554D01*
X52311361Y-33185950D01*
X52385950Y-33111361D01*
X52444554Y-33023654D01*
X52484921Y-32926200D01*
X52505500Y-32822742D01*
X52505500Y-32717258D01*
X52484921Y-32613800D01*
X52444554Y-32516346D01*
X52413587Y-32470000D01*
X58109248Y-32470000D01*
X58130206Y-32682795D01*
X58192277Y-32887413D01*
X58293073Y-33075989D01*
X58428722Y-33241278D01*
X58594011Y-33376927D01*
X58782587Y-33477723D01*
X58987205Y-33539794D01*
X59146674Y-33555500D01*
X59253326Y-33555500D01*
X59412795Y-33539794D01*
X59617413Y-33477723D01*
X59805989Y-33376927D01*
X59811298Y-33372570D01*
X60911500Y-33372570D01*
X60911500Y-34054875D01*
X60981125Y-34124500D01*
X61914500Y-34124500D01*
X61914500Y-33191125D01*
X61844875Y-33121500D01*
X61162570Y-33121500D01*
X61108765Y-33132203D01*
X61058081Y-33153196D01*
X61012467Y-33183675D01*
X60973675Y-33222466D01*
X60943197Y-33268081D01*
X60922203Y-33318764D01*
X60911500Y-33372570D01*
X59811298Y-33372570D01*
X59971278Y-33241278D01*
X60106927Y-33075989D01*
X60207723Y-32887413D01*
X60269794Y-32682795D01*
X60290752Y-32470000D01*
X60269794Y-32257205D01*
X60207723Y-32052587D01*
X60106927Y-31864011D01*
X59971278Y-31698722D01*
X59805989Y-31563073D01*
X59617413Y-31462277D01*
X59412795Y-31400206D01*
X59253326Y-31384500D01*
X59146674Y-31384500D01*
X58987205Y-31400206D01*
X58782587Y-31462277D01*
X58594011Y-31563073D01*
X58428722Y-31698722D01*
X58293073Y-31864011D01*
X58192277Y-32052587D01*
X58130206Y-32257205D01*
X58109248Y-32470000D01*
X52413587Y-32470000D01*
X52385950Y-32428639D01*
X52311361Y-32354050D01*
X52223654Y-32295446D01*
X52126200Y-32255079D01*
X52022742Y-32234500D01*
X51917258Y-32234500D01*
X51884982Y-32240920D01*
X51875566Y-32231503D01*
X51928259Y-32188259D01*
X51984892Y-32119251D01*
X52026975Y-32040520D01*
X52052889Y-31955092D01*
X52061639Y-31866250D01*
X52061639Y-31428750D01*
X52052889Y-31339908D01*
X52026975Y-31254480D01*
X51984892Y-31175749D01*
X51928259Y-31106741D01*
X51859251Y-31050108D01*
X51780520Y-31008025D01*
X51695092Y-30982111D01*
X51606250Y-30973361D01*
X51093750Y-30973361D01*
X51004908Y-30982111D01*
X50934000Y-31003620D01*
X50934000Y-30716380D01*
X51004908Y-30737889D01*
X51093750Y-30746639D01*
X51606250Y-30746639D01*
X51695092Y-30737889D01*
X51780520Y-30711975D01*
X51859251Y-30669892D01*
X51928259Y-30613259D01*
X51984892Y-30544251D01*
X52026975Y-30465520D01*
X52052889Y-30380092D01*
X52061639Y-30291250D01*
X52061639Y-29853750D01*
X52052889Y-29764908D01*
X52026975Y-29679480D01*
X51984892Y-29600749D01*
X51930914Y-29534976D01*
X53003361Y-30607424D01*
X53003361Y-31750000D01*
X53007908Y-31796166D01*
X53021374Y-31840558D01*
X53043242Y-31881470D01*
X53072671Y-31917329D01*
X53108530Y-31946758D01*
X53149442Y-31968626D01*
X53193834Y-31982092D01*
X53240000Y-31986639D01*
X57740000Y-31986639D01*
X57786166Y-31982092D01*
X57830558Y-31968626D01*
X57871470Y-31946758D01*
X57907329Y-31917329D01*
X57936758Y-31881470D01*
X57958626Y-31840558D01*
X57972092Y-31796166D01*
X57976639Y-31750000D01*
X57976639Y-30450000D01*
X57972092Y-30403834D01*
X57958626Y-30359442D01*
X57936758Y-30318530D01*
X57907329Y-30282671D01*
X57871470Y-30253242D01*
X57830558Y-30231374D01*
X57786166Y-30217908D01*
X57740000Y-30213361D01*
X53497424Y-30213361D01*
X53107151Y-29823088D01*
X58114500Y-29823088D01*
X58114500Y-30036912D01*
X58156215Y-30246629D01*
X58238043Y-30444177D01*
X58356837Y-30621966D01*
X58508034Y-30773163D01*
X58685823Y-30891957D01*
X58883371Y-30973785D01*
X59093088Y-31015500D01*
X59306912Y-31015500D01*
X59516629Y-30973785D01*
X59714177Y-30891957D01*
X59891966Y-30773163D01*
X60043163Y-30621966D01*
X60161957Y-30444177D01*
X60243785Y-30246629D01*
X60285500Y-30036912D01*
X60285500Y-29823088D01*
X60243785Y-29613371D01*
X60161957Y-29415823D01*
X60043163Y-29238034D01*
X59891966Y-29086837D01*
X59714177Y-28968043D01*
X59516629Y-28886215D01*
X59306912Y-28844500D01*
X59093088Y-28844500D01*
X58883371Y-28886215D01*
X58685823Y-28968043D01*
X58508034Y-29086837D01*
X58356837Y-29238034D01*
X58238043Y-29415823D01*
X58156215Y-29613371D01*
X58114500Y-29823088D01*
X53107151Y-29823088D01*
X52129188Y-28845125D01*
X52961500Y-28845125D01*
X52961500Y-29277430D01*
X52972203Y-29331236D01*
X52993197Y-29381919D01*
X53023675Y-29427534D01*
X53062467Y-29466325D01*
X53108081Y-29496804D01*
X53158765Y-29517797D01*
X53212570Y-29528500D01*
X55244875Y-29528500D01*
X55314500Y-29458875D01*
X55314500Y-28775500D01*
X55665500Y-28775500D01*
X55665500Y-29458875D01*
X55735125Y-29528500D01*
X57767430Y-29528500D01*
X57821235Y-29517797D01*
X57871919Y-29496804D01*
X57917533Y-29466325D01*
X57956325Y-29427534D01*
X57986803Y-29381919D01*
X58007797Y-29331236D01*
X58018500Y-29277430D01*
X58018500Y-28845125D01*
X57948875Y-28775500D01*
X55665500Y-28775500D01*
X55314500Y-28775500D01*
X53031125Y-28775500D01*
X52961500Y-28845125D01*
X52129188Y-28845125D01*
X52061639Y-28777577D01*
X52061639Y-28468750D01*
X52052889Y-28379908D01*
X52026975Y-28294480D01*
X51984892Y-28215749D01*
X51928259Y-28146741D01*
X51859251Y-28090108D01*
X51780520Y-28048025D01*
X51695092Y-28022111D01*
X51606250Y-28013361D01*
X51093750Y-28013361D01*
X51087991Y-28013928D01*
X50996633Y-27922570D01*
X52961500Y-27922570D01*
X52961500Y-28354875D01*
X53031125Y-28424500D01*
X55314500Y-28424500D01*
X55314500Y-27741125D01*
X55665500Y-27741125D01*
X55665500Y-28424500D01*
X57948875Y-28424500D01*
X58018500Y-28354875D01*
X58018500Y-27922570D01*
X58007797Y-27868764D01*
X57986803Y-27818081D01*
X57956325Y-27772466D01*
X57917533Y-27733675D01*
X57871919Y-27703196D01*
X57821235Y-27682203D01*
X57767430Y-27671500D01*
X55735125Y-27671500D01*
X55665500Y-27741125D01*
X55314500Y-27741125D01*
X55244875Y-27671500D01*
X53212570Y-27671500D01*
X53158765Y-27682203D01*
X53108081Y-27703196D01*
X53062467Y-27733675D01*
X53023675Y-27772466D01*
X52993197Y-27818081D01*
X52972203Y-27868764D01*
X52961500Y-27922570D01*
X50996633Y-27922570D01*
X50854000Y-27779938D01*
X50854000Y-27716975D01*
X50919480Y-27751975D01*
X51004908Y-27777889D01*
X51093750Y-27786639D01*
X51606250Y-27786639D01*
X51695092Y-27777889D01*
X51780520Y-27751975D01*
X51859251Y-27709892D01*
X51928259Y-27653259D01*
X51984892Y-27584251D01*
X52026975Y-27505520D01*
X52048670Y-27434000D01*
X52834579Y-27434000D01*
X52850000Y-27435519D01*
X52865421Y-27434000D01*
X52865422Y-27434000D01*
X52911555Y-27429456D01*
X52970744Y-27411502D01*
X53010970Y-27390000D01*
X58109248Y-27390000D01*
X58130206Y-27602795D01*
X58192277Y-27807413D01*
X58293073Y-27995989D01*
X58428722Y-28161278D01*
X58594011Y-28296927D01*
X58782587Y-28397723D01*
X58987205Y-28459794D01*
X59146674Y-28475500D01*
X59253326Y-28475500D01*
X59412795Y-28459794D01*
X59617413Y-28397723D01*
X59805989Y-28296927D01*
X59971278Y-28161278D01*
X60106927Y-27995989D01*
X60207723Y-27807413D01*
X60269794Y-27602795D01*
X60290752Y-27390000D01*
X60269794Y-27177205D01*
X60207723Y-26972587D01*
X60106927Y-26784011D01*
X59971278Y-26618722D01*
X59805989Y-26483073D01*
X59617413Y-26382277D01*
X59412795Y-26320206D01*
X59253326Y-26304500D01*
X59146674Y-26304500D01*
X58987205Y-26320206D01*
X58782587Y-26382277D01*
X58594011Y-26483073D01*
X58428722Y-26618722D01*
X58293073Y-26784011D01*
X58192277Y-26972587D01*
X58130206Y-27177205D01*
X58109248Y-27390000D01*
X53010970Y-27390000D01*
X53025293Y-27382344D01*
X53073106Y-27343106D01*
X53082944Y-27331118D01*
X53427423Y-26986639D01*
X57740000Y-26986639D01*
X57786166Y-26982092D01*
X57830558Y-26968626D01*
X57871470Y-26946758D01*
X57907329Y-26917329D01*
X57936758Y-26881470D01*
X57958626Y-26840558D01*
X57972092Y-26796166D01*
X57976639Y-26750000D01*
X57976639Y-25450000D01*
X57972092Y-25403834D01*
X57958626Y-25359442D01*
X57936758Y-25318530D01*
X57907329Y-25282671D01*
X57871470Y-25253242D01*
X57830558Y-25231374D01*
X57786166Y-25217908D01*
X57740000Y-25213361D01*
X53240000Y-25213361D01*
X53193834Y-25217908D01*
X53149442Y-25231374D01*
X53108530Y-25253242D01*
X53072671Y-25282671D01*
X53043242Y-25318530D01*
X53021374Y-25359442D01*
X53007908Y-25403834D01*
X53003361Y-25450000D01*
X53003361Y-26522577D01*
X52719938Y-26806000D01*
X52052997Y-26806000D01*
X52052889Y-26804908D01*
X52026975Y-26719480D01*
X51984892Y-26640749D01*
X51928259Y-26571741D01*
X51859251Y-26515108D01*
X51780520Y-26473025D01*
X51695092Y-26447111D01*
X51606250Y-26438361D01*
X51142423Y-26438361D01*
X51108201Y-26404139D01*
X51606250Y-26404139D01*
X51695092Y-26395389D01*
X51780520Y-26369475D01*
X51859251Y-26327392D01*
X51928259Y-26270759D01*
X51953758Y-26239688D01*
X51980744Y-26231502D01*
X52035293Y-26202344D01*
X52083106Y-26163106D01*
X52092944Y-26151118D01*
X53383595Y-24860468D01*
X53385823Y-24861957D01*
X53583371Y-24943785D01*
X53793088Y-24985500D01*
X54006912Y-24985500D01*
X54216629Y-24943785D01*
X54414177Y-24861957D01*
X54591966Y-24743163D01*
X54592041Y-24743088D01*
X58114500Y-24743088D01*
X58114500Y-24956912D01*
X58156215Y-25166629D01*
X58238043Y-25364177D01*
X58356837Y-25541966D01*
X58508034Y-25693163D01*
X58685823Y-25811957D01*
X58883371Y-25893785D01*
X59093088Y-25935500D01*
X59306912Y-25935500D01*
X59516629Y-25893785D01*
X59714177Y-25811957D01*
X59891966Y-25693163D01*
X60043163Y-25541966D01*
X60161957Y-25364177D01*
X60243785Y-25166629D01*
X60285500Y-24956912D01*
X60285500Y-24743088D01*
X60243785Y-24533371D01*
X60161957Y-24335823D01*
X60043163Y-24158034D01*
X59891966Y-24006837D01*
X59714177Y-23888043D01*
X59516629Y-23806215D01*
X59306912Y-23764500D01*
X59093088Y-23764500D01*
X58883371Y-23806215D01*
X58685823Y-23888043D01*
X58508034Y-24006837D01*
X58356837Y-24158034D01*
X58238043Y-24335823D01*
X58156215Y-24533371D01*
X58114500Y-24743088D01*
X54592041Y-24743088D01*
X54743163Y-24591966D01*
X54861957Y-24414177D01*
X54943785Y-24216629D01*
X54985500Y-24006912D01*
X54985500Y-23793088D01*
X54943785Y-23583371D01*
X54861957Y-23385823D01*
X54743163Y-23208034D01*
X54680254Y-23145125D01*
X60911500Y-23145125D01*
X60911500Y-23827430D01*
X60922203Y-23881236D01*
X60943197Y-23931919D01*
X60973675Y-23977534D01*
X61012467Y-24016325D01*
X61058081Y-24046804D01*
X61108765Y-24067797D01*
X61162570Y-24078500D01*
X61844875Y-24078500D01*
X61914500Y-24008875D01*
X61914500Y-23075500D01*
X60981125Y-23075500D01*
X60911500Y-23145125D01*
X54680254Y-23145125D01*
X54591966Y-23056837D01*
X54414177Y-22938043D01*
X54216629Y-22856215D01*
X54006912Y-22814500D01*
X53793088Y-22814500D01*
X53583371Y-22856215D01*
X53385823Y-22938043D01*
X53208034Y-23056837D01*
X53056837Y-23208034D01*
X52938043Y-23385823D01*
X52856215Y-23583371D01*
X52814500Y-23793088D01*
X52814500Y-24006912D01*
X52856215Y-24216629D01*
X52938043Y-24414177D01*
X52939532Y-24416405D01*
X52024182Y-25331755D01*
X51984892Y-25258249D01*
X51928259Y-25189241D01*
X51859251Y-25132608D01*
X51780520Y-25090525D01*
X51695092Y-25064611D01*
X51606250Y-25055861D01*
X51093750Y-25055861D01*
X51004908Y-25064611D01*
X50938744Y-25084681D01*
X50854000Y-24999938D01*
X50854000Y-24759475D01*
X50919480Y-24794475D01*
X51004908Y-24820389D01*
X51093750Y-24829139D01*
X51606250Y-24829139D01*
X51695092Y-24820389D01*
X51780520Y-24794475D01*
X51859251Y-24752392D01*
X51928259Y-24695759D01*
X51984892Y-24626751D01*
X52026975Y-24548020D01*
X52052889Y-24462592D01*
X52061639Y-24373750D01*
X52061639Y-23936250D01*
X52052889Y-23847408D01*
X52026975Y-23761980D01*
X51984892Y-23683249D01*
X51928259Y-23614241D01*
X51859251Y-23557608D01*
X51835500Y-23544913D01*
X51835500Y-22981394D01*
X51837607Y-22960000D01*
X51835500Y-22938606D01*
X51835500Y-22171497D01*
X51852795Y-22169794D01*
X52057413Y-22107723D01*
X52245989Y-22006927D01*
X52411278Y-21871278D01*
X52546927Y-21705989D01*
X52647723Y-21517413D01*
X52709794Y-21312795D01*
X52730752Y-21100000D01*
X52709794Y-20887205D01*
X52647723Y-20682587D01*
X52546927Y-20494011D01*
X52411278Y-20328722D01*
X52245989Y-20193073D01*
X52057413Y-20092277D01*
X51952660Y-20060500D01*
X53867340Y-20060500D01*
X53762587Y-20092277D01*
X53762587Y-20092277D01*
G37*
X53762587Y-20092277D02*
X53574011Y-20193073D01*
X53408722Y-20328722D01*
X53273073Y-20494011D01*
X53172277Y-20682587D01*
X53110206Y-20887205D01*
X53089248Y-21100000D01*
X53110206Y-21312795D01*
X53172277Y-21517413D01*
X53273073Y-21705989D01*
X53408722Y-21871278D01*
X53574011Y-22006927D01*
X53762587Y-22107723D01*
X53967205Y-22169794D01*
X54126674Y-22185500D01*
X54233326Y-22185500D01*
X54392795Y-22169794D01*
X54597413Y-22107723D01*
X54785989Y-22006927D01*
X54951278Y-21871278D01*
X55086927Y-21705989D01*
X55187723Y-21517413D01*
X55208861Y-21447729D01*
X55646400Y-21447729D01*
X55734867Y-21650496D01*
X55861192Y-21832108D01*
X56020521Y-21985586D01*
X56206731Y-22105031D01*
X56372272Y-22173591D01*
X56544500Y-22144230D01*
X56544500Y-21275500D01*
X56895500Y-21275500D01*
X56895500Y-22144230D01*
X57067728Y-22173591D01*
X57233269Y-22105031D01*
X57419479Y-21985586D01*
X57578808Y-21832108D01*
X57705133Y-21650496D01*
X57793600Y-21447729D01*
X57765154Y-21275500D01*
X56895500Y-21275500D01*
X56544500Y-21275500D01*
X55674846Y-21275500D01*
X55646400Y-21447729D01*
X55208861Y-21447729D01*
X55249794Y-21312795D01*
X55270752Y-21100000D01*
X55249794Y-20887205D01*
X55187723Y-20682587D01*
X55086927Y-20494011D01*
X54951278Y-20328722D01*
X54785989Y-20193073D01*
X54597413Y-20092277D01*
X54492660Y-20060500D01*
X56289958Y-20060500D01*
X56206731Y-20094969D01*
X56020521Y-20214414D01*
X55861192Y-20367892D01*
X55734867Y-20549504D01*
X55646400Y-20752271D01*
X55674846Y-20924500D01*
X56544500Y-20924500D01*
X56544500Y-20904500D01*
X56895500Y-20904500D01*
X56895500Y-20924500D01*
X57765154Y-20924500D01*
X57793600Y-20752271D01*
X57705133Y-20549504D01*
X57578808Y-20367892D01*
X57419479Y-20214414D01*
X57233269Y-20094969D01*
X57150042Y-20060500D01*
X58947340Y-20060500D01*
X58842587Y-20092277D01*
X58654011Y-20193073D01*
X58488722Y-20328722D01*
X58353073Y-20494011D01*
X58252277Y-20682587D01*
X58190206Y-20887205D01*
X58169248Y-21100000D01*
X58190206Y-21312795D01*
X58252277Y-21517413D01*
X58353073Y-21705989D01*
X58488722Y-21871278D01*
X58654011Y-22006927D01*
X58842587Y-22107723D01*
X59047205Y-22169794D01*
X59206674Y-22185500D01*
X59313326Y-22185500D01*
X59472795Y-22169794D01*
X59677413Y-22107723D01*
X59865989Y-22006927D01*
X59907853Y-21972570D01*
X60911500Y-21972570D01*
X60911500Y-22654875D01*
X60981125Y-22724500D01*
X61914500Y-22724500D01*
X61914500Y-21791125D01*
X61844875Y-21721500D01*
X61162570Y-21721500D01*
X61108765Y-21732203D01*
X61058081Y-21753196D01*
X61012467Y-21783675D01*
X60973675Y-21822466D01*
X60943197Y-21868081D01*
X60922203Y-21918764D01*
X60911500Y-21972570D01*
X59907853Y-21972570D01*
X60031278Y-21871278D01*
X60166927Y-21705989D01*
X60267723Y-21517413D01*
X60329794Y-21312795D01*
X60350752Y-21100000D01*
X60329794Y-20887205D01*
X60267723Y-20682587D01*
X60166927Y-20494011D01*
X60031278Y-20328722D01*
X59865989Y-20193073D01*
X59677413Y-20092277D01*
X59572660Y-20060500D01*
X62887260Y-20060500D01*
X62907432Y-20062478D01*
X62914573Y-20064634D01*
X62921165Y-20068139D01*
X62926955Y-20072861D01*
X62931710Y-20078608D01*
X62935262Y-20085179D01*
X62937470Y-20092311D01*
X62939500Y-20111624D01*
X62939500Y-21721500D01*
X62335125Y-21721500D01*
X62265500Y-21791125D01*
X62265500Y-22724500D01*
X62285500Y-22724500D01*
X62285500Y-23075500D01*
X62265500Y-23075500D01*
X62265500Y-24008875D01*
X62335125Y-24078500D01*
X62939500Y-24078500D01*
X62939501Y-33121500D01*
X62335125Y-33121500D01*
X62265500Y-33191125D01*
X62265500Y-34124500D01*
X62285500Y-34124500D01*
X62285500Y-34475500D01*
X62265500Y-34475500D01*
X62265500Y-35408875D01*
X62335125Y-35478500D01*
X62939501Y-35478500D01*
X62939501Y-37087250D01*
X62937522Y-37107432D01*
X62935366Y-37114575D01*
X62931862Y-37121163D01*
X62927140Y-37126954D01*
X62921389Y-37131711D01*
X62914821Y-37135263D01*
X62907690Y-37137470D01*
X62888376Y-37139500D01*
X59586974Y-37139500D01*
X59774177Y-37061957D01*
X59951966Y-36943163D01*
X60103163Y-36791966D01*
X60221957Y-36614177D01*
X60303785Y-36416629D01*
X60345500Y-36206912D01*
X60345500Y-35993088D01*
X60303785Y-35783371D01*
X60221957Y-35585823D01*
X60103163Y-35408034D01*
X59951966Y-35256837D01*
X59774177Y-35138043D01*
X59576629Y-35056215D01*
X59366912Y-35014500D01*
X59153088Y-35014500D01*
X58943371Y-35056215D01*
X58745823Y-35138043D01*
X58568034Y-35256837D01*
X58416837Y-35408034D01*
X58298043Y-35585823D01*
X58216215Y-35783371D01*
X58174500Y-35993088D01*
X58174500Y-36206912D01*
X58216215Y-36416629D01*
X58298043Y-36614177D01*
X58416837Y-36791966D01*
X58568034Y-36943163D01*
X58745823Y-37061957D01*
X58933026Y-37139500D01*
X57032660Y-37139500D01*
X57137413Y-37107723D01*
X57325989Y-37006927D01*
X57491278Y-36871278D01*
X57626927Y-36705989D01*
X57727723Y-36517413D01*
X57789794Y-36312795D01*
X57810752Y-36100000D01*
X57789794Y-35887205D01*
X57727723Y-35682587D01*
X57626927Y-35494011D01*
X57491278Y-35328722D01*
X57325989Y-35193073D01*
X57137413Y-35092277D01*
X56932795Y-35030206D01*
X56773326Y-35014500D01*
X56666674Y-35014500D01*
X56507205Y-35030206D01*
X56302587Y-35092277D01*
X56114011Y-35193073D01*
X55948722Y-35328722D01*
X55813073Y-35494011D01*
X55712277Y-35682587D01*
X55650206Y-35887205D01*
X55629248Y-36100000D01*
X55650206Y-36312795D01*
X55712277Y-36517413D01*
X55813073Y-36705989D01*
X55948722Y-36871278D01*
X56114011Y-37006927D01*
X56302587Y-37107723D01*
X56407340Y-37139500D01*
X54492660Y-37139500D01*
X54597413Y-37107723D01*
X54785989Y-37006927D01*
X54951278Y-36871278D01*
X55086927Y-36705989D01*
X55187723Y-36517413D01*
X55249794Y-36312795D01*
X55270752Y-36100000D01*
X55249794Y-35887205D01*
X55187723Y-35682587D01*
X55086927Y-35494011D01*
X54951278Y-35328722D01*
X54785989Y-35193073D01*
X54597413Y-35092277D01*
X54392795Y-35030206D01*
X54233326Y-35014500D01*
X54126674Y-35014500D01*
X53967205Y-35030206D01*
X53762587Y-35092277D01*
X53667282Y-35143219D01*
X53069188Y-34545125D01*
X60911500Y-34545125D01*
X60911500Y-35227430D01*
X60922203Y-35281236D01*
X60943197Y-35331919D01*
X60973675Y-35377534D01*
X61012467Y-35416325D01*
X61058081Y-35446804D01*
X61108765Y-35467797D01*
X61162570Y-35478500D01*
X61844875Y-35478500D01*
X61914500Y-35408875D01*
X61914500Y-34475500D01*
X60981125Y-34475500D01*
X60911500Y-34545125D01*
X53069188Y-34545125D01*
X51805577Y-33281515D01*
X51813800Y-33284921D01*
X51917258Y-33305500D01*
X52022742Y-33305500D01*
X52126200Y-33284921D01*
X52223654Y-33244554D01*
X52311361Y-33185950D01*
X52385950Y-33111361D01*
X52444554Y-33023654D01*
X52484921Y-32926200D01*
X52505500Y-32822742D01*
X52505500Y-32717258D01*
X52484921Y-32613800D01*
X52444554Y-32516346D01*
X52413587Y-32470000D01*
X58109248Y-32470000D01*
X58130206Y-32682795D01*
X58192277Y-32887413D01*
X58293073Y-33075989D01*
X58428722Y-33241278D01*
X58594011Y-33376927D01*
X58782587Y-33477723D01*
X58987205Y-33539794D01*
X59146674Y-33555500D01*
X59253326Y-33555500D01*
X59412795Y-33539794D01*
X59617413Y-33477723D01*
X59805989Y-33376927D01*
X59811298Y-33372570D01*
X60911500Y-33372570D01*
X60911500Y-34054875D01*
X60981125Y-34124500D01*
X61914500Y-34124500D01*
X61914500Y-33191125D01*
X61844875Y-33121500D01*
X61162570Y-33121500D01*
X61108765Y-33132203D01*
X61058081Y-33153196D01*
X61012467Y-33183675D01*
X60973675Y-33222466D01*
X60943197Y-33268081D01*
X60922203Y-33318764D01*
X60911500Y-33372570D01*
X59811298Y-33372570D01*
X59971278Y-33241278D01*
X60106927Y-33075989D01*
X60207723Y-32887413D01*
X60269794Y-32682795D01*
X60290752Y-32470000D01*
X60269794Y-32257205D01*
X60207723Y-32052587D01*
X60106927Y-31864011D01*
X59971278Y-31698722D01*
X59805989Y-31563073D01*
X59617413Y-31462277D01*
X59412795Y-31400206D01*
X59253326Y-31384500D01*
X59146674Y-31384500D01*
X58987205Y-31400206D01*
X58782587Y-31462277D01*
X58594011Y-31563073D01*
X58428722Y-31698722D01*
X58293073Y-31864011D01*
X58192277Y-32052587D01*
X58130206Y-32257205D01*
X58109248Y-32470000D01*
X52413587Y-32470000D01*
X52385950Y-32428639D01*
X52311361Y-32354050D01*
X52223654Y-32295446D01*
X52126200Y-32255079D01*
X52022742Y-32234500D01*
X51917258Y-32234500D01*
X51884982Y-32240920D01*
X51875566Y-32231503D01*
X51928259Y-32188259D01*
X51984892Y-32119251D01*
X52026975Y-32040520D01*
X52052889Y-31955092D01*
X52061639Y-31866250D01*
X52061639Y-31428750D01*
X52052889Y-31339908D01*
X52026975Y-31254480D01*
X51984892Y-31175749D01*
X51928259Y-31106741D01*
X51859251Y-31050108D01*
X51780520Y-31008025D01*
X51695092Y-30982111D01*
X51606250Y-30973361D01*
X51093750Y-30973361D01*
X51004908Y-30982111D01*
X50934000Y-31003620D01*
X50934000Y-30716380D01*
X51004908Y-30737889D01*
X51093750Y-30746639D01*
X51606250Y-30746639D01*
X51695092Y-30737889D01*
X51780520Y-30711975D01*
X51859251Y-30669892D01*
X51928259Y-30613259D01*
X51984892Y-30544251D01*
X52026975Y-30465520D01*
X52052889Y-30380092D01*
X52061639Y-30291250D01*
X52061639Y-29853750D01*
X52052889Y-29764908D01*
X52026975Y-29679480D01*
X51984892Y-29600749D01*
X51930914Y-29534976D01*
X53003361Y-30607424D01*
X53003361Y-31750000D01*
X53007908Y-31796166D01*
X53021374Y-31840558D01*
X53043242Y-31881470D01*
X53072671Y-31917329D01*
X53108530Y-31946758D01*
X53149442Y-31968626D01*
X53193834Y-31982092D01*
X53240000Y-31986639D01*
X57740000Y-31986639D01*
X57786166Y-31982092D01*
X57830558Y-31968626D01*
X57871470Y-31946758D01*
X57907329Y-31917329D01*
X57936758Y-31881470D01*
X57958626Y-31840558D01*
X57972092Y-31796166D01*
X57976639Y-31750000D01*
X57976639Y-30450000D01*
X57972092Y-30403834D01*
X57958626Y-30359442D01*
X57936758Y-30318530D01*
X57907329Y-30282671D01*
X57871470Y-30253242D01*
X57830558Y-30231374D01*
X57786166Y-30217908D01*
X57740000Y-30213361D01*
X53497424Y-30213361D01*
X53107151Y-29823088D01*
X58114500Y-29823088D01*
X58114500Y-30036912D01*
X58156215Y-30246629D01*
X58238043Y-30444177D01*
X58356837Y-30621966D01*
X58508034Y-30773163D01*
X58685823Y-30891957D01*
X58883371Y-30973785D01*
X59093088Y-31015500D01*
X59306912Y-31015500D01*
X59516629Y-30973785D01*
X59714177Y-30891957D01*
X59891966Y-30773163D01*
X60043163Y-30621966D01*
X60161957Y-30444177D01*
X60243785Y-30246629D01*
X60285500Y-30036912D01*
X60285500Y-29823088D01*
X60243785Y-29613371D01*
X60161957Y-29415823D01*
X60043163Y-29238034D01*
X59891966Y-29086837D01*
X59714177Y-28968043D01*
X59516629Y-28886215D01*
X59306912Y-28844500D01*
X59093088Y-28844500D01*
X58883371Y-28886215D01*
X58685823Y-28968043D01*
X58508034Y-29086837D01*
X58356837Y-29238034D01*
X58238043Y-29415823D01*
X58156215Y-29613371D01*
X58114500Y-29823088D01*
X53107151Y-29823088D01*
X52129188Y-28845125D01*
X52961500Y-28845125D01*
X52961500Y-29277430D01*
X52972203Y-29331236D01*
X52993197Y-29381919D01*
X53023675Y-29427534D01*
X53062467Y-29466325D01*
X53108081Y-29496804D01*
X53158765Y-29517797D01*
X53212570Y-29528500D01*
X55244875Y-29528500D01*
X55314500Y-29458875D01*
X55314500Y-28775500D01*
X55665500Y-28775500D01*
X55665500Y-29458875D01*
X55735125Y-29528500D01*
X57767430Y-29528500D01*
X57821235Y-29517797D01*
X57871919Y-29496804D01*
X57917533Y-29466325D01*
X57956325Y-29427534D01*
X57986803Y-29381919D01*
X58007797Y-29331236D01*
X58018500Y-29277430D01*
X58018500Y-28845125D01*
X57948875Y-28775500D01*
X55665500Y-28775500D01*
X55314500Y-28775500D01*
X53031125Y-28775500D01*
X52961500Y-28845125D01*
X52129188Y-28845125D01*
X52061639Y-28777577D01*
X52061639Y-28468750D01*
X52052889Y-28379908D01*
X52026975Y-28294480D01*
X51984892Y-28215749D01*
X51928259Y-28146741D01*
X51859251Y-28090108D01*
X51780520Y-28048025D01*
X51695092Y-28022111D01*
X51606250Y-28013361D01*
X51093750Y-28013361D01*
X51087991Y-28013928D01*
X50996633Y-27922570D01*
X52961500Y-27922570D01*
X52961500Y-28354875D01*
X53031125Y-28424500D01*
X55314500Y-28424500D01*
X55314500Y-27741125D01*
X55665500Y-27741125D01*
X55665500Y-28424500D01*
X57948875Y-28424500D01*
X58018500Y-28354875D01*
X58018500Y-27922570D01*
X58007797Y-27868764D01*
X57986803Y-27818081D01*
X57956325Y-27772466D01*
X57917533Y-27733675D01*
X57871919Y-27703196D01*
X57821235Y-27682203D01*
X57767430Y-27671500D01*
X55735125Y-27671500D01*
X55665500Y-27741125D01*
X55314500Y-27741125D01*
X55244875Y-27671500D01*
X53212570Y-27671500D01*
X53158765Y-27682203D01*
X53108081Y-27703196D01*
X53062467Y-27733675D01*
X53023675Y-27772466D01*
X52993197Y-27818081D01*
X52972203Y-27868764D01*
X52961500Y-27922570D01*
X50996633Y-27922570D01*
X50854000Y-27779938D01*
X50854000Y-27716975D01*
X50919480Y-27751975D01*
X51004908Y-27777889D01*
X51093750Y-27786639D01*
X51606250Y-27786639D01*
X51695092Y-27777889D01*
X51780520Y-27751975D01*
X51859251Y-27709892D01*
X51928259Y-27653259D01*
X51984892Y-27584251D01*
X52026975Y-27505520D01*
X52048670Y-27434000D01*
X52834579Y-27434000D01*
X52850000Y-27435519D01*
X52865421Y-27434000D01*
X52865422Y-27434000D01*
X52911555Y-27429456D01*
X52970744Y-27411502D01*
X53010970Y-27390000D01*
X58109248Y-27390000D01*
X58130206Y-27602795D01*
X58192277Y-27807413D01*
X58293073Y-27995989D01*
X58428722Y-28161278D01*
X58594011Y-28296927D01*
X58782587Y-28397723D01*
X58987205Y-28459794D01*
X59146674Y-28475500D01*
X59253326Y-28475500D01*
X59412795Y-28459794D01*
X59617413Y-28397723D01*
X59805989Y-28296927D01*
X59971278Y-28161278D01*
X60106927Y-27995989D01*
X60207723Y-27807413D01*
X60269794Y-27602795D01*
X60290752Y-27390000D01*
X60269794Y-27177205D01*
X60207723Y-26972587D01*
X60106927Y-26784011D01*
X59971278Y-26618722D01*
X59805989Y-26483073D01*
X59617413Y-26382277D01*
X59412795Y-26320206D01*
X59253326Y-26304500D01*
X59146674Y-26304500D01*
X58987205Y-26320206D01*
X58782587Y-26382277D01*
X58594011Y-26483073D01*
X58428722Y-26618722D01*
X58293073Y-26784011D01*
X58192277Y-26972587D01*
X58130206Y-27177205D01*
X58109248Y-27390000D01*
X53010970Y-27390000D01*
X53025293Y-27382344D01*
X53073106Y-27343106D01*
X53082944Y-27331118D01*
X53427423Y-26986639D01*
X57740000Y-26986639D01*
X57786166Y-26982092D01*
X57830558Y-26968626D01*
X57871470Y-26946758D01*
X57907329Y-26917329D01*
X57936758Y-26881470D01*
X57958626Y-26840558D01*
X57972092Y-26796166D01*
X57976639Y-26750000D01*
X57976639Y-25450000D01*
X57972092Y-25403834D01*
X57958626Y-25359442D01*
X57936758Y-25318530D01*
X57907329Y-25282671D01*
X57871470Y-25253242D01*
X57830558Y-25231374D01*
X57786166Y-25217908D01*
X57740000Y-25213361D01*
X53240000Y-25213361D01*
X53193834Y-25217908D01*
X53149442Y-25231374D01*
X53108530Y-25253242D01*
X53072671Y-25282671D01*
X53043242Y-25318530D01*
X53021374Y-25359442D01*
X53007908Y-25403834D01*
X53003361Y-25450000D01*
X53003361Y-26522577D01*
X52719938Y-26806000D01*
X52052997Y-26806000D01*
X52052889Y-26804908D01*
X52026975Y-26719480D01*
X51984892Y-26640749D01*
X51928259Y-26571741D01*
X51859251Y-26515108D01*
X51780520Y-26473025D01*
X51695092Y-26447111D01*
X51606250Y-26438361D01*
X51142423Y-26438361D01*
X51108201Y-26404139D01*
X51606250Y-26404139D01*
X51695092Y-26395389D01*
X51780520Y-26369475D01*
X51859251Y-26327392D01*
X51928259Y-26270759D01*
X51953758Y-26239688D01*
X51980744Y-26231502D01*
X52035293Y-26202344D01*
X52083106Y-26163106D01*
X52092944Y-26151118D01*
X53383595Y-24860468D01*
X53385823Y-24861957D01*
X53583371Y-24943785D01*
X53793088Y-24985500D01*
X54006912Y-24985500D01*
X54216629Y-24943785D01*
X54414177Y-24861957D01*
X54591966Y-24743163D01*
X54592041Y-24743088D01*
X58114500Y-24743088D01*
X58114500Y-24956912D01*
X58156215Y-25166629D01*
X58238043Y-25364177D01*
X58356837Y-25541966D01*
X58508034Y-25693163D01*
X58685823Y-25811957D01*
X58883371Y-25893785D01*
X59093088Y-25935500D01*
X59306912Y-25935500D01*
X59516629Y-25893785D01*
X59714177Y-25811957D01*
X59891966Y-25693163D01*
X60043163Y-25541966D01*
X60161957Y-25364177D01*
X60243785Y-25166629D01*
X60285500Y-24956912D01*
X60285500Y-24743088D01*
X60243785Y-24533371D01*
X60161957Y-24335823D01*
X60043163Y-24158034D01*
X59891966Y-24006837D01*
X59714177Y-23888043D01*
X59516629Y-23806215D01*
X59306912Y-23764500D01*
X59093088Y-23764500D01*
X58883371Y-23806215D01*
X58685823Y-23888043D01*
X58508034Y-24006837D01*
X58356837Y-24158034D01*
X58238043Y-24335823D01*
X58156215Y-24533371D01*
X58114500Y-24743088D01*
X54592041Y-24743088D01*
X54743163Y-24591966D01*
X54861957Y-24414177D01*
X54943785Y-24216629D01*
X54985500Y-24006912D01*
X54985500Y-23793088D01*
X54943785Y-23583371D01*
X54861957Y-23385823D01*
X54743163Y-23208034D01*
X54680254Y-23145125D01*
X60911500Y-23145125D01*
X60911500Y-23827430D01*
X60922203Y-23881236D01*
X60943197Y-23931919D01*
X60973675Y-23977534D01*
X61012467Y-24016325D01*
X61058081Y-24046804D01*
X61108765Y-24067797D01*
X61162570Y-24078500D01*
X61844875Y-24078500D01*
X61914500Y-24008875D01*
X61914500Y-23075500D01*
X60981125Y-23075500D01*
X60911500Y-23145125D01*
X54680254Y-23145125D01*
X54591966Y-23056837D01*
X54414177Y-22938043D01*
X54216629Y-22856215D01*
X54006912Y-22814500D01*
X53793088Y-22814500D01*
X53583371Y-22856215D01*
X53385823Y-22938043D01*
X53208034Y-23056837D01*
X53056837Y-23208034D01*
X52938043Y-23385823D01*
X52856215Y-23583371D01*
X52814500Y-23793088D01*
X52814500Y-24006912D01*
X52856215Y-24216629D01*
X52938043Y-24414177D01*
X52939532Y-24416405D01*
X52024182Y-25331755D01*
X51984892Y-25258249D01*
X51928259Y-25189241D01*
X51859251Y-25132608D01*
X51780520Y-25090525D01*
X51695092Y-25064611D01*
X51606250Y-25055861D01*
X51093750Y-25055861D01*
X51004908Y-25064611D01*
X50938744Y-25084681D01*
X50854000Y-24999938D01*
X50854000Y-24759475D01*
X50919480Y-24794475D01*
X51004908Y-24820389D01*
X51093750Y-24829139D01*
X51606250Y-24829139D01*
X51695092Y-24820389D01*
X51780520Y-24794475D01*
X51859251Y-24752392D01*
X51928259Y-24695759D01*
X51984892Y-24626751D01*
X52026975Y-24548020D01*
X52052889Y-24462592D01*
X52061639Y-24373750D01*
X52061639Y-23936250D01*
X52052889Y-23847408D01*
X52026975Y-23761980D01*
X51984892Y-23683249D01*
X51928259Y-23614241D01*
X51859251Y-23557608D01*
X51835500Y-23544913D01*
X51835500Y-22981394D01*
X51837607Y-22960000D01*
X51835500Y-22938606D01*
X51835500Y-22171497D01*
X51852795Y-22169794D01*
X52057413Y-22107723D01*
X52245989Y-22006927D01*
X52411278Y-21871278D01*
X52546927Y-21705989D01*
X52647723Y-21517413D01*
X52709794Y-21312795D01*
X52730752Y-21100000D01*
X52709794Y-20887205D01*
X52647723Y-20682587D01*
X52546927Y-20494011D01*
X52411278Y-20328722D01*
X52245989Y-20193073D01*
X52057413Y-20092277D01*
X51952660Y-20060500D01*
X53867340Y-20060500D01*
X53762587Y-20092277D01*
G36*
X35982587Y-20092277D02*
X35794011Y-20193073D01*
X35628722Y-20328722D01*
X35493073Y-20494011D01*
X35392277Y-20682587D01*
X35330206Y-20887205D01*
X35309248Y-21100000D01*
X35330206Y-21312795D01*
X35392277Y-21517413D01*
X35493073Y-21705989D01*
X35628722Y-21871278D01*
X35794011Y-22006927D01*
X35982587Y-22107723D01*
X36187205Y-22169794D01*
X36346674Y-22185500D01*
X36453326Y-22185500D01*
X36612795Y-22169794D01*
X36817413Y-22107723D01*
X37005989Y-22006927D01*
X37171278Y-21871278D01*
X37306927Y-21705989D01*
X37407723Y-21517413D01*
X37469794Y-21312795D01*
X37490752Y-21100000D01*
X37469794Y-20887205D01*
X37407723Y-20682587D01*
X37306927Y-20494011D01*
X37171278Y-20328722D01*
X37005989Y-20193073D01*
X36817413Y-20092277D01*
X36712660Y-20060500D01*
X38627340Y-20060500D01*
X38522587Y-20092277D01*
X38334011Y-20193073D01*
X38168722Y-20328722D01*
X38033073Y-20494011D01*
X37932277Y-20682587D01*
X37870206Y-20887205D01*
X37849248Y-21100000D01*
X37870206Y-21312795D01*
X37932277Y-21517413D01*
X38033073Y-21705989D01*
X38168722Y-21871278D01*
X38334011Y-22006927D01*
X38522587Y-22107723D01*
X38727205Y-22169794D01*
X38886674Y-22185500D01*
X38993326Y-22185500D01*
X39152795Y-22169794D01*
X39357413Y-22107723D01*
X39545989Y-22006927D01*
X39711278Y-21871278D01*
X39846927Y-21705989D01*
X39947723Y-21517413D01*
X40009794Y-21312795D01*
X40030752Y-21100000D01*
X40009794Y-20887205D01*
X39947723Y-20682587D01*
X39846927Y-20494011D01*
X39711278Y-20328722D01*
X39545989Y-20193073D01*
X39357413Y-20092277D01*
X39252660Y-20060500D01*
X41167340Y-20060500D01*
X41062587Y-20092277D01*
X40874011Y-20193073D01*
X40708722Y-20328722D01*
X40573073Y-20494011D01*
X40472277Y-20682587D01*
X40410206Y-20887205D01*
X40389248Y-21100000D01*
X40410206Y-21312795D01*
X40472277Y-21517413D01*
X40573073Y-21705989D01*
X40708722Y-21871278D01*
X40874011Y-22006927D01*
X41062587Y-22107723D01*
X41267205Y-22169794D01*
X41426674Y-22185500D01*
X41533326Y-22185500D01*
X41692795Y-22169794D01*
X41897413Y-22107723D01*
X42085989Y-22006927D01*
X42251278Y-21871278D01*
X42386927Y-21705989D01*
X42487723Y-21517413D01*
X42549794Y-21312795D01*
X42570752Y-21100000D01*
X42549794Y-20887205D01*
X42487723Y-20682587D01*
X42386927Y-20494011D01*
X42251278Y-20328722D01*
X42085989Y-20193073D01*
X41897413Y-20092277D01*
X41792660Y-20060500D01*
X43707340Y-20060500D01*
X43602587Y-20092277D01*
X43414011Y-20193073D01*
X43248722Y-20328722D01*
X43113073Y-20494011D01*
X43012277Y-20682587D01*
X42950206Y-20887205D01*
X42929248Y-21100000D01*
X42950206Y-21312795D01*
X43012277Y-21517413D01*
X43113073Y-21705989D01*
X43248722Y-21871278D01*
X43414011Y-22006927D01*
X43602587Y-22107723D01*
X43807205Y-22169794D01*
X43966674Y-22185500D01*
X44073326Y-22185500D01*
X44232795Y-22169794D01*
X44437413Y-22107723D01*
X44625989Y-22006927D01*
X44791278Y-21871278D01*
X44926927Y-21705989D01*
X45027723Y-21517413D01*
X45089794Y-21312795D01*
X45110752Y-21100000D01*
X45089794Y-20887205D01*
X45027723Y-20682587D01*
X44926927Y-20494011D01*
X44791278Y-20328722D01*
X44625989Y-20193073D01*
X44437413Y-20092277D01*
X44332660Y-20060500D01*
X46247340Y-20060500D01*
X46142587Y-20092277D01*
X45954011Y-20193073D01*
X45788722Y-20328722D01*
X45653073Y-20494011D01*
X45552277Y-20682587D01*
X45490206Y-20887205D01*
X45469248Y-21100000D01*
X45490206Y-21312795D01*
X45552277Y-21517413D01*
X45653073Y-21705989D01*
X45788722Y-21871278D01*
X45954011Y-22006927D01*
X46142587Y-22107723D01*
X46347205Y-22169794D01*
X46506674Y-22185500D01*
X46613326Y-22185500D01*
X46772795Y-22169794D01*
X46977413Y-22107723D01*
X47165989Y-22006927D01*
X47331278Y-21871278D01*
X47466927Y-21705989D01*
X47567723Y-21517413D01*
X47629794Y-21312795D01*
X47650752Y-21100000D01*
X47629794Y-20887205D01*
X47567723Y-20682587D01*
X47466927Y-20494011D01*
X47331278Y-20328722D01*
X47165989Y-20193073D01*
X46977413Y-20092277D01*
X46872660Y-20060500D01*
X48787340Y-20060500D01*
X48682587Y-20092277D01*
X48494011Y-20193073D01*
X48328722Y-20328722D01*
X48193073Y-20494011D01*
X48092277Y-20682587D01*
X48030206Y-20887205D01*
X48009248Y-21100000D01*
X48030206Y-21312795D01*
X48092277Y-21517413D01*
X48193073Y-21705989D01*
X48328722Y-21871278D01*
X48494011Y-22006927D01*
X48682587Y-22107723D01*
X48887205Y-22169794D01*
X49046674Y-22185500D01*
X49153326Y-22185500D01*
X49312795Y-22169794D01*
X49517413Y-22107723D01*
X49705989Y-22006927D01*
X49871278Y-21871278D01*
X50006927Y-21705989D01*
X50107723Y-21517413D01*
X50169794Y-21312795D01*
X50190752Y-21100000D01*
X50169794Y-20887205D01*
X50107723Y-20682587D01*
X50006927Y-20494011D01*
X49871278Y-20328722D01*
X49705989Y-20193073D01*
X49517413Y-20092277D01*
X49412660Y-20060500D01*
X51327340Y-20060500D01*
X51222587Y-20092277D01*
X51034011Y-20193073D01*
X50868722Y-20328722D01*
X50733073Y-20494011D01*
X50632277Y-20682587D01*
X50570206Y-20887205D01*
X50549248Y-21100000D01*
X50570206Y-21312795D01*
X50632277Y-21517413D01*
X50733073Y-21705989D01*
X50868722Y-21871278D01*
X50964500Y-21949881D01*
X50964501Y-22524500D01*
X42161391Y-22524500D01*
X42139999Y-22522393D01*
X42118608Y-22524500D01*
X42118606Y-22524500D01*
X42054627Y-22530801D01*
X41972535Y-22555704D01*
X41941625Y-22572226D01*
X41896878Y-22596143D01*
X41863543Y-22623501D01*
X41830565Y-22650565D01*
X41816927Y-22667183D01*
X40877188Y-23606923D01*
X40860565Y-23620565D01*
X40837166Y-23649078D01*
X40806143Y-23686879D01*
X40779332Y-23737040D01*
X40765704Y-23762536D01*
X40740801Y-23844628D01*
X40735927Y-23894119D01*
X40732393Y-23930000D01*
X40734500Y-23951392D01*
X40734501Y-25596100D01*
X40732393Y-25617501D01*
X40740802Y-25702874D01*
X40765704Y-25784965D01*
X40806143Y-25860622D01*
X40833360Y-25893785D01*
X40860566Y-25926936D01*
X40877183Y-25940573D01*
X41588361Y-26651752D01*
X41588361Y-26966251D01*
X41597111Y-27055093D01*
X41623025Y-27140521D01*
X41665108Y-27219252D01*
X41721741Y-27288260D01*
X41790749Y-27344893D01*
X41869480Y-27386976D01*
X41954908Y-27412890D01*
X42043750Y-27421640D01*
X42556250Y-27421640D01*
X42645092Y-27412890D01*
X42730520Y-27386976D01*
X42809251Y-27344893D01*
X42878259Y-27288260D01*
X42934892Y-27219252D01*
X42976975Y-27140521D01*
X43002889Y-27055093D01*
X43007281Y-27010500D01*
X43181355Y-27010500D01*
X43225195Y-27046479D01*
X43292040Y-27082208D01*
X43364570Y-27104210D01*
X43440000Y-27111639D01*
X45090000Y-27111639D01*
X45165430Y-27104210D01*
X45237960Y-27082208D01*
X45304805Y-27046479D01*
X45363395Y-26998395D01*
X45411479Y-26939805D01*
X45447208Y-26872960D01*
X45469210Y-26800430D01*
X45476639Y-26725000D01*
X45476639Y-26425000D01*
X45469210Y-26349570D01*
X45447208Y-26277040D01*
X45411479Y-26210195D01*
X45363395Y-26151605D01*
X45304805Y-26103521D01*
X45237960Y-26067792D01*
X45165430Y-26045790D01*
X45090000Y-26038361D01*
X43440000Y-26038361D01*
X43364570Y-26045790D01*
X43292040Y-26067792D01*
X43225195Y-26103521D01*
X43181355Y-26139500D01*
X42789403Y-26139500D01*
X42730520Y-26108026D01*
X42645092Y-26082112D01*
X42556250Y-26073362D01*
X42241751Y-26073362D01*
X42055881Y-25887493D01*
X42124500Y-25818874D01*
X42124500Y-25347999D01*
X42475500Y-25347999D01*
X42475500Y-25818874D01*
X42545125Y-25888499D01*
X42802430Y-25888499D01*
X42856235Y-25877796D01*
X42906919Y-25856803D01*
X42952533Y-25826324D01*
X42991325Y-25787533D01*
X43021803Y-25741918D01*
X43033535Y-25713595D01*
X43043196Y-25736919D01*
X43073675Y-25782533D01*
X43112466Y-25821325D01*
X43158081Y-25851803D01*
X43208764Y-25872797D01*
X43262570Y-25883500D01*
X44019875Y-25883500D01*
X44089500Y-25813875D01*
X44089500Y-25455000D01*
X44440500Y-25455000D01*
X44440500Y-25813875D01*
X44510125Y-25883500D01*
X45267430Y-25883500D01*
X45321236Y-25872797D01*
X45371919Y-25851803D01*
X45417534Y-25821325D01*
X45456325Y-25782533D01*
X45486804Y-25736919D01*
X45507797Y-25686235D01*
X45518500Y-25632430D01*
X45518500Y-25524625D01*
X45448875Y-25455000D01*
X44440500Y-25455000D01*
X44089500Y-25455000D01*
X43081125Y-25455000D01*
X43053500Y-25482625D01*
X43053500Y-25417624D01*
X42983875Y-25347999D01*
X42475500Y-25347999D01*
X42124500Y-25347999D01*
X42104500Y-25347999D01*
X42104500Y-24996999D01*
X42124500Y-24996999D01*
X42124500Y-24526124D01*
X42475500Y-24526124D01*
X42475500Y-24996999D01*
X42983875Y-24996999D01*
X43013535Y-24967339D01*
X43011500Y-24977570D01*
X43011500Y-25085375D01*
X43081125Y-25155000D01*
X44089500Y-25155000D01*
X44089500Y-24796125D01*
X44440500Y-24796125D01*
X44440500Y-25155000D01*
X45448875Y-25155000D01*
X45518500Y-25085375D01*
X45518500Y-24977570D01*
X45507797Y-24923765D01*
X45486804Y-24873081D01*
X45456325Y-24827467D01*
X45417534Y-24788675D01*
X45371919Y-24758197D01*
X45321236Y-24737203D01*
X45267430Y-24726500D01*
X44510125Y-24726500D01*
X44440500Y-24796125D01*
X44089500Y-24796125D01*
X44019875Y-24726500D01*
X43262570Y-24726500D01*
X43208764Y-24737203D01*
X43158081Y-24758197D01*
X43112466Y-24788675D01*
X43073675Y-24827467D01*
X43053500Y-24857660D01*
X43053500Y-24707569D01*
X43042797Y-24653763D01*
X43021803Y-24603080D01*
X42991325Y-24557465D01*
X42952533Y-24518674D01*
X42906919Y-24488195D01*
X42856235Y-24467202D01*
X42802430Y-24456499D01*
X42545125Y-24456499D01*
X42475500Y-24526124D01*
X42124500Y-24526124D01*
X42054875Y-24456499D01*
X41797570Y-24456499D01*
X41743765Y-24467202D01*
X41693081Y-24488195D01*
X41647467Y-24518674D01*
X41608675Y-24557465D01*
X41605500Y-24562217D01*
X41605500Y-24110389D01*
X42320390Y-23395500D01*
X47336000Y-23395500D01*
X47336001Y-26635767D01*
X47308639Y-26654050D01*
X47244000Y-26718689D01*
X47244000Y-24905421D01*
X47245519Y-24890000D01*
X47239456Y-24828445D01*
X47221502Y-24769256D01*
X47192344Y-24714707D01*
X47171947Y-24689853D01*
X47153106Y-24666894D01*
X47141123Y-24657060D01*
X46307944Y-23823882D01*
X46298106Y-23811894D01*
X46250293Y-23772656D01*
X46195744Y-23743498D01*
X46136555Y-23725544D01*
X46090422Y-23721000D01*
X46090421Y-23721000D01*
X46075000Y-23719481D01*
X46059579Y-23721000D01*
X45438635Y-23721000D01*
X45411479Y-23670195D01*
X45363395Y-23611605D01*
X45304805Y-23563521D01*
X45237960Y-23527792D01*
X45165430Y-23505790D01*
X45090000Y-23498361D01*
X43440000Y-23498361D01*
X43364570Y-23505790D01*
X43292040Y-23527792D01*
X43225195Y-23563521D01*
X43166605Y-23611605D01*
X43118521Y-23670195D01*
X43082792Y-23737040D01*
X43060790Y-23809570D01*
X43053361Y-23885000D01*
X43053361Y-24185000D01*
X43060790Y-24260430D01*
X43082792Y-24332960D01*
X43118521Y-24399805D01*
X43166605Y-24458395D01*
X43225195Y-24506479D01*
X43292040Y-24542208D01*
X43364570Y-24564210D01*
X43440000Y-24571639D01*
X45090000Y-24571639D01*
X45165430Y-24564210D01*
X45237960Y-24542208D01*
X45304805Y-24506479D01*
X45363395Y-24458395D01*
X45411479Y-24399805D01*
X45438635Y-24349000D01*
X45944938Y-24349000D01*
X46616001Y-25020064D01*
X46616000Y-27414578D01*
X46614481Y-27430000D01*
X46616000Y-27445421D01*
X46620544Y-27491554D01*
X46638498Y-27550743D01*
X46667656Y-27605292D01*
X46706894Y-27653106D01*
X46718882Y-27662944D01*
X47655437Y-28599500D01*
X39276890Y-28599500D01*
X39037572Y-28576034D01*
X38819292Y-28510132D01*
X38617975Y-28403090D01*
X38441277Y-28258978D01*
X38295939Y-28083294D01*
X38187495Y-27882730D01*
X38120070Y-27664916D01*
X38094959Y-27425998D01*
X38094959Y-24822487D01*
X38093789Y-24810613D01*
X38093852Y-24801686D01*
X38093497Y-24798067D01*
X38064324Y-24520502D01*
X38059577Y-24497376D01*
X38055153Y-24474181D01*
X38054101Y-24470699D01*
X37971571Y-24204087D01*
X37962414Y-24182303D01*
X37953577Y-24160430D01*
X37951870Y-24157219D01*
X37819125Y-23911715D01*
X37805925Y-23892144D01*
X37792995Y-23872385D01*
X37790696Y-23869566D01*
X37612795Y-23654520D01*
X37596020Y-23637862D01*
X37579522Y-23621014D01*
X37576725Y-23618701D01*
X37576720Y-23618696D01*
X37576715Y-23618692D01*
X37360437Y-23442301D01*
X37340791Y-23429248D01*
X37321290Y-23415895D01*
X37318091Y-23414166D01*
X37071666Y-23283140D01*
X37049807Y-23274130D01*
X37028137Y-23264842D01*
X37024662Y-23263766D01*
X36757481Y-23183099D01*
X36734308Y-23178511D01*
X36711226Y-23173604D01*
X36707609Y-23173224D01*
X36429847Y-23145989D01*
X36429838Y-23145989D01*
X36417218Y-23144746D01*
X33332743Y-23144746D01*
X33217393Y-23133436D01*
X33118701Y-23103639D01*
X33027669Y-23055236D01*
X32947779Y-22990080D01*
X32882061Y-22910640D01*
X32833024Y-22819949D01*
X32802539Y-22721467D01*
X32790500Y-22606926D01*
X32790500Y-21287350D01*
X32816215Y-21416629D01*
X32898043Y-21614177D01*
X33016837Y-21791966D01*
X33168034Y-21943163D01*
X33345823Y-22061957D01*
X33543371Y-22143785D01*
X33546001Y-22144308D01*
X33546001Y-22286650D01*
X33544481Y-22302081D01*
X33550544Y-22363635D01*
X33568499Y-22422825D01*
X33593898Y-22470341D01*
X33597657Y-22477374D01*
X33636895Y-22525187D01*
X33648877Y-22535020D01*
X34084979Y-22971123D01*
X34094813Y-22983106D01*
X34142626Y-23022344D01*
X34197175Y-23051502D01*
X34256364Y-23069456D01*
X34302497Y-23074000D01*
X34302499Y-23074000D01*
X34317918Y-23075519D01*
X34333337Y-23074000D01*
X38059938Y-23074000D01*
X39726000Y-24740063D01*
X39726001Y-27204568D01*
X39724481Y-27220000D01*
X39730544Y-27281554D01*
X39748499Y-27340744D01*
X39774828Y-27390000D01*
X39777657Y-27395293D01*
X39816895Y-27443106D01*
X39828877Y-27452939D01*
X40432060Y-28056123D01*
X40441894Y-28068106D01*
X40489707Y-28107344D01*
X40544256Y-28136502D01*
X40603445Y-28154456D01*
X40649578Y-28159000D01*
X40649580Y-28159000D01*
X40664999Y-28160519D01*
X40680418Y-28159000D01*
X43091365Y-28159000D01*
X43118521Y-28209805D01*
X43166605Y-28268395D01*
X43225195Y-28316479D01*
X43292040Y-28352208D01*
X43364570Y-28374210D01*
X43440000Y-28381639D01*
X45090000Y-28381639D01*
X45165430Y-28374210D01*
X45237960Y-28352208D01*
X45304805Y-28316479D01*
X45363395Y-28268395D01*
X45411479Y-28209805D01*
X45447208Y-28142960D01*
X45469210Y-28070430D01*
X45476639Y-27995000D01*
X45476639Y-27695000D01*
X45469210Y-27619570D01*
X45447208Y-27547040D01*
X45411479Y-27480195D01*
X45363395Y-27421605D01*
X45304805Y-27373521D01*
X45237960Y-27337792D01*
X45165430Y-27315790D01*
X45090000Y-27308361D01*
X43440000Y-27308361D01*
X43364570Y-27315790D01*
X43292040Y-27337792D01*
X43225195Y-27373521D01*
X43166605Y-27421605D01*
X43118521Y-27480195D01*
X43091365Y-27531000D01*
X40795063Y-27531000D01*
X40354000Y-27089938D01*
X40354000Y-24625421D01*
X40355519Y-24609999D01*
X40349456Y-24548445D01*
X40345135Y-24534199D01*
X40331502Y-24489256D01*
X40302344Y-24434707D01*
X40263106Y-24386894D01*
X40251125Y-24377062D01*
X38422944Y-22548882D01*
X38413106Y-22536894D01*
X38365293Y-22497656D01*
X38310744Y-22468498D01*
X38251555Y-22450544D01*
X38205422Y-22446000D01*
X38205421Y-22446000D01*
X38190000Y-22444481D01*
X38174579Y-22446000D01*
X34447982Y-22446000D01*
X34174000Y-22172019D01*
X34174000Y-22144308D01*
X34176629Y-22143785D01*
X34374177Y-22061957D01*
X34551966Y-21943163D01*
X34703163Y-21791966D01*
X34821957Y-21614177D01*
X34903785Y-21416629D01*
X34945500Y-21206912D01*
X34945500Y-20993088D01*
X34903785Y-20783371D01*
X34821957Y-20585823D01*
X34703163Y-20408034D01*
X34551966Y-20256837D01*
X34374177Y-20138043D01*
X34186974Y-20060500D01*
X36087340Y-20060500D01*
X35982587Y-20092277D01*
X35982587Y-20092277D01*
G37*
X35982587Y-20092277D02*
X35794011Y-20193073D01*
X35628722Y-20328722D01*
X35493073Y-20494011D01*
X35392277Y-20682587D01*
X35330206Y-20887205D01*
X35309248Y-21100000D01*
X35330206Y-21312795D01*
X35392277Y-21517413D01*
X35493073Y-21705989D01*
X35628722Y-21871278D01*
X35794011Y-22006927D01*
X35982587Y-22107723D01*
X36187205Y-22169794D01*
X36346674Y-22185500D01*
X36453326Y-22185500D01*
X36612795Y-22169794D01*
X36817413Y-22107723D01*
X37005989Y-22006927D01*
X37171278Y-21871278D01*
X37306927Y-21705989D01*
X37407723Y-21517413D01*
X37469794Y-21312795D01*
X37490752Y-21100000D01*
X37469794Y-20887205D01*
X37407723Y-20682587D01*
X37306927Y-20494011D01*
X37171278Y-20328722D01*
X37005989Y-20193073D01*
X36817413Y-20092277D01*
X36712660Y-20060500D01*
X38627340Y-20060500D01*
X38522587Y-20092277D01*
X38334011Y-20193073D01*
X38168722Y-20328722D01*
X38033073Y-20494011D01*
X37932277Y-20682587D01*
X37870206Y-20887205D01*
X37849248Y-21100000D01*
X37870206Y-21312795D01*
X37932277Y-21517413D01*
X38033073Y-21705989D01*
X38168722Y-21871278D01*
X38334011Y-22006927D01*
X38522587Y-22107723D01*
X38727205Y-22169794D01*
X38886674Y-22185500D01*
X38993326Y-22185500D01*
X39152795Y-22169794D01*
X39357413Y-22107723D01*
X39545989Y-22006927D01*
X39711278Y-21871278D01*
X39846927Y-21705989D01*
X39947723Y-21517413D01*
X40009794Y-21312795D01*
X40030752Y-21100000D01*
X40009794Y-20887205D01*
X39947723Y-20682587D01*
X39846927Y-20494011D01*
X39711278Y-20328722D01*
X39545989Y-20193073D01*
X39357413Y-20092277D01*
X39252660Y-20060500D01*
X41167340Y-20060500D01*
X41062587Y-20092277D01*
X40874011Y-20193073D01*
X40708722Y-20328722D01*
X40573073Y-20494011D01*
X40472277Y-20682587D01*
X40410206Y-20887205D01*
X40389248Y-21100000D01*
X40410206Y-21312795D01*
X40472277Y-21517413D01*
X40573073Y-21705989D01*
X40708722Y-21871278D01*
X40874011Y-22006927D01*
X41062587Y-22107723D01*
X41267205Y-22169794D01*
X41426674Y-22185500D01*
X41533326Y-22185500D01*
X41692795Y-22169794D01*
X41897413Y-22107723D01*
X42085989Y-22006927D01*
X42251278Y-21871278D01*
X42386927Y-21705989D01*
X42487723Y-21517413D01*
X42549794Y-21312795D01*
X42570752Y-21100000D01*
X42549794Y-20887205D01*
X42487723Y-20682587D01*
X42386927Y-20494011D01*
X42251278Y-20328722D01*
X42085989Y-20193073D01*
X41897413Y-20092277D01*
X41792660Y-20060500D01*
X43707340Y-20060500D01*
X43602587Y-20092277D01*
X43414011Y-20193073D01*
X43248722Y-20328722D01*
X43113073Y-20494011D01*
X43012277Y-20682587D01*
X42950206Y-20887205D01*
X42929248Y-21100000D01*
X42950206Y-21312795D01*
X43012277Y-21517413D01*
X43113073Y-21705989D01*
X43248722Y-21871278D01*
X43414011Y-22006927D01*
X43602587Y-22107723D01*
X43807205Y-22169794D01*
X43966674Y-22185500D01*
X44073326Y-22185500D01*
X44232795Y-22169794D01*
X44437413Y-22107723D01*
X44625989Y-22006927D01*
X44791278Y-21871278D01*
X44926927Y-21705989D01*
X45027723Y-21517413D01*
X45089794Y-21312795D01*
X45110752Y-21100000D01*
X45089794Y-20887205D01*
X45027723Y-20682587D01*
X44926927Y-20494011D01*
X44791278Y-20328722D01*
X44625989Y-20193073D01*
X44437413Y-20092277D01*
X44332660Y-20060500D01*
X46247340Y-20060500D01*
X46142587Y-20092277D01*
X45954011Y-20193073D01*
X45788722Y-20328722D01*
X45653073Y-20494011D01*
X45552277Y-20682587D01*
X45490206Y-20887205D01*
X45469248Y-21100000D01*
X45490206Y-21312795D01*
X45552277Y-21517413D01*
X45653073Y-21705989D01*
X45788722Y-21871278D01*
X45954011Y-22006927D01*
X46142587Y-22107723D01*
X46347205Y-22169794D01*
X46506674Y-22185500D01*
X46613326Y-22185500D01*
X46772795Y-22169794D01*
X46977413Y-22107723D01*
X47165989Y-22006927D01*
X47331278Y-21871278D01*
X47466927Y-21705989D01*
X47567723Y-21517413D01*
X47629794Y-21312795D01*
X47650752Y-21100000D01*
X47629794Y-20887205D01*
X47567723Y-20682587D01*
X47466927Y-20494011D01*
X47331278Y-20328722D01*
X47165989Y-20193073D01*
X46977413Y-20092277D01*
X46872660Y-20060500D01*
X48787340Y-20060500D01*
X48682587Y-20092277D01*
X48494011Y-20193073D01*
X48328722Y-20328722D01*
X48193073Y-20494011D01*
X48092277Y-20682587D01*
X48030206Y-20887205D01*
X48009248Y-21100000D01*
X48030206Y-21312795D01*
X48092277Y-21517413D01*
X48193073Y-21705989D01*
X48328722Y-21871278D01*
X48494011Y-22006927D01*
X48682587Y-22107723D01*
X48887205Y-22169794D01*
X49046674Y-22185500D01*
X49153326Y-22185500D01*
X49312795Y-22169794D01*
X49517413Y-22107723D01*
X49705989Y-22006927D01*
X49871278Y-21871278D01*
X50006927Y-21705989D01*
X50107723Y-21517413D01*
X50169794Y-21312795D01*
X50190752Y-21100000D01*
X50169794Y-20887205D01*
X50107723Y-20682587D01*
X50006927Y-20494011D01*
X49871278Y-20328722D01*
X49705989Y-20193073D01*
X49517413Y-20092277D01*
X49412660Y-20060500D01*
X51327340Y-20060500D01*
X51222587Y-20092277D01*
X51034011Y-20193073D01*
X50868722Y-20328722D01*
X50733073Y-20494011D01*
X50632277Y-20682587D01*
X50570206Y-20887205D01*
X50549248Y-21100000D01*
X50570206Y-21312795D01*
X50632277Y-21517413D01*
X50733073Y-21705989D01*
X50868722Y-21871278D01*
X50964500Y-21949881D01*
X50964501Y-22524500D01*
X42161391Y-22524500D01*
X42139999Y-22522393D01*
X42118608Y-22524500D01*
X42118606Y-22524500D01*
X42054627Y-22530801D01*
X41972535Y-22555704D01*
X41941625Y-22572226D01*
X41896878Y-22596143D01*
X41863543Y-22623501D01*
X41830565Y-22650565D01*
X41816927Y-22667183D01*
X40877188Y-23606923D01*
X40860565Y-23620565D01*
X40837166Y-23649078D01*
X40806143Y-23686879D01*
X40779332Y-23737040D01*
X40765704Y-23762536D01*
X40740801Y-23844628D01*
X40735927Y-23894119D01*
X40732393Y-23930000D01*
X40734500Y-23951392D01*
X40734501Y-25596100D01*
X40732393Y-25617501D01*
X40740802Y-25702874D01*
X40765704Y-25784965D01*
X40806143Y-25860622D01*
X40833360Y-25893785D01*
X40860566Y-25926936D01*
X40877183Y-25940573D01*
X41588361Y-26651752D01*
X41588361Y-26966251D01*
X41597111Y-27055093D01*
X41623025Y-27140521D01*
X41665108Y-27219252D01*
X41721741Y-27288260D01*
X41790749Y-27344893D01*
X41869480Y-27386976D01*
X41954908Y-27412890D01*
X42043750Y-27421640D01*
X42556250Y-27421640D01*
X42645092Y-27412890D01*
X42730520Y-27386976D01*
X42809251Y-27344893D01*
X42878259Y-27288260D01*
X42934892Y-27219252D01*
X42976975Y-27140521D01*
X43002889Y-27055093D01*
X43007281Y-27010500D01*
X43181355Y-27010500D01*
X43225195Y-27046479D01*
X43292040Y-27082208D01*
X43364570Y-27104210D01*
X43440000Y-27111639D01*
X45090000Y-27111639D01*
X45165430Y-27104210D01*
X45237960Y-27082208D01*
X45304805Y-27046479D01*
X45363395Y-26998395D01*
X45411479Y-26939805D01*
X45447208Y-26872960D01*
X45469210Y-26800430D01*
X45476639Y-26725000D01*
X45476639Y-26425000D01*
X45469210Y-26349570D01*
X45447208Y-26277040D01*
X45411479Y-26210195D01*
X45363395Y-26151605D01*
X45304805Y-26103521D01*
X45237960Y-26067792D01*
X45165430Y-26045790D01*
X45090000Y-26038361D01*
X43440000Y-26038361D01*
X43364570Y-26045790D01*
X43292040Y-26067792D01*
X43225195Y-26103521D01*
X43181355Y-26139500D01*
X42789403Y-26139500D01*
X42730520Y-26108026D01*
X42645092Y-26082112D01*
X42556250Y-26073362D01*
X42241751Y-26073362D01*
X42055881Y-25887493D01*
X42124500Y-25818874D01*
X42124500Y-25347999D01*
X42475500Y-25347999D01*
X42475500Y-25818874D01*
X42545125Y-25888499D01*
X42802430Y-25888499D01*
X42856235Y-25877796D01*
X42906919Y-25856803D01*
X42952533Y-25826324D01*
X42991325Y-25787533D01*
X43021803Y-25741918D01*
X43033535Y-25713595D01*
X43043196Y-25736919D01*
X43073675Y-25782533D01*
X43112466Y-25821325D01*
X43158081Y-25851803D01*
X43208764Y-25872797D01*
X43262570Y-25883500D01*
X44019875Y-25883500D01*
X44089500Y-25813875D01*
X44089500Y-25455000D01*
X44440500Y-25455000D01*
X44440500Y-25813875D01*
X44510125Y-25883500D01*
X45267430Y-25883500D01*
X45321236Y-25872797D01*
X45371919Y-25851803D01*
X45417534Y-25821325D01*
X45456325Y-25782533D01*
X45486804Y-25736919D01*
X45507797Y-25686235D01*
X45518500Y-25632430D01*
X45518500Y-25524625D01*
X45448875Y-25455000D01*
X44440500Y-25455000D01*
X44089500Y-25455000D01*
X43081125Y-25455000D01*
X43053500Y-25482625D01*
X43053500Y-25417624D01*
X42983875Y-25347999D01*
X42475500Y-25347999D01*
X42124500Y-25347999D01*
X42104500Y-25347999D01*
X42104500Y-24996999D01*
X42124500Y-24996999D01*
X42124500Y-24526124D01*
X42475500Y-24526124D01*
X42475500Y-24996999D01*
X42983875Y-24996999D01*
X43013535Y-24967339D01*
X43011500Y-24977570D01*
X43011500Y-25085375D01*
X43081125Y-25155000D01*
X44089500Y-25155000D01*
X44089500Y-24796125D01*
X44440500Y-24796125D01*
X44440500Y-25155000D01*
X45448875Y-25155000D01*
X45518500Y-25085375D01*
X45518500Y-24977570D01*
X45507797Y-24923765D01*
X45486804Y-24873081D01*
X45456325Y-24827467D01*
X45417534Y-24788675D01*
X45371919Y-24758197D01*
X45321236Y-24737203D01*
X45267430Y-24726500D01*
X44510125Y-24726500D01*
X44440500Y-24796125D01*
X44089500Y-24796125D01*
X44019875Y-24726500D01*
X43262570Y-24726500D01*
X43208764Y-24737203D01*
X43158081Y-24758197D01*
X43112466Y-24788675D01*
X43073675Y-24827467D01*
X43053500Y-24857660D01*
X43053500Y-24707569D01*
X43042797Y-24653763D01*
X43021803Y-24603080D01*
X42991325Y-24557465D01*
X42952533Y-24518674D01*
X42906919Y-24488195D01*
X42856235Y-24467202D01*
X42802430Y-24456499D01*
X42545125Y-24456499D01*
X42475500Y-24526124D01*
X42124500Y-24526124D01*
X42054875Y-24456499D01*
X41797570Y-24456499D01*
X41743765Y-24467202D01*
X41693081Y-24488195D01*
X41647467Y-24518674D01*
X41608675Y-24557465D01*
X41605500Y-24562217D01*
X41605500Y-24110389D01*
X42320390Y-23395500D01*
X47336000Y-23395500D01*
X47336001Y-26635767D01*
X47308639Y-26654050D01*
X47244000Y-26718689D01*
X47244000Y-24905421D01*
X47245519Y-24890000D01*
X47239456Y-24828445D01*
X47221502Y-24769256D01*
X47192344Y-24714707D01*
X47171947Y-24689853D01*
X47153106Y-24666894D01*
X47141123Y-24657060D01*
X46307944Y-23823882D01*
X46298106Y-23811894D01*
X46250293Y-23772656D01*
X46195744Y-23743498D01*
X46136555Y-23725544D01*
X46090422Y-23721000D01*
X46090421Y-23721000D01*
X46075000Y-23719481D01*
X46059579Y-23721000D01*
X45438635Y-23721000D01*
X45411479Y-23670195D01*
X45363395Y-23611605D01*
X45304805Y-23563521D01*
X45237960Y-23527792D01*
X45165430Y-23505790D01*
X45090000Y-23498361D01*
X43440000Y-23498361D01*
X43364570Y-23505790D01*
X43292040Y-23527792D01*
X43225195Y-23563521D01*
X43166605Y-23611605D01*
X43118521Y-23670195D01*
X43082792Y-23737040D01*
X43060790Y-23809570D01*
X43053361Y-23885000D01*
X43053361Y-24185000D01*
X43060790Y-24260430D01*
X43082792Y-24332960D01*
X43118521Y-24399805D01*
X43166605Y-24458395D01*
X43225195Y-24506479D01*
X43292040Y-24542208D01*
X43364570Y-24564210D01*
X43440000Y-24571639D01*
X45090000Y-24571639D01*
X45165430Y-24564210D01*
X45237960Y-24542208D01*
X45304805Y-24506479D01*
X45363395Y-24458395D01*
X45411479Y-24399805D01*
X45438635Y-24349000D01*
X45944938Y-24349000D01*
X46616001Y-25020064D01*
X46616000Y-27414578D01*
X46614481Y-27430000D01*
X46616000Y-27445421D01*
X46620544Y-27491554D01*
X46638498Y-27550743D01*
X46667656Y-27605292D01*
X46706894Y-27653106D01*
X46718882Y-27662944D01*
X47655437Y-28599500D01*
X39276890Y-28599500D01*
X39037572Y-28576034D01*
X38819292Y-28510132D01*
X38617975Y-28403090D01*
X38441277Y-28258978D01*
X38295939Y-28083294D01*
X38187495Y-27882730D01*
X38120070Y-27664916D01*
X38094959Y-27425998D01*
X38094959Y-24822487D01*
X38093789Y-24810613D01*
X38093852Y-24801686D01*
X38093497Y-24798067D01*
X38064324Y-24520502D01*
X38059577Y-24497376D01*
X38055153Y-24474181D01*
X38054101Y-24470699D01*
X37971571Y-24204087D01*
X37962414Y-24182303D01*
X37953577Y-24160430D01*
X37951870Y-24157219D01*
X37819125Y-23911715D01*
X37805925Y-23892144D01*
X37792995Y-23872385D01*
X37790696Y-23869566D01*
X37612795Y-23654520D01*
X37596020Y-23637862D01*
X37579522Y-23621014D01*
X37576725Y-23618701D01*
X37576720Y-23618696D01*
X37576715Y-23618692D01*
X37360437Y-23442301D01*
X37340791Y-23429248D01*
X37321290Y-23415895D01*
X37318091Y-23414166D01*
X37071666Y-23283140D01*
X37049807Y-23274130D01*
X37028137Y-23264842D01*
X37024662Y-23263766D01*
X36757481Y-23183099D01*
X36734308Y-23178511D01*
X36711226Y-23173604D01*
X36707609Y-23173224D01*
X36429847Y-23145989D01*
X36429838Y-23145989D01*
X36417218Y-23144746D01*
X33332743Y-23144746D01*
X33217393Y-23133436D01*
X33118701Y-23103639D01*
X33027669Y-23055236D01*
X32947779Y-22990080D01*
X32882061Y-22910640D01*
X32833024Y-22819949D01*
X32802539Y-22721467D01*
X32790500Y-22606926D01*
X32790500Y-21287350D01*
X32816215Y-21416629D01*
X32898043Y-21614177D01*
X33016837Y-21791966D01*
X33168034Y-21943163D01*
X33345823Y-22061957D01*
X33543371Y-22143785D01*
X33546001Y-22144308D01*
X33546001Y-22286650D01*
X33544481Y-22302081D01*
X33550544Y-22363635D01*
X33568499Y-22422825D01*
X33593898Y-22470341D01*
X33597657Y-22477374D01*
X33636895Y-22525187D01*
X33648877Y-22535020D01*
X34084979Y-22971123D01*
X34094813Y-22983106D01*
X34142626Y-23022344D01*
X34197175Y-23051502D01*
X34256364Y-23069456D01*
X34302497Y-23074000D01*
X34302499Y-23074000D01*
X34317918Y-23075519D01*
X34333337Y-23074000D01*
X38059938Y-23074000D01*
X39726000Y-24740063D01*
X39726001Y-27204568D01*
X39724481Y-27220000D01*
X39730544Y-27281554D01*
X39748499Y-27340744D01*
X39774828Y-27390000D01*
X39777657Y-27395293D01*
X39816895Y-27443106D01*
X39828877Y-27452939D01*
X40432060Y-28056123D01*
X40441894Y-28068106D01*
X40489707Y-28107344D01*
X40544256Y-28136502D01*
X40603445Y-28154456D01*
X40649578Y-28159000D01*
X40649580Y-28159000D01*
X40664999Y-28160519D01*
X40680418Y-28159000D01*
X43091365Y-28159000D01*
X43118521Y-28209805D01*
X43166605Y-28268395D01*
X43225195Y-28316479D01*
X43292040Y-28352208D01*
X43364570Y-28374210D01*
X43440000Y-28381639D01*
X45090000Y-28381639D01*
X45165430Y-28374210D01*
X45237960Y-28352208D01*
X45304805Y-28316479D01*
X45363395Y-28268395D01*
X45411479Y-28209805D01*
X45447208Y-28142960D01*
X45469210Y-28070430D01*
X45476639Y-27995000D01*
X45476639Y-27695000D01*
X45469210Y-27619570D01*
X45447208Y-27547040D01*
X45411479Y-27480195D01*
X45363395Y-27421605D01*
X45304805Y-27373521D01*
X45237960Y-27337792D01*
X45165430Y-27315790D01*
X45090000Y-27308361D01*
X43440000Y-27308361D01*
X43364570Y-27315790D01*
X43292040Y-27337792D01*
X43225195Y-27373521D01*
X43166605Y-27421605D01*
X43118521Y-27480195D01*
X43091365Y-27531000D01*
X40795063Y-27531000D01*
X40354000Y-27089938D01*
X40354000Y-24625421D01*
X40355519Y-24609999D01*
X40349456Y-24548445D01*
X40345135Y-24534199D01*
X40331502Y-24489256D01*
X40302344Y-24434707D01*
X40263106Y-24386894D01*
X40251125Y-24377062D01*
X38422944Y-22548882D01*
X38413106Y-22536894D01*
X38365293Y-22497656D01*
X38310744Y-22468498D01*
X38251555Y-22450544D01*
X38205422Y-22446000D01*
X38205421Y-22446000D01*
X38190000Y-22444481D01*
X38174579Y-22446000D01*
X34447982Y-22446000D01*
X34174000Y-22172019D01*
X34174000Y-22144308D01*
X34176629Y-22143785D01*
X34374177Y-22061957D01*
X34551966Y-21943163D01*
X34703163Y-21791966D01*
X34821957Y-21614177D01*
X34903785Y-21416629D01*
X34945500Y-21206912D01*
X34945500Y-20993088D01*
X34903785Y-20783371D01*
X34821957Y-20585823D01*
X34703163Y-20408034D01*
X34551966Y-20256837D01*
X34374177Y-20138043D01*
X34186974Y-20060500D01*
X36087340Y-20060500D01*
X35982587Y-20092277D01*
G04 #@! TD*
M02*
